<svg xmlns="http://www.w3.org/2000/svg" width="32" height="32" fill="none" viewBox="0 0 32 32"><path fill="#FFE81C" d="M13.9215 0.557458C15.2077 -0.185819 16.7923 -0.185819 18.0784 0.557458L28.3216 6.47699C29.6077 7.22027 30.4 8.5939 30.4 10.0805V21.9195C30.4 23.4061 29.6077 24.7797 28.3216 25.523L18.0784 31.4426C16.7923 32.1858 15.2077 32.1858 13.9215 31.4426L3.67844 25.523C2.39228 24.7797 1.59998 23.4061 1.59998 21.9195V10.0805C1.59998 8.5939 2.39228 7.22027 3.67844 6.47699L13.9215 0.557458Z"/><path fill="#000" d="M15.9968 19.3408L21.256 16.1618L15.9968 13.7209L10.744 16.1618L15.9968 19.3408Z" opacity=".6"/><path fill="#000" d="M15.9968 13.7209V7.23999L10.744 16.1619L15.9968 19.3408V13.7209Z" opacity=".45"/><path fill="#000" d="M15.9968 19.3408L21.256 16.1619L15.9968 7.23999V13.7209V19.3408Z" opacity=".8"/><path fill="#000" d="M15.9968 20.3573L10.744 17.1848L15.9968 24.76V20.3573Z" opacity=".45"/><path fill="#000" d="M21.256 17.1848L15.9968 20.3573V24.76L21.256 17.1848Z" opacity=".8"/></svg>