<svg xmlns="http://www.w3.org/2000/svg" xmlns:svg="http://www.w3.org/2000/svg" id="svg1246" width="755.906" height="755.906" data-ember-extension="1" version="1.1" viewBox="0 0 755.906 755.906" style="fill:none"><metadata id="metadata111"/><g id="g1436" transform="scale(12.598425)"><rect id="rect1038" width="5" height="5" x="15" y="25" transform="rotate(180,15,25)" style="fill:#fed955"/><rect id="rect1040" width="5" height="5" x="15" y="35" transform="rotate(180,15,35)" style="fill:#fed955"/><rect id="rect1042" width="5" height="5" x="15" y="30" transform="rotate(180,15,30)" style="fill:#fed955"/><rect id="rect1044" width="5" height="5" x="15" y="40" transform="rotate(180,15,40)" style="fill:#fed955"/><rect id="rect1046" width="5" height="5" x="35" y="15" transform="rotate(180,35,15)" style="fill:#fed955"/><rect id="rect1048" width="5" height="5" x="0" y="0" transform="matrix(-1,8.74226e-8,8.7423e-8,1,35,45)" style="fill:#fed955"/><rect id="rect1050" width="5" height="5" x="40" y="15" transform="rotate(180,40,15)" style="fill:#fed955"/><rect id="rect1052" width="5" height="5" x="45" y="15" transform="rotate(180,45,15)" style="fill:#9695f8"/><rect id="rect1054" width="5" height="5" x="0" y="0" transform="matrix(1,-8.74226e-8,-8.7423e-8,-1,15,15)" style="fill:#9695f8"/><rect id="rect1056" width="5" height="5" x="0" y="0" transform="matrix(1,-8.74226e-8,-8.7423e-8,-1,45,45)" style="fill:#9695f8"/><rect id="rect1058" width="5" height="5" x="15" y="45" transform="rotate(180,15,45)" style="fill:#9695f8"/><rect id="rect1060" width="5" height="5" x="40" y="10" transform="rotate(180,40,10)" style="fill:#9695f8"/><rect id="rect1062" width="5" height="5" x="40" y="5" transform="rotate(180,40,5)" style="fill:#5552fd"/><rect id="rect1064" width="5" height="5" x="40" y="60" transform="rotate(180,40,60)" style="fill:#5552fd"/><rect id="rect1066" width="5" height="5" x="40" y="55" transform="rotate(180,40,55)" style="fill:#9695f8"/><rect id="rect1068" width="5" height="5" x="30" y="10" transform="rotate(180,30,10)" style="fill:#9695f8"/><rect id="rect1070" width="5" height="5" x="30" y="5" transform="rotate(180,30,5)" style="fill:#5552fd"/><rect id="rect1072" width="5" height="5" x="30" y="60" transform="rotate(180,30,60)" style="fill:#5552fd"/><rect id="rect1074" width="5" height="5" x="30" y="55" transform="rotate(180,30,55)" style="fill:#9695f8"/><rect id="rect1076" width="5" height="5" x="35" y="10" transform="rotate(180,35,10)" style="fill:#9695f8"/><rect id="rect1078" width="5" height="5" x="35" y="5" transform="rotate(180,35,5)" style="fill:#5552fd"/><rect id="rect1080" width="5" height="5" x="35" y="60" transform="rotate(180,35,60)" style="fill:#5552fd"/><rect id="rect1082" width="5" height="5" x="35" y="55" transform="rotate(180,35,55)" style="fill:#9695f8"/><rect id="rect1084" width="5" height="5" x="25" y="10" transform="rotate(180,25,10)" style="fill:#9695f8"/><rect id="rect1086" width="5" height="5" x="25" y="5" transform="rotate(180,25,5)" style="fill:#5552fd"/><rect id="rect1088" width="5" height="5" x="25" y="60" transform="rotate(180,25,60)" style="fill:#5552fd"/><rect id="rect1090" width="5" height="5" x="25" y="55" transform="rotate(180,25,55)" style="fill:#9695f8"/><rect id="rect1092" width="5" height="5" x="50" y="20" transform="rotate(180,50,20)" style="fill:#9695f8"/><rect id="rect1094" width="5" height="5" x="0" y="0" transform="matrix(1,-8.74226e-8,-8.7423e-8,-1,10,20)" style="fill:#9695f8"/><rect id="rect1096" width="5" height="5" x="0" y="0" transform="matrix(1,-8.74226e-8,-8.7423e-8,-1,40,50)" style="fill:#9695f8"/><rect id="rect1098" width="5" height="5" x="20" y="50" transform="rotate(180,20,50)" style="fill:#9695f8"/><rect id="rect1100" width="5" height="5" x="55" y="25" transform="rotate(180,55,25)" style="fill:#9695f8"/><rect id="rect1102" width="5" height="5" x="10" y="25" transform="rotate(180,10,25)" style="fill:#9695f8"/><rect id="rect1104" width="5" height="5" x="5" y="25" transform="rotate(180,5,25)" style="fill:#5552fd"/><rect id="rect1106" width="5" height="5" x="10" y="20" transform="rotate(180,10,20)" style="fill:#5552fd"/><rect id="rect1108" width="5" height="5" x="0" y="0" transform="matrix(1,-8.74226e-8,-8.7423e-8,-1,50,20)" style="fill:#5552fd"/><rect id="rect1110" width="5" height="5" x="45" y="55" transform="rotate(180,45,55)" style="fill:#5552fd"/><rect id="rect1112" width="5" height="5" x="5" y="45" transform="rotate(-90,5,45)" style="fill:#5552fd"/><rect id="rect1114" width="5" height="5" x="15" y="15" transform="rotate(180,15,15)" style="fill:#5552fd"/><rect id="rect1116" width="5" height="5" x="0" y="0" transform="matrix(1,-8.74226e-8,-8.7423e-8,-1,45,15)" style="fill:#5552fd"/><rect id="rect1118" width="5" height="5" x="50" y="50" transform="rotate(180,50,50)" style="fill:#5552fd"/><rect id="rect1120" width="5" height="5" x="10" y="50" transform="rotate(-90,10,50)" style="fill:#5552fd"/><rect id="rect1122" width="5" height="5" x="20" y="10" transform="rotate(180,20,10)" style="fill:#5552fd"/><rect id="rect1124" width="5" height="5" x="0" y="0" transform="matrix(1,-8.74226e-8,-8.7423e-8,-1,40,10)" style="fill:#5552fd"/><rect id="rect1126" width="5" height="5" x="55" y="45" transform="rotate(180,55,45)" style="fill:#5552fd"/><rect id="rect1128" width="5" height="5" x="15" y="55" transform="rotate(-90,15,55)" style="fill:#5552fd"/><rect id="rect1130" width="5" height="5" x="60" y="25" transform="rotate(180,60,25)" style="fill:#5552fd"/><rect id="rect1132" width="5" height="5" x="55" y="30" transform="rotate(180,55,30)" style="fill:#9695f8"/><rect id="rect1134" width="5" height="5" x="10" y="30" transform="rotate(180,10,30)" style="fill:#9695f8"/><rect id="rect1136" width="5" height="5" x="5" y="30" transform="rotate(180,5,30)" style="fill:#5552fd"/><rect id="rect1138" width="5" height="5" x="60" y="30" transform="rotate(180,60,30)" style="fill:#5552fd"/><rect id="rect1140" width="5" height="5" x="55" y="35" transform="rotate(180,55,35)" style="fill:#9695f8"/><rect id="rect1142" width="5" height="5" x="10" y="35" transform="rotate(180,10,35)" style="fill:#9695f8"/><rect id="rect1144" width="5" height="5" x="5" y="35" transform="rotate(180,5,35)" style="fill:#5552fd"/><rect id="rect1146" width="5" height="5" x="60" y="35" transform="rotate(180,60,35)" style="fill:#5552fd"/><rect id="rect1148" width="5" height="5" x="55" y="40" transform="rotate(180,55,40)" style="fill:#9695f8"/><rect id="rect1150" width="5" height="5" x="10" y="40" transform="rotate(180,10,40)" style="fill:#9695f8"/><rect id="rect1152" width="5" height="5" x="5" y="40" transform="rotate(180,5,40)" style="fill:#5552fd"/><rect id="rect1154" width="5" height="5" x="60" y="40" transform="rotate(180,60,40)" style="fill:#5552fd"/><rect id="rect1156" width="5" height="5" x="0" y="0" transform="matrix(-1,8.74226e-8,8.7423e-8,1,40,45)" style="fill:#fed955"/><rect id="rect1158" width="5" height="5" x="35" y="25" transform="rotate(180,35,25)" style="fill:#fed955"/><rect id="rect1160" width="5" height="5" x="35" y="35" transform="rotate(180,35,35)" style="fill:#fed955"/><rect id="rect1162" width="5" height="5" x="35" y="40" transform="rotate(180,35,40)" style="fill:#fed955"/><rect id="rect1164" width="5" height="5" x="35" y="20" transform="rotate(180,35,20)" style="fill:#fed955"/><rect id="rect1166" width="5" height="5" x="0" y="0" transform="matrix(-1,8.74226e-8,8.74229e-8,1,35,40)" style="fill:#fed955"/><rect id="rect1168" width="5" height="5" x="25" y="35" transform="rotate(180,25,35)" style="fill:#fed955"/><rect id="rect1170" width="5" height="5" x="25" y="30" transform="rotate(180,25,30)" style="fill:#fed955"/><rect id="rect1172" width="5" height="5" x="25" y="40" transform="rotate(180,25,40)" style="fill:#fed955"/><rect id="rect1174" width="5" height="5" x="25" y="20" transform="rotate(180,25,20)" style="fill:#fed955"/><rect id="rect1176" width="5" height="5" x="0" y="0" transform="matrix(-1,8.74226e-8,8.74229e-8,1,25,40)" style="fill:#fed955"/><rect id="rect1178" width="5" height="5" x="40" y="35" transform="rotate(180,40,35)" style="fill:#fed955"/><rect id="rect1180" width="5" height="5" x="40" y="30" transform="rotate(180,40,30)" style="fill:#fed955"/><rect id="rect1182" width="5" height="5" x="40" y="40" transform="rotate(180,40,40)" style="fill:#fed955"/><rect id="rect1184" width="5" height="5" x="40" y="20" transform="rotate(180,40,20)" style="fill:#fed955"/><rect id="rect1186" width="5" height="5" x="0" y="0" transform="matrix(-1,8.74226e-8,8.74229e-8,1,40,40)" style="fill:#fed955"/><rect id="rect1188" width="5" height="5" x="30" y="15" transform="rotate(180,30,15)" style="fill:#fed955"/><rect id="rect1190" width="5" height="5" x="0" y="0" transform="matrix(-1,8.74226e-8,8.7423e-8,1,30,45)" style="fill:#fed955"/><rect id="rect1192" width="5" height="5" x="25" y="15" transform="rotate(180,25,15)" style="fill:#fed955"/><rect id="rect1194" width="5" height="5" x="0" y="0" transform="matrix(-1,8.74226e-8,8.7423e-8,1,25,45)" style="fill:#fed955"/><rect id="rect1196" width="5" height="5" x="30" y="25" transform="rotate(180,30,25)" style="fill:#fed955"/><rect id="rect1198" width="5" height="5" x="30" y="35" transform="rotate(180,30,35)" style="fill:#fed955"/><rect id="rect1200" width="5" height="5" x="25" y="25" transform="rotate(180,25,25)" style="fill:#5552fd"/><rect id="rect1202" width="5" height="5" x="35" y="30" transform="rotate(180,35,30)" style="fill:#5552fd"/><rect id="rect1204" width="5" height="5" x="45" y="25" transform="rotate(180,45,25)" style="fill:#5552fd"/><rect id="rect1206" width="5" height="5" x="45" y="35" transform="rotate(180,45,35)" style="fill:#5552fd"/><rect id="rect1208" width="5" height="5" x="45" y="30" transform="rotate(180,45,30)" style="fill:#5552fd"/><rect id="rect1210" width="5" height="5" x="45" y="40" transform="rotate(180,45,40)" style="fill:#5552fd"/><rect id="rect1212" width="5" height="5" x="45" y="20" transform="rotate(180,45,20)" style="fill:#5552fd"/><rect id="rect1214" width="5" height="5" x="0" y="0" transform="matrix(-1,8.74226e-8,8.74229e-8,1,45,40)" style="fill:#5552fd"/><rect id="rect1216" width="5" height="5" x="20" y="25" transform="rotate(180,20,25)" style="fill:#5552fd"/><rect id="rect1218" width="5" height="5" x="20" y="35" transform="rotate(180,20,35)" style="fill:#5552fd"/><rect id="rect1220" width="5" height="5" x="20" y="30" transform="rotate(180,20,30)" style="fill:#5552fd"/><rect id="rect1222" width="5" height="5" x="20" y="40" transform="rotate(180,20,40)" style="fill:#5552fd"/><rect id="rect1224" width="5" height="5" x="20" y="20" transform="rotate(180,20,20)" style="fill:#5552fd"/><rect id="rect1226" width="5" height="5" x="0" y="0" transform="matrix(-1,8.74226e-8,8.74229e-8,1,20,40)" style="fill:#5552fd"/><rect id="rect1228" width="5" height="5" x="40" y="25" transform="rotate(180,40,25)" style="fill:#5552fd"/><rect id="rect1230" width="5" height="5" x="30" y="30" transform="rotate(180,30,30)" style="fill:#5552fd"/><rect id="rect1232" width="5" height="5" x="30" y="40" transform="rotate(180,30,40)" style="fill:#fed955"/><rect id="rect1234" width="5" height="5" x="30" y="20" transform="rotate(180,30,20)" style="fill:#fed955"/><rect id="rect1236" width="5" height="5" x="0" y="0" transform="matrix(-1,8.74226e-8,8.74229e-8,1,30,40)" style="fill:#fed955"/><rect id="rect1238" width="5" height="5" x="50" y="25" transform="rotate(180,50,25)" style="fill:#fed955"/><rect id="rect1240" width="5" height="5" x="50" y="35" transform="rotate(180,50,35)" style="fill:#fed955"/><rect id="rect1242" width="5" height="5" x="50" y="30" transform="rotate(180,50,30)" style="fill:#fed955"/><rect id="rect1244" width="5" height="5" x="50" y="40" transform="rotate(180,50,40)" style="fill:#fed955"/></g></svg>