<svg xmlns="http://www.w3.org/2000/svg" xmlns:svg="http://www.w3.org/2000/svg" id="svg1" width="200mm" height="200mm" version="1.1" viewBox="0 0 200 200" xml:space="preserve"><g id="layer1" transform="translate(-10.076219,-50.208845)"><path id="path1" fill="#000" d="M 102.63382,52.776569 C 25.886466,52.981207 -27.089732,158.2089 61.319135,220.14414 c 5.070491,9.90699 20.530013,14.0965 43.137005,17.22107 16.41326,2.30973 18.53199,-4.6608 15.42521,-14.18415 -6.1743,-18.9268 -21.654494,-28.34432 -49.700327,-23.60373 C -0.04517963,143.01272 61.305079,62.196976 125.51449,80.708714 c 69.01243,19.895426 53.62319,83.474816 21.54866,114.694816 -29.31005,28.53077 -15.60339,51.48875 9.13391,53.33008 30.33613,5.32061 56.67044,-24.39954 46.83125,-47.94209 2.5491,21.98853 -37.39968,50.27084 -52.37386,34.10645 -9.98554,-18.91068 29.81524,-31.36263 42.14234,-67.78708 C 211.83646,110.8551 187.99171,66.898704 118.27938,54.185475 112.97944,53.219332 107.75805,52.76334 102.63424,52.777396 Z M 82.700362,212.13429 c 0.451859,0.003 0.930176,0.0422 1.421309,0.10336 5.234616,0.65112 9.405937,4.9382 9.56014,7.84241 0.07731,1.4519 -0.405144,2.35397 -1.628015,3.21634 -1.222044,0.86238 -3.312252,1.46265 -5.92956,1.13688 -5.23503,-0.65112 -9.405938,-4.94977 -9.56014,-7.85481 -0.07772,-1.45232 0.417545,-2.34157 1.640416,-3.20394 0.916534,-0.64658 2.30973,-1.15466 4.056394,-1.22783 0.145521,-0.005 0.288561,-0.0132 0.439456,-0.0124 z" style="stroke-width:.413411"/><g id="g2" transform="translate(-173.3811,99.285303)"><path id="path1-4" d="m 269.08966,48.395195 19.94297,5.254919 c 1.39267,0.325665 2.39235,1.547 2.43637,2.976562 0,1.690394 -1.50298,3.086806 -3.35139,3.086806 h -13.08217 c -1.40978,-0.0041 -2.80568,-0.278522 -4.11207,-0.808449 -1.92558,-0.808449 -4.14514,-0.624711 -5.6224,0.734954 l -6.98206,6.430844 c -0.32292,0.28266 -0.60163,0.612154 -0.82682,0.977489 -1.21291,1.989516 -0.57281,4.586229 1.42581,5.784085 3.86665,2.320532 8.19591,3.763202 12.68163,4.225984 v 6.504341 c 0,3.233796 2.87734,5.879629 6.38307,5.879629 h 6.38307 c 3.50941,0 6.38675,-2.645833 6.38675,-5.879629 V 77.095137 C 302.85343,75.77222 312.00728,65.703355 310.41243,53.944095 309.25488,45.492128 302.1589,38.767301 293.30271,36.41545 l -19.94297,-5.254919 c -1.39267,-0.325664 -2.39235,-1.547 -2.43637,-2.976563 0,-1.690393 1.50298,-3.086805 3.35139,-3.086805 h 13.08217 c 1.41472,0.0022 2.8158,0.276673 4.12677,0.808449 1.9219,0.808449 4.14514,0.62471 5.6224,-0.734954 l 6.98206,-6.430845 c 0.31225,-0.276654 0.58107,-0.598743 0.79742,-0.95544 1.22339,-1.989116 0.58946,-4.594205 -1.41111,-5.798784 -3.868,-2.3204939 -8.19845,-3.76314 -12.6853,-4.2259841 V 1.2479151 c 0,-3.2337963 -2.87367,-5.8796296 -6.38307,-5.8796296 h -6.38308 c -3.5094,0 -6.38307,2.6458333 -6.38307,5.8796296 V 7.7155077 C 259.55364,9.0384243 250.38141,19.10729 251.97626,30.866549 c 1.15388,8.451968 8.27191,15.176794 17.1134,17.528646 z" style="fill:#000;stroke-width:.367477"/></g><path id="path2" fill="#000" d="M 102.63382,52.776569 C 25.886466,52.981207 -27.089732,158.2089 61.319135,220.14414 c 5.070491,9.90699 20.530013,14.0965 43.137005,17.22107 16.41326,2.30973 18.53199,-4.6608 15.42521,-14.18415 -6.1743,-18.9268 -21.654494,-28.34432 -49.700327,-23.60373 C -0.04517963,143.01272 61.305079,62.196976 125.51449,80.708714 c 69.01243,19.895426 53.62319,83.474816 21.54866,114.694816 -29.31005,28.53077 -15.60339,51.48875 9.13391,53.33008 30.33613,5.32061 56.67044,-24.39954 46.83125,-47.94209 2.5491,21.98853 -37.39968,50.27084 -52.37386,34.10645 -9.98554,-18.91068 29.81524,-31.36263 42.14234,-67.78708 C 211.83646,110.8551 187.99171,66.898704 118.27938,54.185475 112.97944,53.219332 107.75805,52.76334 102.63424,52.777396 Z M 82.700362,212.13429 c 0.451859,0.003 0.930176,0.0422 1.421309,0.10336 5.234616,0.65112 9.405937,4.9382 9.56014,7.84241 0.07731,1.4519 -0.405144,2.35397 -1.628015,3.21634 -1.222044,0.86238 -3.312252,1.46265 -5.92956,1.13688 -5.23503,-0.65112 -9.405938,-4.94977 -9.56014,-7.85481 -0.07772,-1.45232 0.417545,-2.34157 1.640416,-3.20394 0.916534,-0.64658 2.30973,-1.15466 4.056394,-1.22783 0.145521,-0.005 0.288561,-0.0132 0.439456,-0.0124 z" style="stroke-width:.413411"/></g></svg>