<svg xmlns="http://www.w3.org/2000/svg" width="128" height="128" viewBox="0 0 128 128"><defs><radialGradient id="bg" cx="50%" cy="50%" r="50%"><stop offset="0%" stop-color="#2a1a3e"/><stop offset="100%" stop-color="#0d0d0d"/></radialGradient><radialGradient id="glow" cx="50%" cy="45%" r="40%"><stop offset="0%" stop-color="#fff" stop-opacity=".2"/><stop offset="100%" stop-color="#fff" stop-opacity="0"/></radialGradient><linearGradient id="leaf" x1="0%" x2="100%" y1="0%" y2="100%"><stop offset="0%" stop-color="#6ecf6e"/><stop offset="50%" stop-color="#3d8b3d"/><stop offset="100%" stop-color="#2d6b2d"/></linearGradient></defs><circle cx="64" cy="64" r="64" fill="url(#bg)"/><circle cx="64" cy="64" r="58" fill="none" stroke="#a855f7" stroke-width="3" opacity=".85"/><circle cx="64" cy="48" r="30" fill="url(#glow)"/><g><path fill="url(#leaf)" d="M0,-30 C-5,-18 -4,-8 0,2 C4,-8 5,-18 0,-30Z" transform="translate(64, 50)"/><path fill="url(#leaf)" d="M-2,-2 C-10,-16 -20,-26 -24,-30 C-20,-22 -12,-12 -2,-2Z" transform="translate(64, 50)"/><path fill="url(#leaf)" d="M2,-2 C10,-16 20,-26 24,-30 C20,-22 12,-12 2,-2Z" transform="translate(64, 50)"/><path fill="url(#leaf)" d="M-2,0 C-14,-10 -26,-14 -32,-14 C-24,-10 -14,-6 -2,0Z" transform="translate(64, 50)"/><path fill="url(#leaf)" d="M2,0 C14,-10 26,-14 32,-14 C24,-10 14,-6 2,0Z" transform="translate(64, 50)"/><path fill="url(#leaf)" d="M-1,0 C-10,-2 -22,-2 -26,0 C-20,0 -10,0 -1,0Z" transform="translate(64, 50)"/><path fill="url(#leaf)" d="M1,0 C10,-2 22,-2 26,0 C20,0 10,0 1,0Z" transform="translate(64, 50)"/><path fill="none" stroke="#a855f7" stroke-width=".8" d="M0,-30 C-5,-18 -4,-8 0,2 C4,-8 5,-18 0,-30Z" opacity=".6" transform="translate(64, 50)"/><path fill="none" stroke="#a855f7" stroke-width=".6" d="M-2,-2 C-10,-16 -20,-26 -24,-30" opacity=".5" transform="translate(64, 50)"/><path fill="none" stroke="#a855f7" stroke-width=".6" d="M2,-2 C10,-16 20,-26 24,-30" opacity=".5" transform="translate(64, 50)"/><path fill="none" stroke="#a855f7" stroke-width=".6" d="M-2,0 C-14,-10 -26,-14 -32,-14" opacity=".5" transform="translate(64, 50)"/><path fill="none" stroke="#a855f7" stroke-width=".6" d="M2,0 C14,-10 26,-14 32,-14" opacity=".5" transform="translate(64, 50)"/><path fill="none" stroke="#3d8b3d" stroke-linecap="round" stroke-width="2.5" d="M0,2 C-0.5,8 -0.5,16 0,22" transform="translate(64, 50)"/></g><g transform="translate(64, 20)"><ellipse cx="0" cy="2" fill="#c00" rx="16" ry="5"/><ellipse cx="0" cy="-1" fill="#f4c430" rx="14" ry="5"/><ellipse cx="0" cy="-4" fill="#006b3f" rx="12" ry="5"/><ellipse cx="0" cy="-7" fill="#006b3f" rx="8" ry="4"/></g><text x="64" y="102" fill="#a855f7" font-family="Arial,Helvetica,sans-serif" font-size="24" font-weight="bold" letter-spacing="3" text-anchor="middle">MON</text></svg>