<svg xmlns="http://www.w3.org/2000/svg" xmlns:svg="http://www.w3.org/2000/svg" id="svg3" width="12" height="12" fill="#000" class="text-yellow" version="1.1"><g id="layer1" style="fill:#000;fill-opacity:1"><ellipse style="fill:#000;fill-opacity:1;stroke-width:1.41672" id="path4" cx="6.005" cy="6.007" rx="5.995" ry="5.992"/></g><path id="path1" fill="#e2f063" d="M 7.664,2.979 1.122,9.494 A 6,6 0 1 1 11.185,2.978 h -3.52 z" style="display:inline"/><path id="path2" fill="#e2f063" d="M 8.315,4.582 2.217,10.657 A 6,6 0 0 1 1.751,10.235 L 8.066,3.941 h 3.571 q 0.116,0.316 0.194,0.64 H 8.315 Z m 1.052,2.573 h 2.522 a 6,6 0 0 1 -7.23,4.695 z" style="display:inline"/><path id="path3" fill="#e2f063" d="m 12,6 q 0,0.096 -0.003,0.192 H 8.966 l -5.34,5.32 A 6,6 0 0 1 3.029,11.215 l 5.687,-5.67 h 3.267 Q 12,5.77 12,6" style="display:inline"/></svg>