<svg xmlns="http://www.w3.org/2000/svg" width="240" height="240" fill="none" viewBox="0 0 240 240"><g clip-path="url(#clip0_2_628)"><circle cx="120" cy="120" r="120" fill="#fff"/><rect width="130.24" height="130.24" x="55.466" y="55.38" fill="#E5B839"/><rect width="176" height="88" x="32" y="76.499" fill="#E5B839"/><rect width="22.293" height="88" x="185.706" y="76.499" fill="#CEA236"/><rect width="23.467" height="88" x="32" y="76.499" fill="#F2C041"/><rect width="176" height="85.653" x="77.76" y="207.913" fill="#E5B839" transform="rotate(-90 77.7601 207.913)"/><rect width="21.12" height="21.12" x="77.759" y="143.379" fill="#CEA236"/><rect width="21.12" height="21.12" x="98.876" y="122.259" fill="#CEA236"/><rect width="21.12" height="21.12" x="119.999" y="101.14" fill="#CEA236"/><rect width="21.12" height="63.36" x="141.12" y="80.019" fill="#CEA236"/><rect width="63.36" height="21.12" x="98.876" y="80.019" fill="#CEA236"/><rect width="22.293" height="21.12" x="163.412" y="164.5" fill="#CEA236"/><rect width="22.293" height="21.12" x="55.466" y="55.38" fill="#F2C041"/><rect width="85.653" height="23.467" x="77.76" y="31.913" fill="#F2C041"/><rect width="85.653" height="23.467" x="77.76" y="185.62" fill="#CEA236"/></g><defs><clipPath id="clip0_2_628"><rect width="240" height="240" fill="#fff"/></clipPath></defs></svg>