<svg xmlns="http://www.w3.org/2000/svg" width="600" height="600" fill="none" viewBox="0 0 600 600"><circle cx="300" cy="300" r="300" fill="#8000FF"/><path fill="#fff" d="M453 186H146V241H453V186Z"/><path fill="#fff" d="M327 230H272V351H327V230Z"/><path fill="#fff" d="M228 351L228 399L371 399L371 351L228 351Z"/><path fill="#fff" d="M200 269H146V323H200V269Z"/><path fill="#fff" d="M453 269H399V323H453V269Z"/><path fill="#fff" d="M200 351H146V486H200V351Z"/><path fill="#fff" d="M453 351H399V486H453V351Z"/><path fill="#fff" d="M453 486L453 432L146 432L146 486L453 486Z"/><path fill="#fff" d="M327 78H272V187H327V78Z"/></svg>