<svg xmlns="http://www.w3.org/2000/svg" id="Logo" width="256" height="256" version="1.1" viewBox="0 0 256 256"><defs><style>.st0{fill:#fff}.st1{fill:#2973eb}</style></defs><g stroke-width=".371"><circle cx="127.9" cy="127.9" r="127.9" class="st1"/><path d="m161.27 77.849v-11.118h-22.247v-22.247h-11.118v66.727h-11.118v-11.118h-11.129v-22.247h-11.118v11.118h-11.129v22.247h11.129v11.129h22.247v11.118h11.118v44.48h-22.247v-11.118h-11.118v-11.118h-11.129v22.236h11.129v11.129h33.362v22.247h11.118v-22.247h11.129v-11.129h11.118v-11.118h11.118v-33.362h-11.118v-11.118h-22.247v-44.491h11.129v11.118h11.118v11.129h11.118v-22.247h-11.118zm-22.247 88.974v-22.247h11.129v22.247z" class="st0"/><rect width="11.129" height="11.118" x="105.66" y="66.734" class="st0"/></g></svg>