<svg xmlns="http://www.w3.org/2000/svg" width="600" height="600" fill="none" viewBox="0 0 600 600"><path fill="url(#paint0_radial_440_36)" d="M300 600C465.685 600 600 465.685 600 300C600 134.315 465.685 0 300 0C134.315 0 0 134.315 0 300C0 465.685 134.315 600 300 600Z"/><g><path fill="#fff" d="M39 16H29.0013V19.3327H39V16ZM22.3336 19.3327H19.0007V22.6673H22.3336V19.3327ZM19.0007 36H22.3336V26H19.0007V36ZM25.6664 19.3327V22.6673H29.0013V19.3327H25.6664ZM25.6664 36H29.0013V26H25.6664V36ZM25.6664 16H22.3336V19.3327H25.6664V16ZM9 16V19.3327H19.0007V16H9ZM39 26V22.6673H29.0013V26H39ZM22.3336 22.6673V26H25.6664V22.6673H22.3336ZM9 22.6673V26H19.0007V22.6673H9Z" transform="matrix(12.5,0,0,12.5,0,0)"/></g><defs><radialGradient id="paint0_radial_440_36" cx="0" cy="0" r="1" gradientTransform="translate(196 143.5) rotate(54.1675) scale(497.082)" gradientUnits="userSpaceOnUse"><stop stop-color="#7D00FF"/><stop offset="1" stop-color="#300088"/></radialGradient></defs></svg>