<svg xmlns="http://www.w3.org/2000/svg" xmlns:xlink="http://www.w3.org/1999/xlink" width="128" height="128" fill="none" viewBox="0 0 128 128"><path fill="#FF49A4" d="M128 64C128 99.3462 99.3462 128 64 128C28.6538 128 0 99.3462 0 64C0 28.6538 28.6538 0 64 0C99.3462 0 128 28.6538 128 64Z"/><path fill="url(#paint0_linear_15441_16980)" d="M65.6241 58.0072C76.3039 60.4294 83.0201 65.9345 83.0201 74.8527C83.0201 85.9729 72.8908 92.2487 60.2291 92.2487C48.5584 92.2487 39.1998 86.1931 37.3281 75.9537L51.5312 73.4214C52.1918 78.1557 55.8251 80.5779 60.2291 80.5779C64.8534 80.5779 67.6059 78.486 67.6059 75.6234C67.6059 72.5406 64.6332 71.1092 61.5504 70.4486L54.9443 69.1274C44.815 66.7052 38.2089 61.0901 38.2089 52.0618C38.2089 41.1618 48.5584 34.9961 60.2291 34.9961C71.7898 34.9961 79.8271 41.1618 81.4787 51.5113L67.2756 53.9335C66.7251 49.5294 63.8625 46.887 59.4584 46.887C55.715 46.887 52.7423 48.6486 52.7423 51.7315C52.7423 54.7042 55.1645 56.0254 58.3574 56.686L65.6241 58.0072Z"/><path fill="url(#pattern0_15441_16980)" d="M65.6241 58.0072C76.3039 60.4294 83.0201 65.9345 83.0201 74.8527C83.0201 85.9729 72.8908 92.2487 60.2291 92.2487C48.5584 92.2487 39.1998 86.1931 37.3281 75.9537L51.5312 73.4214C52.1918 78.1557 55.8251 80.5779 60.2291 80.5779C64.8534 80.5779 67.6059 78.486 67.6059 75.6234C67.6059 72.5406 64.6332 71.1092 61.5504 70.4486L54.9443 69.1274C44.815 66.7052 38.2089 61.0901 38.2089 52.0618C38.2089 41.1618 48.5584 34.9961 60.2291 34.9961C71.7898 34.9961 79.8271 41.1618 81.4787 51.5113L67.2756 53.9335C66.7251 49.5294 63.8625 46.887 59.4584 46.887C55.715 46.887 52.7423 48.6486 52.7423 51.7315C52.7423 54.7042 55.1645 56.0254 58.3574 56.686L65.6241 58.0072Z" style="mix-blend-mode:overlay"/><path fill="#fff" d="M65.6241 58.0072C76.3039 60.4294 83.0201 65.9345 83.0201 74.8527C83.0201 85.9729 72.8908 92.2487 60.2291 92.2487C48.5584 92.2487 39.1998 86.1931 37.3281 75.9537L51.5312 73.4214C52.1918 78.1557 55.8251 80.5779 60.2291 80.5779C64.8534 80.5779 67.6059 78.486 67.6059 75.6234C67.6059 72.5406 64.6332 71.1092 61.5504 70.4486L54.9443 69.1274C44.815 66.7052 38.2089 61.0901 38.2089 52.0618C38.2089 41.1618 48.5584 34.9961 60.2291 34.9961C71.7898 34.9961 79.8271 41.1618 81.4787 51.5113L67.2756 53.9335C66.7251 49.5294 63.8625 46.887 59.4584 46.887C55.715 46.887 52.7423 48.6486 52.7423 51.7315C52.7423 54.7042 55.1645 56.0254 58.3574 56.686L65.6241 58.0072Z"/><path fill="url(#paint1_linear_15441_16980)" d="M92.3782 83.1641C87.311 83.1641 83.2031 87.2719 83.2031 92.3391H101.553C101.553 87.2719 97.4455 83.1641 92.3782 83.1641Z"/><path fill="url(#pattern1_15441_16980)" d="M92.3782 83.1641C87.311 83.1641 83.2031 87.2719 83.2031 92.3391H101.553C101.553 87.2719 97.4455 83.1641 92.3782 83.1641Z" style="mix-blend-mode:overlay"/><path fill="#fff" d="M92.3782 83.1641C87.311 83.1641 83.2031 87.2719 83.2031 92.3391H101.553C101.553 87.2719 97.4455 83.1641 92.3782 83.1641Z"/><defs><pattern id="pattern0_15441_16980" width="4.397" height="4.397" patternContentUnits="objectBoundingBox"><use transform="scale(0.00429365)" xlink:href="#image0_15441_16980"/></pattern><pattern id="pattern1_15441_16980" width="4.397" height="4.397" patternContentUnits="objectBoundingBox"><use transform="scale(0.00429365)" xlink:href="#image0_15441_16980"/></pattern><linearGradient id="paint0_linear_15441_16980" x1="83.203" x2="101.553" y1="87.752" y2="87.752" gradientUnits="userSpaceOnUse"><stop stop-color="#FF49A4"/><stop offset=".93" stop-color="#B049FF"/></linearGradient><linearGradient id="paint1_linear_15441_16980" x1="83.203" x2="101.553" y1="87.752" y2="87.752" gradientUnits="userSpaceOnUse"><stop stop-color="#FF49A4"/><stop offset=".93" stop-color="#B049FF"/></linearGradient></defs></svg>