<svg xmlns="http://www.w3.org/2000/svg" width="401" height="400" fill="none" viewBox="0 0 401 400"><rect width="387.172" height="386.172" x="6.914" y="6.914" fill="url(#paint0_linear_1039_7458)" rx="193.086"/><rect width="387.172" height="386.172" x="6.914" y="6.914" stroke="url(#paint1_linear_1039_7458)" stroke-width="13.828" rx="193.086"/><path fill="url(#paint2_linear_1039_7458)" stroke="#fff" stroke-width="1.811" d="M151.332 151.218C145.753 180.895 127.759 201.071 103.735 201.071L103.734 254.684C137.653 254.684 145.986 248.616 159.976 229.722C168.239 218.565 181.867 200.879 200.368 200.879V146.861H156.462C153.931 146.861 151.799 148.731 151.332 151.218Z"/><path fill="url(#paint3_linear_1039_7458)" stroke="#fff" stroke-width="1.811" d="M249.403 250.334C254.981 220.658 272.976 200.481 296.999 200.481L297 146.869C263.082 146.869 254.749 152.937 240.758 171.83C232.496 182.988 218.867 200.673 200.366 200.673V254.692H244.272C246.803 254.692 248.935 252.822 249.403 250.334Z"/><defs><linearGradient id="paint0_linear_1039_7458" x1="68" x2="408.288" y1="-109.227" y2="426.705" gradientUnits="userSpaceOnUse"><stop offset=".56"/><stop offset=".98" stop-color="#7E18FF"/></linearGradient><linearGradient id="paint1_linear_1039_7458" x1="-9.218" x2="410.445" y1="54.023" y2="427.477" gradientUnits="userSpaceOnUse"><stop stop-color="#100050"/><stop offset=".297" stop-color="#4A71FF"/><stop offset=".781" stop-color="#470E8E"/></linearGradient><linearGradient id="paint2_linear_1039_7458" x1="152.624" x2="152.624" y1="98.877" y2="307.109" gradientUnits="userSpaceOnUse"><stop offset=".478" stop-color="#fff"/><stop offset="1" stop-color="#7E18FF"/></linearGradient><linearGradient id="paint3_linear_1039_7458" x1="248.111" x2="248.111" y1="94.444" y2="302.676" gradientUnits="userSpaceOnUse"><stop offset=".478" stop-color="#fff"/><stop offset="1" stop-color="#7E18FF"/></linearGradient></defs></svg>