<svg xmlns="http://www.w3.org/2000/svg" width="64" height="64" fill="none" viewBox="0 0 64 64"><rect width="64" height="64" fill="#5A3CE8" rx="32"/><rect width="64" height="64" fill="#020101" rx="32"/><rect width="64" height="64" fill="url(#paint0_linear_582_21)" rx="32"/><path fill="#fff" d="M32.1698 12.8C21.5592 12.8 12.9697 21.3895 12.9697 32.0001C12.9697 42.6107 21.5592 51.2001 32.1698 51.2001C42.7804 51.2001 51.3697 42.6107 51.3697 32.0001C51.3697 21.3895 42.7804 12.8 32.1698 12.8ZM32.1698 47.4689C23.6191 47.4689 16.7009 40.5507 16.7009 32.0001C16.7009 30.5232 17.4394 27.1029 22.7252 27.1029C28.011 27.1029 32.7138 32.2333 39.0492 32.9718C41.1868 33.2439 42.8969 33.2049 44.1795 33.0495C46.0452 32.8162 47.561 34.6042 47.0168 36.4309C45.1123 42.805 39.2046 47.4689 32.1698 47.4689Z"/><path fill="#fff" d="M32.1698 12.8C21.5592 12.8 12.9697 21.3895 12.9697 32.0001C12.9697 42.6107 21.5592 51.2001 32.1698 51.2001C42.7804 51.2001 51.3697 42.6107 51.3697 32.0001C51.3697 21.3895 42.7804 12.8 32.1698 12.8ZM32.1698 47.4689C23.6191 47.4689 16.7009 40.5507 16.7009 32.0001C16.7009 30.5232 17.4394 27.1029 22.7252 27.1029C28.011 27.1029 32.7138 32.2333 39.0492 32.9718C41.1868 33.2439 42.8969 33.2049 44.1795 33.0495C46.0452 32.8162 47.561 34.6042 47.0168 36.4309C45.1123 42.805 39.2046 47.4689 32.1698 47.4689Z"/><defs><linearGradient id="paint0_linear_582_21" x1="-12.182" x2="29.562" y1="32.16" y2="75.041" gradientUnits="userSpaceOnUse"><stop stop-color="#FFE480"/><stop offset=".458" stop-color="#FF43C3"/><stop offset=".98" stop-color="#4156E0"/></linearGradient></defs></svg>