<svg xmlns="http://www.w3.org/2000/svg" xmlns:xlink="http://www.w3.org/1999/xlink" id="Capa_1" width="32" height="32" x="0" style="enable-background:new 0 0 283.46 283.46" y="0" version="1.1" viewBox="0 0 283.46 283.46" xml:space="preserve"><style type="text/css">.st0{fill:#282828}.st2{fill:#ff6702}</style><g><circle cx="141.73" cy="141.73" r="138.57" class="st0"/><path d="M243.77,132.12c-6.3-8.22-15.85-12.93-26.19-12.93H65.89c-10.34,0-19.89,4.71-26.19,12.93 c-6.23,8.12-8.28,18.43-5.64,28.26c5.37,19.98,16.25,38.08,31.44,52.34c21.38,20.05,48.8,30.08,76.23,30.08 c27.42,0,54.86-10.03,76.23-30.08c15.2-14.26,26.07-32.36,31.44-52.34C252.05,150.55,249.99,140.25,243.77,132.12z M68.21,178.15 c-4.75-7.42-8.37-15.52-10.67-24.08c-0.91-3.39,0.52-5.94,1.46-7.16c1.66-2.17,4.18-3.41,6.9-3.41h39.71c2.51,0,3.76,3.03,1.99,4.8 l-30.72,30.72C74.36,181.53,70.12,181.14,68.21,178.15z M129.58,210.93c0,3.55-3.27,6.27-6.74,5.51 c-9.77-2.15-19.23-5.99-27.92-11.53c-3-1.91-3.4-6.16-0.88-8.67l30.74-30.74c1.77-1.77,4.8-0.52,4.8,1.99V210.93z M141.73,155.95 c-7.89,0-14.29-6.4-14.29-14.29s6.4-14.29,14.29-14.29s14.29,6.4,14.29,14.29S149.63,155.95,141.73,155.95z M188.55,204.91 c-8.69,5.53-18.15,9.37-27.92,11.53c-3.47,0.76-6.74-1.96-6.74-5.51v-43.44c0-2.51,3.03-3.76,4.8-1.99l30.74,30.74 C191.95,198.75,191.55,203,188.55,204.91z M225.93,154.08c-2.3,8.56-5.92,16.66-10.67,24.08c-1.92,2.99-6.15,3.38-8.66,0.87 l-30.72-30.72c-1.77-1.77-0.52-4.8,1.99-4.8h39.71c2.72,0,5.23,1.24,6.9,3.41C225.41,148.14,226.84,150.69,225.93,154.08z" class="st2"/></g></svg>