<svg xmlns="http://www.w3.org/2000/svg" xmlns:svg="http://www.w3.org/2000/svg" xmlns:xlink="http://www.w3.org/1999/xlink" id="svg1" width="26.667" height="26.667" fill="none" version="1.1" viewBox="0 0 26.667 26.667"><defs id="defs1"><linearGradient id="linearGradient3"><stop style="stop-color:#003d36;stop-opacity:1" id="stop3" offset="0"/><stop style="stop-color:#000;stop-opacity:.94901961" id="stop5" offset=".5"/><stop style="stop-color:#003d33;stop-opacity:1" id="stop4" offset="1"/></linearGradient><linearGradient id="linearGradient4" x1="-.071" x2="26.425" y1="-4.361" y2="22.265" gradientUnits="userSpaceOnUse" spreadMethod="reflect" xlink:href="#linearGradient3"/><linearGradient id="linearGradient2" x1="-.071" x2="26.425" y1="-4.361" y2="22.265" gradientUnits="userSpaceOnUse" spreadMethod="reflect" xlink:href="#linearGradient3"/></defs><g id="layer1" transform="translate(0.1997576,4.4173245)" style="fill:url(#linearGradient4)"><rect style="fill:url(#linearGradient2);stroke-width:.666739" id="rect1" width="26.667" height="26.667" x="-.2" y="-4.417"/></g><path id="path1" fill="#32ffdc" d="m 21.333333,6.2971885 c 0,-0.532322 -0.4315,-0.963855 -0.9639,-0.963855 h -2.0722 c -0.5324,0 -0.9639,0.431534 -0.9639,0.963856 v 1.721254 c 0,0.25563 -0.1015,0.50079 -0.2823,0.68155 l -1.3149,1.3148795 c -0.1807,0.18076 -0.4259,0.28231 -0.68153,0.28231 h -2.73332 c -0.53232,0 -0.96385,-0.4315295 -0.96385,-0.9638595 v -3.036133 c 0,-0.532323 -0.43154,-0.9638554 -0.96386,-0.9638554 H 6.2971885 c -0.532322,0 -0.963855,0.4315344 -0.963855,0.9638564 v 4.0963815 c 0,0.53233 0.431533,0.96386 0.963856,0.96386 h 3.036144 c 0.53232,0 0.9638595,0.43153 0.9638595,0.96385 v 2.0241 c 0,0.53232 -0.4315395,0.96385 -0.9638595,0.96385 h -3.036138 c -0.532323,0 -0.9638554,0.4315 -0.9638554,0.9639 v 4.0963 c 0,0.5324 0.4315314,0.9639 0.9638544,0.9639 h 4.0963885 c 0.53232,0 0.96385,-0.4315 0.96385,-0.9639 v -3.0843 c 0,-0.5323 0.43154,-0.9639 0.96386,-0.9639 h 2.66155 c 0.25563,0 0.50079,0.1016 0.68159,0.2824 l 1.3866,1.3866 c 0.1808,0.1808 0.2823,0.4259 0.2823,0.6815 v 1.6977 c 0,0.5324 0.4315,0.9639 0.9639,0.9639 h 2.0722 c 0.5324,0 0.9639,-0.4315 0.9639,-0.9639 v -2.0723 c 0,-0.5323 -0.4315,-0.9638 -0.9639,-0.9638 h -1.6677 c -0.2557,0 -0.5008,-0.1016 -0.6816,-0.2823 l -1.4165,-1.4166 c -0.1808,-0.1807 -0.2823,-0.4259 -0.2823,-0.68153 v -3.21559 c 0,-0.25563 0.1015,-0.50079 0.2823,-0.68155 l 1.4401,-1.4401195 c 0.1807,-0.18076 0.4259,-0.28231 0.6815,-0.28231 h 1.6442 c 0.5324,0 0.9639,-0.43153 0.9639,-0.96385 z"/></svg>