<svg xmlns="http://www.w3.org/2000/svg" xmlns:xlink="http://www.w3.org/1999/xlink" xmlns:xodm="http://www.corel.com/coreldraw/odm/2003" width="128" height="128" version="1.1" viewBox="0 0 5.78 5.78" xml:space="preserve" style="shape-rendering:geometricPrecision;text-rendering:geometricPrecision;image-rendering:optimizeQuality;fill-rule:evenodd;clip-rule:evenodd"><defs><style type="text/css">.fil6{fill:none}.fil5{fill:#fefefe}.fil4{fill:#000}.fil2{fill:#00a308}.fil3{fill:#d90007}.fil1{fill:#ff0009}.fil0{fill:#fff700}</style><clipPath id="id0"><path d="M2.89 0c1.6,0 2.89,1.29 2.89,2.89 0,1.6 -1.29,2.89 -2.89,2.89 -1.6,0 -2.89,-1.29 -2.89,-2.89 0,-1.6 1.29,-2.89 2.89,-2.89z"/></clipPath></defs><g id="Layer_x0020_1"><metadata id="CorelCorpID_0Corel-Layer"/><path d="M2.89 0c1.6,0 2.89,1.29 2.89,2.89 0,1.6 -1.29,2.89 -2.89,2.89 -1.6,0 -2.89,-1.29 -2.89,-2.89 0,-1.6 1.29,-2.89 2.89,-2.89z" class="fil0"/><g style="clip-path:url(#id0)"><g id="_2255279887184"><path id="1" d="M0.37 0.49l0 0.46 0 0.46 -0.46 0 0 0.92c1.99,0 3.98,0 5.98,0l0 -0.46 -1.38 0c0,-0.46 0,-0.92 0,-1.38 -1.38,0 -2.76,0 -4.14,0z" class="fil1"/><path d="M1.29 2.33c-0.46,0 -0.92,0 -1.38,0l0 0.92c0.46,0 0.92,0 1.38,0l0 -0.92z" class="fil2"/><path d="M4.51 3.71l0 -0.46c-1.54,0 -3.07,0 -4.6,0l0 0.46c1.53,0 3.06,0 4.6,0z" class="fil3"/><polygon points=".83 3.71 1.29 3.71 1.75 3.71 2.21 3.71 2.67 3.71 3.13 3.71 3.59 3.71 4.05 3.71 4.51 3.71 4.51 3.94 4.05 3.94 3.59 3.94 3.13 3.94 2.67 3.94 2.21 3.94 1.75 3.94 1.29 3.94 .83 3.94 .37 3.94 -.09 3.94 -.09 3.71 .37 3.71" class="fil4"/><path d="M4.51 4.4l0 -0.46c-1.54,0 -3.07,0 -4.6,0l0 0.46c1.53,0 3.06,0 4.6,0z" class="fil3"/><path d="M4.51 4.4c0,0.46 0,0.92 0,1.38 -1.54,0 -3.07,0 -4.6,0 0,-0.46 0,-0.92 0,-1.38 1.53,0 3.06,0 4.6,0z" class="fil2"/><rect width=".46" height=".46" x="1.75" y="2.33" class="fil4"/><polygon points="1.75 2.79 2.21 2.79 2.21 3.25 1.29 3.25 1.29 2.33 1.75 2.33" class="fil5"/><polygon points="3.13 3.25 2.21 3.25 2.21 2.33 3.13 2.33" class="fil2"/><polygon points="3.13 3.25 4.05 3.25 4.05 2.79 3.59 2.79 3.59 2.33 3.13 2.33" class="fil5"/><rect width=".46" height=".46" x="3.59" y="2.33" class="fil4"/><polygon points="4.05 3.25 4.51 3.25 4.51 2.33 4.05 2.33" class="fil2"/><path d="M2.44 1.64l0.23 0c0,-0.15 0,-0.3 0,-0.46l0 0 -0.23 0 0 0c0,0.16 0,0.31 0,0.46zm0.46 -0.69c0,0.31 0,0.62 0,0.92 -0.23,0 -0.46,0 -0.69,0 0,-0.3 0,-0.61 0,-0.92 0.23,0 0.46,0 0.69,0z" class="fil5"/><path d="M3.36 1.18l0.23 0 0 0.23 -0.23 0 0 -0.23zm0.46 -0.23c-0.23,0 -0.46,0 -0.69,0 0,0.31 0,0.62 0,0.92l0.23 0 0 -0.23 0.46 0c0,-0.23 0,-0.46 0,-0.69z" class="fil5"/></g></g><path d="M2.89 0c1.6,0 2.89,1.29 2.89,2.89 0,1.6 -1.29,2.89 -2.89,2.89 -1.6,0 -2.89,-1.29 -2.89,-2.89 0,-1.6 1.29,-2.89 2.89,-2.89z" class="fil6"/></g></svg>