<svg xmlns="http://www.w3.org/2000/svg" xmlns:svg="http://www.w3.org/2000/svg" id="Layer_1" width="623.04" height="623.04" data-name="Layer 1" version="1.1" viewBox="0 0 623.04 623.04"><circle style="fill:#fff;fill-opacity:1;stroke:#000" id="path2" cx="311.52" cy="311.52" r="311.52"/><path id="path1" d="m 361.45195,174.40875 c 0,-11.79 -10.5,-22.7325 -22.305,-22.7325 -12.63,0 -23.1525,10.9425 -23.1525,22.7325 0,12.2025 10.5,23.145 23.1525,23.145 11.7825,0 22.305,-10.9425 22.305,-23.145 z m 62.295,249.5925 -61.455,-135.9525 c 29.4675,-5.4675 130.905,-46.7175 146.055,-136.3725 2.1075,-11.7825 -5.4675,-18.9675 -17.2575,-18.9675 h -65.25 c -22.71,0 -28.1925,-27.75 -57.6525,-27.75 h -144.3675 c -47.145,39.9825 -74.0775,103.1175 -74.0775,152.79 0,23.145 5.8875,43.77 18.5175,56.82 l -7.575,26.5125 c -24,-4.6275 -44.1975,-6.75 -60.1875,-6.75 -16.4175,0.015 -44.617503,2.1225 -44.617503,19.38 0,28.62 83.340003,90.495 208.342503,130.5 73.6575,23.5725 143.5275,34.5 192.3525,34.5 37.5,0 62.295,-6.75 66.0825,-18.0975 5.475,-17.265 -34.515,-46.305 -98.91,-76.6125 z m -253.38,-12.21 21.885,-83.3325 a 74.64,74.64 0 0 0 17.25,2.1 c 46.7175,0 69,-42.93 69,-92.175 0,-38.3025 -13.8825,-79.9725 -39.9825,-107.7525 h 119.565 c 23.5725,0 27.75,25.26 49.665,25.26 h 37.0425 c -4.2075,13.0425 3.7875,31.5675 21.465,34.0875 -27.75,48.825 -109.8525,76.605 -142.6875,78.75 l 93.06,213.78 c -61.0725,1.68 -189.8625,-35.7825 -246.2625,-70.7175 z" style="stroke-width:.75"/></svg>