<svg xmlns="http://www.w3.org/2000/svg" width="1271" height="1271" fill="none" viewBox="0 0 1271 1271"><circle cx="635.5" cy="635.5" r="635.5" fill="#F4F6FA"/><mask id="mask0_2155_4098" width="1150" height="986" x="61" y="143" maskUnits="userSpaceOnUse" style="mask-type:alpha"><path fill="#000" d="M406.587 143C405.221 395.528 266.508 615.708 61 733.341L290.413 1128.71C633.063 932.183 864.046 564.468 865.412 143H406.587Z"/><path fill="#000" d="M865.413 143C866.779 395.528 1005.49 615.708 1211 733.341L981.588 1128.71C638.937 932.183 407.954 564.468 406.588 143H865.413Z"/><path fill="#000" d="M406.588 143.21C407.407 398.728 492.712 634.335 636 824.138C779.289 634.335 864.593 398.728 865.413 143.21H406.588Z"/></mask><g mask="url(#mask0_2155_4098)"><circle cx="635.5" cy="635.5" r="635.5" fill="#fff"/></g><path fill="#000" fill-opacity=".3" d="M406.587 143C405.221 395.528 266.508 615.708 61 733.341L290.413 1128.71C633.063 932.183 864.046 564.468 865.412 143H406.587Z"/><path fill="#000" fill-opacity=".8" d="M865.413 143C866.779 395.528 1005.49 615.708 1211 733.341L981.588 1128.71C638.937 932.183 407.954 564.468 406.588 143H865.413Z"/><path fill="#000" fill-opacity=".5" d="M406.588 143.21C407.407 398.728 492.712 634.335 636 824.138C779.289 634.335 864.593 398.728 865.413 143.21H406.588Z"/></svg>