<svg xmlns="http://www.w3.org/2000/svg" fill="none" viewBox="0 0 600 600"><g clip-path="url(#clip0_427_57271)" transform="matrix(14.63,0,0,14.63,0,0)"><path fill="url(#paint0_linear_427_57271)" d="M20.6357 40.9066C31.6814 40.9066 40.6357 31.9523 40.6357 20.9066C40.6357 9.86094 31.6814 0.906631 20.6357 0.906631C9.59005 0.906631 0.635742 9.86094 0.635742 20.9066C0.635742 31.9523 9.59005 40.9066 20.6357 40.9066Z"/><path fill="#fff" fill-opacity=".602" d="M21.2578 5.90663V16.9941L30.6291 21.1816L21.2578 5.90663Z"/><path fill="#fff" d="M21.2582 5.90663L11.8857 21.1816L21.2582 16.9941V5.90663Z"/><path fill="#fff" fill-opacity=".602" d="M21.2578 28.3669V35.9006L30.6353 22.9268L21.2578 28.3669Z"/><path fill="#fff" d="M21.2582 35.9006V28.3656L11.8857 22.9268L21.2582 35.9006Z"/><path fill="#fff" fill-opacity=".2" d="M21.2578 26.623L30.6291 21.1817L21.2578 16.9967V26.623Z"/><path fill="#fff" fill-opacity=".602" d="M11.8857 21.1817L21.2582 26.623V16.9967L11.8857 21.1817Z"/></g><defs><linearGradient id="paint0_linear_427_57271" x1=".636" x2="40.636" y1=".907" y2="40.907" gradientUnits="userSpaceOnUse"><stop stop-color="#596AEC"/><stop offset="1" stop-color="#60E2E9"/></linearGradient><clipPath id="clip0_427_57271"><rect width="40" height="40" fill="#fff" transform="translate(0.635742 0.906631)"/></clipPath></defs></svg>