<svg xmlns="http://www.w3.org/2000/svg" id="Layer_1" data-name="Layer 1" viewBox="0 0 1080 1080"><defs><style>.cls-1,.cls-2{stroke-width:.39px}.cls-1,.cls-10,.cls-11,.cls-12,.cls-13,.cls-14,.cls-15,.cls-2,.cls-3,.cls-4,.cls-5,.cls-6,.cls-7,.cls-8,.cls-9{fill:none;stroke-miterlimit:10}.cls-1,.cls-11,.cls-15,.cls-3{stroke:gray}.cls-12,.cls-14,.cls-2{stroke:#4d4d4d}.cls-16{fill:#f3f4f5}.cls-17{fill:#f6f8f9}.cls-18{fill:#f6f7f8}.cls-19{fill:#f7f9f9}.cls-20{fill:#f7f9fa}.cls-21{fill:#f7f8f8}.cls-22{fill:#f2f2f2}.cls-23{fill:#f9fafa}.cls-24{fill:#f9fbfc}.cls-25{fill:#040002}.cls-26{fill:#030305}.cls-27{fill:#030303}.cls-28{fill:#060608}.cls-29{fill:#050506}.cls-30{fill:#020202}.cls-31{fill:#020203}.cls-32{fill:#020303}.cls-33{fill:#696969}.cls-34{fill:#696867}.cls-35{fill:#676666}.cls-36{fill:#6a6a6a}.cls-37{fill:#000002}.cls-38{fill:#000203}.cls-39{fill:#000202}.cls-40{fill:#020002}.cls-41{fill:#eee}.cls-42{fill:#ebebeb}.cls-43{fill:#eaebeb}.cls-44{fill:#eaeaeb}.cls-45{fill:#e9eaea}.cls-46{fill:#e9eaeb}.cls-47{fill:#e9e9ea}.cls-48{fill:#e6e6e6}.cls-49{fill:#f5f6f6}.cls-50{fill:#fafbfc}.cls-51{fill:#fafcfd}.cls-52{fill:#fcfcfc}.cls-53{fill:#fcfdfe}.cls-54{fill:#fcfdff}.cls-55{fill:#e7e7e8}.cls-56{fill:#e7e8e8}.cls-57{fill:#e3e4e4}.cls-58{fill:#e3e3e3}.cls-59{fill:#e3e3e4}.cls-60{fill:#fff}.cls-61{fill:#f1f1f2}.cls-62{fill:#feffff}.cls-63{fill:#fefefe}.cls-64{fill:#fefeff}.cls-65{fill:#fbfbfc}.cls-66{fill:#fbfbfd}.cls-67{fill:#e5e6e6}.cls-68{fill:#eff1f1}.cls-69{fill:#e4e5e5}.cls-70{fill:#fdfdfd}.cls-71{fill:#7d7c7c}.cls-72{fill:#7d7d7d}.cls-73{fill:#7f7e7f}.cls-74{fill:#7f7f80}.cls-75{fill:#818181}.cls-76{fill:#7e7d7e}.cls-77{fill:#747474}.cls-78{fill:#656565}.cls-79{fill:#969697}.cls-80{fill:#6c6c6d}.cls-81{fill:#6c6c6c}.cls-82{fill:#6c6b6c}.cls-83{fill:#999}.cls-84{fill:#979797}.cls-85{fill:#979798}.cls-86{fill:#7c7c7c}.cls-87{fill:#919192}.cls-88{fill:#8b8b8b}.cls-89{fill:#9c9c9d}.cls-90{fill:#929293}.cls-91{fill:#848485}.cls-92{fill:#b4b3b3}.cls-93{fill:#8a8a8b}.cls-94{fill:#b7b7b7}.cls-95{fill:#b8b8b8}.cls-96{fill:#9d9d9d}.cls-97{fill:#b9b9b8}.cls-98{fill:#909091}.cls-99{fill:#b3b3b4}.cls-100{fill:#b3b3b3}.cls-101{fill:#8f8f8f}.cls-102{fill:#8f8f90}.cls-103{fill:#c1c1c2}.cls-104{fill:#c1c1c1}.cls-105{fill:#b6b6b7}.cls-106{fill:#666}.cls-107{fill:#666565}.cls-108{fill:#737373}.cls-109{fill:#737273}.cls-110{fill:#bababb}.cls-111{fill:#323232}.cls-112{fill:#323233}.cls-113{fill:#323131}.cls-114{fill:#303030}.cls-115{fill:#302f30}.cls-116{fill:#333}.cls-117{fill:#333231}.cls-118{fill:#8d8c8c}.cls-119{fill:#8c8c8c}.cls-120{fill:#8c8c8d}.cls-121{fill:#939394}.cls-122{fill:#858585}.cls-123{fill:#858484}.cls-124{fill:#cececf}.cls-125{fill:#acacad}.cls-126{fill:#a9a9aa}.cls-127{fill:#a9a9a9}.cls-128{fill:#a4a4a5}.cls-129{fill:#bcbdbd}.cls-130{fill:#a7a7a7}.cls-131{fill:#b0b0b1}.cls-132{fill:#b0b0b0}.cls-133{fill:#a5a5a6}.cls-134{fill:#a4a4a4}.cls-135{fill:#bdbebe}.cls-136{fill:#bfbfc0}.cls-137{fill:#c0c0c1}.cls-138{fill:#ababac}.cls-139{fill:#ababab}.cls-140{fill:#bebebf}.cls-141{fill:#ccc}.cls-142{fill:#cacaca}.cls-143{fill:#cacacb}.cls-144{fill:#cfcfd0}.cls-145{fill:#cfd0d0}.cls-146{fill:#c7c7c8}.cls-147{fill:#c7c7c7}.cls-148{fill:#dededf}.cls-149{fill:#dedfe0}.cls-150{fill:#ddddde}.cls-151{fill:#cbcbcb}.cls-152{fill:#d2d2d3}.cls-153{fill:#d2d2d2}.cls-154{fill:#d2d3d2}.cls-155{fill:#d1d1d2}.cls-156{fill:#c3c4c5}.cls-157{fill:#c3c4c6}.cls-158{fill:#c3c3c4}.cls-159{fill:#c4c4c5}.cls-160{fill:#d6d7d7}.cls-161{fill:#d6d6d6}.cls-162{fill:#dcdddd}.cls-163{fill:#dbdbdc}.cls-164{fill:#d9dada}.cls-165{fill:#d9d9da}.cls-166{fill:#afb0b1}.cls-167{fill:#e0e0e0}.cls-168{fill:#d7d8d9}.cls-169{fill:#d7d7d8}.cls-170{fill:#d3d4d4}.cls-171{fill:#c5c6c7}.cls-172{fill:#c5c5c6}.cls-173{fill:#c6c6c8}.cls-174{fill:#dfdfe0}.cls-175{fill:#141315}.cls-176{fill:#141013}.cls-177{fill:#131314}.cls-178{fill:#131313}.cls-179{fill:#131014}.cls-180{fill:#131012}.cls-181{fill:#171517}.cls-182{fill:#171617}.cls-183{fill:#171719}.cls-184{fill:#252526}.cls-185{fill:#242425}.cls-186{fill:#1f1e1f}.cls-187{fill:#1e1f1f}.cls-188{fill:#1e1e1f}.cls-189{fill:#222122}.cls-190{fill:#222}.cls-191{fill:#212121}.cls-192{fill:#202021}.cls-193{fill:#0b0a0b}.cls-194{fill:#232223}.cls-195{fill:#232224}.cls-196{fill:#434243}.cls-197{fill:#404040}.cls-198{fill:#414141}.cls-199{fill:#41403f}.cls-200{fill:#090608}.cls-201{fill:#141415}.cls-202{fill:#0d0d0e}.cls-203{fill:#0d0b0e}.cls-204{fill:#0d0b0d}.cls-205{fill:#1d1d1d}.cls-206{fill:#1d1c1d}.cls-207{fill:#1d1c1e}.cls-208{fill:#0f0f10}.cls-209{fill:#424242}.cls-210{fill:#1c1c1c}.cls-211{fill:#1c1c1d}.cls-212{fill:#363637}.cls-213{fill:#363636}.cls-214{fill:#454546}.cls-215{fill:#454444}.cls-216{fill:#19191a}.cls-217{fill:#0a0a0b}.cls-218{fill:#0a080a}.cls-219{fill:#3f3f3f}.cls-220{fill:#3f3e3e}.cls-221{fill:#3f3f40}.cls-222{fill:#1b1b1c}.cls-223{fill:#1b1a1b}.cls-224{fill:#1b1a1d}.cls-225{fill:#1a1819}.cls-226{fill:#1a1a1b}.cls-227{fill:#1a1a1a}.cls-228{fill:#a3a3a3}.cls-229{fill:#6e6d6d}.cls-230{fill:#9b9b9b}.cls-231{fill:#706f70}.cls-232{fill:#949495}.cls-233{fill:#727271}.cls-234{fill:#a2a2a2}.cls-235{fill:#545454}.cls-236{fill:#535353}.cls-237{fill:#868686}.cls-238{fill:#6d6c6d}.cls-239{fill:#6d6d6e}.cls-240{fill:#6e6e6e}.cls-241{fill:#888}.cls-242{fill:#878686}.cls-243{fill:#807f80}.cls-244{fill:gray}.cls-245{fill:#646364}.cls-246{fill:#646465}.cls-247{fill:#636262}.cls-248{fill:#626262}.cls-249{fill:#5b5a59}.cls-250{fill:#5b5b5a}.cls-251{fill:#29292a}.cls-252{fill:#292829}.cls-253{fill:#595959}.cls-254{fill:#2b2a2b}.cls-255{fill:#2c2c2d}.cls-256{fill:#565556}.cls-257{fill:#565656}.cls-258{fill:#4a4a4a}.cls-259{fill:#4a4948}.cls-260{fill:#2a2a2b}.cls-261{fill:#2a2929}.cls-262{fill:#484848}.cls-263{fill:#2d2d2d}.cls-264{fill:#2d2c2c}.cls-265{fill:#353535}.cls-266{fill:#383737}.cls-267{fill:#262626}.cls-268{fill:#313132}.cls-269{fill:#353433}.cls-270{fill:#2e2d2e}.cls-271{fill:#3d3d3d}.cls-272{fill:#3d3c3c}.cls-273{fill:#343335}.cls-274{fill:#272727}.cls-275{fill:#585757}.cls-276{fill:#585758}.cls-277{fill:#575656}.cls-278{fill:#575657}.cls-279{fill:#3c3b3b}.cls-280{fill:#2f2e2f}.cls-281{fill:#2e2e2f}.cls-282{fill:#2e2e2e}.cls-283{fill:#4c4c4d}.cls-284{fill:#4b4a4a}.cls-285{fill:#616161}.cls-286{fill:#494848}.cls-287{fill:#494949}.cls-288{fill:#5f5e5e}.cls-289{fill:#5d5c5c}.cls-290{fill:#757475}.cls-291{fill:#777677}.cls-292{fill:#797978}.cls-293{fill:#787878}.cls-294{fill:#505050}.cls-295{fill:#828181}.cls-296{fill:#828282}.cls-297{fill:#828283}.cls-298{fill:#31302f}.cls-299{fill:#282728}.cls-300{fill:#282828}.cls-301{fill:#343435}.cls-302{fill:#7b7a7a}.cls-303{fill:#4d4d4d}.cls-304{fill:#4e4e4d}.cls-305{fill:#515051}.cls-306{fill:#515050}.cls-3{stroke-width:.32px}.cls-4{stroke:#f2f2f2}.cls-10,.cls-11,.cls-12,.cls-13,.cls-4,.cls-5,.cls-6,.cls-7,.cls-8,.cls-9{stroke-width:.65px}.cls-5{stroke:#1a1a1a}.cls-6{stroke:#b3b3b3}.cls-7{stroke:#666}.cls-8{stroke:#333}.cls-9{stroke:#999}.cls-10{stroke:#ccc}.cls-13{stroke:#e6e6e6}.cls-14,.cls-15{stroke-width:.48px}</style></defs><rect width="1080" height="1080"/><g><polygon points="541.46 682.6 541.46 698.58 511.21 680.43 541.46 682.6" class="cls-71"/><polygon points="541.46 682.6 541.46 654.44 522.69 655.37 541.46 682.6" class="cls-279"/><polygon points="541.46 682.6 511.21 680.43 522.69 655.37 541.46 682.6" class="cls-282"/><polygon points="496.68 652.34 511.21 680.43 522.69 655.37 496.68 652.34" class="cls-40"/><polygon points="496.68 652.34 511.21 680.43 489.19 679.03 496.68 652.34" class="cls-40"/><polygon points="496.68 652.34 477.07 654.44 489.19 679.03 496.68 652.34" class="cls-30"/><polygon points="467.16 679.03 477.07 654.44 489.19 679.03 467.16 679.03" class="cls-40"/><polygon points="467.16 679.03 477.07 654.44 447.4 659.92 467.16 679.03" class="cls-39"/><polygon points="503.92 695.01 511.21 680.43 541.46 698.58 503.92 695.01" class="cls-147"/><polygon points="515.1 720.95 541.46 723.22 541.46 698.58 515.1 720.95" class="cls-211"/><polygon points="503.92 695.01 511.21 680.43 489.19 679.03 503.92 695.01" class="cls-90"/><polygon points="503.92 695.01 478.79 697.03 489.19 679.03 503.92 695.01" class="cls-170"/><polygon points="467.16 679.03 478.79 697.03 489.19 679.03 467.16 679.03" class="cls-119"/><polygon points="467.16 679.03 478.79 697.03 463.28 701.53 467.16 679.03" class="cls-143"/><polygon points="467.16 679.03 437.22 685.39 463.28 701.53 467.16 679.03" class="cls-72"/><polygon points="440.99 705.29 437.22 685.39 463.28 701.53 440.99 705.29" class="cls-218"/><polygon points="440.99 705.29 437.22 685.39 425.49 702.65 440.99 705.29" class="cls-184"/><polygon points="440.99 705.29 432.23 728.04 425.49 702.65 440.99 705.29" class="cls-201"/><polygon points="542.47 741.26 515.1 720.95 507.01 737.13 542.47 741.26" class="cls-85"/><polygon points="542.47 741.26 515.1 720.95 541.46 723.22 542.47 741.26" class="cls-85"/><polygon points="488.25 717.16 515.1 720.95 507.01 737.13 488.25 717.16" class="cls-237"/><polygon points="488.25 717.16 473.45 713.89 486.7 732.48 507.01 737.13 488.25 717.16" class="cls-172"/><polygon points="453.74 717.16 467.16 710.45 473.45 713.89 486.7 732.48 473.45 729.93 453.74 717.16" class="cls-135"/><polygon points="541.46 723.22 541.46 698.58 551.04 699.29 563.98 719.5 541.46 723.22" class="cls-232"/><polygon points="600.04 714.65 613.62 710.9 613.62 702.2 551.04 699.29 563.98 719.5 600.04 714.65" class="cls-18"/><polygon points="562.44 681.7 541.46 682.6 541.46 654.44 560.91 672.84 562.44 681.7" class="cls-232"/><polygon points="562.44 681.7 581.52 677.61 579.99 654.44 560.91 672.84 562.44 681.7" class="cls-155"/><polygon points="541.46 654.44 560.91 672.84 579.99 654.44 541.46 654.44" class="cls-19"/><polygon points="541.46 654.44 578.74 632.42 579.99 654.44 541.46 654.44" class="cls-61"/><polygon points="541.46 654.44 578.74 632.42 576.87 624.83 541.46 654.44" class="cls-173"/><polygon points="598.04 654.44 581.52 677.61 579.99 654.44 598.04 654.44" class="cls-164"/><polygon points="598.04 654.44 581.52 677.61 599.38 676.91 598.04 654.44" class="cls-129"/><polygon points="598.04 654.44 613.37 656.66 599.38 676.91 598.04 654.44" class="cls-158"/><polygon points="617.36 677.61 613.37 656.66 599.38 676.91 617.36 677.61" class="cls-86"/><polygon points="617.36 677.61 613.37 656.66 641.87 662.92 617.36 677.61" class="cls-103"/><polygon points="617.36 677.61 646.93 683.57 641.87 662.92 617.36 677.61" class="cls-249"/><polyline points="662.51 675.04 646.93 683.57 641.87 662.92" class="cls-198"/><polyline points="662.51 675.04 670.24 648.41 641.87 662.92" class="cls-253"/><polygon points="641.87 662.92 670.24 648.41 638.14 644.68 641.87 662.92" class="cls-43"/><polygon points="641.87 662.92 638.14 644.68 612.03 641.75 613.37 656.66 641.87 662.92" class="cls-97"/><polygon points="598.04 654.44 595.92 637.62 612.03 641.75 613.37 656.66 598.04 654.44" class="cls-163"/><polygon points="598.04 654.44 595.92 637.62 578.74 632.42 579.99 654.44 598.04 654.44" class="cls-56"/><polygon points="576.87 624.83 586.46 622.57 617.36 613.91 595.92 637.62 578.74 632.42 576.87 624.83" class="cls-67"/><polygon points="617.36 613.91 595.92 637.62 612.03 641.75 617.36 613.91" class="cls-46"/><polygon points="617.36 613.91 638.14 644.68 612.03 641.75 617.36 613.91" class="cls-228"/><polygon points="617.36 613.91 638.14 644.68 660.38 606.32 617.36 613.91" class="cls-116"/><polygon points="670.24 648.41 638.14 644.68 660.38 606.32 670.24 648.41" class="cls-205"/><path d="M598.04,595.39s1.41,12.05-3.04,16.74c-4.46,4.7-8.52,9.3-8.54,10.43-.01,1.13,30.9-8.66,30.9-8.66l-19.32-18.52Z" class="cls-70"/><polygon points="617.36 613.91 598.04 595.39 622.58 586.96 617.36 613.91" class="cls-91"/><polygon points="617.36 613.91 660.38 606.32 622.58 586.96 617.36 613.91" class="cls-280"/><polygon points="645.59 576.48 660.38 606.32 622.58 586.96 645.59 576.48" class="cls-220"/><polygon points="645.59 576.48 660.38 606.32 657.28 562.75 645.59 576.48" class="cls-190"/><polygon points="645.59 576.48 633.43 554.8 657.28 562.75 645.59 576.48" class="cls-107"/><polygon points="645.59 576.48 633.43 554.8 622.58 586.96 645.59 576.48" class="cls-80"/><polygon points="612.03 559.83 633.43 554.8 622.58 586.96 612.03 559.83" class="cls-248"/><polygon points="612.03 559.83 589.07 571.82 622.58 586.96 612.03 559.83" class="cls-34"/><polygon points="612.03 559.83 589.07 571.82 596.49 538.56 612.03 559.83" class="cls-21"/><polygon points="612.03 559.83 633.43 554.8 596.49 538.56 612.03 559.83" class="cls-49"/><polygon points="592.02 518.77 633.43 554.8 596.49 538.56 592.02 518.77" class="cls-59"/><polygon points="605.83 530.78 633.43 554.8 641.48 528.5 605.83 530.78" class="cls-127"/><polygon points="657.28 562.75 633.43 554.8 641.48 528.5 657.28 562.75" class="cls-159"/><polygon points="657.28 562.75 664.72 526.26 641.48 528.5 657.28 562.75" class="cls-269"/><polygon points="657.28 562.75 664.72 526.26 690.01 579.21 657.28 562.75" class="cls-282"/><polygon points="623.66 488.69 612.72 506.99 641.48 528.5 644.2 500.33 623.66 488.69" class="cls-29"/><polygon points="644.2 500.33 664.72 526.26 641.48 528.5 644.2 500.33" class="cls-298"/><polygon points="644.2 500.33 664.72 526.26 675.1 506.2 644.2 500.33" class="cls-112"/><polygon points="644.2 500.33 666.21 493.52 675.1 506.2 644.2 500.33" class="cls-258"/><polygon points="682.67 488.42 666.21 493.52 675.1 506.2 697.08 510.39 682.67 488.42" class="cls-93"/><polygon points="682.67 488.42 693.84 483.23 715.19 483.23 697.08 510.39 682.67 488.42" class="cls-123"/><polygon points="703.55 550.48 664.72 526.26 675.1 506.2 703.55 550.48" class="cls-121"/><polygon points="703.55 550.48 697.08 510.39 675.1 506.2 703.55 550.48" class="cls-79"/><polygon points="741.11 515.84 728.15 559.2 722.62 523.44 741.11 515.84" class="cls-268"/><polygon points="703.55 550.48 728.15 559.2 722.62 523.44 703.55 550.48" class="cls-250"/><polygon points="703.55 550.48 697.08 510.39 722.62 523.44 703.55 550.48" class="cls-136"/><polygon points="715.19 483.23 741.11 515.84 722.62 523.44 715.19 483.23" class="cls-138"/><polygon points="749.02 489.6 747.83 521.12 741.11 515.84 738.44 486.66 749.02 489.6" class="cls-260"/><polygon points="749.02 489.6 747.83 521.12 749.02 533.55 759.35 513.29 749.02 489.6" class="cls-181"/><polygon points="749.02 489.6 747.75 456.62 733.1 468.55 738.44 486.66 749.02 489.6" class="cls-273"/><polygon points="715.19 483.23 741.11 515.84 738.44 486.66 715.19 483.23" class="cls-122"/><polygon points="715.19 483.23 733.1 468.55 738.44 486.66 715.19 483.23" class="cls-192"/><polygon points="715.19 483.23 733.1 468.55 713.47 466.07 715.19 483.23" class="cls-40"/><polygon points="715.19 483.23 699.75 474.65 713.47 466.07 715.19 483.23" class="cls-40"/><polygon points="715.19 483.23 699.75 474.65 693.84 483.23 715.19 483.23" class="cls-40"/><polygon points="703.55 550.48 664.72 526.26 690.01 579.21 703.55 550.48" class="cls-179"/><polygon points="605.83 530.78 612.72 506.99 641.48 528.5 605.83 530.78" class="cls-145"/><polygon points="623.66 488.69 612.72 506.99 584.25 484.33 612.03 472.57 623.66 488.69" class="cls-29"/><polygon points="605.83 530.78 612.72 506.99 584.25 484.33 592.02 518.77 605.83 530.78" class="cls-215"/><polygon points="565.37 463.93 584.25 484.33 596.49 538.56 565.37 463.93" class="cls-294"/><polygon points="575.76 520.45 585.56 546.65 596.49 538.56 575.76 520.45" class="cls-253"/><polygon points="575.76 520.45 572.06 500.33 596.49 538.56 575.76 520.45" class="cls-101"/><polygon points="565.37 463.93 572.06 500.33 596.49 538.56 565.37 463.93" class="cls-92"/><polygon points="589.07 571.82 598.04 595.39 622.58 586.96 589.07 571.82" class="cls-84"/><polyline points="579.56 570.21 598.04 595.39 581.91 588.21 579.56 570.21" class="cls-16"/><polygon points="585.56 559.09 579.56 570.21 563.9 556.74 585.56 546.65 585.56 559.09" class="cls-233"/><polygon points="585.56 559.09 589.07 571.82 596.49 538.56 585.56 546.65 585.56 559.09" class="cls-274"/><polygon points="575.76 520.45 567.74 500.33 563.9 479.39 565.37 463.93 575.76 520.45" class="cls-231"/><polygon points="562 529.96 563.9 556.74 585.56 546.65 562 529.96" class="cls-52"/><polygon points="562 529.96 563.9 556.74 540.5 542.55 562 529.96" class="cls-64"/><polygon points="541.07 570.88 563.9 556.74 540.5 542.55 541.07 570.88" class="cls-65"/><polygon points="541.07 570.88 563.9 556.74 565.37 580.31 541.07 570.88" class="cls-70"/><polygon points="579.56 570.21 563.9 556.74 565.37 580.31 579.56 570.21" class="cls-118"/><polygon points="579.56 570.21 581.91 588.21 565.37 580.31 579.56 570.21" class="cls-76"/><polygon points="565.37 599.27 581.91 588.21 565.37 580.31 565.37 599.27" class="cls-40"/><polygon points="565.37 599.27 541.07 591.4 565.37 580.31 565.37 599.27" class="cls-254"/><polygon points="541.07 570.88 541.07 591.4 565.37 580.31 541.07 570.88" class="cls-70"/><polygon points="541.07 570.88 541.07 591.4 518.83 584.53 541.07 570.88" class="cls-284"/><polygon points="519.71 602.77 541.07 591.4 518.83 584.53 519.71 602.77" class="cls-223"/><polygon points="541.07 570.88 518.83 559.83 518.83 584.53 541.07 570.88" class="cls-304"/><polygon points="541.07 570.88 518.83 559.83 540.5 542.55 541.07 570.88" class="cls-232"/><polygon points="519.71 531.86 518.83 559.83 540.5 542.55 519.71 531.86" class="cls-241"/><polygon points="519.71 531.86 539.61 514.45 540.5 542.55 519.71 531.86" class="cls-131"/><polygon points="519.71 531.86 539.61 514.45 520.88 505.67 519.71 531.86" class="cls-125"/><polygon points="537.27 488.69 539.61 514.45 520.88 505.67 537.27 488.69" class="cls-125"/><polygon points="537.27 488.69 522.28 477.27 520.88 505.67 537.27 488.69" class="cls-166"/><polygon points="537.27 488.69 539.61 514.45 557.76 501.72 537.27 488.69" class="cls-66"/><polygon points="537.27 488.69 552.2 477.27 557.76 501.72 537.27 488.69" class="cls-23"/><polygon points="537.27 488.69 552.2 477.27 537.27 466.12 537.27 488.69" class="cls-50"/><polygon points="537.27 488.69 522.28 477.27 537.27 466.12 537.27 488.69" class="cls-159"/><polygon points="562 529.96 575.76 520.45 585.56 546.65 562 529.96" class="cls-53"/><polyline points="562 529.96 575.76 520.45 557.76 501.72" class="cls-20"/><polyline points="567.74 500.33 575.76 520.45 557.76 501.72" class="cls-160"/><polyline points="562 529.96 539.61 514.45 557.76 501.72" class="cls-53"/><polyline points="562 529.96 539.61 514.45 540.5 542.55" class="cls-70"/><polygon points="518.83 584.53 498.15 596.96 519.71 602.77 518.83 584.53" class="cls-196"/><polygon points="541.07 591.4 519.71 602.77 542.06 611.94 541.07 591.4" class="cls-196"/><polygon points="498.15 596.96 485.08 601.67 505.34 620.9 508.28 613.91 498.15 596.96" class="cls-124"/><path d="M485.08,601.67l20.27,19.23s-4.41,4.26-12.78-3.23c-8.37-7.49-7.2-14.52-7.49-16Z" class="cls-156"/><path d="M508.28,613.91s10.43-6.81,20.41,1.71c1.55,1.62,13.36-3.67,13.36-3.67l-22.35-9.17-21.56-5.81" class="cls-156"/><path d="M518.62,448.48s4.99,16.65,3.66,28.79l-16.47-12.15,12.81-16.64Z" class="cls-32"/><path d="M518.62,448.48s4.99,16.65,3.66,28.79l14.99-11.15v-14.27l-18.65-3.37Z" class="cls-191"/><polygon points="518.62 448.48 504.98 447.48 505.81 465.12 518.62 448.48" class="cls-278"/><polygon points="518.62 448.48 504.98 447.48 508.64 435.67 518.62 448.48" class="cls-75"/><polygon points="485.68 441.16 504.98 447.48 508.64 435.67 485.68 441.16" class="cls-126"/><polygon points="485.68 441.16 469.38 415.21 508.64 435.67 485.68 441.16" class="cls-234"/><polygon points="485.68 441.16 469.38 415.21 443.92 422.86 485.68 441.16" class="cls-297"/><polygon points="410.19 428.18 425.19 408.23 443.92 422.86 410.19 428.18" class="cls-190"/><polygon points="410.19 428.18 403.13 405.94 386.19 426.76 410.19 428.18" class="cls-299"/><polygon points="410.19 428.18 401.01 441.58 386.19 426.76 410.19 428.18" class="cls-188"/><polygon points="374.08 442.08 401.01 441.58 386.19 426.76 374.08 442.08" class="cls-197"/><polygon points="374.08 442.08 382.66 463.73 371.91 467.28 374.08 442.08" class="cls-236"/><polygon points="410.19 428.18 401.01 441.58 427.06 438.58 410.19 428.18" class="cls-271"/><polygon points="441.48 447.48 424.31 451.64 401.01 441.58 427.06 438.58 441.48 447.48" class="cls-78"/><polygon points="414.03 456.3 424.31 451.64 401.01 441.58 389.88 451.85 414.03 456.3" class="cls-228"/><polygon points="414.03 456.3 397.65 463.73 382.66 463.73 389.88 451.85 414.03 456.3" class="cls-302"/><polygon points="401.01 441.58 374.08 442.08 382.66 463.73 389.88 451.85 401.01 441.58" class="cls-292"/><polygon points="410.19 428.18 427.06 438.58 443.92 422.86 410.19 428.18" class="cls-255"/><polygon points="505.81 465.12 427.06 438.58 443.92 422.86 505.81 465.12" class="cls-185"/><polygon points="505.81 465.12 427.06 438.58 441.48 447.48 505.81 465.12" class="cls-113"/><polygon points="485.68 441.16 505.81 465.12 443.92 422.86 485.68 441.16" class="cls-287"/><polygon points="485.68 441.16 504.98 447.48 505.81 465.12 485.68 441.16" class="cls-109"/><polygon points="398.35 469.04 388.89 477.4 403.2 483.77 406.54 473.07 398.35 469.04" class="cls-244"/><polygon points="429.18 477.4 428.21 488.69 403.2 483.77 406.54 473.07 429.18 477.4" class="cls-147"/><polygon points="429.18 477.4 428.21 488.69 447.66 489.49 440.86 478.35 429.18 477.4" class="cls-246"/><polygon points="424.31 511.71 428.21 488.69 447.66 489.49 458.81 501.57 424.31 511.71" class="cls-40"/><polygon points="424.31 511.71 428.21 488.69 447.66 489.49 458.81 501.57 424.31 511.71" class="cls-40"/><polygon points="424.31 511.71 428.21 488.69 403.2 483.77 394.98 504 424.31 511.71" class="cls-40"/><polygon points="424.31 511.71 419.29 554.8 394.98 504 424.31 511.71" class="cls-40"/><polygon points="456.24 478.25 474.11 491.47 447.66 489.49 440.86 478.35 456.24 478.25" class="cls-186"/><polygon points="441.48 389.73 474.87 365.73 489.01 399.49 441.48 389.73" class="cls-222"/><polygon points="540.5 410.05 474.87 365.73 489.01 399.49 540.5 410.05" class="cls-301"/><polygon points="441.48 389.73 474.87 365.73 443.92 345.94 441.48 389.73" class="cls-267"/><polygon points="470.73 322.46 474.87 365.73 443.92 345.94 470.73 322.46" class="cls-210"/><polygon points="470.73 322.46 436.18 265.22 443.92 345.94 470.73 322.46" class="cls-193"/><polygon points="418.12 319.48 436.18 265.22 443.92 345.94 418.12 319.48" class="cls-26"/><polygon points="418.12 319.48 436.18 265.22 419.03 245.43 418.12 319.48" class="cls-39"/><polygon points="470.73 322.46 474.87 365.73 537.27 317.19 470.73 322.46" class="cls-262"/><polygon points="470.73 322.46 535.89 235.15 537.27 317.19 470.73 322.46" class="cls-235"/><polygon points="470.73 322.46 535.89 235.15 465.25 242.27 470.73 322.46" class="cls-291"/><polygon points="470.73 322.46 449.89 255.99 465.25 242.27 470.73 322.46" class="cls-82"/><polygon points="470.73 322.46 449.89 255.99 436.18 265.22 470.73 322.46" class="cls-263"/><polygon points="463.13 211.4 535.89 235.15 465.25 242.27 463.13 211.4" class="cls-83"/><polygon points="463.13 211.4 535.89 235.15 533.52 164.18 463.13 211.4" class="cls-130"/><polygon points="463.13 211.4 441.48 231.98 465.25 242.27 463.13 211.4" class="cls-238"/><polygon points="463.13 211.4 441.48 231.98 398.45 217.47 463.13 211.4" class="cls-221"/><polygon points="463.13 211.4 465.25 170.51 398.45 217.47 463.13 211.4" class="cls-229"/><polygon points="463.13 211.4 465.25 170.51 533.52 164.18 463.13 211.4" class="cls-105"/><polygon points="441.48 150.66 465.25 170.51 398.45 217.47 441.48 150.66" class="cls-295"/><polygon points="441.48 150.66 465.25 170.51 476.01 137.01 441.48 150.66" class="cls-164"/><polygon points="533.52 164.18 465.25 170.51 476.01 137.01 533.52 164.18" class="cls-65"/><polygon points="533.52 164.18 535.89 118.55 476.01 137.01 533.52 164.18" class="cls-65"/><polygon points="536.44 107.96 535.89 118.55 476.01 137.01 536.44 107.96" class="cls-65"/><polygon points="536.44 107.96 467.46 122.49 476.01 137.01 536.44 107.96" class="cls-65"/><polygon points="456.97 133.32 467.46 122.49 476.01 137.01 456.97 133.32" class="cls-65"/><polygon points="456.97 133.32 441.48 150.66 476.01 137.01 456.97 133.32" class="cls-45"/><polygon points="467.46 122.49 441.48 150.66 444.91 130.98 467.46 122.49" class="cls-68"/><polygon points="441.48 150.66 394.76 175.26 398.45 217.47 441.48 150.66" class="cls-306"/><polygon points="369.17 216.15 394.76 175.26 398.45 217.47 369.17 216.15" class="cls-189"/><polygon points="419.03 245.43 441.48 231.98 426.22 226.83 398.45 217.47 419.03 245.43" class="cls-263"/><polygon points="449.89 255.99 441.48 231.98 465.25 242.27 449.89 255.99" class="cls-246"/><polygon points="449.89 255.99 441.48 231.98 419.03 245.43 436.18 265.22 449.89 255.99" class="cls-203"/><polygon points="540.5 410.05 474.87 365.73 537.27 317.19 540.5 410.05" class="cls-209"/><polygon points="540.5 410.05 591.55 359.66 537.27 317.19 540.5 410.05" class="cls-33"/><polygon points="608.17 322.46 591.55 359.66 537.27 317.19 608.17 322.46" class="cls-169"/><polygon points="608.17 322.46 535.89 235.15 537.27 317.19 608.17 322.46" class="cls-168"/><polygon points="608.17 322.46 535.89 235.15 602.33 267.6 608.17 322.46" class="cls-169"/><polygon points="603.43 219.23 535.89 235.15 602.33 267.6 603.43 219.23" class="cls-161"/><polygon points="603.43 219.23 535.89 235.15 533.52 164.18 603.43 219.23" class="cls-162"/><polygon points="603.43 219.23 600.73 170.51 533.52 164.18 603.43 219.23" class="cls-20"/><polygon points="594.84 136.57 600.73 170.51 533.52 164.18 594.84 136.57" class="cls-60"/><polygon points="594.84 136.57 600.73 170.51 620.6 158.47 594.84 136.57" class="cls-54"/><polygon points="594.84 136.57 632.28 151.4 620.6 158.47 594.84 136.57" class="cls-70"/><polygon points="594.84 136.57 632.28 151.4 615.42 125.83 594.84 136.57" class="cls-60"/><polygon points="594.84 136.57 535.89 118.55 533.52 164.18 594.84 136.57" class="cls-60"/><polygon points="594.84 136.57 535.89 118.55 536.44 107.96 594.84 136.57" class="cls-50"/><polygon points="594.84 136.57 604.27 120.52 536.44 107.96 594.84 136.57" class="cls-60"/><polygon points="594.84 136.57 604.27 120.52 615.42 125.83 594.84 136.57" class="cls-23"/><polygon points="603.43 219.23 600.73 170.51 666.75 212.67 603.43 219.23" class="cls-63"/><polygon points="632.28 151.4 600.73 170.51 666.75 212.67 632.28 151.4" class="cls-17"/><polygon points="632.28 151.4 675.72 174.72 666.75 212.67 632.28 151.4" class="cls-63"/><polygon points="712.2 240.18 675.72 174.72 666.75 212.67 712.2 240.18" class="cls-51"/><polygon points="712.2 240.18 675.72 174.72 720.45 219.23 712.2 240.18" class="cls-24"/><polygon points="712.2 240.18 732.04 267.6 720.45 219.23 712.2 240.18" class="cls-46"/><polygon points="712.2 240.18 732.04 267.6 725.5 286.1 712.2 240.18" class="cls-97"/><polygon points="712.2 240.18 703.56 286.1 725.5 286.1 712.2 240.18" class="cls-73"/><polygon points="723.55 319.75 703.56 286.1 725.5 286.1 723.55 319.75" class="cls-235"/><polygon points="723.55 319.75 703.56 286.1 692.14 318.15 723.55 319.75" class="cls-35"/><polygon points="723.55 319.75 707.84 343.9 692.14 318.15 723.55 319.75" class="cls-302"/><polygon points="723.55 319.75 707.84 343.9 726.62 368.6 723.55 319.75" class="cls-109"/><polygon points="711.65 372.46 707.84 343.9 726.62 368.6 711.65 372.46" class="cls-36"/><polygon points="675.72 317.19 707.84 343.9 692.14 318.15 675.72 317.19" class="cls-293"/><polygon points="675.72 317.19 707.84 343.9 694.46 369.63 675.72 317.19" class="cls-174"/><polygon points="675.72 317.19 634.98 346.53 694.46 369.63 675.72 317.19" class="cls-55"/><polygon points="675.72 317.19 634.98 346.53 608.17 322.46 675.72 317.19" class="cls-167"/><polygon points="612.4 390.04 634.98 346.53 608.17 322.46 612.4 390.04" class="cls-164"/><polygon points="612.4 390.04 591.55 359.66 608.17 322.46 612.4 390.04" class="cls-153"/><polygon points="612.4 390.04 591.55 359.66 583.19 400.28 612.4 390.04" class="cls-303"/><polygon points="540.5 410.05 591.55 359.66 583.19 400.28 540.5 410.05" class="cls-116"/><polygon points="714.49 392.74 707.84 343.9 694.46 369.63 714.49 392.74" class="cls-97"/><polygon points="714.49 392.74 704.48 405.52 694.46 369.63 714.49 392.74" class="cls-41"/><polygon points="657.57 398.94 704.48 405.52 694.46 369.63 657.57 398.94" class="cls-150"/><polygon points="657.57 398.94 634.98 346.53 694.46 369.63 657.57 398.94" class="cls-57"/><polygon points="657.57 398.94 634.98 346.53 612.4 390.04 657.57 398.94" class="cls-137"/><polygon points="675.72 317.19 678.57 299.82 703.56 286.1 692.14 318.15 675.72 317.19" class="cls-284"/><polygon points="744.41 314.18 732.04 267.6 725.5 286.1 744.41 314.18" class="cls-290"/><polygon points="744.41 314.18 723.55 319.75 725.5 286.1 744.41 314.18" class="cls-219"/><polygon points="744.41 314.18 723.55 319.75 738.12 365.35 744.41 314.18" class="cls-265"/><polygon points="744.41 314.18 750.4 355.33 738.12 365.35 744.41 314.18" class="cls-195"/><polygon points="744.41 398.94 750.4 355.33 738.12 365.35 744.41 398.94" class="cls-210"/><polygon points="744.41 398.94 730.83 405.52 726.62 368.6 738.12 365.35 744.41 398.94" class="cls-208"/><polygon points="716.29 405.52 730.83 405.52 726.62 368.6 711.73 372.44 716.29 405.52" class="cls-264"/><polygon points="744.41 398.94 750.4 355.33 761.25 383.25 744.41 398.94" class="cls-28"/><polygon points="761.25 351.75 750.4 355.33 761.25 383.25 761.25 351.75" class="cls-189"/><polygon points="744.41 314.18 750.4 355.33 754.62 306.92 744.41 314.18" class="cls-115"/><polygon points="761.25 351.75 750.4 355.33 754.62 306.92 759.72 306.92 761.25 351.75" class="cls-176"/><polygon points="726.62 368.6 723.55 319.75 738.12 365.35 726.62 368.6" class="cls-188"/><polygon points="732.04 267.6 720.45 219.23 741.07 267.6 732.04 267.6" class="cls-164"/><polygon points="732.04 267.6 744.41 314.18 754.62 306.92 741.07 267.6 732.04 267.6" class="cls-286"/><polygon points="742.05 245.65 759.72 306.92 754.62 306.92 741.07 267.6 742.05 245.65" class="cls-38"/><polygon points="699.26 183.68 675.72 174.72 720.45 219.23 714.76 196.98 699.26 183.68" class="cls-24"/><polyline points="747.75 456.62 750.4 426.19 761.25 383.25 761.25 351.75 759.72 306.92 742.05 245.65" class="cls-3"/><polygon points="742.05 245.65 741.07 267.6 720.45 219.23 714.76 196.98 742.05 245.65" class="cls-157"/><polygon points="712.2 240.18 655.36 240.18 666.75 212.67 712.2 240.18" class="cls-154"/><polygon points="680.98 240.18 655.36 240.18 703.56 286.1 680.98 240.18" class="cls-98"/><polygon points="678.57 299.82 655.36 240.18 703.56 286.1 678.57 299.82" class="cls-74"/><polygon points="678.57 299.82 655.36 240.18 608.17 322.46 678.57 299.82" class="cls-169"/><polygon points="678.57 299.82 675.72 317.19 608.17 322.46 678.57 299.82" class="cls-144"/><polygon points="680.98 240.18 712.2 240.18 703.56 286.1 680.98 240.18" class="cls-151"/><polygon points="632.28 151.4 675.72 174.72 615.42 125.83 632.28 151.4" class="cls-44"/><polygon points="644.21 139.47 675.72 174.72 615.42 125.83 644.21 139.47" class="cls-60"/><polygon points="644.21 139.47 675.72 174.72 669.39 151.4 644.21 139.47" class="cls-62"/><polygon points="699.26 183.68 675.72 174.72 669.39 151.4 699.26 183.68" class="cls-148"/><polygon points="603.43 219.23 655.36 240.18 666.75 212.67 603.43 219.23" class="cls-23"/><polygon points="603.43 219.23 655.36 240.18 602.33 267.6 603.43 219.23" class="cls-69"/><polygon points="608.17 322.46 655.36 240.18 602.33 267.6 608.17 322.46" class="cls-58"/><polygon points="444.91 130.98 394.76 175.26 441.48 150.66 444.91 130.98" class="cls-256"/><path d="M389,164.18l5.76,11.08,50.15-44.29s-40.29,21.3-55.91,33.21Z" class="cls-213"/><path d="M362.53,191.17s17.26-20.63,26.47-26.99l5.76,11.08-32.23,15.91Z" class="cls-194"/><polygon points="339.21 229.99 317.91 284.81 337.3 268.05 339.21 229.99" class="cls-194"/><polygon points="333.71 295.34 317.91 284.81 337.3 268.05 333.71 295.34" class="cls-226"/><polygon points="333.71 295.34 317.91 284.81 315.03 305.4 333.71 295.34" class="cls-299"/><polygon points="333.71 295.34 319.34 334.84 315.03 305.4 333.71 295.34" class="cls-251"/><polygon points="333.71 295.34 319.34 334.84 332.03 330.77 333.71 295.34" class="cls-225"/><polygon points="323.41 359.66 319.34 334.84 332.03 330.77 323.41 359.66" class="cls-245"/><polygon points="323.41 359.66 346.39 361.04 332.03 330.77 323.41 359.66" class="cls-255"/><polygon points="323.41 359.66 346.39 361.04 327.51 381.28 323.41 359.66" class="cls-30"/><path d="M315.03,305.4s-5.17,41.75-.74,75.88l5.04-46.43-4.31-29.45Z" class="cls-128"/><polygon points="314.3 381.28 322.04 436.65 323.41 359.66 314.3 381.28" class="cls-128"/><polygon points="337.52 434.17 322.04 436.65 323.41 359.66 337.52 434.17" class="cls-131"/><polygon points="337.52 434.17 343.36 453.14 357.25 435.67 337.52 434.17" class="cls-200"/><polygon points="337.52 434.17 348.79 404.96 357.25 435.67 337.52 434.17" class="cls-227"/><polygon points="337.52 434.17 348.79 404.96 327.51 381.28 337.52 434.17" class="cls-188"/><polygon points="357.03 385.89 348.79 404.96 327.51 381.28 357.03 385.89" class="cls-208"/><polygon points="357.03 385.89 346.39 361.04 327.51 381.28 357.03 385.89" class="cls-37"/><polygon points="337.52 434.17 322.04 436.65 323.41 480.88 337.52 434.17" class="cls-130"/><polygon points="337.52 434.17 343.36 453.14 323.41 480.88 337.52 434.17" class="cls-305"/><polygon points="343.36 500.08 343.36 453.14 323.41 480.88 343.36 500.08" class="cls-276"/><polygon points="343.36 500.08 329.78 542.55 323.41 480.88 343.36 500.08" class="cls-289"/><polygon points="320.15 497.74 329.78 542.55 323.41 480.88 320.15 497.74" class="cls-77"/><polygon points="320.15 497.74 312.99 464.4 323.41 480.88 320.15 497.74" class="cls-266"/><polygon points="335.08 525.98 329.78 542.55 343.36 551.87 335.08 525.98" class="cls-252"/><polygon points="335.08 525.98 356.92 540.13 343.36 551.87 335.08 525.98" class="cls-40"/><polygon points="364.31 586.96 356.92 540.13 343.36 551.87 364.31 586.96" class="cls-222"/><polygon points="335.08 525.98 356.92 540.13 343.36 500.08 335.08 525.98" class="cls-267"/><polygon points="333.39 561.19 329.78 542.55 343.36 551.87 333.39 561.19" class="cls-142"/><polygon points="333.39 561.19 370.49 633.82 343.36 551.87 333.39 561.19" class="cls-99"/><path d="M343.36,587.86l-25.18-13.3-4.55,14.44c4.75,5.94,23.89,0,23.89,0" class="cls-185"/><path d="M337.52,589s-19.14,5.94-23.89,0c0,0,4.95,13.65,26.71,9.89l-2.82-9.89Z" class="cls-296"/><polygon points="333.39 561.19 370.49 633.82 341.44 627.83 333.39 561.19" class="cls-136"/><polygon points="354.05 679.03 370.49 633.82 341.44 627.83 354.05 679.03" class="cls-94"/><polygon points="354.05 679.03 370.49 633.82 372.68 673.25 354.05 679.03" class="cls-282"/><polygon points="393.26 646.09 370.49 633.82 372.68 673.25 393.26 646.09" class="cls-204"/><polygon points="393.26 646.09 370.49 633.82 364.31 586.96 393.26 646.09" class="cls-176"/><polygon points="343.36 551.87 370.49 633.82 364.31 586.96 343.36 551.87" class="cls-39"/><polygon points="393.26 646.09 392.17 584.53 364.31 586.96 393.26 646.09" class="cls-224"/><polygon points="393.26 646.09 392.17 584.53 416.38 649 393.26 646.09" class="cls-183"/><polygon points="425.49 595.39 392.17 584.53 416.38 649 425.49 595.39" class="cls-216"/><polygon points="393.26 646.09 397.62 717.16 372.68 673.25 393.26 646.09" class="cls-180"/><polygon points="393.26 646.09 397.62 717.16 405.82 704.17 416.38 649 393.26 646.09" class="cls-192"/><polygon points="425.49 702.65 405.82 704.17 416.38 649 425.49 702.65" class="cls-31"/><polygon points="425.49 702.65 405.82 704.17 432.23 728.04 425.49 702.65" class="cls-31"/><polygon points="421.46 739.87 405.82 704.17 432.23 728.04 421.46 739.87" class="cls-31"/><polygon points="421.46 739.87 437.22 753.29 432.23 728.04 421.46 739.87" class="cls-27"/><polygon points="453.74 746.74 437.22 753.29 432.23 728.04 453.74 746.74" class="cls-30"/><polygon points="453.74 746.74 437.22 753.29 456.62 781.27 453.74 746.74" class="cls-175"/><polygon points="453.74 746.74 469.05 758.72 456.62 781.27 453.74 746.74" class="cls-40"/><polygon points="421.46 739.87 405.82 704.17 397.62 717.16 421.46 739.87" class="cls-227"/><polygon points="425.49 702.65 437.22 649 416.38 649 425.49 702.65" class="cls-31"/><polygon points="425.49 702.65 437.22 649 437.22 685.39 425.49 702.65" class="cls-40"/><polygon points="437.22 685.39 437.22 649 447.4 659.92 437.22 685.39" class="cls-31"/><polygon points="437.22 685.39 467.16 679.03 447.4 659.92 437.22 685.39" class="cls-226"/><polygon points="354.05 679.03 369.39 709.4 372.68 673.25 354.05 679.03" class="cls-165"/><polygon points="397.62 717.16 369.39 709.4 372.68 673.25 397.62 717.16" class="cls-288"/><polygon points="433.52 768.92 421.46 739.87 437.22 753.29 433.52 768.92" class="cls-117"/><polygon points="433.52 768.92 456.62 781.27 437.22 753.29 433.52 768.92" class="cls-268"/><polygon points="433.52 768.92 456.62 781.27 454.9 792.42 433.52 768.92" class="cls-214"/><polygon points="476.7 801.86 456.62 781.27 454.9 792.42 476.7 801.86" class="cls-283"/><polygon points="476.7 801.86 456.62 781.27 478.79 782.81 476.7 801.86" class="cls-277"/><polygon points="476.7 801.86 496.1 798.09 478.79 782.81 476.7 801.86" class="cls-115"/><polygon points="476.7 801.86 496.1 798.09 493.01 815.08 476.7 801.86" class="cls-243"/><polygon points="492.36 821.76 487.59 828.1 454.39 801.86 454.9 792.42 492.36 821.76" class="cls-133"/><polygon points="476.7 801.86 475.38 811.14 492.36 821.76 493.01 815.08 476.7 801.86" class="cls-149"/><polygon points="476.7 801.86 475.38 811.14 454.39 801.86 454.9 792.42 476.7 801.86" class="cls-89"/><polygon points="520.64 811.82 496.1 798.09 520.64 792.42 520.64 811.82" class="cls-182"/><polygon points="520.64 811.82 496.1 798.09 493.01 815.08 520.64 811.82" class="cls-72"/><polygon points="520.64 811.82 520.64 823.07 493.01 815.08 520.64 811.82" class="cls-87"/><polygon points="520.64 811.82 540.5 803.82 540.5 819.61 520.64 811.82" class="cls-239"/><polygon points="520.64 811.82 520.64 823.07 540.5 819.61 520.64 811.82" class="cls-110"/><polygon points="540.5 831.1 520.64 823.07 540.5 819.61 540.5 831.1" class="cls-134"/><polygon points="540.5 831.1 520.64 823.07 493.01 815.08 540.5 834.33 540.5 831.1" class="cls-139"/><polygon points="540.5 841.12 492.36 821.76 493.01 815.08 540.5 834.33 540.5 841.12" class="cls-95"/><polygon points="540.5 841.12 492.36 821.76 487.59 828.1 540.5 849.01 540.5 841.12" class="cls-230"/><polygon points="495.49 849.01 506.02 835.38 487.59 828.1 481.94 835.38 495.49 849.01" class="cls-284"/><polygon points="495.49 849.01 506.02 835.38 540.5 849.01 540.5 858.54 523.93 860.62 495.49 849.01" class="cls-108"/><polygon points="314.3 381.28 319.34 334.84 323.41 359.66 314.3 381.28" class="cls-171"/><polygon points="541.46 747.64 541.46 760.64 518.51 756.61 529.99 747.64 541.46 747.64" class="cls-220"/><polygon points="518.51 756.61 517.61 776.78 541.46 760.64 518.51 756.61" class="cls-257"/><polygon points="541.46 779.02 517.61 776.78 541.46 760.64 541.46 779.02" class="cls-35"/><polygon points="541.46 779.02 578.13 774.69 541.46 760.64 541.46 779.02" class="cls-141"/><polygon points="541.46 747.64 578.13 774.69 541.46 760.64 541.46 747.64" class="cls-48"/><polygon points="541.46 747.64 578.13 774.69 589.01 739.87 541.46 747.64" class="cls-22"/><polygon points="600.24 775.88 578.13 774.69 589.01 739.87 600.24 775.88" class="cls-48"/><polygon points="561.18 795.26 541.46 779.02 559.8 776.86 561.18 795.26" class="cls-187"/><polygon points="561.18 795.26 578.13 774.69 559.8 776.86 561.18 795.26" class="cls-261"/><polygon points="561.18 795.26 578.13 774.69 587.11 800.61 561.18 795.26" class="cls-26"/><polygon points="600.24 775.88 578.13 774.69 587.11 800.61 600.24 775.88" class="cls-205"/><polygon points="600.24 775.88 613.37 753.29 589.01 739.87 600.24 775.88" class="cls-104"/><polygon points="610.4 731.8 613.37 753.29 589.01 739.87 610.4 731.8" class="cls-162"/><polygon points="610.4 731.8 613.37 753.29 625.05 741.26 610.4 731.8" class="cls-60"/><polygon points="638.35 765.72 613.37 753.29 625.05 741.26 638.35 765.72" class="cls-285"/><polygon points="638.35 765.72 656.05 749.14 625.05 741.26 638.35 765.72" class="cls-272"/><polygon points="646.93 723.22 656.05 749.14 625.05 741.26 646.93 723.22" class="cls-300"/><polygon points="638.35 765.72 618.82 791.75 617.73 770.95 638.35 765.72" class="cls-274"/><polygon points="638.35 765.72 613.37 753.29 617.73 770.95 638.35 765.72" class="cls-247"/><polygon points="600.24 775.88 613.37 753.29 617.73 770.95 600.24 775.88" class="cls-294"/><polygon points="600.24 775.88 618.82 791.75 617.73 770.95 600.24 775.88" class="cls-223"/><polygon points="556.68 445.98 552.2 477.27 537.27 466.12 537.27 451.85 556.68 445.98" class="cls-140"/><polygon points="556.68 445.98 552.2 477.27 563.9 479.39 565.37 463.93 556.68 445.98" class="cls-106"/><polygon points="557.76 501.72 552.2 477.27 563.9 479.39 567.74 500.33 557.76 501.72" class="cls-152"/><polygon points="556.68 445.98 567.74 435.67 540.5 410.05 537.27 451.85 556.68 445.98" class="cls-40"/><polygon points="567.74 435.67 540.5 410.05 583.19 400.28 567.74 435.67" class="cls-40"/><polygon points="424.31 511.71 451.66 535.32 458.81 501.57 424.31 511.71" class="cls-212"/><polygon points="424.31 511.71 451.66 535.32 443.92 553.59 419.29 554.8 424.31 511.71" class="cls-202"/><polygon points="478.08 531.86 451.66 535.32 478.08 508.59 478.08 531.86" class="cls-177"/><polygon points="478.08 531.86 451.66 535.32 443.92 553.59 478.08 531.86" class="cls-116"/><polygon points="478.08 508.59 451.66 535.32 458.81 501.57 474.11 491.47 478.08 508.59" class="cls-194"/><polygon points="447.66 489.49 474.11 491.47 458.81 501.57 447.66 489.49" class="cls-25"/><polygon points="453.74 717.16 453.74 746.74 473.45 729.93 453.74 717.16" class="cls-207"/><polygon points="453.74 717.16 453.74 728.52 432.23 728.04 453.74 717.16" class="cls-96"/><polygon points="453.74 717.16 440.99 705.29 432.23 728.04 453.74 717.16" class="cls-217"/><polygon points="453.74 717.16 440.99 705.29 463.28 701.53 453.74 717.16" class="cls-40"/><polygon points="453.74 746.74 453.74 728.52 432.23 728.04 453.74 746.74" class="cls-177"/><polygon points="397.62 717.16 421.46 739.87 400.91 739.87 397.62 717.16" class="cls-120"/><polygon points="433.52 768.92 421.46 739.87 400.91 739.87 433.52 768.92" class="cls-132"/><polygon points="540.5 858.54 523.93 860.62 540.5 884.9 540.5 858.54" class="cls-206"/><polygon points="493.98 869.41 523.93 860.62 540.5 884.9 493.98 869.41" class="cls-255"/><polygon points="539.76 905.61 539.76 921.35 504.31 917 539.76 905.61" class="cls-178"/><polygon points="539.76 905.61 506.02 888.18 504.31 917 539.76 905.61" class="cls-202"/><polygon points="539.76 905.61 506.02 888.18 540.5 884.9 539.76 905.61" class="cls-178"/><polygon points="493.98 869.41 506.02 888.18 540.5 884.9 493.98 869.41" class="cls-211"/><polygon points="493.98 869.41 506.02 888.18 464.81 863.6 467.71 857.35 493.98 869.41" class="cls-301"/><polygon points="483.02 890.1 506.02 888.18 464.81 863.6 483.02 890.1" class="cls-178"/><polygon points="493.98 869.41 523.93 860.62 495.49 849.01 493.98 869.41" class="cls-213"/><polygon points="493.98 869.41 476.7 847.07 495.49 849.01 493.98 869.41" class="cls-227"/><polygon points="493.98 869.41 476.7 847.07 467.71 857.35 493.98 869.41" class="cls-282"/><polygon points="481.94 835.38 476.7 847.07 495.49 849.01 481.94 835.38" class="cls-111"/><polygon points="338.32 851.32 357.85 853.13 363.36 811.14 338.32 851.32" class="cls-281"/><polygon points="372.68 838.55 357.85 853.13 363.36 811.14 372.68 838.55" class="cls-251"/><polygon points="372.68 838.55 369.39 786.49 363.36 811.14 372.68 838.55" class="cls-199"/><polygon points="372.68 838.55 369.39 786.49 383.51 787.7 372.68 838.55" class="cls-275"/><polygon points="717.46 852 706.11 843.69 701.24 766.69 717.46 852" class="cls-116"/><polygon points="717.46 852 726.18 831.1 701.24 766.69 717.46 852" class="cls-270"/><polygon points="717.46 852 726.18 831.1 737.33 850.78 717.46 852" class="cls-112"/><path d="M313.63,589s-5.77-8.52-6.24-16.93c-.47-8.41-.93-8.51-1.71-10.88-.78-2.36-2.18-7.6-2.18-7.6l2.8-1s4.04,17.6,6.69,19.16c2.66,1.56,5.19,2.8,5.19,2.8l-4.55,14.44Z" class="cls-81"/><path d="M288.54,461.46l-6.39-3.67c-.09,4.06,1.56,17.36,3.28,29.58l4.52-2.13c-.98-12.32-1.41-23.77-1.41-23.77Z" class="cls-88"/><path d="M292.82,508.59c-1.25-5.84-2.19-14.81-2.87-23.36l-4.52,2.13c1.28,9.1,2.6,17.6,3.26,21.23,1.56,8.5,14.8,45,14.8,45l2.8-1s-10.44-29.75-13.48-44Z" class="cls-81"/><path d="M282.16,457.79s2.48-19.25,6.76-16.21c4.28,3.04,15.51,12.98,24.08,22.83l1.57,7.32-26.01-10-6.4-3.93Z" class="cls-242"/><circle cx="343.36" cy="500.08" r="1.72" class="cls-60"/><path d="M773.43,451.35l14.54-9.43s-12.18-12.38-24.56,.79l10.02,8.65Z" class="cls-60"/><path d="M763.41,442.71l-15.66,13.91,.46,11.93,25.22-17.2s.79-15.52-10.02-8.65Z" class="cls-232"/><polygon points="749.02 533.55 747.75 554.44 764.04 549.2 759.35 513.29 749.02 533.55" class="cls-21"/><polygon points="773.44 519.84 764.04 549.2 759.35 513.29 773.44 519.84" class="cls-98"/><polygon points="773.44 519.84 778.67 495.75 759.35 513.29 773.44 519.84" class="cls-207"/><polygon points="773.44 519.84 778.67 495.75 788.84 498.03 783.5 524.52 773.44 519.84" class="cls-100"/><polygon points="773.44 519.84 764.04 549.2 769.32 553.72 783.5 524.52 773.44 519.84" class="cls-42"/><polygon points="761.54 580.93 764.04 549.2 769.32 553.72 761.54 580.93" class="cls-144"/><polygon points="761.54 580.93 764.04 549.2 747.75 554.44 761.54 580.93" class="cls-289"/><polygon points="761.54 580.93 754.88 590.65 745.98 576.48 747.75 554.44 761.54 580.93" class="cls-240"/><polygon points="749.02 594.53 754.88 590.65 745.98 576.48 742.78 594.53 749.02 594.53" class="cls-114"/><line x1="357.03" x2="381.26" y1="385.89" y2="404.96" class="cls-8"/><line x1="357.03" x2="386.26" y1="385.89" y2="364.47" class="cls-8"/><line x1="358.97" x2="391.88" y1="359.66" y2="334.03" class="cls-9"/><line x1="358.97" x2="357.03" y1="359.66" y2="385.88" class="cls-11"/><line x1="337.52" x2="327.51" y1="434.17" y2="381.28" class="cls-8"/><line x1="348.79" x2="327.51" y1="404.96" y2="381.28" class="cls-12"/><line x1="346.39" x2="327.51" y1="361.04" y2="381.28" class="cls-12"/><line x1="327.51" x2="357.03" y1="381.28" y2="385.88" class="cls-7"/><line x1="346.39" x2="357.03" y1="361.04" y2="385.88" class="cls-11"/><line x1="346.39" x2="351.54" y1="361.04" y2="334.84" class="cls-12"/><line x1="358.97" x2="351.54" y1="359.66" y2="334.84" class="cls-11"/><line x1="370.97" x2="351.54" y1="322.46" y2="334.84" class="cls-11"/><line x1="360.69" x2="351.55" y1="301.04" y2="334.84" class="cls-12"/><line x1="360.69" x2="332.03" y1="301.03" y2="330.77" class="cls-11"/><line x1="349.83" x2="332.03" y1="286.53" y2="330.77" class="cls-11"/><line x1="349.83" x2="333.71" y1="286.52" y2="295.34" class="cls-11"/><line x1="349.83" x2="369.26" y1="286.52" y2="271.32" class="cls-11"/><line x1="349.83" x2="357.97" y1="286.53" y2="251.6" class="cls-11"/><line x1="337.3" x2="357.97" y1="268.05" y2="251.6" class="cls-12"/><line x1="380.4" x2="357.97" y1="243.04" y2="251.6" class="cls-11"/><line x1="380.4" x2="398.45" y1="243.04" y2="217.47" class="cls-11"/><line x1="380.4" x2="369.17" y1="243.04" y2="216.15" class="cls-11"/><line x1="356.26" x2="369.17" y1="219.23" y2="216.15" class="cls-11"/><line x1="356.25" x2="362.53" y1="219.23" y2="191.17" class="cls-11"/><line x1="339.21" x2="362.53" y1="229.99" y2="191.17" class="cls-12"/><line x1="418.12" x2="391.88" y1="319.48" y2="334.03" class="cls-11"/><line x1="393.6" x2="391.88" y1="290.89" y2="334.03" class="cls-12"/><line x1="418.12" x2="386.26" y1="319.48" y2="364.47" class="cls-11"/><line x1="418.12" x2="404.4" y1="319.48" y2="384.17" class="cls-6"/><line x1="403.13" x2="404.4" y1="405.94" y2="384.17" class="cls-11"/><line x1="425.19" x2="404.4" y1="408.23" y2="384.17" class="cls-11"/><line x1="403.13" x2="425.19" y1="405.94" y2="408.23" class="cls-8"/><line x1="441.48" x2="425.19" y1="389.73" y2="408.23" class="cls-11"/><line x1="441.48" x2="443.92" y1="389.73" y2="422.86" class="cls-11"/><line x1="418.12" x2="443.92" y1="319.48" y2="345.94" class="cls-11"/><line x1="418.12" x2="419.03" y1="319.48" y2="245.43" class="cls-11"/><line x1="436.18" x2="443.92" y1="265.22" y2="345.94" class="cls-12"/><line x1="436.18" x2="470.73" y1="265.22" y2="322.46" class="cls-12"/><line x1="535.89" x2="470.73" y1="235.15" y2="322.46" class="cls-12"/><line x1="449.89" x2="470.73" y1="255.99" y2="322.46" class="cls-7"/><line x1="436.18" x2="419.03" y1="265.22" y2="245.43" class="cls-11"/><line x1="381.26" x2="386.26" y1="404.96" y2="364.47" class="cls-8"/><line x1="419.29" x2="392.17" y1="554.8" y2="584.53" class="cls-8"/><line x1="416.38" x2="392.17" y1="649" y2="584.53" class="cls-8"/><line x1="416.38" x2="393.26" y1="649" y2="646.09" class="cls-12"/><line x1="416.38" x2="437.22" y1="649" y2="649" class="cls-8"/><line x1="447.4" x2="437.22" y1="659.92" y2="649" class="cls-8"/><line x1="425.49" x2="437.22" y1="702.65" y2="649" class="cls-8"/><line x1="416.38" x2="425.49" y1="649" y2="702.65" class="cls-8"/><line x1="425.49" x2="437.22" y1="595.39" y2="649" class="cls-8"/><line x1="425.49" x2="456.62" y1="595.39" y2="644.68" class="cls-8"/><line x1="451.66" x2="456.62" y1="596.31" y2="644.68" class="cls-8"/><line x1="451.66" x2="479.8" y1="596.31" y2="638.98" class="cls-8"/><line x1="393.26" x2="397.62" y1="646.09" y2="717.16" class="cls-8"/><line x1="393.26" x2="372.68" y1="646.09" y2="673.25" class="cls-8"/><line x1="393.26" x2="364.31" y1="646.09" y2="586.96" class="cls-8"/><line x1="393.26" x2="392.17" y1="646.09" y2="584.53" class="cls-8"/><line x1="382.66" x2="392.17" y1="546.46" y2="584.53" class="cls-8"/><line x1="382.66" x2="419.29" y1="546.46" y2="554.8" class="cls-8"/><line x1="443.92" x2="419.29" y1="553.59" y2="554.8" class="cls-8"/><line x1="443.92" x2="478.08" y1="553.59" y2="531.86" class="cls-8"/><line x1="443.92" x2="451.66" y1="553.59" y2="596.31" class="cls-12"/><line x1="481.52" x2="485.08" y1="564.47" y2="601.67" class="cls-11"/><line x1="509.5" x2="514.7" y1="507.56" y2="484.86" class="cls-12"/><line x1="509.5" x2="505.81" y1="507.56" y2="531.86" class="cls-11"/><line x1="498.45" x2="505.81" y1="551.88" y2="531.86" class="cls-11"/><line x1="498.45" x2="518.83" y1="551.88" y2="560.42" class="cls-11"/><line x1="541.07" x2="518.83" y1="570.88" y2="584.53" class="cls-5"/><line x1="537.27" x2="522.28" y1="488.69" y2="477.27" class="cls-8"/><line x1="537.27" x2="520.88" y1="488.69" y2="505.67" class="cls-8"/><line x1="539.61" x2="520.88" y1="514.45" y2="505.67" class="cls-8"/><line x1="495.75" x2="478.08" y1="497.74" y2="508.59" class="cls-8"/><line x1="495.75" x2="495.42" y1="497.74" y2="531.86" class="cls-8"/><line x1="505.81" x2="495.42" y1="531.86" y2="531.86" class="cls-12"/><line x1="505.81" x2="519.71" y1="531.86" y2="531.86" class="cls-12"/><line x1="539.61" x2="519.71" y1="514.45" y2="531.86" class="cls-8"/><line x1="540.5" x2="519.71" y1="542.55" y2="531.86" class="cls-8"/><line x1="540.5" x2="518.83" y1="542.55" y2="559.83" class="cls-8"/><line x1="541.07" x2="565.37" y1="570.88" y2="580.31" class="cls-9"/><line x1="579.56" x2="565.37" y1="570.21" y2="580.31" class="cls-8"/><line x1="585.56" x2="563.9" y1="546.65" y2="556.74" class="cls-12"/><line x1="579.56" x2="563.9" y1="570.21" y2="556.74" class="cls-8"/><line x1="541.07" x2="563.9" y1="570.88" y2="556.74" class="cls-10"/><line x1="539.61" x2="562" y1="514.45" y2="529.96" class="cls-9"/><line x1="575.76" x2="562" y1="520.45" y2="529.96" class="cls-7"/><line x1="575.76" x2="557.76" y1="520.45" y2="501.72" class="cls-7"/><line x1="557.76" x2="562" y1="501.72" y2="529.96" class="cls-9"/><line x1="557.76" x2="539.61" y1="501.72" y2="514.45" class="cls-9"/><line x1="557.76" x2="537.27" y1="501.72" y2="488.69" class="cls-9"/><line x1="557.76" x2="552.2" y1="501.72" y2="477.27" class="cls-9"/><line x1="557.76" x2="567.74" y1="501.72" y2="500.33" class="cls-9"/><line x1="552.2" x2="537.27" y1="477.27" y2="488.69" class="cls-9"/><line x1="563.9" x2="562" y1="556.74" y2="529.96" class="cls-9"/><line x1="585.56" x2="562" y1="546.65" y2="529.96" class="cls-7"/><line x1="540.5" x2="562" y1="542.55" y2="529.96" class="cls-9"/><line x1="540.5" x2="563.9" y1="542.55" y2="556.74" class="cls-9"/><line x1="541.07" x2="518.83" y1="570.88" y2="559.83" class="cls-8"/><line x1="500.17" x2="518.83" y1="579.21" y2="560.42" class="cls-11"/><line x1="500.17" x2="498.15" y1="579.21" y2="596.96" class="cls-7"/><line x1="500.17" x2="485.08" y1="579.21" y2="601.67" class="cls-12"/><line x1="500.17" x2="498.45" y1="579.21" y2="551.88" class="cls-11"/><line x1="424.31" x2="451.66" y1="511.71" y2="535.32" class="cls-11"/><line x1="458.81" x2="451.66" y1="501.57" y2="535.32" class="cls-11"/><line x1="478.08" x2="451.66" y1="508.59" y2="535.32" class="cls-11"/><line x1="443.92" x2="478.08" y1="553.59" y2="531.86" class="cls-11"/><line x1="443.92" x2="451.66" y1="553.59" y2="535.32" class="cls-11"/><line x1="478.08" x2="451.66" y1="531.86" y2="535.32" class="cls-11"/><line x1="478.08" x2="495.75" y1="531.86" y2="497.74" class="cls-11"/><line x1="478.08" x2="495.42" y1="531.86" y2="531.86" class="cls-11"/><line x1="481.52" x2="495.42" y1="564.47" y2="531.86" class="cls-11"/><line x1="481.52" x2="498.45" y1="564.47" y2="551.88" class="cls-11"/><line x1="481.52" x2="451.66" y1="564.47" y2="596.31" class="cls-8"/><line x1="481.52" x2="478.08" y1="564.47" y2="531.86" class="cls-8"/><line x1="356.92" x2="364.31" y1="540.13" y2="586.96" class="cls-8"/><line x1="382.66" x2="356.92" y1="546.46" y2="540.13" class="cls-8"/><line x1="382.66" x2="360.68" y1="546.46" y2="494.89" class="cls-8"/><line x1="382.66" x2="394.98" y1="546.46" y2="504.01" class="cls-8"/><line x1="366.69" x2="357.25" y1="428.18" y2="435.67" class="cls-8"/><line x1="366.69" x2="348.79" y1="428.18" y2="404.96" class="cls-8"/><line x1="366.69" x2="381.26" y1="428.18" y2="404.96" class="cls-8"/><line x1="366.69" x2="386.19" y1="428.18" y2="426.76" class="cls-8"/><line x1="343.36" x2="357.25" y1="453.14" y2="435.67" class="cls-8"/><line x1="366.69" x2="374.08" y1="428.18" y2="442.08" class="cls-8"/><line x1="441.48" x2="469.38" y1="389.73" y2="415.21" class="cls-11"/><line x1="489.01" x2="469.38" y1="399.49" y2="415.21" class="cls-11"/><line x1="489.01" x2="508.64" y1="399.49" y2="435.67" class="cls-11"/><line x1="540.5" x2="508.64" y1="410.05" y2="435.67" class="cls-11"/><line x1="540.5" x2="474.87" y1="410.05" y2="365.73" class="cls-7"/><line x1="540.5" x2="591.55" y1="410.05" y2="359.66" class="cls-9"/><line x1="540.5" x2="537.27" y1="410.05" y2="317.19" class="cls-11"/><line x1="537.27" x2="474.87" y1="317.19" y2="365.73" class="cls-9"/><line x1="470.73" x2="474.87" y1="322.46" y2="365.73" class="cls-9"/><line x1="443.92" x2="474.87" y1="345.94" y2="365.73" class="cls-11"/><line x1="443.92" x2="441.48" y1="345.94" y2="389.73" class="cls-11"/><line x1="443.92" x2="470.73" y1="345.94" y2="322.46" class="cls-11"/><line x1="540.5" x2="537.27" y1="410.04" y2="451.85" class="cls-11"/><line x1="540.5" x2="567.74" y1="410.05" y2="435.67" class="cls-8"/><line x1="556.68" x2="567.74" y1="445.98" y2="435.67" class="cls-8"/><line x1="583.19" x2="567.74" y1="400.28" y2="435.67" class="cls-8"/><line x1="596.49" x2="567.74" y1="420.61" y2="435.67" class="cls-11"/><line x1="594.78" x2="567.74" y1="438.58" y2="435.67" class="cls-11"/><line x1="633.14" x2="681.02" y1="428.14" y2="423.76" class="cls-12"/><line x1="594.78" x2="633.14" y1="438.58" y2="428.14" class="cls-11"/><line x1="608.17" x2="633.14" y1="449.51" y2="428.14" class="cls-11"/><line x1="608.17" x2="594.78" y1="449.51" y2="438.58" class="cls-11"/><line x1="608.17" x2="591.55" y1="449.51" y2="459.6" class="cls-7"/><line x1="587.37" x2="594.78" y1="460.5" y2="438.58" class="cls-12"/><line x1="572.72" x2="594.78" y1="449.54" y2="438.58" class="cls-7"/><line x1="596.49" x2="633.14" y1="420.61" y2="428.14" class="cls-11"/><line x1="657.57" x2="633.14" y1="398.94" y2="428.14" class="cls-11"/><line x1="657.57" x2="681.02" y1="398.94" y2="423.76" class="cls-8"/><line x1="704.48" x2="681.02" y1="405.52" y2="423.76" class="cls-8"/><line x1="596.49" x2="583.19" y1="420.61" y2="400.28" class="cls-11"/><line x1="591.55" x2="583.19" y1="359.66" y2="400.28" class="cls-8"/><line x1="591.55" x2="608.17" y1="359.66" y2="322.46" class="cls-8"/><line x1="612.4" x2="608.17" y1="390.04" y2="322.46" class="cls-8"/><line x1="535.89" x2="608.17" y1="235.15" y2="322.46" class="cls-7"/><line x1="535.89" x2="602.33" y1="235.15" y2="267.6" class="cls-8"/><line x1="602.33" x2="608.17" y1="267.6" y2="322.46" class="cls-8"/><line x1="602.33" x2="603.43" y1="267.6" y2="219.23" class="cls-8"/><line x1="655.36" x2="603.43" y1="240.18" y2="219.23" class="cls-8"/><line x1="655.36" x2="608.17" y1="240.18" y2="322.46" class="cls-7"/><line x1="678.57" x2="608.17" y1="299.82" y2="322.46" class="cls-8"/><line x1="675.72" x2="608.17" y1="317.19" y2="322.46" class="cls-8"/><line x1="675.72" x2="634.98" y1="317.19" y2="346.53" class="cls-8"/><line x1="675.72" x2="694.46" y1="317.19" y2="369.63" class="cls-8"/><line x1="707.84" x2="694.46" y1="343.9" y2="369.63" class="cls-8"/><line x1="707.84" x2="726.62" y1="343.9" y2="368.6" class="cls-8"/><line x1="707.84" x2="714.49" y1="343.9" y2="392.74" class="cls-8"/><line x1="707.84" x2="723.78" y1="343.9" y2="319.75" class="cls-8"/><line x1="744.41" x2="723.78" y1="314.18" y2="319.75" class="cls-5"/><line x1="725.5" x2="744.41" y1="286.1" y2="314.18" class="cls-5"/><line x1="738.12" x2="744.41" y1="365.35" y2="314.18" class="cls-5"/><line x1="738.12" x2="723.78" y1="365.35" y2="319.75" class="cls-5"/><line x1="675.72" x2="723.78" y1="317.19" y2="319.75" class="cls-8"/><line x1="634.98" x2="694.46" y1="346.53" y2="369.63" class="cls-8"/><line x1="657.57" x2="694.46" y1="398.94" y2="369.63" class="cls-8"/><line x1="704.48" x2="694.46" y1="405.52" y2="369.63" class="cls-8"/><line x1="714.49" x2="694.46" y1="392.74" y2="369.63" class="cls-8"/><line x1="655.36" x2="602.33" y1="240.18" y2="267.6" class="cls-8"/><line x1="666.75" x2="603.43" y1="212.67" y2="219.23" class="cls-8"/><line x1="600.73" x2="603.43" y1="170.51" y2="219.23" class="cls-8"/><line x1="600.73" x2="533.52" y1="170.52" y2="164.18" class="cls-8"/><line x1="603.43" x2="533.52" y1="219.23" y2="164.18" class="cls-8"/><line x1="600.73" x2="594.84" y1="170.51" y2="136.57" class="cls-8"/><line x1="533.52" x2="594.84" y1="164.18" y2="136.57" class="cls-8"/><line x1="535.89" x2="594.84" y1="118.55" y2="136.57" class="cls-8"/><line x1="536.44" x2="594.84" y1="107.96" y2="136.57" class="cls-8"/><line x1="604.27" x2="594.84" y1="120.52" y2="136.57" class="cls-8"/><line x1="615.42" x2="594.84" y1="125.83" y2="136.57" class="cls-8"/><line x1="632.28" x2="594.84" y1="151.4" y2="136.57" class="cls-8"/><line x1="632.28" x2="675.72" y1="151.4" y2="174.72" class="cls-8"/><line x1="615.42" x2="675.72" y1="125.83" y2="174.72" class="cls-12"/><line x1="669.39" x2="675.72" y1="151.4" y2="174.72" class="cls-7"/><line x1="699.26" x2="675.72" y1="183.68" y2="174.72" class="cls-7"/><line x1="615.42" x2="632.28" y1="125.83" y2="151.4" class="cls-8"/><line x1="600.73" x2="632.28" y1="170.51" y2="151.4" class="cls-8"/><line x1="533.52" x2="476.01" y1="164.18" y2="137.01" class="cls-8"/><line x1="465.25" x2="476.01" y1="170.51" y2="137.01" class="cls-8"/><line x1="441.48" x2="398.45" y1="150.66" y2="217.47" class="cls-8"/><line x1="441.48" x2="394.76" y1="150.66" y2="175.26" class="cls-8"/><line x1="463.13" x2="398.45" y1="211.4" y2="217.47" class="cls-8"/><line x1="465.25" x2="398.45" y1="170.51" y2="217.47" class="cls-12"/><line x1="441.48" x2="476.01" y1="150.66" y2="137.01" class="cls-8"/><line x1="441.48" x2="465.25" y1="150.66" y2="170.51" class="cls-12"/><line x1="533.52" x2="465.25" y1="164.18" y2="170.51" class="cls-12"/><line x1="533.52" x2="463.13" y1="164.18" y2="211.4" class="cls-7"/><line x1="533.52" x2="535.89" y1="164.18" y2="235.15" class="cls-11"/><line x1="463.13" x2="535.89" y1="211.4" y2="235.15" class="cls-6"/><line x1="444.91" x2="476.01" y1="130.98" y2="137.01" class="cls-12"/><line x1="467.46" x2="476.01" y1="122.49" y2="137.01" class="cls-8"/><line x1="536.44" x2="476.01" y1="107.96" y2="137.01" class="cls-8"/><line x1="535.89" x2="476.01" y1="118.55" y2="137.01" class="cls-8"/><line x1="535.89" x2="533.52" y1="118.55" y2="164.18" class="cls-8"/><line x1="666.75" x2="600.73" y1="212.67" y2="170.51" class="cls-8"/><line x1="666.75" x2="675.72" y1="212.67" y2="174.72" class="cls-8"/><line x1="712.2" x2="675.72" y1="240.18" y2="174.72" class="cls-8"/><line x1="712.2" x2="666.75" y1="240.18" y2="212.68" class="cls-8"/><line x1="655.36" x2="666.75" y1="240.18" y2="212.67" class="cls-8"/><line x1="655.36" x2="712.2" y1="240.18" y2="240.18" class="cls-8"/><line x1="680.98" x2="703.56" y1="240.18" y2="286.1" class="cls-12"/><line x1="655.36" x2="703.56" y1="240.18" y2="286.1" class="cls-5"/><line x1="678.57" x2="703.56" y1="299.82" y2="286.1" class="cls-8"/><line x1="692.14" x2="703.56" y1="318.15" y2="286.1" class="cls-8"/><line x1="692.14" x2="707.84" y1="318.15" y2="343.9" class="cls-8"/><line x1="723.55" x2="703.56" y1="319.75" y2="286.1" class="cls-5"/><line x1="703.56" x2="725.5" y1="286.1" y2="286.1" class="cls-5"/><line x1="723.54" x2="725.5" y1="319.75" y2="286.1" class="cls-5"/><line x1="712.2" x2="725.5" y1="240.18" y2="286.1" class="cls-7"/><line x1="712.2" x2="732.04" y1="240.18" y2="267.6" class="cls-7"/><line x1="712.2" x2="703.56" y1="240.18" y2="286.1" class="cls-8"/><line x1="712.2" x2="720.45" y1="240.18" y2="219.23" class="cls-8"/><line x1="675.72" x2="720.45" y1="174.72" y2="219.23" class="cls-12"/><line x1="732.04" x2="720.45" y1="267.6" y2="219.23" class="cls-12"/><line x1="741.07" x2="720.45" y1="267.6" y2="219.23" class="cls-12"/><line x1="714.76" x2="720.45" y1="196.98" y2="219.23" class="cls-12"/><line x1="535.89" x2="603.43" y1="235.15" y2="219.23" class="cls-8"/><line x1="634.98" x2="608.17" y1="346.53" y2="322.46" class="cls-8"/><line x1="537.27" x2="608.17" y1="317.19" y2="322.46" class="cls-8"/><line x1="634.98" x2="612.4" y1="346.53" y2="390.04" class="cls-8"/><line x1="634.98" x2="657.57" y1="346.53" y2="398.94" class="cls-8"/><line x1="596.49" x2="612.4" y1="420.62" y2="390.04" class="cls-11"/><line x1="633.14" x2="612.4" y1="428.14" y2="390.04" class="cls-11"/><path d="M669.29,473.11c-12.08,1.99-23.7,1.62-32.92,.6l-1.39,3.57s10.93,.67,25.68-.2l8.63-3.96Z" class="cls-259"/><path d="M675.72,477.27s-6.43,12.33-11,12.33" class="cls-2"/><line x1="477.07" x2="467.16" y1="654.44" y2="679.03" class="cls-8"/><line x1="477.07" x2="447.4" y1="654.44" y2="659.92" class="cls-8"/><line x1="437.22" x2="447.4" y1="685.39" y2="659.92" class="cls-8"/><line x1="437.22" x2="440.99" y1="685.39" y2="705.29" class="cls-8"/><line x1="463.28" x2="440.99" y1="701.53" y2="705.29" class="cls-12"/><line x1="463.28" x2="437.22" y1="701.53" y2="685.39" class="cls-6"/><line x1="432.23" x2="440.99" y1="728.04" y2="705.29" class="cls-12"/><line x1="425.49" x2="440.99" y1="702.65" y2="705.29" class="cls-12"/><line x1="425.49" x2="432.23" y1="702.65" y2="728.04" class="cls-8"/><line x1="453.74" x2="432.23" y1="746.74" y2="728.04" class="cls-8"/><line x1="453.74" x2="469.05" y1="746.74" y2="758.72" class="cls-7"/><line x1="456.62" x2="469.05" y1="781.27" y2="758.72" class="cls-7"/><line x1="478.79" x2="469.05" y1="782.81" y2="758.72" class="cls-7"/><line x1="478.79" x2="483.13" y1="782.81" y2="756.61" class="cls-8"/><line x1="496.1" x2="483.13" y1="781.27" y2="756.61" class="cls-12"/><line x1="496.1" x2="478.79" y1="781.27" y2="782.81" class="cls-7"/><line x1="496.1" x2="496.1" y1="781.27" y2="798.09" class="cls-7"/><line x1="520.64" x2="496.1" y1="792.42" y2="798.09" class="cls-7"/><line x1="520.64" x2="496.1" y1="792.42" y2="781.27" class="cls-7"/><line x1="497.21" x2="496.1" y1="754.49" y2="781.27" class="cls-7"/><line x1="517.61" x2="496.1" y1="776.78" y2="781.27" class="cls-8"/><line x1="497.21" x2="517.61" y1="754.49" y2="776.78" class="cls-7"/><line x1="541.46" x2="517.61" y1="760.64" y2="776.78" class="cls-11"/><line x1="520.64" x2="517.61" y1="792.42" y2="776.78" class="cls-7"/><line x1="520.64" x2="541.46" y1="792.42" y2="779.02" class="cls-7"/><line x1="520.64" x2="540.5" y1="792.42" y2="803.82" class="cls-7"/><line x1="541.46" x2="540.5" y1="779.02" y2="803.82" class="cls-7"/><line x1="561.18" x2="540.5" y1="795.26" y2="803.82" class="cls-7"/><line x1="561.18" x2="541.46" y1="795.26" y2="779.02" class="cls-7"/><line x1="561.18" x2="559.8" y1="795.26" y2="776.86" class="cls-7"/><line x1="561.18" x2="578.13" y1="795.26" y2="774.69" class="cls-7"/><line x1="561.18" x2="587.11" y1="795.26" y2="800.61" class="cls-7"/><line x1="562.58" x2="587.11" y1="816.86" y2="800.61" class="cls-7"/><line x1="590.8" x2="587.11" y1="814" y2="800.61" class="cls-7"/><line x1="603.61" x2="587.11" y1="795.26" y2="800.61" class="cls-7"/><line x1="603.61" x2="600.24" y1="795.26" y2="775.88" class="cls-7"/><line x1="603.61" x2="618.82" y1="795.26" y2="791.75" class="cls-7"/><line x1="619.65" x2="618.82" y1="797.93" y2="791.75" class="cls-7"/><line x1="619.66" x2="604.4" y1="797.93" y2="804.62" class="cls-7"/><line x1="619.66" x2="641.07" y1="797.93" y2="776.86" class="cls-7"/><line x1="659.73" x2="641.07" y1="756.64" y2="776.86" class="cls-7"/><line x1="638.35" x2="641.07" y1="765.72" y2="776.86" class="cls-7"/><line x1="603.61" x2="604.4" y1="795.26" y2="804.62" class="cls-7"/><line x1="587.11" x2="604.4" y1="800.61" y2="804.62" class="cls-7"/><line x1="562.58" x2="561.18" y1="816.86" y2="795.26" class="cls-7"/><line x1="562.58" x2="540.5" y1="816.86" y2="819.61" class="cls-7"/><line x1="578.13" x2="587.11" y1="774.69" y2="800.61" class="cls-8"/><line x1="600.24" x2="587.11" y1="775.88" y2="800.61" class="cls-8"/><line x1="478.79" x2="456.62" y1="782.81" y2="781.27" class="cls-7"/><line x1="456.62" x2="453.74" y1="781.27" y2="746.74" class="cls-8"/><line x1="453.74" x2="437.22" y1="746.74" y2="753.29" class="cls-8"/><line x1="432.23" x2="437.22" y1="728.04" y2="753.29" class="cls-8"/><line x1="416.38" x2="405.82" y1="649" y2="704.17" class="cls-12"/><line x1="425.49" x2="405.82" y1="702.65" y2="704.17" class="cls-12"/><line x1="477.07" x2="489.19" y1="654.44" y2="679.03" class="cls-8"/><line x1="498.15" x2="489.19" y1="652.34" y2="679.03" class="cls-8"/><circle cx="535.89" cy="235.15" r="1.72" class="cls-60"/><circle cx="533.52" cy="164.18" r=".71" class="cls-116"/><circle cx="327.51" cy="381.28" r="1.72" class="cls-60"/><circle cx="348.79" cy="404.96" r="1.72" class="cls-60"/><circle cx="357.03" cy="385.89" r="1.2" class="cls-60"/><circle cx="386.26" cy="364.47" r="1.72" class="cls-60"/><circle cx="391.88" cy="334.03" r="1.72" class="cls-60"/><circle cx="370.97" cy="322.46" r="1.72" class="cls-60"/><circle cx="596.49" cy="420.61" r="1.72" class="cls-60"/><circle cx="567.74" cy="435.67" r="1.2" class="cls-60"/><circle cx="540.5" cy="410.05" r="1.72" class="cls-60"/><circle cx="489.01" cy="399.49" r="1.2" class="cls-60"/><circle cx="469.38" cy="415.21" r="1.72" class="cls-60"/><circle cx="441.48" cy="389.73" r="1.72" class="cls-60"/><circle cx="443.92" cy="345.94" r="1.72" class="cls-60"/><circle cx="418.12" cy="319.48" r="1.72" class="cls-60"/><circle cx="393.6" cy="290.89" r="1.72" class="cls-60"/><circle cx="349.83" cy="286.53" r="1.72" class="cls-60"/><circle cx="360.69" cy="301.04" r="1.2" class="cls-60"/><circle cx="369.26" cy="271.32" r="1.72" class="cls-60"/><circle cx="357.97" cy="251.6" r="1.72" class="cls-60"/><circle cx="380.4" cy="243.04" r="1.72" class="cls-60"/><circle cx="337.3" cy="268.05" r="1.72" class="cls-60"/><circle cx="333.71" cy="295.34" r="1.2" class="cls-60"/><circle cx="332.03" cy="330.77" r="1.2" class="cls-60"/><circle cx="351.54" cy="334.84" r="1.72" class="cls-60"/><circle cx="358.97" cy="359.66" r="1.2" class="cls-60"/><circle cx="404.4" cy="384.17" r="1.72" class="cls-60"/><circle cx="356.25" cy="219.23" r="1.72" class="cls-60"/><circle cx="398.45" cy="217.47" r="1.2" class="cls-60"/><circle cx="419.03" cy="245.43" r="1.2" class="cls-60"/><circle cx="463.13" cy="211.4" r="1.2" class="cls-60"/><circle cx="441.48" cy="231.98" r="1.2" class="cls-60"/><circle cx="465.25" cy="242.27" r="1.2" class="cls-60"/><circle cx="483.13" cy="756.61" r="1.2" class="cls-60"/><circle cx="497.21" cy="754.49" r="1.2" class="cls-60"/><circle cx="469.05" cy="758.72" r="1.72" class="cls-60"/><circle cx="453.74" cy="746.74" r="1.2" class="cls-60"/><circle cx="456.62" cy="781.27" r="1.72" class="cls-60"/><circle cx="689.6" cy="838.1" r="1.2" class="cls-60"/><circle cx="796.65" cy="896.06" r="1.2" class="cls-60"/><circle cx="740.23" cy="932.02" r="1.2" class="cls-60"/><circle cx="432.23" cy="728.04" r="1.2" class="cls-60"/><circle cx="463.28" cy="701.53" r="1.2" class="cls-60"/><line x1="541.46" x2="562.44" y1="698.58" y2="681.7" class="cls-6"/><line x1="579.99" x2="562.44" y1="695.01" y2="681.7" class="cls-10"/><line x1="579.99" x2="541.46" y1="695.01" y2="698.58" class="cls-7"/><line x1="563.98" x2="542.47" y1="719.5" y2="741.26" class="cls-7"/><line x1="573.52" x2="542.47" y1="736.18" y2="741.26" class="cls-7"/><line x1="573.52" x2="591.53" y1="736.18" y2="728.7" class="cls-7"/><line x1="563.98" x2="573.52" y1="719.5" y2="736.18" class="cls-7"/><line x1="582.89" x2="573.52" y1="716.71" y2="736.18" class="cls-7"/><line x1="582.89" x2="591.53" y1="716.71" y2="728.7" class="cls-7"/><line x1="598.04" x2="591.53" y1="714.92" y2="728.7" class="cls-7"/><line x1="598.04" x2="609.01" y1="714.92" y2="719.5" class="cls-7"/><line x1="613.62" x2="609.01" y1="710.9" y2="719.5" class="cls-7"/><line x1="625.75" x2="609.01" y1="718.43" y2="719.51" class="cls-7"/><line x1="591.53" x2="609.01" y1="728.7" y2="719.5" class="cls-7"/><line x1="579.99" x2="581.52" y1="695.01" y2="677.61" class="cls-7"/><line x1="579.99" x2="599.38" y1="695.01" y2="676.91" class="cls-7"/><line x1="603.07" x2="599.38" y1="695.01" y2="676.91" class="cls-7"/><line x1="603.07" x2="617.36" y1="695.01" y2="677.61" class="cls-7"/><line x1="603.07" x2="629.33" y1="695.01" y2="701.01" class="cls-7"/><line x1="617.36" x2="629.33" y1="677.61" y2="701.01" class="cls-7"/><line x1="646.93" x2="629.33" y1="683.57" y2="701.01" class="cls-7"/><line x1="656.69" x2="629.33" y1="702.23" y2="701.01" class="cls-7"/><line x1="656.69" x2="646.93" y1="702.23" y2="683.57" class="cls-7"/><line x1="656.69" x2="662.51" y1="702.23" y2="675.04" class="cls-7"/><line x1="656.69" x2="684.99" y1="702.23" y2="686.64" class="cls-7"/><line x1="663.4" x2="684.99" y1="716.71" y2="686.64" class="cls-7"/><line x1="729.86" x2="707.66" y1="661.73" y2="660.34" class="cls-8"/><line x1="684.99" x2="692.51" y1="686.64" y2="660.35" class="cls-8"/><line x1="681.56" x2="729.86" y1="726.32" y2="661.73" class="cls-8"/><line x1="681.56" x2="684.99" y1="726.32" y2="686.64" class="cls-7"/><line x1="707.66" x2="684.99" y1="660.34" y2="686.64" class="cls-7"/><line x1="707.66" x2="719.49" y1="660.34" y2="622.11" class="cls-7"/><line x1="692.51" x2="719.49" y1="660.35" y2="622.11" class="cls-7"/><line x1="684.99" x2="719.49" y1="623.82" y2="622.11" class="cls-7"/><line x1="692.52" x2="684.99" y1="660.34" y2="623.82" class="cls-7"/><line x1="670.24" x2="684.99" y1="648.41" y2="623.82" class="cls-7"/><line x1="660.38" x2="684.99" y1="606.32" y2="623.82" class="cls-7"/><line x1="589.07" x2="622.58" y1="571.82" y2="586.96" class="cls-5"/><line x1="598.04" x2="622.58" y1="595.39" y2="586.96" class="cls-8"/><line x1="612.03" x2="596.49" y1="559.83" y2="538.56" class="cls-10"/><line x1="633.42" x2="596.49" y1="554.8" y2="538.56" class="cls-10"/><line x1="612.03" x2="622.58" y1="559.83" y2="586.96" class="cls-5"/><line x1="589.07" x2="612.03" y1="571.82" y2="559.83" class="cls-9"/><line x1="633.42" x2="612.03" y1="554.8" y2="559.83" class="cls-9"/><line x1="633.42" x2="622.58" y1="554.8" y2="586.96" class="cls-8"/><line x1="645.59" x2="622.58" y1="576.48" y2="586.96" class="cls-5"/><line x1="617.36" x2="622.58" y1="613.91" y2="586.96" class="cls-5"/><line x1="660.38" x2="622.58" y1="606.32" y2="586.96" class="cls-5"/><line x1="612.03" x2="617.36" y1="641.75" y2="613.91" class="cls-9"/><line x1="595.92" x2="617.36" y1="637.62" y2="613.91" class="cls-9"/><line x1="595.92" x2="578.74" y1="637.62" y2="632.42" class="cls-9"/><line x1="595.92" x2="612.03" y1="637.62" y2="641.75" class="cls-9"/><line x1="595.92" x2="598.04" y1="637.62" y2="654.44" class="cls-11"/><line x1="581.52" x2="598.04" y1="677.61" y2="654.44" class="cls-9"/><line x1="599.38" x2="598.04" y1="676.91" y2="654.44" class="cls-9"/><line x1="579.99" x2="598.04" y1="654.44" y2="654.44" class="cls-6"/><line x1="613.37" x2="598.04" y1="656.66" y2="654.44" class="cls-6"/><line x1="613.37" x2="641.87" y1="656.66" y2="662.92" class="cls-6"/><line x1="638.14" x2="612.03" y1="644.68" y2="641.75" class="cls-9"/><line x1="613.37" x2="612.03" y1="656.66" y2="641.75" class="cls-11"/><line x1="638.14" x2="660.38" y1="644.68" y2="606.32" class="cls-5"/><line x1="576.87" x2="578.74" y1="624.83" y2="632.42" class="cls-9"/><line x1="586.46" x2="617.36" y1="622.57" y2="613.91" class="cls-9"/><line x1="660.38" x2="617.36" y1="606.32" y2="613.91" class="cls-9"/><line x1="660.38" x2="690.01" y1="606.32" y2="579.21" class="cls-7"/><line x1="684.99" x2="690.01" y1="623.82" y2="579.21" class="cls-7"/><line x1="716.28" x2="690.01" y1="585.32" y2="579.21" class="cls-7"/><line x1="684.99" x2="716.27" y1="623.82" y2="585.32" class="cls-7"/><line x1="737.33" x2="716.27" y1="584.53" y2="585.32" class="cls-7"/><line x1="728.15" x2="716.27" y1="559.2" y2="585.32" class="cls-7"/><line x1="728.15" x2="737.33" y1="559.2" y2="584.53" class="cls-7"/><line x1="741.84" x2="737.33" y1="557.49" y2="584.53" class="cls-7"/><line x1="741.84" x2="741.11" y1="557.49" y2="515.84" class="cls-7"/><line x1="703.55" x2="697.08" y1="550.48" y2="510.39" class="cls-7"/><line x1="703.55" x2="675.1" y1="550.48" y2="506.2" class="cls-7"/><line x1="703.55" x2="716.28" y1="550.48" y2="585.32" class="cls-7"/><line x1="737.33" x2="719.49" y1="584.53" y2="622.11" class="cls-7"/><line x1="742.78" x2="737.33" y1="594.53" y2="584.53" class="cls-7"/><line x1="742.78" x2="729.86" y1="594.53" y2="661.73" class="cls-7"/><line x1="684.99" x2="702.31" y1="686.64" y2="698.58" class="cls-5"/><line x1="704.19" x2="702.3" y1="712.06" y2="698.58" class="cls-8"/><line x1="704.19" x2="729.86" y1="712.06" y2="661.73" class="cls-7"/><line x1="704.19" x2="659.73" y1="712.06" y2="756.64" class="cls-7"/><line x1="696.32" x2="701.24" y1="719.95" y2="766.69" class="cls-7"/><line x1="692.87" x2="701.24" y1="802.61" y2="766.7" class="cls-7"/><line x1="692.87" x2="706.11" y1="802.61" y2="843.69" class="cls-7"/><line x1="692.87" x2="689.6" y1="802.61" y2="838.1" class="cls-7"/><line x1="706.11" x2="689.6" y1="843.69" y2="838.1" class="cls-7"/><line x1="691.32" x2="689.6" y1="869.41" y2="838.1" class="cls-7"/><line x1="706.11" x2="691.32" y1="843.69" y2="869.41" class="cls-7"/><line x1="717.46" x2="691.32" y1="852" y2="869.41" class="cls-7"/><line x1="696.09" x2="691.32" y1="918.72" y2="869.41" class="cls-7"/><line x1="696.09" x2="740.23" y1="918.72" y2="932.02" class="cls-7"/><line x1="696.09" x2="706.11" y1="918.72" y2="949.51" class="cls-12"/><line x1="737.33" x2="759.16" y1="850.78" y2="878.5" class="cls-7"/><line x1="728.59" x2="759.16" y1="872.84" y2="878.5" class="cls-7"/><line x1="728.59" x2="711.72" y1="872.84" y2="898.7" class="cls-8"/><line x1="796.65" x2="759.16" y1="896.06" y2="878.5" class="cls-7"/><line x1="676.53" x2="689.6" y1="815.93" y2="838.1" class="cls-7"/><line x1="657.89" x2="689.6" y1="842.5" y2="838.1" class="cls-7"/><line x1="657.89" x2="623.75" y1="842.5" y2="874.04" class="cls-7"/><line x1="626.02" x2="623.74" y1="855.47" y2="874.04" class="cls-7"/><line x1="626.02" x2="657.89" y1="855.47" y2="828.32" class="cls-7"/><line x1="657.89" x2="655.93" y1="842.5" y2="871.13" class="cls-7"/><line x1="691.32" x2="655.93" y1="869.41" y2="871.13" class="cls-7"/><line x1="691.32" x2="657.65" y1="869.41" y2="895.25" class="cls-7"/><line x1="625.46" x2="657.65" y1="902.59" y2="895.25" class="cls-6"/><line x1="654.21" x2="657.65" y1="919.18" y2="895.25" class="cls-7"/><line x1="654.21" x2="691.32" y1="919.18" y2="869.41" class="cls-7"/><line x1="654.21" x2="625.46" y1="919.18" y2="902.59" class="cls-13"/><line x1="654.22" x2="658.58" y1="919.17" y2="949.51" class="cls-12"/><line x1="654.22" x2="591.09" y1="919.17" y2="970.94" class="cls-8"/><line x1="570.87" x2="539.76" y1="918.72" y2="905.61" class="cls-7"/><line x1="570.87" x2="569.15" y1="918.72" y2="889.38" class="cls-7"/><line x1="592.29" x2="569.15" y1="890.1" y2="889.38" class="cls-7"/><line x1="592.29" x2="570.87" y1="890.1" y2="918.72" class="cls-7"/><line x1="625.46" x2="570.87" y1="902.59" y2="918.72" class="cls-7"/><line x1="625.46" x2="592.29" y1="902.59" y2="890.1" class="cls-9"/><line x1="625.46" x2="623.74" y1="902.59" y2="874.04" class="cls-7"/><line x1="592.29" x2="623.74" y1="890.1" y2="874.04" class="cls-7"/><line x1="540.5" x2="569.15" y1="884.9" y2="889.38" class="cls-7"/><line x1="540.5" x2="565.87" y1="884.9" y2="863.6" class="cls-7"/><line x1="588.96" x2="565.87" y1="836.9" y2="863.6" class="cls-7"/><line x1="588.96" x2="592.29" y1="836.9" y2="890.1" class="cls-8"/><line x1="565.87" x2="592.29" y1="863.6" y2="890.1" class="cls-7"/><line x1="539.76" x2="569.15" y1="905.61" y2="889.38" class="cls-7"/><line x1="570.87" x2="539.76" y1="918.72" y2="921.35" class="cls-12"/><line x1="570.87" x2="559.36" y1="918.72" y2="957.77" class="cls-8"/><line x1="570.87" x2="591.09" y1="918.72" y2="970.94" class="cls-7"/><line x1="655.93" x2="657.65" y1="871.13" y2="895.25" class="cls-7"/><line x1="655.93" x2="625.46" y1="871.13" y2="902.59" class="cls-7"/><line x1="623.74" x2="655.93" y1="874.04" y2="871.13" class="cls-7"/><line x1="676.53" x2="657.89" y1="815.93" y2="842.5" class="cls-7"/><line x1="676.53" x2="657.89" y1="815.93" y2="828.32" class="cls-7"/><line x1="676.53" x2="673.75" y1="815.93" y2="796.9" class="cls-7"/><line x1="687.48" x2="673.75" y1="763.86" y2="796.9" class="cls-7"/><line x1="687.48" x2="701.24" y1="763.86" y2="766.69" class="cls-7"/><line x1="687.48" x2="696.32" y1="763.86" y2="719.95" class="cls-7"/><line x1="667.21" x2="696.32" y1="765.28" y2="719.95" class="cls-7"/><line x1="667.21" x2="650.4" y1="765.28" y2="787.39" class="cls-7"/><line x1="628.04" x2="650.4" y1="812.88" y2="787.39" class="cls-7"/><line x1="628.04" x2="588.96" y1="812.88" y2="836.9" class="cls-7"/><line x1="623.74" x2="588.96" y1="874.04" y2="836.9" class="cls-7"/><line x1="692.87" x2="676.53" y1="802.61" y2="815.93" class="cls-7"/><line x1="656.05" x2="659.73" y1="749.14" y2="756.64" class="cls-7"/><line x1="681.56" x2="656.05" y1="726.32" y2="749.14" class="cls-7"/><line x1="656.69" x2="663.4" y1="702.23" y2="716.71" class="cls-7"/><line x1="656.69" x2="625.75" y1="702.23" y2="718.43" class="cls-7"/><line x1="646.93" x2="625.75" y1="723.22" y2="718.43" class="cls-7"/><line x1="625.05" x2="625.75" y1="741.26" y2="718.43" class="cls-7"/><line x1="610.4" x2="625.75" y1="731.8" y2="718.43" class="cls-7"/><line x1="646.93" x2="663.4" y1="723.22" y2="716.71" class="cls-7"/><line x1="656.05" x2="663.4" y1="749.14" y2="716.71" class="cls-7"/><line x1="629.33" x2="625.75" y1="701.01" y2="718.43" class="cls-7"/><line x1="613.62" x2="625.75" y1="702.2" y2="718.43" class="cls-7"/><line x1="579.99" x2="603.07" y1="695.01" y2="695.01" class="cls-7"/><circle cx="629.33" cy="701.01" r="1.2" class="cls-60"/><circle cx="719.49" cy="622.11" r="1.2" class="cls-60"/><circle cx="617.36" cy="613.91" r="1.2" class="cls-60"/><circle cx="646.93" cy="723.22" r="1.2" class="cls-60"/><circle cx="662.51" cy="675.04" r="1.72" class="cls-60"/><circle cx="656.69" cy="702.23" r="1.72" class="cls-60"/><circle cx="625.75" cy="718.43" r="1.72" class="cls-60"/><circle cx="684.99" cy="686.64" r="1.72" class="cls-60"/><circle cx="663.4" cy="716.71" r="1.2" class="cls-60"/><circle cx="681.56" cy="726.32" r="1.72" class="cls-60"/><circle cx="684.99" cy="623.82" r="1.72" class="cls-60"/><circle cx="670.24" cy="648.41" r="1.72" class="cls-60"/><circle cx="660.38" cy="606.32" r="1.72" class="cls-60"/><circle cx="622.73" cy="587.04" r="1.72" class="cls-60"/><circle cx="633.43" cy="554.8" r="1.72" class="cls-60"/><circle cx="716.27" cy="585.32" r="1.72" class="cls-60"/><line x1="383.51" x2="379.09" y1="867.98" y2="918.72" class="cls-7"/><line x1="383.51" x2="421.01" y1="867.98" y2="919.92" class="cls-7"/><line x1="416.89" x2="421.01" y1="895.86" y2="919.92" class="cls-7"/><line x1="419.29" x2="421.01" y1="949.87" y2="919.92" class="cls-12"/><line x1="485.42" x2="421.01" y1="972.04" y2="919.92" class="cls-8"/><line x1="485.42" x2="504.31" y1="972.04" y2="917" class="cls-7"/><line x1="520.34" x2="504.31" y1="962.36" y2="917" class="cls-7"/><line x1="539.76" x2="504.31" y1="921.35" y2="917" class="cls-9"/><line x1="449.74" x2="504.31" y1="902.04" y2="917" class="cls-9"/><line x1="449.74" x2="421.01" y1="902.04" y2="919.92" class="cls-13"/><line x1="416.89" x2="449.74" y1="895.86" y2="902.04" class="cls-7"/><line x1="416.89" x2="449.74" y1="895.86" y2="902.04" class="cls-9"/><line x1="416.89" x2="419.29" y1="895.86" y2="871.72" class="cls-7"/><line x1="416.89" x2="383.51" y1="895.86" y2="867.98" class="cls-7"/><line x1="383.51" x2="372.68" y1="867.98" y2="838.55" class="cls-7"/><line x1="400.05" x2="443.87" y1="816.7" y2="847.07" class="cls-7"/><line x1="438.18" x2="443.87" y1="827.63" y2="847.07" class="cls-7"/><line x1="438.18" x2="447.81" y1="827.63" y2="812.88" class="cls-7"/><line x1="438.18" x2="431.41" y1="827.63" y2="821.76" class="cls-7"/><line x1="422.31" x2="431.41" y1="832.13" y2="821.76" class="cls-7"/><line x1="426.86" x2="431.41" y1="801.78" y2="821.76" class="cls-7"/><line x1="426.86" x2="433.47" y1="801.78" y2="793.28" class="cls-7"/><line x1="426.86" x2="382.25" y1="801.78" y2="731.1" class="cls-7"/><line x1="417.21" x2="382.25" y1="808.73" y2="731.1" class="cls-7"/><line x1="422.31" x2="415.69" y1="832.13" y2="839.76" class="cls-7"/><line x1="400.05" x2="415.69" y1="816.71" y2="839.76" class="cls-7"/><line x1="400.05" x2="388.92" y1="816.71" y2="838.55" class="cls-7"/><line x1="383.51" x2="386.97" y1="787.7" y2="798.86" class="cls-7"/><line x1="390.48" x2="393.24" y1="756.61" y2="776.64" class="cls-7"/><line x1="390.48" x2="377.75" y1="756.61" y2="717.16" class="cls-7"/><line x1="447.81" x2="377.75" y1="812.88" y2="717.16" class="cls-7"/><line x1="390.48" x2="404.82" y1="756.61" y2="794.35" class="cls-7"/><line x1="400.05" x2="404.82" y1="816.71" y2="794.35" class="cls-7"/><line x1="400.05" x2="386.97" y1="816.71" y2="798.86" class="cls-7"/><line x1="388.92" x2="386.97" y1="838.55" y2="798.86" class="cls-7"/><line x1="388.92" x2="372.68" y1="838.55" y2="838.55" class="cls-7"/><line x1="388.93" x2="383.51" y1="838.55" y2="867.98" class="cls-7"/><line x1="315.67" x2="293.63" y1="878.05" y2="888.73" class="cls-12"/><line x1="315.67" x2="345.59" y1="878.05" y2="873.44" class="cls-7"/><line x1="338.32" x2="345.59" y1="851.32" y2="873.44" class="cls-7"/><line x1="357.85" x2="345.59" y1="853.13" y2="873.44" class="cls-7"/><line x1="388.92" x2="415.69" y1="838.55" y2="839.76" class="cls-7"/><line x1="419.29" x2="388.93" y1="871.72" y2="838.55" class="cls-7"/><line x1="419.29" x2="415.69" y1="871.72" y2="839.76" class="cls-7"/><line x1="453.18" x2="449.74" y1="873.44" y2="902.04" class="cls-9"/><line x1="453.18" x2="483.02" y1="873.44" y2="890.1" class="cls-7"/><line x1="449.74" x2="483.02" y1="902.04" y2="890.1" class="cls-9"/><line x1="539.76" x2="506.02" y1="905.61" y2="888.18" class="cls-9"/><line x1="504.31" x2="539.76" y1="917" y2="905.61" class="cls-9"/><line x1="504.31" x2="506.02" y1="917" y2="888.18" class="cls-9"/><line x1="504.31" x2="483.02" y1="917" y2="890.1" class="cls-7"/><line x1="506.02" x2="483.02" y1="888.18" y2="890.1" class="cls-7"/><line x1="453.18" x2="419.29" y1="873.44" y2="871.72" class="cls-7"/><line x1="453.18" x2="415.69" y1="873.44" y2="839.76" class="cls-7"/><line x1="443.87" x2="415.69" y1="847.07" y2="839.76" class="cls-7"/><line x1="443.87" x2="464.81" y1="847.07" y2="863.6" class="cls-7"/><line x1="419.29" x2="449.74" y1="871.72" y2="902.04" class="cls-9"/><circle cx="449.74" cy="902.04" r="1.72" class="cls-60"/><circle cx="419.29" cy="871.72" r="1.72" class="cls-60"/><circle cx="625.46" cy="902.59" r="1.72" class="cls-60"/><circle cx="655.93" cy="871.13" r="1.72" class="cls-60"/><circle cx="691.32" cy="869.41" r="1.72" class="cls-60"/><circle cx="696.09" cy="918.72" r="1.72" class="cls-60"/><circle cx="728.59" cy="872.84" r="1.2" class="cls-60"/><circle cx="759.16" cy="878.5" r="1.72" class="cls-60"/><circle cx="654.21" cy="919.18" r="1.2" class="cls-60"/><circle cx="570.87" cy="918.72" r="1.72" class="cls-60"/><circle cx="539.76" cy="905.61" r="1.2" class="cls-60"/><circle cx="569.15" cy="889.38" r="1.2" class="cls-60"/><circle cx="540.5" cy="884.9" r="1.2" class="cls-60"/><circle cx="592.29" cy="890.1" r="1.2" class="cls-60"/><circle cx="623.74" cy="874.04" r="1.2" class="cls-60"/><circle cx="443.87" cy="847.07" r="1.2" class="cls-60"/><circle cx="415.69" cy="839.76" r="1.2" class="cls-60"/><circle cx="453.18" cy="873.44" r="1.2" class="cls-60"/><circle cx="483.02" cy="890.1" r="1.72" class="cls-60"/><circle cx="421.01" cy="919.92" r="1.72" class="cls-60"/><circle cx="379.09" cy="918.72" r="1.2" class="cls-60"/><circle cx="383.51" cy="867.98" r="1.72" class="cls-60"/><circle cx="388.92" cy="838.55" r="1.2" class="cls-60"/><circle cx="345.59" cy="873.44" r="1.2" class="cls-60"/><circle cx="315.67" cy="878.05" r="1.2" class="cls-60"/><line x1="412.78" x2="393.24" y1="764.89" y2="776.64" class="cls-7"/><line x1="393.24" x2="386.97" y1="776.64" y2="798.86" class="cls-7"/><line x1="404.82" x2="420.73" y1="794.35" y2="775.88" class="cls-7"/><line x1="458.34" x2="443.27" y1="835.94" y2="819.83" class="cls-7"/><line x1="458.34" x2="447.81" y1="835.94" y2="812.88" class="cls-7"/><line x1="447.81" x2="465.8" y1="812.88" y2="823.07" class="cls-12"/><line x1="458.34" x2="476.7" y1="835.94" y2="847.07" class="cls-12"/><line x1="458.34" x2="464.81" y1="835.94" y2="863.6" class="cls-12"/><line x1="458.34" x2="465.8" y1="835.94" y2="823.07" class="cls-7"/><line x1="476.7" x2="465.8" y1="847.07" y2="823.07" class="cls-7"/><line x1="481.94" x2="465.8" y1="835.38" y2="823.07" class="cls-7"/><line x1="451.57" x2="465.8" y1="807.78" y2="823.07" class="cls-7"/><line x1="451.57" x2="399.86" y1="807.78" y2="742.55" class="cls-7"/><circle cx="419.29" cy="554.8" r="1.72" class="cls-60"/><circle cx="392.17" cy="584.53" r="1.72" class="cls-60"/><line x1="382.66" x2="364.31" y1="546.46" y2="586.96" class="cls-8"/><circle cx="425.49" cy="595.39" r="1.72" class="cls-60"/><circle cx="451.66" cy="596.31" r="1.72" class="cls-60"/><circle cx="443.92" cy="553.59" r="1.72" class="cls-60"/><circle cx="481.52" cy="564.47" r="1.72" class="cls-60"/><circle cx="478.08" cy="531.86" r="1.72" class="cls-60"/><circle cx="451.66" cy="535.32" r="1.72" class="cls-60"/><circle cx="498.45" cy="551.88" r="1.72" class="cls-60"/><circle cx="518.83" cy="559.83" r="1.72" class="cls-60"/><circle cx="723.78" cy="319.75" r="1.72" class="cls-60"/><circle cx="675.72" cy="317.19" r="1.2" class="cls-60"/><circle cx="714.49" cy="392.74" r="1.72" class="cls-60"/><circle cx="707.84" cy="343.9" r="1.72" class="cls-60"/><line x1="612.4" x2="608.17" y1="455.95" y2="449.51" class="cls-11"/><path d="M625.33,452.73s23.27-6.27,44.89,1.83" class="cls-1"/><line x1="623.66" x2="639.82" y1="488.69" y2="489.6" class="cls-12"/><line x1="623.66" x2="644.2" y1="488.69" y2="500.33" class="cls-12"/><line x1="664.72" x2="644.2" y1="526.26" y2="500.33" class="cls-11"/><line x1="623.66" x2="612.72" y1="488.69" y2="506.99" class="cls-7"/><line x1="639.82" x2="664.72" y1="489.6" y2="489.6" class="cls-12"/><line x1="612.03" x2="623.66" y1="472.56" y2="488.69" class="cls-12"/><circle cx="644.2" cy="500.33" r="1.72" class="cls-60"/><line x1="634.98" x2="639.82" y1="477.27" y2="489.6" class="cls-12"/><line x1="653.1" x2="639.82" y1="477.6" y2="489.6" class="cls-12"/><line x1="653.1" x2="664.72" y1="477.6" y2="489.6" class="cls-12"/><line x1="744.41" x2="756.29" y1="398.94" y2="402.89" class="cls-11"/><line x1="744.41" x2="738.12" y1="398.94" y2="365.35" class="cls-11"/><line x1="744.41" x2="730.83" y1="398.94" y2="405.52" class="cls-11"/><line x1="726.62" x2="730.83" y1="368.6" y2="405.52" class="cls-11"/><line x1="726.62" x2="738.12" y1="368.6" y2="365.35" class="cls-11"/><line x1="733.1" x2="750.4" y1="429.83" y2="426.19" class="cls-11"/><line x1="713.47" x2="733.1" y1="466.07" y2="429.83" class="cls-11"/><line x1="713.47" x2="707.84" y1="466.07" y2="444" class="cls-12"/><line x1="699.75" x2="690.84" y1="474.65" y2="463.93" class="cls-12"/><line x1="733.1" x2="733.1" y1="429.83" y2="468.55" class="cls-11"/><line x1="722.28" x2="733.1" y1="449.82" y2="468.55" class="cls-11"/><line x1="722.28" x2="716.29" y1="449.82" y2="405.52" class="cls-11"/><line x1="707.47" x2="716.29" y1="424.38" y2="405.52" class="cls-12"/><line x1="722.28" x2="730.83" y1="449.82" y2="405.52" class="cls-11"/><line x1="744.41" x2="733.1" y1="398.94" y2="429.83" class="cls-11"/><line x1="417.21" x2="426.86" y1="808.73" y2="801.78" class="cls-7"/><line x1="426.86" x2="443.27" y1="801.78" y2="819.83" class="cls-7"/><line x1="417.21" x2="431.41" y1="808.73" y2="821.76" class="cls-7"/><line x1="417.21" x2="404.82" y1="808.73" y2="794.35" class="cls-7"/><line x1="393.24" x2="404.82" y1="776.64" y2="794.35" class="cls-7"/><line x1="393.24" x2="378.64" y1="776.64" y2="728.04" class="cls-7"/><polygon points="377.75 717.16 369.39 786.49 383.51 787.7 377.75 717.16" class="cls-102"/><circle cx="664.72" cy="526.26" r="1.72" class="cls-60"/><circle cx="703.55" cy="550.48" r="1.72" class="cls-60"/><circle cx="690.01" cy="579.21" r="1.72" class="cls-60"/><circle cx="728.15" cy="559.2" r="1.72" class="cls-60"/><circle cx="738.12" cy="365.35" r="1.72" class="cls-60"/><circle cx="537.27" cy="317.19" r="1.72" class="cls-60"/><circle cx="478.08" cy="508.59" r="1.2" class="cls-60"/><circle cx="479.8" cy="638.98" r="1.2" class="cls-60"/><circle cx="405.73" cy="704.17" r="1.2" class="cls-60"/><circle cx="441.05" cy="705.46" r="1.2" class="cls-60"/><circle cx="458.79" cy="501.57" r="1.2" class="cls-60"/><circle cx="424.31" cy="511.71" r="1.2" class="cls-60"/><circle cx="477.08" cy="654.44" r="1.72" class="cls-60"/><circle cx="498.15" cy="652.34" r="1.72" class="cls-60"/><circle cx="437.22" cy="649" r="1.72" class="cls-60"/><circle cx="456.62" cy="644.68" r="1.72" class="cls-60"/><circle cx="416.38" cy="649" r="1.72" class="cls-60"/><circle cx="393.26" cy="646.09" r="1.72" class="cls-60"/><circle cx="364.31" cy="586.96" r="1.72" class="cls-60"/><circle cx="382.66" cy="546.46" r="1.72" class="cls-60"/><circle cx="356.92" cy="540.13" r="1.72" class="cls-60"/><circle cx="360.69" cy="494.89" r="1.72" class="cls-60"/><circle cx="394.98" cy="504" r="1.72" class="cls-60"/><circle cx="505.81" cy="531.86" r="1.72" class="cls-60"/><line x1="584.24" x2="612.72" y1="484.33" y2="506.99" class="cls-9"/><line x1="584.25" x2="592.02" y1="484.33" y2="518.77" class="cls-5"/><line x1="605.83" x2="612.72" y1="530.78" y2="506.99" class="cls-4"/><line x1="605.83" x2="641.48" y1="530.78" y2="528.5" class="cls-4"/><circle cx="641.32" cy="528.34" r="1.72" class="cls-60"/><circle cx="519.71" cy="531.86" r="1.72" class="cls-60"/><circle cx="520.54" cy="505.29" r="1.72" class="cls-60"/><path d="M408.76,462.69s13.56,10.38,39.13,9.99" class="cls-15"/><path d="M295.87,484.86s14.72-17.63,24.29,12.88" class="cls-14"/><polygon points="589.07 571.82 598.04 595.39 579.56 570.21 585.56 559.09 589.07 571.82" class="cls-47"/><line x1="579.56" x2="598.04" y1="570.21" y2="595.39" class="cls-9"/><line x1="588.96" x2="562.58" y1="836.9" y2="816.86" class="cls-12"/><line x1="620.64" x2="696.32" y1="803.82" y2="719.95" class="cls-12"/><line x1="620.64" x2="590.8" y1="803.82" y2="814" class="cls-12"/><line x1="562.58" x2="590.8" y1="816.85" y2="814" class="cls-12"/><polyline points="619.66 797.93 620.64 803.82 628.04 812.88 626.02 855.47" class="cls-14"/><line x1="620.64" x2="588.96" y1="803.82" y2="836.9" class="cls-12"/><line x1="673.75" x2="608.72" y1="796.9" y2="857.69" class="cls-12"/><polyline points="643.69 811.82 686.33 749.14 696.32 719.95" class="cls-14"/><polyline points="638.22 801.27 643.69 811.82 657.89 828.32" class="cls-12"/><line x1="641.07" x2="660.87" y1="776.86" y2="808.94" class="cls-12"/><line x1="643.69" x2="600.24" y1="811.82" y2="848.6" class="cls-7"/><line x1="540.5" x2="588.96" y1="834.33" y2="836.9" class="cls-12"/><line x1="540.5" x2="588.96" y1="849.01" y2="836.9" class="cls-8"/><line x1="608.72" x2="565.87" y1="857.69" y2="863.6" class="cls-8"/><line x1="600.24" x2="565.87" y1="848.6" y2="863.6" class="cls-12"/><line x1="540.5" x2="565.87" y1="858.54" y2="863.6" class="cls-12"/><circle cx="565.87" cy="863.6" r="1.2" class="cls-60"/><circle cx="386.97" cy="798.86" r="1.2" class="cls-60"/><polygon points="397.62 717.16 369.39 709.4 400.91 739.87 397.62 717.16" class="cls-130"/><polygon points="433.52 768.92 369.39 709.4 454.39 801.86 454.9 792.42 433.52 768.92" class="cls-146"/><circle cx="357.25" cy="435.67" r="1.72" class="cls-60"/><circle cx="343.36" cy="453.14" r="1.72" class="cls-60"/><circle cx="366.69" cy="428.18" r="1.72" class="cls-60"/><circle cx="386.19" cy="426.76" r="1.72" class="cls-60"/><circle cx="374.08" cy="442.08" r="1.72" class="cls-60"/><circle cx="381.26" cy="404.96" r="1.72" class="cls-60"/><circle cx="474.87" cy="365.73" r="1.72" class="cls-60"/><circle cx="470.73" cy="322.46" r="1.72" class="cls-60"/><circle cx="504.31" cy="917" r="1.72" class="cls-60"/><circle cx="506.02" cy="888.18" r="1.2" class="cls-60"/><circle cx="493.98" cy="869.41" r="1.2" class="cls-60"/><polyline points="540.5 819.61 576.29 827.27 620.64 803.82" class="cls-8"/><line x1="676.53" x2="701.24" y1="815.93" y2="766.69" class="cls-8"/><line x1="673.75" x2="686.33" y1="796.9" y2="749.14" class="cls-12"/><line x1="660.87" x2="676.53" y1="808.94" y2="815.93" class="cls-12"/><line x1="653.49" x2="673.75" y1="797.41" y2="796.9" class="cls-12"/><line x1="701.24" x2="673.75" y1="766.69" y2="796.9" class="cls-12"/><circle cx="394.76" cy="175.26" r="1.2" class="cls-60"/><line x1="715.19" x2="741.11" y1="483.23" y2="515.84" class="cls-8"/><line x1="697.08" x2="682.67" y1="510.39" y2="488.42" class="cls-12"/><line x1="697.08" x2="722.62" y1="510.39" y2="523.44" class="cls-8"/><line x1="715.19" x2="722.62" y1="483.23" y2="523.44" class="cls-8"/><line x1="675.1" x2="666.21" y1="506.2" y2="493.52" class="cls-12"/><line x1="675.1" x2="697.08" y1="506.2" y2="510.39" class="cls-12"/><line x1="715.19" x2="697.08" y1="483.23" y2="510.39" class="cls-12"/></g></svg>