<svg xmlns="http://www.w3.org/2000/svg" width="391" height="391" fill="none" viewBox="0 0 391 391"><g clip-path="url(#clip0_288_333)"><path fill="#075A5A" d="M195.5 391C303.472 391 391 303.472 391 195.5C391 87.5283 303.472 0 195.5 0C87.5283 0 0 87.5283 0 195.5C0 303.472 87.5283 391 195.5 391Z"/><g style="mix-blend-mode:screen" opacity=".3"><path fill="#fff" d="M201.583 20.4868V149.853L310.924 198.715L201.583 20.4868Z" opacity=".8"/><path fill="#fff" d="M201.583 20.4868L92.2233 198.715L201.583 149.853V20.4868Z"/><path fill="#fff" d="M201.583 282.549V370.454L311 219.072L201.583 282.549Z" opacity=".8"/><path fill="#fff" d="M201.583 370.454V282.537L92.2232 219.072L201.583 370.454Z"/><path fill="#fff" d="M201.583 262.205L310.923 198.715L201.583 149.885V262.205Z" opacity=".5"/><path fill="#fff" fill-opacity=".3" d="M92.2236 198.715L201.583 262.205V149.885L92.2236 198.715Z"/></g><g style="mix-blend-mode:screen" opacity=".3"><path fill="#fff" d="M201.585 27V146.905L302.929 192.194L201.585 27Z" opacity=".8"/><path fill="#fff" d="M201.585 27L100.223 192.194L201.585 146.905V27Z"/><path fill="#fff" d="M201.588 288.452V361.089L292 236L201.588 288.452Z" opacity=".8"/><path fill="#fff" d="M201.588 361.089V288.441L111.223 236L201.588 361.089Z"/><path fill="#fff" d="M201.585 258.106L302.929 199.259L201.585 154V258.106Z" opacity=".5"/><path fill="#fff" fill-opacity=".3" d="M100.223 199.259L201.585 258.106V154L100.223 199.259Z"/></g><path fill="#C1DCDC" d="M201.589 58.8782V159.862L286.941 198.003L201.589 58.8782Z"/><path fill="#fff" d="M201.589 58.8782L116.223 198.003L201.589 159.862V58.8782Z"/><path fill="#C1DCDC" d="M201.589 263.444V332.063L287 213.894L201.589 263.444Z"/><path fill="#fff" d="M201.589 332.063V263.434L116.223 213.894L201.589 332.063Z"/><path fill="#fff" d="M201.589 247.563L286.941 198.003L201.589 159.886V247.563Z" opacity=".5"/><path fill="#fff" fill-opacity=".3" d="M116.223 198.003L201.589 247.563V159.886L116.223 198.003Z"/></g><defs><clipPath id="clip0_288_333"><rect width="391" height="391" fill="#fff"/></clipPath></defs></svg>