<svg xmlns="http://www.w3.org/2000/svg" width="756" height="721" fill="none" viewBox="0 0 756 721"><path fill="url(#paint0_linear_10001_969)" fill-rule="evenodd" d="M346 692C437.765 692 525.771 655.546 590.659 590.659C655.546 525.771 692 437.765 692 346C692 254.235 655.546 166.229 590.659 101.341C525.771 36.4535 437.765 0 346 0C254.235 0 166.229 36.4535 101.341 101.341C36.4535 166.229 0 254.235 0 346C0 437.765 36.4535 525.771 101.341 590.659C166.229 655.546 254.235 692 346 692Z" clip-rule="evenodd"/><path fill="#171717" d="M202.42 365.03L346.01 450.047L489.353 365.03L346.01 567.44L202.42 365.03Z"/><path fill="#454545" d="M202.42 365.03L346.01 450.047V567.44L202.42 365.03Z"/><path fill="#171717" d="M346.01 418.413L202.42 333.396L346.01 107.26L489.6 333.396L346.01 418.413Z"/><path fill="#454545" d="M346.01 418.413L202.42 333.396L346.01 107.26V418.413Z"/><rect width="250" height="250" x="430" y="399" fill="#fff" rx="125"/><path fill="#171717" d="M648.233 523.127V524.873C607.131 545.345 576.345 576.131 555.874 617.232H554.128C533.656 576.131 502.869 545.345 461.767 524.873V523.127C502.869 502.655 533.656 471.87 554.128 430.768H555.874C576.345 471.87 607.131 502.655 648.233 523.127Z"/><defs><linearGradient id="paint0_linear_10001_969" x1="346" x2="346" y1="0" y2="692" gradientUnits="userSpaceOnUse"><stop stop-color="#fff"/><stop offset="1" stop-color="#DCDCDC"/></linearGradient></defs></svg>