<svg xmlns="http://www.w3.org/2000/svg" width="32" height="32" fill="none" viewBox="0 0 32 32"><rect width="32" height="32" fill="url(#paint0_linear_2671_46414)" rx="16"/><g filter="url(#filter0_i_2671_46414)"><rect width="29.091" height="29.091" x="1.453" y="1.453" fill="#040210" rx="14.546"/><rect width="28.591" height="28.591" x="1.703" y="1.703" stroke="url(#paint1_radial_2671_46414)" stroke-width=".5" rx="14.296"/><g filter="url(#filter1_di_2671_46414)"><path fill="#1647D1" d="M18.3908 14.4151L11.6064 13.9961L7.6875 17.9043L14.4732 18.3233L18.3908 14.4151Z"/><path fill="#00EFFF" d="M7.6875 17.9062L11.7411 20.4309L14.4732 18.3252L7.6875 17.9062Z"/><path fill="#00EFFF" d="M15.6289 15.4187L20.2578 10.8477L22.3782 16.0262L15.6289 15.4187Z"/><path fill="#2B79F7" d="M27.0058 11.4552L22.3769 16.0262L20.2578 10.8477L27.0058 11.4552Z"/><path fill="#00EFFF" d="M9.54688 21.4616L14.1744 16.8906L16.2949 22.0692L9.54688 21.4616Z"/><path fill="#2B79F7" d="M20.9199 17.4982L16.2923 22.0692L14.1719 16.8906L20.9199 17.4982Z"/><path fill="#00EFFF" d="M4.99219 14.5007L9.62107 9.92969L11.7402 15.1083L4.99219 14.5007Z"/><path fill="#2B79F7" d="M16.3691 10.5373L11.7402 15.1083L9.62109 9.92969L16.3691 10.5373Z"/></g></g><defs><filter id="filter0_i_2671_46414" width="29.09" height="29.09" x="1.453" y="1.453" color-interpolation-filters="sRGB" filterUnits="userSpaceOnUse"><feFlood flood-opacity="0" result="BackgroundImageFix"/><feBlend in="SourceGraphic" in2="BackgroundImageFix" mode="normal" result="shape"/><feColorMatrix in="SourceAlpha" result="hardAlpha" type="matrix" values="0 0 0 0 0 0 0 0 0 0 0 0 0 0 0 0 0 0 127 0"/><feOffset/><feGaussianBlur stdDeviation="3"/><feComposite in2="hardAlpha" k2="-1" k3="1" operator="arithmetic"/><feColorMatrix type="matrix" values="0 0 0 0 0.168627 0 0 0 0 0.47451 0 0 0 0 0.968627 0 0 0 1 0"/><feBlend in2="shape" mode="normal" result="effect1_innerShadow_2671_46414"/></filter><filter id="filter1_di_2671_46414" width="22.061" height="12.265" x="4.967" y="9.93" color-interpolation-filters="sRGB" filterUnits="userSpaceOnUse"><feFlood flood-opacity="0" result="BackgroundImageFix"/><feColorMatrix in="SourceAlpha" result="hardAlpha" type="matrix" values="0 0 0 0 0 0 0 0 0 0 0 0 0 0 0 0 0 0 127 0"/><feOffset dy=".099"/><feGaussianBlur stdDeviation=".012"/><feComposite in2="hardAlpha" operator="out"/><feColorMatrix type="matrix" values="0 0 0 0 0 0 0 0 0 0.478431 0 0 0 0 1 0 0 0 1 0"/><feBlend in2="BackgroundImageFix" mode="normal" result="effect1_dropShadow_2671_46414"/><feBlend in="SourceGraphic" in2="effect1_dropShadow_2671_46414" mode="normal" result="shape"/><feColorMatrix in="SourceAlpha" result="hardAlpha" type="matrix" values="0 0 0 0 0 0 0 0 0 0 0 0 0 0 0 0 0 0 127 0"/><feOffset dy=".099"/><feGaussianBlur stdDeviation=".135"/><feComposite in2="hardAlpha" k2="-1" k3="1" operator="arithmetic"/><feColorMatrix type="matrix" values="0 0 0 0 0.0119744 0 0 0 0 0.303303 0 0 0 0 0.538846 0 0 0 0.63 0"/><feBlend in2="shape" mode="normal" result="effect2_innerShadow_2671_46414"/></filter><linearGradient id="paint0_linear_2671_46414" x1="16" x2="16" y1="0" y2="32" gradientUnits="userSpaceOnUse"><stop stop-color="#0AE0FF"/><stop offset=".5" stop-color="#4484FF"/><stop offset="1" stop-color="#0AE0FF"/></linearGradient><radialGradient id="paint1_radial_2671_46414" cx="0" cy="0" r="1" gradientTransform="translate(15.9986 1.45312) rotate(90) scale(29.0909)" gradientUnits="userSpaceOnUse"><stop offset=".711" stop-color="#2B79F7"/><stop offset="1" stop-color="#053796" stop-opacity="0"/></radialGradient></defs></svg>