<svg xmlns="http://www.w3.org/2000/svg" xmlns:svg="http://www.w3.org/2000/svg" id="svg1" width="1440" height="1440" preserveAspectRatio="xMidYMid meet" version="1.0" viewBox="0 0 1080 1080"><metadata id="metadata1">Created by potrace 1.16, written by Peter Selinger 2001-2019</metadata><g id="layer1"><rect style="fill:#fff;stroke-width:.75" id="rect1" width="1020.491" height="405.292" x="30.364" y="310.24"/></g><g id="g1" fill="#000" stroke="none" transform="translate(0.000000,1080.000000) scale(0.100000,-0.100000)"><path id="path1" d="M0 5400 l0 -5400 5400 0 5400 0 0 5400 0 5400 -5400 0 -5400 0 0 -5400z m2512 1330 c281 -489 375 -653 526 -915 262 -455 549 -953 897 -1560 76 -132 162 -282 191 -333 30 -51 54 -95 54 -97 0 -3 -817 -5 -1815 -5 -998 0 -1815 2 -1815 5 0 2 31 57 68 122 38 65 140 242 227 393 87 151 208 363 270 470 62 107 164 285 227 395 234 406 511 889 693 1205 103 179 219 380 257 448 39 68 74 120 78 115 4 -4 68 -114 142 -243z m3309 221 c607 -125 1090 -595 1225 -1191 82 -362 40 -726 -122 -1057 -315 -643 -1032 -992 -1740 -848 -530 108 -989 510 -1168 1024 -66 189 -80 279 -81 516 0 240 8 299 67 485 184 574 665 988 1264 1085 126 20 426 13 555 -14z m4426 -73 c-24 -400 -194 -762 -490 -1045 -217 -207 -499 -353 -786 -407 -46 -9 -97 -16 -115 -17 l-31 -1 35 -8 c19 -5 76 -16 125 -25 377 -69 743 -308 980 -641 169 -237 285 -585 285 -856 l0 -58 -1582 2 -1583 3 3 80 c14 367 173 736 440 1016 212 223 515 392 807 449 61 12 124 25 140 30 l30 8 -28 1 c-16 1 -75 10 -130 22 -630 127 -1127 638 -1236 1269 -11 63 -22 152 -26 198 l-6 82 1587 0 1587 0 -6 -102z"/></g></svg>