<svg xmlns="http://www.w3.org/2000/svg" width="32" height="32" fill="none" viewBox="0 0 32 32"><g clip-path="url(#clip0_10_23953)"><path fill="#0D0D0D" d="M16 32C24.8365 32 32 24.8365 32 16C32 7.16346 24.8365 0 16 0C7.16346 0 0 7.16346 0 16C0 24.8365 7.16346 32 16 32Z"/><path fill="url(#paint0_linear_10_23953)" d="M8.43823 16.7835L11.0994 16.2578L11.9536 16.8821L8.53679 17.6048L8.43823 16.7835Z"/><path fill="url(#paint1_linear_10_23953)" d="M12.1836 19.1494L12.9721 19.9708L10.0481 21.9092L9.81812 20.6279L12.1836 19.1494Z"/><path fill="url(#paint2_linear_10_23953)" d="M12.5779 19.8398L11.5594 23.8481L10.0481 21.9097L12.5779 19.8398Z"/><path fill="url(#paint3_linear_10_23953)" fill-rule="evenodd" d="M12.2819 14.0236L9.94922 11.0996L11.0334 13.8922L11.8876 14.6807L12.2819 14.0236ZM19.7729 14.0236L22.1056 11.0996L21.0214 13.8922L20.1672 14.6807L19.7729 14.0236Z" clip-rule="evenodd"/><path fill="#D5D1B7" fill-rule="evenodd" d="M12.4464 13.5636L7.97827 8.70117L12.2165 13.9578L12.4464 13.5636ZM19.6086 13.5636L24.0768 8.70117L19.8386 13.9578L19.6086 13.5636Z" clip-rule="evenodd"/><path fill="url(#paint4_linear_10_23953)" fill-rule="evenodd" d="M7.94559 8.66895H5.12012L5.67864 13.4L10.9353 15.7655L7.94559 8.66895ZM24.1098 8.66895H26.9353L26.3768 13.4L21.1201 15.7655L24.1098 8.66895Z" clip-rule="evenodd"/><path fill="#847638" fill-rule="evenodd" d="M11.8554 18.0646L11.0665 16.8496L9.29248 17.3427L10.7052 19.051L11.1651 18.4268L11.8554 18.0646ZM20.1997 18.0646L20.9886 16.8496L22.7627 17.3427L21.35 19.051L20.89 18.4268L20.1997 18.0646Z" clip-rule="evenodd"/><path fill="#D1CCC5" fill-rule="evenodd" d="M10.1796 15.9956L7.71558 15.207L8.8983 16.1927L10.1796 15.9956ZM21.8757 15.9956L24.3398 15.207L23.157 16.1927L21.8757 15.9956Z" clip-rule="evenodd"/><path fill="url(#paint5_linear_10_23953)" d="M23.617 16.7835L20.9558 16.2578L20.1016 16.8821L23.5184 17.6048L23.617 16.7835Z"/><path fill="url(#paint6_linear_10_23953)" d="M19.8715 19.1494L19.083 19.9708L22.007 21.9092L22.237 20.6279L19.8715 19.1494Z"/><path fill="#EEEEF0" fill-rule="evenodd" d="M11.5264 19.5768L8.2739 17.7041L8.04395 19.4453L10.048 21.9094L10.1466 20.4967L11.5264 19.5768ZM20.5286 19.5768L23.7811 17.7041L24.0111 19.4453L22.007 21.9094L21.9085 20.4967L20.5286 19.5768Z" clip-rule="evenodd"/><path fill="url(#paint7_linear_10_23953)" d="M19.4773 19.8398L20.4957 23.8481L22.007 21.9097L19.4773 19.8398Z"/><path fill="url(#paint8_linear_10_23953)" fill-rule="evenodd" d="M13.8594 21.3507L12.6109 19.6094L11.5596 23.8476L13.8594 21.3507ZM18.1963 21.3507L19.4447 19.6094L20.4961 23.8476L18.1963 21.3507Z" clip-rule="evenodd"/><path fill="#D7D3C8" fill-rule="evenodd" d="M10.3187 15.9248L8.43823 16.2582L8.44598 16.8168L11.1322 16.2582L10.3187 15.9248ZM21.7365 15.9248L23.6169 16.2582L23.6091 16.8168L20.9229 16.2582L21.7365 15.9248Z" clip-rule="evenodd"/><path fill="#D2CBB7" fill-rule="evenodd" d="M10.4095 18.689L8.43821 16.2578L8.27393 17.6287L10.4095 18.689ZM21.6458 18.689L23.617 16.2578L23.7813 17.6287L21.6458 18.689Z" clip-rule="evenodd"/><path fill="url(#paint9_linear_10_23953)" fill-rule="evenodd" d="M11.132 15.831L6.36816 13.5312L7.7809 15.2397L10.9349 16.291L11.132 15.831ZM20.9229 15.831L25.6867 13.5312L24.274 15.2397L21.12 16.291L20.9229 15.831Z" clip-rule="evenodd"/><path fill="url(#paint10_linear_10_23953)" fill-rule="evenodd" d="M9.39094 9.68744L7.94531 8.66895L10.9679 16.1926L11.5922 15.1412L9.39094 9.68744ZM22.6642 9.68744L24.1097 8.66895L21.0871 16.1926L20.4629 15.1412L22.6642 9.68744Z" clip-rule="evenodd"/><path fill="#EEECED" fill-rule="evenodd" d="M7.87973 15.338L5.54712 12.3154L5.7114 13.6624L7.87973 15.338ZM24.1755 15.338L26.5081 12.3154L26.3439 13.6624L24.1755 15.338Z" clip-rule="evenodd"/><path fill="#F7F7F9" fill-rule="evenodd" d="M12.4794 13.5971L13.3008 12.3815L7.94556 8.66895L12.4794 13.5971ZM19.5758 13.5971L18.7544 12.3815L24.1097 8.66895L19.5758 13.5971Z" clip-rule="evenodd"/><path fill="url(#paint11_linear_10_23953)" d="M12.2164 16.5537L16.0275 19.2478V20.1348L10.8694 17.2108L12.2164 16.5537Z"/><path fill="#3B3618" d="M19.8387 16.5537L16.0276 19.2478V20.1348L21.1857 17.2108L19.8387 16.5537Z"/><path fill="#DFDACA" fill-rule="evenodd" d="M16.0276 19.2479V7.55176L10.771 16.2581L16.0276 19.2479ZM16.0275 24.4388V20.135L10.8694 17.2109L16.0275 24.4388Z" clip-rule="evenodd"/><path fill="#B7AE8F" fill-rule="evenodd" d="M16.0276 19.2479V7.55176L21.2842 16.2581L16.0276 19.2479ZM16.0276 24.4388V20.135L21.1857 17.2109L16.0276 24.4388Z" clip-rule="evenodd"/></g><defs><linearGradient id="paint0_linear_10_23953" x1="11.494" x2="9.358" y1="16.225" y2="17.605" gradientUnits="userSpaceOnUse"><stop stop-color="#827841"/><stop offset="1" stop-color="#BEBA98"/></linearGradient><linearGradient id="paint1_linear_10_23953" x1="10.048" x2="12.611" y1="20.858" y2="19.576" gradientUnits="userSpaceOnUse"><stop stop-color="#DBD9C9"/><stop offset="1" stop-color="#857E4A"/></linearGradient><linearGradient id="paint2_linear_10_23953" x1="12.775" x2="11.888" y1="19.84" y2="22.402" gradientUnits="userSpaceOnUse"><stop stop-color="#C7C29B"/><stop offset="1" stop-color="#E5E1D6"/></linearGradient><linearGradient id="paint3_linear_10_23953" x1="20.923" x2="20.923" y1="11.165" y2="14.681" gradientUnits="userSpaceOnUse"><stop stop-color="#9E914B"/><stop offset="1" stop-color="#89824C"/></linearGradient><linearGradient id="paint4_linear_10_23953" x1="24.028" x2="24.028" y1="8.669" y2="15.765" gradientUnits="userSpaceOnUse"><stop stop-color="#EBE7DC"/><stop offset="1" stop-color="#A69D72"/></linearGradient><linearGradient id="paint5_linear_10_23953" x1="20.561" x2="22.697" y1="16.225" y2="17.605" gradientUnits="userSpaceOnUse"><stop stop-color="#827841"/><stop offset="1" stop-color="#BEBA98"/></linearGradient><linearGradient id="paint6_linear_10_23953" x1="22.007" x2="19.444" y1="20.858" y2="19.576" gradientUnits="userSpaceOnUse"><stop stop-color="#DBD9C9"/><stop offset="1" stop-color="#857E4A"/></linearGradient><linearGradient id="paint7_linear_10_23953" x1="19.28" x2="20.167" y1="19.84" y2="22.402" gradientUnits="userSpaceOnUse"><stop stop-color="#C7C29B"/><stop offset="1" stop-color="#E5E1D6"/></linearGradient><linearGradient id="paint8_linear_10_23953" x1="19.346" x2="19.346" y1="19.609" y2="23.848" gradientUnits="userSpaceOnUse"><stop stop-color="#665F24"/><stop offset="1" stop-color="#948E43"/></linearGradient><linearGradient id="paint9_linear_10_23953" x1="23.305" x2="23.305" y1="13.531" y2="16.291" gradientUnits="userSpaceOnUse"><stop stop-color="#AEA26F"/><stop offset="1" stop-color="#4D4A14"/></linearGradient><linearGradient id="paint10_linear_10_23953" x1="22.286" x2="22.286" y1="8.669" y2="16.193" gradientUnits="userSpaceOnUse"><stop stop-color="#F1EDE2"/><stop offset="1" stop-color="#B2A667"/></linearGradient><linearGradient id="paint11_linear_10_23953" x1="13.448" x2="13.448" y1="16.554" y2="20.135" gradientUnits="userSpaceOnUse"><stop stop-color="#8E7F41"/><stop offset="1" stop-color="#6B6239"/></linearGradient><clipPath id="clip0_10_23953"><rect width="32" height="32" fill="#fff"/></clipPath></defs></svg>