<svg xmlns="http://www.w3.org/2000/svg" width="40" height="40" viewBox="0 0 40 40"><circle cx="20" cy="20" r="20" fill="#d9f2dc"/><rect width="28" height="28" x="6" y="6" fill="#00aa13" rx="7.98" ry="7.98"/><g transform="translate(11.32, 15.936181818181819)"><svg xmlns="http://www.w3.org/2000/svg" width="17.36" height="8.128" viewBox="0 0 1540 721"><path xmlns="http://www.w3.org/2000/svg" fill="#fff" d="M1157.3 720.3c-7.7 0-14.7-4.3-18.3-11.2L957.5 367.7 1145.2 15C1150 6 1159.1.5 1169.3.5h351.4c14.4 0 23.6 15.4 16.9 28.1l-361.8 680.5c-3.6 6.7-10.6 11-18.5 11.2M19.6.3h329.2c10 0 19.3 5.7 24.1 14.6l163.9 308.6-188.6 355L2.8 28.6C-3.9 15.9 5.2.5 19.6.3m719.8 26c3.6-6.8 10.6-11.1 18.3-11.1s14.8 4.4 18.4 11.1l181.4 341.3-179.6 337.9c-4.8 9-13.9 14.6-24.1 14.6H370.4z"/></svg></g></svg>