<svg xmlns="http://www.w3.org/2000/svg" width="40" height="40" viewBox="0 0 40 40"><circle cx="20" cy="20" r="20" fill="#d9e7f8"/><rect width="28" height="28" x="6" y="6" fill="#005ed1" rx="7.98" ry="7.98"/><g transform="translate(12.521148825065275, 11.32)"><svg xmlns="http://www.w3.org/2000/svg" width="14.958" height="17.36" viewBox="0 0 1320 1532"><path xmlns="http://www.w3.org/2000/svg" fill="#fff" d="M1242.4 1000.8h76.8s-32.5 391.9-33.5 392c-135.9 69.3-279 138.4-539.5 138.4-460.2 0-740-297.1-746.1-749.4C-5.8 314.6 312.2 0 776.3 0c190.2 0 414.1 63.7 496.3 111.1v366.8h-73.2c-32-194.2-120.3-376.5-418.5-376.5-352.7 0-553.5 264.8-551 671.7 2.6 383.5 215.8 656.2 537.1 656.2 339.2 0 406.2-198.1 451.6-348z"/></svg></g></svg>