<svg xmlns="http://www.w3.org/2000/svg" width="64" height="64" fill="none" viewBox="0 0 64 64"><path fill="url(#paint0_linear_132_80)" d="M32.04 63.8C49.6027 63.8 63.84 49.5627 63.84 32C63.84 14.4374 49.6027 0.200012 32.04 0.200012C14.4773 0.200012 0.24 14.4374 0.24 32C0.24 49.5627 14.4773 63.8 32.04 63.8Z"/><path fill="url(#paint1_linear_132_80)" d="M32.04 0.199998C49.6 0.199998 63.84 14.44 63.84 32C63.84 49.56 49.6 63.8 32.04 63.8C14.48 63.8 0.24 49.56 0.24 32C0.24 14.44 14.48 0.199998 32.04 0.199998ZM32.04 0.0599976C27.72 0.0599976 23.54 0.899998 19.62 2.56C15.82 4.16 12.4 6.46 9.48 9.4C6.54 12.34 4.24 15.74 2.64 19.54C0.940001 23.5 0.1 27.68 0.1 32C0.1 36.32 0.94 40.5 2.6 44.42C4.2 48.22 6.5 51.64 9.44 54.56C12.38 57.48 15.78 59.8 19.58 61.4C23.52 63.06 27.7 63.9 32 63.9C36.3 63.9 40.5 63.06 44.42 61.4C48.22 59.8 51.64 57.5 54.56 54.56C57.48 51.62 59.8 48.22 61.4 44.42C63.06 40.48 63.9 36.3 63.9 32C63.9 27.7 63.06 23.5 61.4 19.58C59.8 15.78 57.5 12.36 54.56 9.44C51.62 6.5 48.22 4.2 44.42 2.6C40.52 0.919998 36.34 0.0599976 32.04 0.0599976Z"/><path fill="#fff" d="M32.06 57.3L27.84 41.18C27.26 38.96 25.26 37.36 22.96 37.3L15.44 37.1L32 6.70001L36.22 22.82C36.8 25.04 38.8 26.64 41.1 26.7L48.62 26.9L32.06 57.3ZM22.7 32.94H23.1C25.18 33 27.14 33.72 28.78 35.02C30.42 36.32 31.56 38.06 32.08 40.08L33.5 45.52L41.38 31.06H40.98C38.9 31 36.94 30.28 35.3 28.98C33.66 27.68 32.52 25.94 32 23.92L30.58 18.48L22.7 32.94Z"/><path fill="url(#paint2_linear_132_80)" d="M30.82 8.88001C30.24 10.1 29.58 11.26 28.94 12.44L27.02 15.98L23.16 23.04L19.3 30.1L15.44 37.16L15.4 37.08L17.3 37.12L19.2 37.16C19.84 37.16 20.46 37.18 21.1 37.22C21.74 37.22 22.36 37.26 23 37.3C22.36 37.3 21.74 37.3 21.1 37.3C20.46 37.3 19.84 37.28 19.2 37.26L17.3 37.22L15.4 37.16H15.32L15.36 37.08L19.2 30L23.06 22.94L26.92 15.88L28.84 12.34C29.48 11.16 30.1 9.98001 30.82 8.82001V8.88001Z"/><path fill="#FCFF73" d="M32.06 57.3C35.86 50.3 40.14 42.26 44.02 35.32C40.3 42.34 35.86 50.3 32.06 57.3Z"/><path fill="#2CE97A" d="M33.4 12.02C34.22 14.94 35.44 19.56 36.24 22.52C36.6 24.18 37.74 25.7 39.36 26.32C39.88 26.52 40.46 26.64 41.02 26.7C40.44 26.68 39.88 26.56 39.34 26.36C37.7 25.76 36.52 24.22 36.16 22.56C35.38 19.58 34.14 14.96 33.42 12.02H33.4Z"/><defs><linearGradient id="paint0_linear_132_80" x1="37" x2="27.06" y1="63.42" y2=".58" gradientUnits="userSpaceOnUse"><stop offset=".28" stop-color="#ED17FF"/><stop offset=".39" stop-color="#EE14EF"/><stop offset=".61" stop-color="#F40EC5"/><stop offset=".9" stop-color="#FC0382"/><stop offset="1" stop-color="#FF006B"/></linearGradient><linearGradient id="paint1_linear_132_80" x1="59.7" x2="4.38" y1="16.04" y2="47.96" gradientUnits="userSpaceOnUse"><stop stop-color="#FFFA4F"/><stop offset=".26" stop-color="#2CE97A"/><stop offset=".34" stop-color="#56B985"/><stop offset=".43" stop-color="#828991"/><stop offset=".52" stop-color="#A95E9B"/><stop offset=".61" stop-color="#C83CA3"/><stop offset=".7" stop-color="#E021A9"/><stop offset=".8" stop-color="#F10FAE"/><stop offset=".9" stop-color="#FB03B1"/><stop offset="1" stop-color="#FF00B2"/></linearGradient><linearGradient id="paint2_linear_132_80" x1="36.04" x2="12.1" y1="17.82" y2="31.64" gradientUnits="userSpaceOnUse"><stop offset=".28" stop-color="#F64DFF"/><stop offset=".45" stop-color="#F73FEF"/><stop offset=".76" stop-color="#FB1CC5"/><stop offset="1" stop-color="#FF00A3"/></linearGradient></defs></svg>