<svg xmlns="http://www.w3.org/2000/svg" width="100" height="100" fill="none" viewBox="0 0 100 100"><g clip-path="url(#clip0_2551_11328)"><rect width="100" height="100" fill="#1567FE" rx="50"/><path fill="#1567FE" d="M86.9552 80.0898L75.2875 69.2614L80.1604 60.8215L95.3719 65.5117L86.9552 80.0898Z"/><path fill="#fff" d="M63.1667 -0.667969L57.5877 17.332L42.2456 17.332L36.6667 -0.66797L63.1667 -0.667969Z"/><path fill="#fff" d="M100.132 35.9766L81.7537 40.1451L74.0826 26.8584L86.8816 13.0269L100.132 35.9766Z"/><path fill="#fff" d="M86.8817 86.3086L74.0827 72.4771L81.7537 59.1904L100.132 63.3589L86.8817 86.3086Z"/><path fill="#fff" d="M36.6667 100L42.2456 82L57.5877 82L63.1667 100L36.6667 100Z"/><path fill="#fff" d="M-0.298279 63.3594L18.0797 59.1909L25.7507 72.4775L12.9517 86.3091L-0.298279 63.3594Z"/><path fill="#fff" d="M12.9517 13.0234L25.7506 26.8549L18.0796 40.1416L-0.298342 35.9731L12.9517 13.0234Z"/><circle cx="50" cy="49.999" r="35.667" fill="#1567FE"/><circle cx="50" cy="50.001" r="26.833" fill="#fff"/><rect width="43.667" height="8" x="9.5" y="46" fill="#1567FE"/></g><defs><clipPath id="clip0_2551_11328"><rect width="100" height="100" fill="#fff" rx="50"/></clipPath></defs></svg>