<svg xmlns="http://www.w3.org/2000/svg" xmlns:xlink="http://www.w3.org/1999/xlink" id="Layer_2" data-name="Layer 2" viewBox="0 0 500 500"><defs><style>.cls-1{fill:#2f5994}.cls-2{fill:none}.cls-3{fill:#294e83}.cls-4{fill:#2b538a}.cls-5{fill:#223f6a}.cls-6{fill:#3c73c0}.cls-7{fill:#203d65}.cls-8{fill:#376ab0}.cls-9{fill:#3f79c9}.cls-10{fill:#182d4b}.cls-11{fill:#27497a}.cls-12{fill:#23426f}.cls-13{fill:#22406b}.cls-14{fill:#325f9e}.cls-15{fill:#407bce}.cls-16{fill:#2f5995}.cls-17{fill:#162944}.cls-18{fill:#254776}.cls-19{fill:#203c65}.cls-20{fill:#264777}.cls-21{fill:#182e4c}.cls-22{fill:#203c64}.cls-23{fill:#1c3457}.cls-24{fill:#315d9b}.cls-25{fill:#305b97}.cls-26{fill:#3566aa}.cls-27{fill:#3769af}.cls-28{fill:#244370}.cls-29{fill:#284c80}.cls-30{fill:#3668ad}.cls-31{fill:#4079cb}.cls-32{fill:#213e67}.cls-33{fill:#3f79cb}.cls-34{fill:#3768ae}.cls-35{fill:#182e4d}.cls-36{fill:#3b71bc}.cls-37{fill:#1d385d}.cls-38{fill:#1c3558}.cls-39{fill:#3564a7}.cls-40{fill:#274b7d}.cls-41{fill:#3565aa}.cls-42{fill:#2b5188}.cls-43{fill:#b2822d}.cls-44{fill:#315d9c}.cls-45{fill:#203b63}.cls-46{fill:#213e68}.cls-47{fill:#3361a1}.cls-48{fill:#3a6eb9}.cls-49{fill:#3e76c5}.cls-50{fill:#1d365b}.cls-51{fill:#2d568f}.cls-52{fill:#1c3458}.cls-53{fill:#315c9a}.cls-54{fill:#2a5086}.cls-55{fill:#417bce}.cls-56{fill:#3f77c8}.cls-57{fill:#2e5792}.cls-58{fill:#274a7b}.cls-59{fill:#305b99}.cls-60{fill:#3565a8}.cls-61{fill:#3362a4}.cls-62{fill:#3a6eb7}.cls-63{fill:#315e9d}.cls-64{fill:#1d365a}.cls-65{fill:#294e82}.cls-66{fill:#396db6}.cls-67{fill:#294d80}.cls-68{fill:#3d75c4}.cls-69{fill:#192f4e}.cls-70{fill:#2f5a96}.cls-71{fill:#1b3254}.cls-72{fill:#1a3051}.cls-73{fill:#386cb4}.cls-74{fill:#23416d}.cls-75{fill:#3667ac}.cls-76{fill:#1f3a61}.cls-77{fill:#3464a7}.cls-78{fill:#3c72be}.cls-79{fill:#3f78c8}.cls-80{fill:#437fd4}.cls-81{fill:#264878}.cls-82{fill:#3260a0}.cls-83{fill:#2e5894}.cls-84{fill:#294f83}.cls-85{fill:#234370}.cls-86{fill:#2d5690}.cls-87{fill:#1b3253}.cls-88{fill:#192f4f}.cls-89{fill:#3f78c9}.cls-90{fill:#2c538b}.cls-91{fill:#1e385d}.cls-92{fill:#2c548d}.cls-93{fill:#407acc}.cls-94{fill:#1a3253}.cls-95{fill:#1b3355}.cls-96{fill:#1a3050}.cls-97{fill:#1f3a60}.cls-98{fill:#2b5288}.cls-99{fill:#1e3960}.cls-100{fill:#2b528a}.cls-101{fill:#1e395f}.cls-102{fill:#3d74c2}.cls-103{fill:#3361a2}.cls-104{fill:#305c99}.cls-105{fill:#1e385e}.cls-106{fill:#386bb3}.cls-107{fill:#213d67}.cls-108{fill:#427dd2}.cls-109{fill:#1e395e}.cls-110{fill:#2e5892}.cls-111{fill:#254574}.cls-112{fill:#417dd1}.cls-113{fill:#1c3559}.cls-114{fill:#427ed2}.cls-115{fill:#3463a5}.cls-116{fill:#2d558d}.cls-117{fill:#244371}.cls-118{fill:#4380d6}.cls-119{fill:#2a4f84}.cls-120{fill:#2c558d}.cls-121{fill:#396eb7}.cls-122{fill:#325f9f}.cls-123{fill:#3463a6}.cls-124{fill:#23436f}.cls-125{fill:#3d73c1}.cls-126{fill:#213f68}.cls-127{fill:#23426e}.cls-128{fill:#1f3b62}.cls-129{fill:#22416c}.cls-130{fill:#264877}.cls-131{fill:#3f79ca}.cls-132{fill:#3c73c1}.cls-133{fill:#386ab2}.cls-134{fill:#3a70ba}.cls-135{fill:#396cb4}.cls-136{fill:#264879}.cls-137{fill:#1b3456}.cls-138{fill:#284c7e}.cls-139{fill:#264979}.cls-140{fill:#407bcd}.cls-141{fill:#305b98}.cls-142{fill:#1c3456}.cls-143{fill:#1b3354}.cls-144{fill:#2d558f}.cls-145{fill:#417cd0}.cls-146{fill:#376ab1}.cls-147{fill:#3362a3}.cls-148{fill:#284c7f}.cls-149{fill:#3e77c6}.cls-150{fill:#3769b0}.cls-151{fill:#3a6eb8}.cls-152{fill:#2e5791}.cls-153{fill:#3565a9}.cls-154{fill:#3666ab}.cls-155{fill:#386ab1}.cls-156{fill:#244472}.cls-157{fill:#3b70bc}.cls-158{fill:#26497a}.cls-159{fill:#23426d}.cls-160{fill:#1b3356}.cls-161{fill:#e8c787}.cls-162{fill:#22416d}.cls-163{fill:#2f5894}.cls-164{fill:#3564a8}.cls-165{fill:#1e3a60}.cls-166{fill:#315e9c}.cls-167{fill:#417dd0}.cls-168{fill:#182d4c}.cls-169{fill:#3e76c6}.cls-170{fill:#3462a4}.cls-171{fill:#244471}.cls-172{fill:#294d81}.cls-173{fill:#3d74c1}.cls-174{fill:#2c538a}.cls-175{fill:#2c548c}.cls-176{fill:#27497b}.cls-177{fill:#3c72bf}.cls-178{fill:#305a97}.cls-179{fill:#3d75c3}.cls-180{fill:#2f5a97}.cls-181{fill:#396db7}.cls-182{fill:#2e5893}.cls-183{fill:#3a6fb9}.cls-184{fill:#213f69}.cls-185{fill:#1d375b}.cls-186{fill:#274a7c}.cls-187{fill:#1f3b63}.cls-188{fill:#3360a1}.cls-189{fill:#3260a1}.cls-190{fill:#213f6a}.cls-191{fill:#254675}.cls-192{fill:#2a5085}.cls-193{fill:#1b2940}.cls-194{fill:#417ccf}.cls-195{fill:#284b7d}.cls-196{fill:#407acb}.cls-197{fill:#2b5187}.cls-198{fill:#437fd5}.cls-199{fill:#2a5187}.cls-200{fill:#244573}.cls-201{fill:#19304f}.cls-202{fill:#325e9e}.cls-203{fill:#192e4d}.cls-204{fill:#3b72be}.cls-205{fill:#407acd}.cls-206{fill:#1a3152}.cls-207{fill:#203d66}.cls-208{fill:#396cb5}.cls-209{fill:#427dd1}.cls-210{fill:#3d74c3}.cls-211{fill:#386bb4}.cls-212{fill:#305c9a}.cls-213{fill:#3464a6}.cls-214{fill:#3a6fba}.cls-215{fill:#3667ab}.cls-216{fill:#1a3151}.cls-217{fill:#254676}.cls-218{fill:#427fd4}.cls-219{fill:#4380d5}.cls-220{fill:#3b70bb}.cls-221{fill:#2d558e}.cls-222{fill:#2b5289}.cls-223{fill:#3e77c7}.cls-224{clip-path:url(#clippath)}.cls-225{fill:#427ed3}.cls-226{fill:#3667ad}.cls-227{fill:#193050}.cls-228{fill:#386bb2}.cls-229{fill:#284d80}.cls-230{fill:#22406a}.cls-231{fill:#254674}.cls-232{fill:#284b7e}.cls-233{fill:#3e75c4}.cls-234{fill:#2a4f85}.cls-235{fill:#3361a3}.cls-236{fill:#3b71bd}.cls-237{fill:#1d375c}.cls-238{fill:#1c3659}</style><clipPath id="clippath"><path d="M250,293.81c24.2,0,43.81-19.62,43.81-43.81s-19.62-43.81-43.81-43.81-43.81,19.62-43.81,43.81,19.62,43.81,43.81,43.81Z" class="cls-2"/></clipPath></defs><g id="Layer_1-2" data-name="Layer 1"><g><path d="M443.63,92.64c-9.84-12.09-20.77-23.23-32.68-33.29C367.52,22.64,311.34.5,250,.5s-117.73,22.22-161.21,59.06c-11.88,10.08-22.81,21.24-32.63,33.34C21.35,135.79.5,190.46.5,250s22.14,117.52,58.86,160.96c10.06,11.9,21.21,22.85,33.29,32.68,42.93,34.93,97.7,55.87,157.35,55.87s114.21-20.85,157.09-55.66c12.1-9.81,23.27-20.74,33.34-32.63,36.85-43.48,59.07-99.75,59.07-161.21s-20.93-114.42-55.87-157.35Z" class="cls-161"/><path d="M444.02,92.33h0c-1.23-1.51-2.48-3.01-3.75-4.5-2.53-2.97-5.13-5.88-7.8-8.72-6.67-7.12-13.74-13.84-21.19-20.14h0C367.75,22.18,311.47,0,250,0s-117.96,22.26-161.53,59.18h0c-4.46,3.79-8.8,7.73-12.98,11.81-1.4,1.36-2.78,2.74-4.14,4.13-5.46,5.57-10.65,11.4-15.57,17.46C20.9,135.56,0,190.34,0,250s22.18,117.75,58.97,161.29c5.04,5.96,10.35,11.69,15.92,17.15,5.57,5.46,11.39,10.67,17.44,15.59,43.02,35,97.89,55.98,157.67,55.98s114.44-20.9,157.41-55.77h0c12.13-9.83,23.32-20.78,33.41-32.7,36.93-43.57,59.19-99.95,59.19-161.53s-20.98-114.65-55.98-157.67ZM426.9,397.61l-60.71-60.71c-9.39,12.54-20.76,23.5-33.66,32.44l60.93,60.93c-39.36,31.37-89.22,50.12-143.46,50.12s-104.32-18.83-143.72-50.33l60.92-60.92c-12.87-8.96-24.22-19.96-33.58-32.52l-60.72,60.72c-33.27-39.94-53.3-91.31-53.3-147.37s18.75-104.1,50.12-143.46l60.94,60.94c8.93-12.9,19.89-24.27,32.44-33.66l-60.71-60.71c39.98-33.4,91.45-53.5,147.61-53.5s107.42,20.02,147.36,53.29l-60.72,60.72c12.56,9.37,23.56,20.72,32.51,33.59l60.92-60.93c31.49,39.4,50.33,89.36,50.33,143.72s-20.1,107.64-53.51,147.62Z" class="cls-193"/><path d="M347.93,226.04l-97.87-44.33-98,44.33L250.06,64l97.87,162.05Z" class="cls-17"/><path d="M250.7,96.41l59.18,98.64-59.18-26.97v-71.67Z" class="cls-43"/><path d="M190.11,195.04l60.59-98.64v71.65l-60.59,26.99Z" class="cls-161"/><path d="M347.93,272.55l-97.87,163.46-98-163.46,98,44.72,97.87-44.72Z" class="cls-17"/><path d="M250.7,403.59l29.59-49.32,29.59-49.32-59.18,26.99v71.65Z" class="cls-43"/><path d="M190.11,304.96l60.59,98.64v-71.65l-60.59-26.99Z" class="cls-161"/><circle cx="250" cy="250" r="55.77" class="cls-17"/><g class="cls-224"><rect width="87.62" height="87.62" x="206.19" y="206.19" class="cls-10"/><circle cx="250" cy="250" r="44.1" class="cls-10"/><circle cx="250" cy="250" r="44.02" class="cls-10"/><circle cx="250" cy="250" r="43.94" class="cls-168"/><circle cx="250" cy="250" r="43.86" class="cls-168"/><circle cx="250" cy="250" r="43.78" class="cls-21"/><circle cx="250" cy="250" r="43.7" class="cls-21"/><circle cx="250" cy="250" r="43.62" class="cls-35"/><circle cx="250" cy="250" r="43.54" class="cls-203"/><circle cx="250" cy="250" r="43.46" class="cls-203"/><circle cx="250" cy="250" r="43.37" class="cls-203"/><circle cx="250" cy="250" r="43.29" class="cls-69"/><circle cx="250" cy="250" r="43.21" class="cls-69"/><circle cx="250" cy="250" r="43.13" class="cls-69"/><circle cx="250" cy="250" r="43.05" class="cls-69"/><circle cx="250" cy="250" r="42.97" class="cls-88"/><circle cx="250" cy="250" r="42.89" class="cls-88"/><circle cx="250" cy="250" r="42.81" class="cls-88"/><circle cx="250" cy="250" r="42.73" class="cls-201"/><circle cx="250" cy="250" r="42.65" class="cls-227"/><circle cx="250" cy="250" r="42.57" class="cls-96"/><circle cx="250" cy="250" r="42.48" class="cls-96"/><circle cx="250" cy="250" r="42.4" class="cls-96"/><circle cx="250" cy="250" r="42.32" class="cls-72"/><circle cx="250" cy="250" r="42.24" class="cls-216"/><circle cx="250" cy="250" r="42.16" class="cls-216"/><circle cx="250" cy="250" r="42.08" class="cls-216"/><circle cx="250" cy="250" r="42" class="cls-206"/><circle cx="250" cy="250" r="41.92" class="cls-206"/><circle cx="250" cy="250" r="41.84" class="cls-206"/><circle cx="250" cy="250" r="41.76" class="cls-206"/><circle cx="250" cy="250" r="41.68" class="cls-94"/><circle cx="250" cy="250" r="41.59" class="cls-94"/><circle cx="250" cy="250" r="41.51" class="cls-87"/><circle cx="250" cy="250" r="41.43" class="cls-87"/><circle cx="250" cy="250" r="41.35" class="cls-71"/><circle cx="250" cy="250" r="41.27" class="cls-71"/><circle cx="250" cy="250" r="41.19" class="cls-71"/><circle cx="250" cy="250" r="41.11" class="cls-143"/><circle cx="250" cy="250" r="41.03" class="cls-95"/><circle cx="250" cy="250" r="40.95" class="cls-95"/><circle cx="250" cy="250" r="40.87" class="cls-95"/><circle cx="250" cy="250" r="40.78" class="cls-95"/><circle cx="250" cy="250" r="40.7" class="cls-160"/><circle cx="250" cy="250" r="40.62" class="cls-137"/><circle cx="250" cy="250" r="40.54" class="cls-137"/><circle cx="250" cy="250" r="40.46" class="cls-142"/><circle cx="250" cy="250" r="40.38" class="cls-23"/><circle cx="250" cy="250" r="40.3" class="cls-23"/><circle cx="250" cy="250" r="40.22" class="cls-23"/><circle cx="250" cy="250" r="40.14" class="cls-52"/><circle cx="250" cy="250" r="40.06" class="cls-38"/><circle cx="250" cy="250" r="39.98" class="cls-38"/><circle cx="250" cy="250" r="39.89" class="cls-38"/><circle cx="250" cy="250" r="39.81" class="cls-113"/><circle cx="250" cy="250" r="39.73" class="cls-113"/><circle cx="250" cy="250" r="39.65" class="cls-113"/><circle cx="250" cy="250" r="39.57" class="cls-238"/><circle cx="250" cy="250" r="39.49" class="cls-64"/><circle cx="250" cy="250" r="39.41" class="cls-64"/><circle cx="250" cy="250" r="39.33" class="cls-64"/><circle cx="250" cy="250" r="39.25" class="cls-64"/><circle cx="250" cy="250" r="39.17" class="cls-50"/><circle cx="250" cy="250" r="39.09" class="cls-50"/><circle cx="250" cy="250" r="39" class="cls-185"/><circle cx="250" cy="250" r="38.92" class="cls-185"/><circle cx="250" cy="250" r="38.84" class="cls-237"/><circle cx="250" cy="250" r="38.76" class="cls-237"/><circle cx="250" cy="250" r="38.68" class="cls-237"/><circle cx="250" cy="250" r="38.6" class="cls-237"/><circle cx="250" cy="250" r="38.52" class="cls-37"/><circle cx="250" cy="250" r="38.44" class="cls-91"/><circle cx="250" cy="250" r="38.36" class="cls-91"/><circle cx="250" cy="250" r="38.28" class="cls-91"/><circle cx="250" cy="250" r="38.2" class="cls-105"/><circle cx="250" cy="250" r="38.11" class="cls-105"/><circle cx="250" cy="250" r="38.03" class="cls-105"/><circle cx="250" cy="250" r="37.95" class="cls-109"/><circle cx="250" cy="250" r="37.87" class="cls-101"/><circle cx="250" cy="250" r="37.79" class="cls-101"/><circle cx="250" cy="250" r="37.71" class="cls-101"/><circle cx="250" cy="250" r="37.63" class="cls-101"/><circle cx="250" cy="250" r="37.55" class="cls-99"/><circle cx="250" cy="250" r="37.47" class="cls-165"/><circle cx="250" cy="250" r="37.39" class="cls-97"/><circle cx="250" cy="250" r="37.31" class="cls-97"/><circle cx="250" cy="250" r="37.22" class="cls-76"/><circle cx="250" cy="250" r="37.14" class="cls-76"/><circle cx="250" cy="250" r="37.06" class="cls-76"/><circle cx="250" cy="250" r="36.98" class="cls-76"/><circle cx="250" cy="250" r="36.9" class="cls-128"/><circle cx="250" cy="250" r="36.82" class="cls-128"/><circle cx="250" cy="250" r="36.74" class="cls-128"/><circle cx="250" cy="250" r="36.66" class="cls-187"/><circle cx="250" cy="250" r="36.58" class="cls-187"/><circle cx="250" cy="250" r="36.5" class="cls-187"/><circle cx="250" cy="250" r="36.42" class="cls-45"/><circle cx="250" cy="250" r="36.33" class="cls-22"/><circle cx="250" cy="250" r="36.25" class="cls-22"/><circle cx="250" cy="250" r="36.17" class="cls-22"/><circle cx="250" cy="250" r="36.09" class="cls-22"/><circle cx="250" cy="250" r="36.01" class="cls-19"/><circle cx="250" cy="250" r="35.93" class="cls-19"/><circle cx="250" cy="250" r="35.85" class="cls-7"/><circle cx="250" cy="250" r="35.77" class="cls-7"/><circle cx="250" cy="250" r="35.69" class="cls-207"/><circle cx="250" cy="250" r="35.61" class="cls-207"/><circle cx="250" cy="250" r="35.52" class="cls-207"/><circle cx="250" cy="250" r="35.44" class="cls-207"/><circle cx="250" cy="250" r="35.36" class="cls-107"/><circle cx="250" cy="250" r="35.28" class="cls-32"/><circle cx="250" cy="250" r="35.2" class="cls-32"/><circle cx="250" cy="250" r="35.12" class="cls-32"/><circle cx="250" cy="250" r="35.04" class="cls-46"/><circle cx="250" cy="250" r="34.96" class="cls-46"/><circle cx="250" cy="250" r="34.88" class="cls-46"/><circle cx="250" cy="250" r="34.8" class="cls-126"/><circle cx="250" cy="250" r="34.72" class="cls-184"/><circle cx="250" cy="250" r="34.63" class="cls-184"/><circle cx="250" cy="250" r="34.55" class="cls-184"/><circle cx="250" cy="250" r="34.47" class="cls-184"/><circle cx="250" cy="250" r="34.39" class="cls-190"/><circle cx="250" cy="250" r="34.31" class="cls-5"/><circle cx="250" cy="250" r="34.23" class="cls-230"/><circle cx="250" cy="250" r="34.15" class="cls-230"/><circle cx="250" cy="250" r="34.07" class="cls-13"/><circle cx="250" cy="250" r="33.99" class="cls-13"/><circle cx="250" cy="250" r="33.91" class="cls-13"/><circle cx="250" cy="250" r="33.83" class="cls-13"/><circle cx="250" cy="250" r="33.74" class="cls-129"/><circle cx="250" cy="250" r="33.66" class="cls-129"/><circle cx="250" cy="250" r="33.58" class="cls-129"/><circle cx="250" cy="250" r="33.5" class="cls-129"/><circle cx="250" cy="250" r="33.42" class="cls-162"/><circle cx="250" cy="250" r="33.34" class="cls-74"/><circle cx="250" cy="250" r="33.26" class="cls-74"/><circle cx="250" cy="250" r="33.18" class="cls-159"/><circle cx="250" cy="250" r="33.1" class="cls-127"/><circle cx="250" cy="250" r="33.02" class="cls-127"/><circle cx="250" cy="250" r="32.94" class="cls-127"/><circle cx="250" cy="250" r="32.85" class="cls-12"/><circle cx="250" cy="250" r="32.77" class="cls-12"/><circle cx="250" cy="250" r="32.69" class="cls-124"/><circle cx="250" cy="250" r="32.61" class="cls-124"/><circle cx="250" cy="250" r="32.53" class="cls-85"/><circle cx="250" cy="250" r="32.45" class="cls-85"/><circle cx="250" cy="250" r="32.37" class="cls-85"/><circle cx="250" cy="250" r="32.29" class="cls-28"/><circle cx="250" cy="250" r="32.21" class="cls-117"/><circle cx="250" cy="250" r="32.13" class="cls-171"/><circle cx="250" cy="250" r="32.05" class="cls-171"/><circle cx="250" cy="250" r="31.96" class="cls-171"/><circle cx="250" cy="250" r="31.88" class="cls-156"/><circle cx="250" cy="250" r="31.8" class="cls-156"/><circle cx="250" cy="250" r="31.72" class="cls-156"/><circle cx="250" cy="250" r="31.64" class="cls-156"/><circle cx="250" cy="250" r="31.56" class="cls-200"/><circle cx="250" cy="250" r="31.48" class="cls-200"/><circle cx="250" cy="250" r="31.4" class="cls-200"/><circle cx="250" cy="250" r="31.32" class="cls-200"/><circle cx="250" cy="250" r="31.24" class="cls-111"/><circle cx="250" cy="250" r="31.16" class="cls-111"/><circle cx="250" cy="250" r="31.07" class="cls-231"/><circle cx="250" cy="250" r="30.99" class="cls-231"/><circle cx="250" cy="250" r="30.91" class="cls-191"/><circle cx="250" cy="250" r="30.83" class="cls-191"/><circle cx="250" cy="250" r="30.75" class="cls-191"/><circle cx="250" cy="250" r="30.67" class="cls-191"/><circle cx="250" cy="250" r="30.59" class="cls-217"/><circle cx="250" cy="250" r="30.51" class="cls-18"/><circle cx="250" cy="250" r="30.43" class="cls-18"/><circle cx="250" cy="250" r="30.35" class="cls-18"/><circle cx="250" cy="250" r="30.27" class="cls-20"/><circle cx="250" cy="250" r="30.18" class="cls-20"/><circle cx="250" cy="250" r="30.1" class="cls-20"/><circle cx="250" cy="250" r="30.02" class="cls-130"/><circle cx="250" cy="250" r="29.94" class="cls-81"/><circle cx="250" cy="250" r="29.86" class="cls-81"/><circle cx="250" cy="250" r="29.78" class="cls-81"/><circle cx="250" cy="250" r="29.7" class="cls-81"/><circle cx="250" cy="250" r="29.62" class="cls-136"/><circle cx="250" cy="250" r="29.54" class="cls-136"/><circle cx="250" cy="250" r="29.46" class="cls-139"/><circle cx="250" cy="250" r="29.37" class="cls-158"/><circle cx="250" cy="250" r="29.29" class="cls-158"/><circle cx="250" cy="250" r="29.21" class="cls-11"/><circle cx="250" cy="250" r="29.13" class="cls-11"/><circle cx="250" cy="250" r="29.05" class="cls-176"/><circle cx="250" cy="250" r="28.97" class="cls-58"/><circle cx="250" cy="250" r="28.89" class="cls-58"/><circle cx="250" cy="250" r="28.81" class="cls-58"/><circle cx="250" cy="250" r="28.73" class="cls-186"/><circle cx="250" cy="250" r="28.65" class="cls-186"/><circle cx="250" cy="250" r="28.57" class="cls-186"/><circle cx="250" cy="250" r="28.48" class="cls-186"/><circle cx="250" cy="250" r="28.4" class="cls-40"/><circle cx="250" cy="250" r="28.32" class="cls-40"/><circle cx="250" cy="250" r="28.24" class="cls-40"/><circle cx="250" cy="250" r="28.16" class="cls-195"/><circle cx="250" cy="250" r="28.08" class="cls-232"/><circle cx="250" cy="250" r="28" class="cls-232"/><circle cx="250" cy="250" r="27.92" class="cls-138"/><circle cx="250" cy="250" r="27.84" class="cls-138"/><circle cx="250" cy="250" r="27.76" class="cls-148"/><circle cx="250" cy="250" r="27.68" class="cls-148"/><circle cx="250" cy="250" r="27.59" class="cls-148"/><circle cx="250" cy="250" r="27.51" class="cls-148"/><circle cx="250" cy="250" r="27.43" class="cls-29"/><circle cx="250" cy="250" r="27.35" class="cls-229"/><circle cx="250" cy="250" r="27.27" class="cls-229"/><circle cx="250" cy="250" r="27.19" class="cls-67"/><circle cx="250" cy="250" r="27.11" class="cls-172"/><circle cx="250" cy="250" r="27.03" class="cls-172"/><circle cx="250" cy="250" r="26.95" class="cls-172"/><circle cx="250" cy="250" r="26.87" class="cls-172"/><circle cx="250" cy="250" r="26.79" class="cls-65"/><circle cx="250" cy="250" r="26.7" class="cls-65"/><circle cx="250" cy="250" r="26.62" class="cls-65"/><circle cx="250" cy="250" r="26.54" class="cls-65"/><circle cx="250" cy="250" r="26.46" class="cls-3"/><circle cx="250" cy="250" r="26.38" class="cls-3"/><circle cx="250" cy="250" r="26.3" class="cls-84"/><circle cx="250" cy="250" r="26.22" class="cls-84"/><circle cx="250" cy="250" r="26.14" class="cls-119"/><circle cx="250" cy="250" r="26.06" class="cls-119"/><circle cx="250" cy="250" r="25.98" class="cls-119"/><circle cx="250" cy="250" r="25.9" class="cls-119"/><circle cx="250" cy="250" r="25.81" class="cls-234"/><circle cx="250" cy="250" r="25.73" class="cls-192"/><circle cx="250" cy="250" r="25.65" class="cls-192"/><circle cx="250" cy="250" r="25.57" class="cls-54"/><circle cx="250" cy="250" r="25.49" class="cls-54"/><circle cx="250" cy="250" r="25.41" class="cls-54"/><circle cx="250" cy="250" r="25.33" class="cls-54"/><circle cx="250" cy="250" r="25.25" class="cls-199"/><circle cx="250" cy="250" r="25.17" class="cls-199"/><circle cx="250" cy="250" r="25.09" class="cls-197"/><circle cx="250" cy="250" r="25.01" class="cls-197"/><circle cx="250" cy="250" r="24.92" class="cls-42"/><circle cx="250" cy="250" r="24.84" class="cls-42"/><circle cx="250" cy="250" r="24.76" class="cls-42"/><circle cx="250" cy="250" r="24.68" class="cls-98"/><circle cx="250" cy="250" r="24.6" class="cls-222"/><circle cx="250" cy="250" r="24.52" class="cls-222"/><circle cx="250" cy="250" r="24.44" class="cls-222"/><circle cx="250" cy="250" r="24.36" class="cls-222"/><circle cx="250" cy="250" r="24.28" class="cls-100"/><circle cx="250" cy="250" r="24.2" class="cls-4"/><circle cx="250" cy="250" r="24.11" class="cls-174"/><circle cx="250" cy="250" r="24.03" class="cls-174"/><circle cx="250" cy="250" r="23.95" class="cls-90"/><circle cx="250" cy="250" r="23.87" class="cls-90"/><circle cx="250" cy="250" r="23.79" class="cls-90"/><circle cx="250" cy="250" r="23.71" class="cls-90"/><circle cx="250" cy="250" r="23.63" class="cls-175"/><circle cx="250" cy="250" r="23.55" class="cls-175"/><circle cx="250" cy="250" r="23.47" class="cls-175"/><circle cx="250" cy="250" r="23.39" class="cls-175"/><circle cx="250" cy="250" r="23.31" class="cls-92"/><circle cx="250" cy="250" r="23.22" class="cls-92"/><circle cx="250" cy="250" r="23.14" class="cls-120"/><circle cx="250" cy="250" r="23.06" class="cls-116"/><circle cx="250" cy="250" r="22.98" class="cls-221"/><circle cx="250" cy="250" r="22.9" class="cls-221"/><circle cx="250" cy="250" r="22.82" class="cls-221"/><circle cx="250" cy="250" r="22.74" class="cls-221"/><circle cx="250" cy="250" r="22.66" class="cls-144"/><circle cx="250" cy="250" r="22.58" class="cls-51"/><circle cx="250" cy="250" r="22.5" class="cls-51"/><circle cx="250" cy="250" r="22.42" class="cls-51"/><circle cx="250" cy="250" r="22.33" class="cls-86"/><circle cx="250" cy="250" r="22.25" class="cls-86"/><circle cx="250" cy="250" r="22.17" class="cls-86"/><circle cx="250" cy="250" r="22.09" class="cls-152"/><circle cx="250" cy="250" r="22.01" class="cls-152"/><circle cx="250" cy="250" r="21.93" class="cls-152"/><circle cx="250" cy="250" r="21.85" class="cls-152"/><circle cx="250" cy="250" r="21.77" class="cls-57"/><circle cx="250" cy="250" r="21.69" class="cls-57"/><circle cx="250" cy="250" r="21.61" class="cls-57"/><circle cx="250" cy="250" r="21.53" class="cls-110"/><circle cx="250" cy="250" r="21.44" class="cls-182"/><circle cx="250" cy="250" r="21.36" class="cls-182"/><circle cx="250" cy="250" r="21.28" class="cls-182"/><circle cx="250" cy="250" r="21.2" class="cls-182"/><circle cx="250" cy="250" r="21.12" class="cls-83"/><circle cx="250" cy="250" r="21.04" class="cls-163"/><circle cx="250" cy="250" r="20.96" class="cls-1"/><circle cx="250" cy="250" r="20.88" class="cls-1"/><circle cx="250" cy="250" r="20.8" class="cls-16"/><circle cx="250" cy="250" r="20.72" class="cls-16"/><circle cx="250" cy="250" r="20.64" class="cls-16"/><circle cx="250" cy="250" r="20.55" class="cls-16"/><circle cx="250" cy="250" r="20.47" class="cls-70"/><circle cx="250" cy="250" r="20.39" class="cls-70"/><circle cx="250" cy="250" r="20.31" class="cls-70"/><circle cx="250" cy="250" r="20.23" class="cls-70"/><circle cx="250" cy="250" r="20.15" class="cls-180"/><circle cx="250" cy="250" r="20.07" class="cls-180"/><circle cx="250" cy="250" r="19.99" class="cls-178"/><circle cx="250" cy="250" r="19.91" class="cls-25"/><circle cx="250" cy="250" r="19.83" class="cls-141"/><circle cx="250" cy="250" r="19.75" class="cls-141"/><circle cx="250" cy="250" r="19.66" class="cls-141"/><circle cx="250" cy="250" r="19.58" class="cls-141"/><circle cx="250" cy="250" r="19.5" class="cls-59"/><circle cx="250" cy="250" r="19.42" class="cls-104"/><circle cx="250" cy="250" r="19.34" class="cls-104"/><circle cx="250" cy="250" r="19.26" class="cls-104"/><circle cx="250" cy="250" r="19.18" class="cls-212"/><circle cx="250" cy="250" r="19.1" class="cls-212"/><circle cx="250" cy="250" r="19.02" class="cls-53"/><circle cx="250" cy="250" r="18.94" class="cls-53"/><circle cx="250" cy="250" r="18.85" class="cls-24"/><circle cx="250" cy="250" r="18.77" class="cls-24"/><circle cx="250" cy="250" r="18.69" class="cls-24"/><circle cx="250" cy="250" r="18.61" class="cls-24"/><circle cx="250" cy="250" r="18.53" class="cls-44"/><circle cx="250" cy="250" r="18.45" class="cls-44"/><circle cx="250" cy="250" r="18.37" class="cls-166"/><circle cx="250" cy="250" r="18.29" class="cls-63"/><circle cx="250" cy="250" r="18.21" class="cls-63"/><circle cx="250" cy="250" r="18.13" class="cls-63"/><circle cx="250" cy="250" r="18.05" class="cls-63"/><circle cx="250" cy="250" r="17.96" class="cls-202"/><circle cx="250" cy="250" r="17.88" class="cls-202"/><circle cx="250" cy="250" r="17.8" class="cls-14"/><circle cx="250" cy="250" r="17.72" class="cls-14"/><circle cx="250" cy="250" r="17.64" class="cls-122"/><circle cx="250" cy="250" r="17.56" class="cls-122"/><circle cx="250" cy="250" r="17.48" class="cls-122"/><circle cx="250" cy="250" r="17.4" class="cls-122"/><circle cx="250" cy="250" r="17.32" class="cls-82"/><circle cx="250" cy="250" r="17.24" class="cls-82"/><circle cx="250" cy="250" r="17.16" class="cls-82"/><circle cx="250" cy="250" r="17.07" class="cls-82"/><circle cx="250" cy="250" r="16.99" class="cls-189"/><circle cx="250" cy="250" r="16.91" class="cls-188"/><circle cx="250" cy="250" r="16.83" class="cls-188"/><circle cx="250" cy="250" r="16.75" class="cls-47"/><circle cx="250" cy="250" r="16.67" class="cls-103"/><circle cx="250" cy="250" r="16.59" class="cls-103"/><circle cx="250" cy="250" r="16.51" class="cls-103"/><circle cx="250" cy="250" r="16.43" class="cls-103"/><circle cx="250" cy="250" r="16.35" class="cls-235"/><circle cx="250" cy="250" r="16.27" class="cls-235"/><circle cx="250" cy="250" r="16.18" class="cls-147"/><circle cx="250" cy="250" r="16.1" class="cls-147"/><circle cx="250" cy="250" r="16.02" class="cls-61"/><circle cx="250" cy="250" r="15.94" class="cls-170"/><circle cx="250" cy="250" r="15.86" class="cls-170"/><circle cx="250" cy="250" r="15.78" class="cls-170"/><circle cx="250" cy="250" r="15.7" class="cls-115"/><circle cx="250" cy="250" r="15.62" class="cls-115"/><circle cx="250" cy="250" r="15.54" class="cls-115"/><circle cx="250" cy="250" r="15.46" class="cls-115"/><circle cx="250" cy="250" r="15.38" class="cls-123"/><circle cx="250" cy="250" r="15.29" class="cls-123"/><circle cx="250" cy="250" r="15.21" class="cls-123"/><circle cx="250" cy="250" r="15.13" class="cls-213"/><circle cx="250" cy="250" r="15.05" class="cls-77"/><circle cx="250" cy="250" r="14.97" class="cls-77"/><circle cx="250" cy="250" r="14.89" class="cls-39"/><circle cx="250" cy="250" r="14.81" class="cls-39"/><circle cx="250" cy="250" r="14.73" class="cls-164"/><circle cx="250" cy="250" r="14.65" class="cls-60"/><circle cx="250" cy="250" r="14.57" class="cls-60"/><circle cx="250" cy="250" r="14.49" class="cls-153"/><circle cx="250" cy="250" r="14.4" class="cls-153"/><circle cx="250" cy="250" r="14.32" class="cls-153"/><circle cx="250" cy="250" r="14.24" class="cls-153"/><circle cx="250" cy="250" r="14.16" class="cls-41"/><circle cx="250" cy="250" r="14.08" class="cls-26"/><circle cx="250" cy="250" r="14" class="cls-26"/><circle cx="250" cy="250" r="13.92" class="cls-26"/><circle cx="250" cy="250" r="13.84" class="cls-154"/><circle cx="250" cy="250" r="13.76" class="cls-154"/><circle cx="250" cy="250" r="13.68" class="cls-154"/><circle cx="250" cy="250" r="13.59" class="cls-215"/><circle cx="250" cy="250" r="13.51" class="cls-75"/><circle cx="250" cy="250" r="13.43" class="cls-75"/><circle cx="250" cy="250" r="13.35" class="cls-75"/><circle cx="250" cy="250" r="13.27" class="cls-75"/><circle cx="250" cy="250" r="13.19" class="cls-226"/><circle cx="250" cy="250" r="13.11" class="cls-226"/><circle cx="250" cy="250" r="13.03" class="cls-30"/><circle cx="250" cy="250" r="12.95" class="cls-30"/><circle cx="250" cy="250" r="12.87" class="cls-34"/><circle cx="250" cy="250" r="12.79" class="cls-34"/><circle cx="250" cy="250" r="12.7" class="cls-34"/><circle cx="250" cy="250" r="12.62" class="cls-34"/><circle cx="250" cy="250" r="12.54" class="cls-27"/><circle cx="250" cy="250" r="12.46" class="cls-27"/><circle cx="250" cy="250" r="12.38" class="cls-27"/><circle cx="250" cy="250" r="12.3" class="cls-27"/><circle cx="250" cy="250" r="12.22" class="cls-150"/><circle cx="250" cy="250" r="12.14" class="cls-150"/><circle cx="250" cy="250" r="12.06" class="cls-150"/><circle cx="250" cy="250" r="11.98" class="cls-8"/><circle cx="250" cy="250" r="11.9" class="cls-146"/><circle cx="250" cy="250" r="11.81" class="cls-155"/><circle cx="250" cy="250" r="11.73" class="cls-155"/><circle cx="250" cy="250" r="11.65" class="cls-155"/><circle cx="250" cy="250" r="11.57" class="cls-133"/><circle cx="250" cy="250" r="11.49" class="cls-133"/><circle cx="250" cy="250" r="11.41" class="cls-228"/><circle cx="250" cy="250" r="11.33" class="cls-228"/><circle cx="250" cy="250" r="11.25" class="cls-106"/><circle cx="250" cy="250" r="11.17" class="cls-106"/><circle cx="250" cy="250" r="11.09" class="cls-106"/><circle cx="250" cy="250" r="11.01" class="cls-211"/><circle cx="250" cy="250" r="10.92" class="cls-73"/><circle cx="250" cy="250" r="10.84" class="cls-73"/><circle cx="250" cy="250" r="10.76" class="cls-135"/><circle cx="250" cy="250" r="10.68" class="cls-208"/><circle cx="250" cy="250" r="10.6" class="cls-208"/><circle cx="250" cy="250" r="10.52" class="cls-208"/><circle cx="250" cy="250" r="10.44" class="cls-208"/><circle cx="250" cy="250" r="10.36" class="cls-66"/><circle cx="250" cy="250" r="10.28" class="cls-66"/><circle cx="250" cy="250" r="10.2" class="cls-66"/><circle cx="250" cy="250" r="10.12" class="cls-66"/><circle cx="250" cy="250" r="10.03" class="cls-181"/><circle cx="250" cy="250" r="9.95" class="cls-181"/><circle cx="250" cy="250" r="9.87" class="cls-121"/><circle cx="250" cy="250" r="9.79" class="cls-62"/><circle cx="250" cy="250" r="9.71" class="cls-151"/><circle cx="250" cy="250" r="9.63" class="cls-151"/><circle cx="250" cy="250" r="9.55" class="cls-151"/><circle cx="250" cy="250" r="9.47" class="cls-151"/><circle cx="250" cy="250" r="9.39" class="cls-48"/><circle cx="250" cy="250" r="9.31" class="cls-183"/><circle cx="250" cy="250" r="9.23" class="cls-183"/><circle cx="250" cy="250" r="9.14" class="cls-183"/><circle cx="250" cy="250" r="9.06" class="cls-214"/><circle cx="250" cy="250" r="8.98" class="cls-214"/><circle cx="250" cy="250" r="8.9" class="cls-214"/><circle cx="250" cy="250" r="8.82" class="cls-134"/><circle cx="250" cy="250" r="8.74" class="cls-220"/><circle cx="250" cy="250" r="8.66" class="cls-220"/><circle cx="250" cy="250" r="8.58" class="cls-220"/><circle cx="250" cy="250" r="8.5" class="cls-220"/><circle cx="250" cy="250" r="8.42" class="cls-157"/><circle cx="250" cy="250" r="8.34" class="cls-157"/><circle cx="250" cy="250" r="8.25" class="cls-36"/><circle cx="250" cy="250" r="8.17" class="cls-36"/><circle cx="250" cy="250" r="8.09" class="cls-236"/><circle cx="250" cy="250" r="8.01" class="cls-236"/><circle cx="250" cy="250" r="7.93" class="cls-236"/><circle cx="250" cy="250" r="7.85" class="cls-236"/><circle cx="250" cy="250" r="7.77" class="cls-204"/><circle cx="250" cy="250" r="7.69" class="cls-78"/><circle cx="250" cy="250" r="7.61" class="cls-78"/><circle cx="250" cy="250" r="7.53" class="cls-78"/><circle cx="250" cy="250" r="7.44" class="cls-177"/><circle cx="250" cy="250" r="7.36" class="cls-177"/><circle cx="250" cy="250" r="7.28" class="cls-177"/><circle cx="250" cy="250" r="7.2" class="cls-6"/><circle cx="250" cy="250" r="7.12" class="cls-6"/><circle cx="250" cy="250" r="7.04" class="cls-6"/><circle cx="250" cy="250" r="6.96" class="cls-6"/><circle cx="250" cy="250" r="6.88" class="cls-132"/><circle cx="250" cy="250" r="6.8" class="cls-132"/><circle cx="250" cy="250" r="6.72" class="cls-125"/><circle cx="250" cy="250" r="6.64" class="cls-173"/><circle cx="250" cy="250" r="6.55" class="cls-102"/><circle cx="250" cy="250" r="6.47" class="cls-102"/><circle cx="250" cy="250" r="6.39" class="cls-102"/><circle cx="250" cy="250" r="6.31" class="cls-102"/><circle cx="250" cy="250" r="6.23" class="cls-210"/><circle cx="250" cy="250" r="6.15" class="cls-179"/><circle cx="250" cy="250" r="6.07" class="cls-179"/><circle cx="250" cy="250" r="5.99" class="cls-179"/><circle cx="250" cy="250" r="5.91" class="cls-68"/><circle cx="250" cy="250" r="5.83" class="cls-68"/><circle cx="250" cy="250" r="5.75" class="cls-68"/><circle cx="250" cy="250" r="5.66" class="cls-233"/><circle cx="250" cy="250" r="5.58" class="cls-49"/><circle cx="250" cy="250" r="5.5" class="cls-49"/><circle cx="250" cy="250" r="5.42" class="cls-49"/><circle cx="250" cy="250" r="5.34" class="cls-49"/><circle cx="250" cy="250" r="5.26" class="cls-169"/><circle cx="250" cy="250" r="5.18" class="cls-169"/><circle cx="250" cy="250" r="5.1" class="cls-149"/><circle cx="250" cy="250" r="5.02" class="cls-149"/><circle cx="250" cy="250" r="4.94" class="cls-223"/><circle cx="250" cy="250" r="4.86" class="cls-223"/><circle cx="250" cy="250" r="4.77" class="cls-223"/><circle cx="250" cy="250" r="4.69" class="cls-223"/><circle cx="250" cy="250" r="4.61" class="cls-56"/><circle cx="250" cy="250" r="4.53" class="cls-79"/><circle cx="250" cy="250" r="4.45" class="cls-79"/><circle cx="250" cy="250" r="4.37" class="cls-79"/><circle cx="250" cy="250" r="4.29" class="cls-89"/><circle cx="250" cy="250" r="4.21" class="cls-89"/><circle cx="250" cy="250" r="4.13" class="cls-89"/><circle cx="250" cy="250" r="4.05" class="cls-9"/><circle cx="250" cy="250" r="3.97" class="cls-131"/><circle cx="250" cy="250" r="3.88" class="cls-131"/><circle cx="250" cy="250" r="3.8" class="cls-131"/><circle cx="250" cy="250" r="3.72" class="cls-33"/><circle cx="250" cy="250" r="3.64" class="cls-31"/><circle cx="250" cy="250" r="3.56" class="cls-31"/><circle cx="250" cy="250" r="3.48" class="cls-196"/><circle cx="250" cy="250" r="3.4" class="cls-93"/><circle cx="250" cy="250" r="3.32" class="cls-93"/><circle cx="250" cy="250" r="3.24" class="cls-93"/><circle cx="250" cy="250" r="3.16" class="cls-93"/><circle cx="250" cy="250" r="3.08" class="cls-205"/><circle cx="250" cy="250" r="2.99" class="cls-140"/><circle cx="250" cy="250" r="2.91" class="cls-140"/><circle cx="250" cy="250" r="2.83" class="cls-140"/><circle cx="250" cy="250" r="2.75" class="cls-15"/><circle cx="250" cy="250" r="2.67" class="cls-15"/><circle cx="250" cy="250" r="2.59" class="cls-55"/><circle cx="250" cy="250" r="2.51" class="cls-55"/><circle cx="250" cy="250" r="2.43" class="cls-194"/><circle cx="250" cy="250" r="2.35" class="cls-194"/><circle cx="250" cy="250" r="2.27" class="cls-194"/><circle cx="250" cy="250" r="2.18" class="cls-194"/><circle cx="250" cy="250" r="2.1" class="cls-145"/><circle cx="250" cy="250" r="2.02" class="cls-145"/><circle cx="250" cy="250" r="1.94" class="cls-145"/><circle cx="250" cy="250" r="1.86" class="cls-167"/><circle cx="250" cy="250" r="1.78" class="cls-112"/><circle cx="250" cy="250" r="1.7" class="cls-112"/><circle cx="250" cy="250" r="1.62" class="cls-112"/><circle cx="250" cy="250" r="1.54" class="cls-209"/><circle cx="250" cy="250" r="1.46" class="cls-108"/><circle cx="250" cy="250" r="1.38" class="cls-114"/><circle cx="250" cy="250" r="1.29" class="cls-114"/><circle cx="250" cy="250" r="1.21" class="cls-114"/><circle cx="250" cy="250" r="1.13" class="cls-225"/><circle cx="250" cy="250" r="1.05" class="cls-225"/><circle cx="250" cy="250" r=".97" class="cls-225"/><circle cx="250" cy="250" r=".89" class="cls-225"/><circle cx="250" cy="250" r=".81" class="cls-218"/><circle cx="250" cy="250" r=".73" class="cls-218"/><circle cx="250" cy="250" r=".65" class="cls-218"/><circle cx="250" cy="250" r=".57" class="cls-80"/><circle cx="250" cy="250" r=".49" class="cls-198"/><circle cx="250" cy="250" r=".4" class="cls-198"/><circle cx="250" cy="250" r=".32" class="cls-219"/><circle cx="250" cy="250" r=".24" class="cls-219"/><circle cx="250" cy="250" r=".16" class="cls-118"/><circle cx="250" cy="250" r=".08" class="cls-118"/></g></g></g></svg>