<svg xmlns="http://www.w3.org/2000/svg" fill="none" viewBox="0 0 48 48"><rect width="20" height="2" x="10" y="10" fill="currentColor"/><rect width="10" height="2" x="34" y="10" fill="currentColor"/><rect width="2" height="28" x="8" y="12" fill="currentColor"/><rect width="2" height="20" x="38" y="20" fill="currentColor"/><rect width="2" height="10" x="38" y="6" fill="currentColor"/><rect width="28" height="2" fill="currentColor" transform="matrix(1 0 0 -1 10 42)"/><rect width="4" height="2" fill="currentColor" transform="matrix(1 0 0 -1 9.85938 34)"/><rect width="4" height="2" fill="currentColor" transform="matrix(1 0 0 -1 12 32)"/><rect width="4" height="2" fill="currentColor" transform="matrix(1 0 0 -1 14 30)"/><rect width="4" height="2" fill="currentColor" transform="matrix(1 0 0 -1 16 28)"/><rect width="4" height="2" fill="currentColor" transform="matrix(1 0 0 -1 18 26)"/><rect width="4" height="2" fill="currentColor" transform="matrix(1 0 0 -1 20 28)"/><rect width="4" height="2" fill="currentColor" transform="matrix(1 0 0 -1 23 29)"/><rect width="4" height="2" fill="currentColor" transform="matrix(1 0 0 -1 24 31)"/><rect width="4" height="2" fill="currentColor" transform="matrix(1 0 0 -1 27 32)"/><rect width="4" height="2" fill="currentColor" transform="matrix(1 0 0 -1 31 33)"/><rect width="4" height="2" fill="currentColor" transform="matrix(1 0 0 -1 35 32)"/></svg>