<svg xmlns="http://www.w3.org/2000/svg" width="240" height="240" fill="none" viewBox="0 0 240 240"><g clip-path="url(#clip0_2_1300)"><circle cx="120" cy="120" r="120" fill="#fff"/><circle cx="120" cy="120" r="94" fill="url(#paint0_linear_2_1300)"/><circle cx="118.262" cy="118.259" r="73.111" fill="#E378E9"/><circle cx="121.742" cy="121.741" r="73.111" fill="#B091FE"/><circle cx="119.999" cy="120" r="73.111" fill="url(#paint1_linear_2_1300)"/><path fill="#8655FF" d="M154.649 120.187C158.145 122.442 157.731 127.679 153.924 129.356L108.118 149.527C104.502 151.119 100.496 148.274 100.807 144.336L104.548 97.0423C104.86 93.1035 109.264 90.9241 112.584 93.0652L154.649 120.187Z" opacity=".3"/><path fill="#fff" d="M150.881 114.759C154.544 116.73 154.544 121.984 150.881 123.956L106.809 147.676C103.33 149.549 99.1117 147.029 99.1117 143.078V95.6367C99.1117 91.6856 103.33 89.1657 106.809 91.0382L150.881 114.759Z"/></g><defs><linearGradient id="paint0_linear_2_1300" x1="26" x2="214" y1="120" y2="120" gradientUnits="userSpaceOnUse"><stop stop-color="#FF9BE2"/><stop offset=".345" stop-color="#F1B7FB"/><stop offset=".97" stop-color="#9D6FFF"/></linearGradient><linearGradient id="paint1_linear_2_1300" x1="46.888" x2="193.111" y1="120" y2="120" gradientUnits="userSpaceOnUse"><stop stop-color="#F492E5"/><stop offset="1" stop-color="#9B63FD"/></linearGradient><clipPath id="clip0_2_1300"><rect width="240" height="240" fill="#fff"/></clipPath></defs></svg>