<svg xmlns="http://www.w3.org/2000/svg" width="40" height="40" viewBox="0 0 40 40"><circle cx="20" cy="20" r="20" fill="#dae8e0"/><rect width="28" height="28" x="6" y="6" fill="#056433" rx="7.98" ry="7.98"/><g transform="translate(11.32, 14.300448430493274)"><svg xmlns="http://www.w3.org/2000/svg" width="17.36" height="11.399" viewBox="0 0 1561 1025"><path xmlns="http://www.w3.org/2000/svg" fill="#fff" d="m1212.3.1 348.1.1v1008.6h-347.6s-.3-271.3-.3-317.3C1154.7 645.8 1004 538 723.9 439.4c-158.7-55.9-333-95.1-409.1-108.7V1025H.1V4.2l55.2-.1c10 0 248.4 1.3 727.6 135.9 194.7 54.8 321.1 107.8 429.3 166.2 0-104 .1-248.1.1-248.1z"/></svg></g></svg>