<svg xmlns="http://www.w3.org/2000/svg" width="32" height="32" fill="none" viewBox="0 0 32 32"><g clip-path="url(#clip0_16_43723)"><path fill="#FFD48A" fill-rule="evenodd" d="M16 30C23.732 30 30 23.732 30 16C30 8.26801 23.732 2 16 2C8.26801 2 2 8.26801 2 16C2 23.732 8.26801 30 16 30ZM16 32C24.8366 32 32 24.8366 32 16C32 7.16344 24.8366 0 16 0C7.16344 0 0 7.16344 0 16C0 24.8366 7.16344 32 16 32Z" clip-rule="evenodd"/><path fill="#F4694D" fill-rule="evenodd" d="M16 29C22.7655 29 29 22.7655 29 16C29 9.23451 22.7655 3 16 3C9.23451 3 3 9.23451 3 16C3 22.7655 9.23451 29 16 29ZM16 30C23.732 30 30 23.732 30 16C30 8.26801 23.732 2 16 2C8.26801 2 2 8.26801 2 16C2 23.732 8.26801 30 16 30Z" clip-rule="evenodd"/><circle cx="16" cy="16" r="13" fill="url(#paint0_linear_16_43723)"/><path fill="#D7492D" fill-rule="evenodd" d="M21.9153 16.1696L15.9995 19.7159L10.0847 16.1689L10 16.3118L15.9995 19.9095L22 16.3124L21.9153 16.1696ZM10.2297 17.6394L15.9995 26.0002L21.7703 17.6394L22 17.5002L15.9995 26.1938L10 17.5002L10.2297 17.6394Z" clip-rule="evenodd"/><path fill="#fff" fill-rule="evenodd" d="M15.9995 6L22 16.1186L15.9995 19.7157L10 16.1179L15.9995 6ZM15.9995 26L10 17.3064L15.9995 20.9423L22 17.3064L15.9995 26Z" clip-rule="evenodd"/></g><defs><linearGradient id="paint0_linear_16_43723" x1="25.5" x2="4.5" y1="0" y2="31.5" gradientUnits="userSpaceOnUse"><stop stop-color="#F5755C"/><stop offset="1" stop-color="#F9BD7D"/></linearGradient><clipPath id="clip0_16_43723"><rect width="32" height="32" fill="#fff"/></clipPath></defs></svg>