<svg xmlns="http://www.w3.org/2000/svg" width="40" height="40" viewBox="0 0 40 40"><circle cx="20" cy="20" r="20" fill="#d9e9fc"/><rect width="28" height="28" x="6" y="6" fill="#006aed" rx="7.98" ry="7.98"/><g transform="translate(12.021199510403918, 11.32)"><svg xmlns="http://www.w3.org/2000/svg" width="15.958" height="17.36" viewBox="0 0 1502 1634"><g xmlns="http://www.w3.org/2000/svg" fill="#fff"><path d="M1501.1.2v1632.9h-245.6v-223.9c0-234.9-180.1-426-414.9-442.4H311.1V721.1h496.8c70.9 0 136.5 10.9 202 32.7 92.8 27.3 174.6 71 240.1 131.1V.2z"/><path d="M1190 109.4v404.1l-141.9 180.3c-76.5-27.3-158.3-38.3-240.2-38.3h-43.7zm-398.5 912-474.9 611.7H0l474.9-611.7z"/></g></svg></g></svg>