<svg xmlns="http://www.w3.org/2000/svg" width="1000" height="1000" fill="none" viewBox="0 0 1000 1000"><rect width="1000" height="1000" fill="#fff"/><rect width="75" height="75" x="539" y="200" fill="#1A0C6D" transform="rotate(90 539 200)"/><rect width="300" height="150" x="386" y="200" fill="#1A0C6D" transform="rotate(90 386 200)"/><rect width="300" height="150" x="386" y="500" fill="#1A0C6D" transform="rotate(90 386 500)"/><rect width="150" height="75" x="686" y="350" fill="#1A0C6D" transform="rotate(90 686 350)"/><rect width="150" height="75" x="611" y="650" fill="#1A0C6D" transform="rotate(90 611 650)"/><rect width="150" height="75" x="686" y="650" fill="#1A0C6D" transform="rotate(90 686 650)"/><rect width="150" height="75" x="461" y="650" fill="#1A0C6D" transform="rotate(90 461 650)"/><rect width="150" height="75" x="761" y="200" fill="#1A0C6D" transform="rotate(90 761 200)"/><rect width="300" height="75" x="611" y="200" fill="#1A0C6D" transform="rotate(90 611 200)"/><rect width="300" height="75" x="536" y="500" fill="#1A0C6D" transform="rotate(90 536 500)"/></svg>