<svg xmlns="http://www.w3.org/2000/svg" width="32" height="32" fill="none" viewBox="0 0 32 32"><path fill="#363232" d="M32 16C32 24.8366 24.8366 32 16 32C7.16344 32 0 24.8366 0 16C0 7.16344 7.16344 0 16 0C24.8366 0 32 7.16344 32 16Z"/><path fill="#1D1B1D" d="M31 16C31 24.2843 24.2843 31 16 31C7.71573 31 1 24.2843 1 16C1 7.71573 7.71573 1 16 1C24.2843 1 31 7.71573 31 16Z"/><path fill="#6B8D1D" fill-rule="evenodd" d="M16.0964 20.7235L22.2359 16.9209L16.0964 26.0008V20.7235Z" clip-rule="evenodd"/><path fill="#A3DB2E" fill-rule="evenodd" d="M22.2359 15.6944L16.0964 19.5047V12.7686L22.2359 15.6944Z" clip-rule="evenodd"/><path fill="#90C228" fill-rule="evenodd" d="M22.2359 15.6941L16.0964 12.7683V5L22.2359 15.6941Z" clip-rule="evenodd"/><path fill="#E3F7B9" fill-rule="evenodd" d="M16.0964 12.7686V19.5047L9.96436 15.6944L16.0964 12.7686Z" clip-rule="evenodd"/><path fill="#C2ED68" fill-rule="evenodd" d="M16.0964 5V12.7683L9.96436 15.6941L16.0964 5Z" clip-rule="evenodd"/><path fill="#C2ED68" fill-rule="evenodd" d="M9.96436 16.9199L16.0964 20.7225V25.9998L9.96436 16.9199Z" clip-rule="evenodd"/></svg>