<svg xmlns="http://www.w3.org/2000/svg" width="512" height="512" viewBox="0 0 512 512"><defs><radialGradient id="dotGlow" cx="50%" cy="50%" r="50%"><stop offset="0%" stop-color="#fff" stop-opacity=".5"/><stop offset="40%" stop-color="#fff" stop-opacity=".15"/><stop offset="100%" stop-color="#fff" stop-opacity="0"/></radialGradient><clipPath id="disc"><circle cx="256" cy="256" r="256"/></clipPath></defs><g clip-path="url(#disc)"><circle cx="256" cy="256" r="256" fill="#000"/><circle cx="256" cy="256" r="132" fill="none" stroke="#fff" stroke-opacity=".019" stroke-width="82"/><circle cx="256" cy="256" r="132" fill="none" stroke="#fff" stroke-opacity=".023" stroke-width="78"/><circle cx="256" cy="256" r="132" fill="none" stroke="#fff" stroke-opacity=".029" stroke-width="74"/><circle cx="256" cy="256" r="132" fill="none" stroke="#fff" stroke-opacity=".036" stroke-width="70"/><circle cx="256" cy="256" r="132" fill="none" stroke="#fff" stroke-opacity=".046" stroke-width="66"/><circle cx="256" cy="256" r="132" fill="none" stroke="#fff" stroke-opacity=".057" stroke-width="62"/><circle cx="256" cy="256" r="132" fill="none" stroke="#fff" stroke-opacity=".071" stroke-width="58"/><circle cx="256" cy="256" r="132" fill="none" stroke="#fff" stroke-opacity=".089" stroke-width="54"/><circle cx="256" cy="256" r="132" fill="none" stroke="#fff" stroke-opacity=".111" stroke-width="50"/><circle cx="256" cy="256" r="132" fill="none" stroke="#fff" stroke-opacity=".138" stroke-width="46"/><circle cx="256" cy="256" r="132" fill="none" stroke="#fff" stroke-opacity=".173" stroke-width="42"/><circle cx="256" cy="256" r="132" fill="none" stroke="#fff" stroke-opacity=".216" stroke-width="38"/><circle cx="256" cy="256" r="132" fill="none" stroke="#fff" stroke-opacity=".269" stroke-width="34"/><circle cx="256" cy="256" r="132" fill="none" stroke="#fff" stroke-opacity=".336" stroke-width="30"/><circle cx="256" cy="256" r="132" fill="none" stroke="#fff" stroke-width="26"/><circle cx="256" cy="256" r="46" fill="url(#dotGlow)"/><circle cx="256" cy="256" r="18" fill="#fff"/></g></svg>