<svg xmlns="http://www.w3.org/2000/svg" width="512" height="512" fill="none" viewBox="0 0 512 512"><rect width="512" height="512" fill="url(#paint0_radial_428_1359)" rx="256"/><path fill="#000" d="M109 293.699V300.038V376.111H356.939L381.812 360.765V273.807H301.673L330.66 246.525L349.415 228.622L377.549 201.341V115.235H290.59L280.36 123.76L275.201 128.875L113.541 289.171L109 293.699Z"/><rect width="73.926" height="73.995" fill="#fff" transform="matrix(-1.51243e-06 1 1 3.7888e-08 296.005 121.314)"/><rect width="71" height="158" fill="#fff" transform="matrix(-2.57946e-07 1 1 2.2215e-07 217 281)"/><rect width="71" height="76" fill="#fff" transform="matrix(-2.57946e-07 1 1 2.2215e-07 133 281)"/><path fill="#fff" d="M289.312 196.635L289.312 123.774L137.271 275.673L210.413 275.673L289.312 196.635Z"/><path fill="#fff" d="M367.596 201.942L295.094 201.942L221.1 275.655L289.55 275.655L367.596 201.942Z"/><defs><radialGradient id="paint0_radial_428_1359" cx="0" cy="0" r="1" gradientTransform="translate(256 263) rotate(179.719) scale(407.505 419.857)" gradientUnits="userSpaceOnUse"><stop offset=".443" stop-color="#FF8000"/><stop offset="1" stop-color="#FF0B03"/></radialGradient></defs></svg>