<svg xmlns="http://www.w3.org/2000/svg" xmlns:svg="http://www.w3.org/2000/svg" xmlns:xlink="http://www.w3.org/1999/xlink" id="svg5" width="1000" height="1000" version="1.1" viewBox="0 0 264.583 264.583"><defs id="defs2"><linearGradient id="linearGradient2666" x1="0" x2="1" y1="0" y2="0" gradientTransform="matrix(1484.4965,0,0,-1484.4965,3915.412,-658.24466)" gradientUnits="userSpaceOnUse" spreadMethod="pad"><stop style="stop-opacity:1;stop-color:#f0ff9b" id="stop2656" offset="0"/><stop style="stop-opacity:1;stop-color:#f0ff9b" id="stop2658" offset=".1"/><stop style="stop-opacity:1;stop-color:#f0ff9b" id="stop2660" offset=".179"/><stop style="stop-opacity:1;stop-color:#ffb4ff" id="stop2662" offset=".4"/><stop style="stop-opacity:1;stop-color:#91f5f5" id="stop2664" offset="1"/></linearGradient><linearGradient id="linearGradient129281" x1="731.986" x2="874.766" y1="689.017" y2="659.107" gradientTransform="translate(72.124892,-16.970563)" gradientUnits="userSpaceOnUse" xlink:href="#linearGradient129287"/><linearGradient id="linearGradient129287"><stop style="stop-color:#f0ff9b;stop-opacity:1" id="stop129283" offset="0"/><stop style="stop-color:#f0ff9b;stop-opacity:0" id="stop129285" offset="1"/></linearGradient><linearGradient id="linearGradient129469" x1="216.991" x2="137.667" y1="479.663" y2="353.791" gradientTransform="translate(72.124892,-16.970563)" gradientUnits="userSpaceOnUse" xlink:href="#linearGradient129287"/><linearGradient id="linearGradient129657" x1="609.664" x2="737.87" y1="638.281" y2="674.812" gradientTransform="translate(72.124892,-16.970563)" gradientUnits="userSpaceOnUse" xlink:href="#linearGradient129287"/><linearGradient id="linearGradient129839" x1="339.268" x2="235.582" y1="529.579" y2="434.757" gradientTransform="translate(72.124892,-16.970563)" gradientUnits="userSpaceOnUse" xlink:href="#linearGradient129287"/><linearGradient id="linearGradient130043" x1="385.134" x2="277.366" y1="798.929" y2="1058.313" gradientTransform="translate(72.124892,-16.970563)" gradientUnits="userSpaceOnUse" xlink:href="#linearGradient129287"/><linearGradient id="linearGradient130225" x1="635.335" x2="710.642" y1="191.167" y2="10.855" gradientTransform="translate(72.124892,-16.970563)" gradientUnits="userSpaceOnUse" xlink:href="#linearGradient129287"/></defs><g id="layer1"><circle style="fill:#232832;fill-opacity:1;stroke:none;stroke-width:4.2833;stroke-linecap:round;stroke-linejoin:round" id="circle13892" cx="-132.292" cy="132.292" r="132.292" transform="rotate(-90)"/><g id="g13890" transform="matrix(0.22316046,0,0,-0.22316046,0.46889792,248.97585)"><path id="path39170" d="m 794.77628,704.06068 c -8.0087,-0.0346 -16.26248,-0.31481 -24.69727,-0.79248 16.53944,-7.18225 28.37187,-17.55884 34.03125,-31.22168 l 11.76856,-28.41065 c 79.59992,1.05065 137.90784,-19.31073 155.74217,-61.22753 h 0.0105 l -24.73973,59.72753 c -17.2485,41.64191 -74.11657,62.25408 -152.11526,61.91748 z" style="fill:url(#linearGradient129281);fill-opacity:1;stroke:none;stroke-width:5.6693;stroke-linecap:round;stroke-linejoin:round"/><path id="path46558" d="M 289.8622,503.48695 C 223.35597,443.55925 190.92657,382.33892 209.78212,336.81702 l 24.73975,-59.73195 h 0.0103 c -17.09388,42.41147 10.12554,98.28615 67.65088,154.03419 l -12.67968,30.60792 c -5.1648,12.46887 -4.77255,26.63316 0.35889,41.75977 z" style="fill:url(#linearGradient129469);fill-opacity:1;stroke:none;stroke-width:5.6693;stroke-linecap:round;stroke-linejoin:round"/><path id="rect40323" d="M 697.92004,715.264 C 648.44491,715.05037 586.78147,702.71828 522.62951,678.39535 l 5.29248,-11.42139 a 155.46634,155.46634 0 0 0 38.98828,5.07276 155.46634,155.46634 0 0 0 17.83154,-1.05469 155.46634,155.46634 0 0 0 0.54932,-0.0586 155.46634,155.46634 0 0 0 17.37598,-3.08936 155.46634,155.46634 0 0 0 0.63281,-0.15088 155.46634,155.46634 0 0 0 17.02881,-5.14014 155.46634,155.46634 0 0 0 0.21387,-0.0806 155.46634,155.46634 0 0 0 60.03809,-39.87598 c 81.08594,11.98052 143.89272,-0.78079 159.9155,-38.44043 h 0.009 l -36.40433,87.8877 c -12.04001,29.067 -51.7343,43.45521 -106.17921,43.22021 z" style="fill:url(#linearGradient129657);fill-opacity:1;stroke:none;stroke-width:5.6693;stroke-linecap:round;stroke-linejoin:round"/><path id="path46688" d="M 482.84833,664.70883 C 352.11456,605.55353 266.59227,517.03943 289.5036,461.72683 l 36.40576,-87.8818 h 0.0102 c -15.28909,37.93248 20.04165,91.3182 85.76075,140.1548 a 155.46634,155.46634 0 0 0 -0.32519,5.3804 155.46634,155.46634 0 0 0 0.0132,0.032 155.46634,155.46634 0 0 0 76.82374,133.7651 z" style="fill:url(#linearGradient129839);fill-opacity:1;stroke:none;stroke-width:5.6693;stroke-linecap:round;stroke-linejoin:round"/><path id="path8969" d="M 385.58969,1056.3999 313.39193,1026.2856 538.1862,507.51654 c 20.61046,13.57395 43.22428,17.90295 62.93995,26.07129 z" style="fill:url(#linearGradient130043);fill-opacity:1;stroke:none;stroke-width:.75px;stroke-linecap:butt;stroke-linejoin:miter;stroke-opacity:1"/><path style="fill:url(#linearGradient130225);fill-opacity:1;stroke:none;stroke-width:.75px;stroke-linecap:butt;stroke-linejoin:miter;stroke-opacity:1" id="path9138" d="m 773.54701,-10.657422 20.3171,8.412 -151.8718,410.099182 -50.288,-22.63285 181.8427,-395.878332"/><g id="g2819" transform="translate(527.83019,623.95147)" style="fill:#f0ff9b;fill-opacity:1"><path style="fill:#f0ff9b;fill-opacity:1;fill-rule:nonzero;stroke:none" id="path2817" d="m 0,0 c 59.3,21.583 124.868,-8.992 146.451,-68.291 21.583,-59.3 -8.992,-124.868 -68.291,-146.451 -59.3,-21.583 -124.868,8.992 -146.451,68.291 C -89.874,-87.151 -59.3,-21.583 0,0"/></g><path id="rect2487" d="m 946.89091,642.13609 -0.01,-0.004 c 33.58798,-83.33483 -103.2782,-218.74403 -306.3325,-302.85203 -203.0545,-84.10748 -395.5794,-85.13731 -430.7564,-2.45948 l -0.01,-0.004 24.7398,-59.72753 c 0,-9.8e-4 0,-0.002 0,-0.003 34.497,-83.28405 227.4701,-82.4517 431.0171,1.8603 203.547,84.31201 340.58929,220.17451 306.09228,303.45856 z" style="fill:#f0ff9b;fill-opacity:1;stroke:none;stroke-width:5.6693;stroke-linecap:round;stroke-linejoin:round"/><path id="rect2292" d="m 804.11071,672.04679 -0.01,-0.003 c 23.446,-58.17001 -72.0897,-152.68747 -213.8277,-211.39745 h 0.01 c -141.738,-58.71001 -276.1257,-59.42783 -300.6796,-1.71683 l -0.01,-0.003 36.4043,-87.88771 c 24.08,-58.134 158.7789,-57.55267 300.8598,1.2993 142.0811,58.851 237.7392,153.68684 213.6592,211.82084 z" style="fill:#f0ff9b;fill-opacity:1;stroke:none;stroke-width:5.6693;stroke-linecap:round;stroke-linejoin:round"/></g></g></svg>