<svg xmlns="http://www.w3.org/2000/svg" width="240" height="240" fill="none" viewBox="0 0 240 240"><g clip-path="url(#clip0_5_830)"><circle cx="120" cy="120" r="120" fill="#262626"/><circle cx="120" cy="120" r="93" fill="#fff"/><path fill="#5ECE71" d="M35.0572 167.079C35.0511 167.084 35.0451 167.089 35.0391 167.094C35.0451 167.089 35.0511 167.084 35.0572 167.079C49.155 155.295 85.9892 128.944 120.703 117.68C109.312 119.604 81.7259 126.731 62.5143 139.847C60.2052 124.607 64.731 92.049 101.307 83.7363C137.883 75.4236 167.655 86.892 177.969 93.6653C171.041 112.292 150.491 152.27 123.705 163.169C96.9197 174.068 76.061 161.706 68.9798 154.163C60.9829 155.702 43.0119 160.437 35.0572 167.079Z"/><g filter="url(#filter0_d_5_830)"><circle cx="167" cy="175" r="40" fill="#fff"/><circle cx="167" cy="175" r="35.857" fill="#000"/><path fill="#fff" d="M155.777 192L147 159H150.95L157.658 185.877H157.972L164.806 159H169.194L176.028 185.877H176.342L183.05 159H187L178.223 192H174.21L167.125 165.703H166.875L159.79 192H155.777Z"/></g></g><defs><filter id="filter0_d_5_830" width="104" height="104" x="115" y="135" color-interpolation-filters="sRGB" filterUnits="userSpaceOnUse"><feFlood flood-opacity="0" result="BackgroundImageFix"/><feColorMatrix in="SourceAlpha" result="hardAlpha" type="matrix" values="0 0 0 0 0 0 0 0 0 0 0 0 0 0 0 0 0 0 127 0"/><feOffset dy="12"/><feGaussianBlur stdDeviation="6"/><feComposite in2="hardAlpha" operator="out"/><feColorMatrix type="matrix" values="0 0 0 0 0 0 0 0 0 0 0 0 0 0 0 0 0 0 0.15 0"/><feBlend in2="BackgroundImageFix" mode="normal" result="effect1_dropShadow_5_830"/><feBlend in="SourceGraphic" in2="effect1_dropShadow_5_830" mode="normal" result="shape"/></filter><clipPath id="clip0_5_830"><rect width="240" height="240" fill="#fff"/></clipPath></defs></svg>