<svg xmlns="http://www.w3.org/2000/svg" width="800" height="800" fill="none" viewBox="0 0 800 800"><g clip-path="url(#clip0_3642_100813)"><rect width="780" height="780" x="10" y="10" fill="#1A1A1A" rx="390"/><rect width="780" height="780" x="10" y="10" stroke="#fff" stroke-width="20" rx="390"/><path fill="#F0F0F0" fill-rule="evenodd" d="M375.339 276.688H424.664V302.272C482.315 307.104 514.341 330.875 523.316 372.121L469.587 372.141C460.194 351.19 437.098 342.729 401.464 342.729C349.568 342.729 327.732 360.541 327.732 399.728C327.732 439.188 349.852 457.274 401.464 457.274C436.884 457.274 460.148 448.609 469.587 427.404H523.316C514.341 468.871 482.315 492.847 424.664 497.723V523.316H375.339V497.476C306.6 490.888 276.688 456.804 276.688 399.728C276.688 342.896 306.6 309.057 375.339 302.518V276.688Z" clip-rule="evenodd"/><path fill="#C46FFF" fill-rule="evenodd" d="M400.002 609.636C515.779 609.636 609.636 515.779 609.636 400.002C609.636 284.224 515.779 190.368 400.002 190.368C284.224 190.368 190.368 284.224 190.368 400.002C190.368 515.779 284.224 609.636 400.002 609.636ZM400.002 671.293C549.832 671.293 671.293 549.832 671.293 400.002C671.293 250.172 549.832 128.711 400.002 128.711C250.172 128.711 128.711 250.172 128.711 400.002C128.711 549.832 250.172 671.293 400.002 671.293Z" clip-rule="evenodd"/></g><defs><clipPath id="clip0_3642_100813"><rect width="800" height="800" fill="#fff"/></clipPath></defs></svg>