<svg xmlns="http://www.w3.org/2000/svg" width="240" height="240" fill="none" viewBox="0 0 240 240"><g clip-path="url(#clip0_6308_2923)"><circle cx="120" cy="120" r="120" fill="url(#paint0_linear_6308_2923)"/><path fill="#3492CF" d="M50.9023 72.6771C50.9023 60.1529 61.0552 50 73.5794 50V50V160.258H50.9023V72.6771Z"/><path fill="#3492CF" d="M167.416 50C179.94 50 190.093 60.1529 190.093 72.6771V72.6771L79.8352 72.6771L79.8352 50L167.416 50Z"/><path fill="#3492CF" d="M190.093 167.296C190.093 179.82 179.94 189.973 167.416 189.973V189.973L167.416 79.7151L190.093 79.7151L190.093 167.296Z"/><path fill="#3492CF" d="M73.5809 189.973C61.0567 189.973 50.9038 179.82 50.9038 167.296V167.296L161.161 167.296L161.161 189.973L73.5809 189.973Z"/><rect width="11.99" height="50.046" x="115.546" y="92.748" fill="#3492CF"/><rect width="11.99" height="50.046" x="146.565" y="111.776" fill="#3492CF" transform="rotate(90 146.565 111.776)"/></g><defs><linearGradient id="paint0_linear_6308_2923" x1="120" x2="120" y1="0" y2="240" gradientUnits="userSpaceOnUse"><stop stop-color="#212E64"/><stop offset="1" stop-color="#131626"/></linearGradient><clipPath id="clip0_6308_2923"><rect width="240" height="240" fill="#fff"/></clipPath></defs></svg>