<svg xmlns="http://www.w3.org/2000/svg" width="356" height="402" fill="none" viewBox="0 0 356 402"><path fill="#FF596E" d="M85.4863 161.088L178 118.174V0.876221L85.4863 161.088Z"/><path fill="#FF596E" d="M178 118.174V211.635L270.513 161.088L178 118.174Z"/><path fill="#800010" d="M178 118.174V211.635L85.4863 161.088L178 118.174Z"/><path fill="#800010" d="M270.513 161.088L178 118.174V0.876221L270.513 161.088Z"/><path fill="#FF596E" d="M177.999 247.716V347.329L83.707 196.189L177.999 247.716Z"/><path fill="#800010" d="M178 247.716V347.329L272.292 196.189L178 247.716Z"/><path fill="#800010" d="M287.855 219.017L309.216 278.963L355.999 200.814L287.855 219.017Z"/><path fill="#FF596E" d="M309.215 278.963L355.998 265.103V200.814L309.215 278.963Z"/><path fill="#800010" d="M355.999 265.104L287.855 378.962L236.092 401.124L309.216 278.964L355.999 265.104Z"/><path fill="#FF596E" d="M0 265.104L68.1436 378.962L119.907 401.124L46.7828 278.964L0 265.104Z"/><path fill="#800010" d="M178.002 401.124L68.1459 219.018L46.7852 278.964L119.909 401.124H178.002Z"/><path fill="#FF596E" d="M68.1436 219.017L46.7828 278.963L0 200.814L68.1436 219.017Z"/><path fill="#800010" d="M46.7828 278.963L0 265.103V200.814L46.7828 278.963Z"/><path fill="#FF596E" d="M178 401.124L287.856 219.018L309.217 278.964L236.093 401.124H178Z"/></svg>