<svg xmlns="http://www.w3.org/2000/svg" width="128" height="128" fill="none" viewBox="0 0 128 128"><rect width="128" height="128" fill="#060606" rx="64"/><path fill="#fff" d="M27.0042 40.1575L45.1143 34L63.5867 40.1575L45.1143 47.7637L27.0042 40.1575Z"/><path fill="#fff" d="M63.5837 40.1575L81.6939 34L100.166 40.1575L81.6939 47.7637L63.5837 40.1575Z"/><path fill="#fff" d="M63.9459 79.0946L81.6939 47.764L100.166 40.1577L63.5837 103L63.9459 79.0946Z"/><path fill="#8B8B8B" d="M63.9446 79.0946L45.11 47.764L26.9998 40.1577L63.5824 103L63.9446 79.0946Z"/><path fill="#fff" d="M45.1082 47.764L63.5806 40.1577L63.9428 79.0946L45.1082 47.764Z"/><path fill="#8B8B8B" d="M82.0596 47.764L63.5872 40.1577L63.9494 79.0946L82.0596 47.764Z"/></svg>