<svg xmlns="http://www.w3.org/2000/svg" width="220" height="220" fill="none" viewBox="0 0 220 220"><path fill="#510DC1" d="M110 220C170.751 220 220 170.751 220 110C220 49.2487 170.751 0 110 0C49.2487 0 0 49.2487 0 110C0 170.751 49.2487 220 110 220Z"/><path stroke="url(#paint0_linear_2057_385)" stroke-width="36" d="M110 23C158.049 23 197 61.9512 197 110C197 158.049 158.049 197 110 197C61.9512 197 23 158.049 23 110C23 61.9512 61.9512 23 110 23Z"/><path fill="#510DC1" d="M110 202C160.81 202 202 160.81 202 110C202 59.1898 160.81 18 110 18C59.1898 18 18 59.1898 18 110C18 160.81 59.1898 202 110 202Z"/><path fill="url(#paint1_linear_2057_385)" d="M156 69.1426H100.8V94.8555H146.8V111.998H100.8V137.718H119.199V154.86H100.8V172H82.4004V154.86H63.999V137.718H82.4004V52H156V69.1426Z"/><defs><linearGradient id="paint0_linear_2057_385" x1="215" x2="5" y1="110" y2="110" gradientUnits="userSpaceOnUse"><stop stop-color="red"/><stop offset=".5" stop-color="#fff"/><stop offset="1" stop-color="red"/></linearGradient><linearGradient id="paint1_linear_2057_385" x1="110" x2="110" y1="52" y2="172" gradientUnits="userSpaceOnUse"><stop stop-color="#E2DBFF"/><stop offset=".976" stop-color="#FBFAFF"/></linearGradient></defs></svg>