<svg xmlns="http://www.w3.org/2000/svg" width="32" height="32" fill="none" viewBox="0 0 32 32"><path fill="#142528" fill-rule="evenodd" d="M16 32C24.8369 32 32 24.8365 32 16C32 7.16345 24.8369 0 16 0C7.16309 0 0 7.16345 0 16C0 24.8365 7.16309 32 16 32ZM9.64746 4L12.8242 7.17636L7.17676 12.8235L4 9.64706L9.64746 4ZM4 22.3529L7.17676 19.1765L12.8242 24.8236L9.64746 28L4 22.3529ZM24.8242 12.8235L19.1768 7.17636L22.3525 4L28 9.64706L24.8242 12.8235ZM19.1768 24.8236L24.8242 19.1765L28 22.3529L22.3525 28L19.1768 24.8236Z" clip-rule="evenodd"/><path fill="#fff" d="M15.9968 19.4323L20.9996 16.1662L15.9968 13.6585L11 16.1662L15.9968 19.4323Z" opacity=".6"/><path fill="#fff" fill-rule="evenodd" d="M21.0009 16.1663L15.998 19.4323V13.6585V7L21.0009 16.1663ZM15.998 20.4767L21.0009 17.2173L15.998 25V20.4767Z" clip-rule="evenodd" opacity=".8"/><path fill="#fff" fill-rule="evenodd" d="M15.9968 7V13.6585V19.4323L11 16.1663L15.9968 7ZM11 17.2173L15.9968 20.4767V25L11 17.2173Z" clip-rule="evenodd" opacity=".45"/></svg>