<svg xmlns="http://www.w3.org/2000/svg" width="32" height="32" fill="none" viewBox="0 0 32 32"><g clip-path="url(#clip0_88491_38058)"><path fill="#000" stroke="#A99482" stroke-width=".571" d="M15.9998 31.7145C24.6788 31.7145 31.7145 24.6788 31.7145 15.9998C31.7145 7.32084 24.6788 0.285156 15.9998 0.285156C7.32084 0.285156 0.285156 7.32084 0.285156 15.9998C0.285156 24.6788 7.32084 31.7145 15.9998 31.7145Z"/><path fill="url(#paint0_linear_88491_38058)" d="M25.3817 11.2796L14.287 10.6992L6.64062 13.5498L13.7163 15.5909L25.3817 11.2796Z"/><path fill="url(#paint1_linear_88491_38058)" d="M13.7188 15.5925L16.5208 24.0691L25.3843 11.2812L13.7188 15.5925Z"/><path fill="url(#paint2_linear_88491_38058)" d="M13.7162 15.592L16.5182 24.0686L6.64062 13.5508L13.7162 15.592Z"/><mask id="mask0_88491_38058" width="13" height="14" x="13" y="11" maskUnits="userSpaceOnUse" style="mask-type:alpha"><path fill="url(#paint3_linear_88491_38058)" d="M13.7188 15.5925L16.5208 24.0691L25.3843 11.2812L13.7188 15.5925Z"/></mask><g mask="url(#mask0_88491_38058)"><g filter="url(#filter0_f_88491_38058)"><path fill="#CFC4BA" d="M26.2803 9.83203L16.5352 25.2222L18.0286 26.3882L28.391 11.1373L26.2803 9.83203Z"/></g></g></g><defs><filter id="filter0_f_88491_38058" width="14.709" height="19.408" x="15.108" y="8.405" color-interpolation-filters="sRGB" filterUnits="userSpaceOnUse"><feFlood flood-opacity="0" result="BackgroundImageFix"/><feBlend in="SourceGraphic" in2="BackgroundImageFix" mode="normal" result="shape"/><feGaussianBlur result="effect1_foregroundBlur_88491_38058" stdDeviation=".713"/></filter><linearGradient id="paint0_linear_88491_38058" x1="14.368" x2="13.675" y1="16.834" y2="10.638" gradientUnits="userSpaceOnUse"><stop stop-color="#F7F3EE"/><stop offset=".725" stop-color="#DBD0C6"/><stop offset="1" stop-color="#CCC1B7"/></linearGradient><linearGradient id="paint1_linear_88491_38058" x1="13.658" x2="18.59" y1="15.124" y2="19.873" gradientUnits="userSpaceOnUse"><stop stop-color="#A99482"/><stop offset="1"/></linearGradient><linearGradient id="paint2_linear_88491_38058" x1="14.613" x2="13.251" y1="23.684" y2="16.53" gradientUnits="userSpaceOnUse"><stop offset=".24" stop-color="#1D130B"/><stop offset=".957" stop-color="#352C26"/></linearGradient><linearGradient id="paint3_linear_88491_38058" x1="13.658" x2="18.59" y1="15.124" y2="19.873" gradientUnits="userSpaceOnUse"><stop stop-color="#A99482"/><stop offset="1" stop-color="#2F2823"/></linearGradient><clipPath id="clip0_88491_38058"><rect width="32" height="32" fill="#fff"/></clipPath></defs></svg>