<svg xmlns="http://www.w3.org/2000/svg" width="240" height="240" fill="none" viewBox="0 0 240 240"><g clip-path="url(#clip0_7589_53507)"><circle cx="120" cy="120" r="120" fill="#0E0E0E"/><rect width="98.674" height="14.096" x="70.663" y="64.043" fill="#fff"/><rect width="98.674" height="14.096" x="70.663" y="162.717" fill="#fff"/><rect width="98.674" height="7.048" fill="#fff" transform="matrix(1 0 0 -1 70.6629 92.2363)"/><rect width="98.674" height="7.048" fill="#fff" transform="matrix(1 0 0 -1 70.6629 155.669)"/><rect width="14.096" height="42.289" fill="#fff" transform="matrix(1 0 0 -1 70.6629 141.573)"/><rect width="14.096" height="42.289" fill="#fff" transform="matrix(1 0 0 -1 91.8057 141.573)"/><rect width="14.096" height="42.289" fill="#fff" transform="matrix(1 0 0 -1 112.952 141.573)"/><rect width="14.096" height="42.289" fill="#fff" transform="matrix(1 0 0 -1 134.095 141.573)"/><rect width="14.096" height="42.289" fill="#fff" transform="matrix(1 0 0 -1 155.242 141.573)"/></g><defs><clipPath id="clip0_7589_53507"><rect width="240" height="240" fill="#fff"/></clipPath></defs></svg>