<svg xmlns="http://www.w3.org/2000/svg" fill="none" viewBox="0 0 37 37"><foreignObject width="123.247" height="123.247" x="-43.123" y="-43.123"><div xmlns="http://www.w3.org/1999/xhtml" style="backdrop-filter:blur(21.56px);clip-path:url(#bgblur_0_8113_11836_clip_path);height:100%;width:100%"/></foreignObject><g data-figma-bg-blur-radius="43.123" filter="url(#filter0_iiii_8113_11836)"><path fill="url(#paint0_linear_8113_11836)" fill-opacity=".05" d="M18.5 36.9999C8.28279 36.9999 7.88534e-05 28.7172 7.93e-05 18.5C7.97466e-05 8.28271 8.28279 -1.25527e-06 18.5 -8.08659e-07C28.7173 -3.62049e-07 37 8.28271 37 18.5C37 28.7172 28.7173 36.9999 18.5 36.9999Z"/></g><ellipse cx="18.5" cy="18.5" stroke="#fff" stroke-width=".5" rx="16.298" ry="16.298"/><circle cx="18.49" cy="18.498" r="14" stroke="#6079FF" stroke-width=".5"/><path fill="#fff" d="M8.36336 3.97829L8.36336 25.4782L10.5827 25.4789V2.85215L10.5741 2.83142C9.80901 3.15604 9.06752 3.53461 8.35512 3.96434L8.36336 3.97829Z"/><path stroke="url(#paint1_linear_8113_11836)" stroke-width="2.036" d="M18.5 1.01855C28.1549 1.01855 35.9814 8.84509 35.9814 18.5C35.9814 28.1549 28.1549 35.9814 18.5 35.9814C8.84509 35.9814 1.01856 28.1549 1.01855 18.5C1.01855 8.84509 8.84509 1.01855 18.5 1.01855Z"/><path fill="#fff" d="M18.5012 1.95251C27.6399 1.95277 35.049 9.36162 35.0491 18.5004C35.0489 27.6391 27.6399 35.048 18.5012 35.0482C9.3623 35.0482 1.9535 27.6393 1.95337 18.5004C1.95348 9.36146 9.36229 1.95251 18.5012 1.95251ZM18.5012 2.45251C9.63843 2.45251 2.45348 9.6376 2.45337 18.5004C2.4534 20.7083 2.89864 22.8124 3.70532 24.7269C4.98378 23.5223 6.6895 22.285 9.38181 22.285C15.9321 22.285 15.9851 28.4068 21.5844 29.5642C28.0545 30.9017 34.549 25.1073 34.5491 18.5004C34.549 9.63776 27.3638 2.45277 18.5012 2.45251Z"/><defs><filter id="filter0_iiii_8113_11836" width="123.247" height="123.247" x="-43.123" y="-43.123" color-interpolation-filters="sRGB" filterUnits="userSpaceOnUse"><feFlood flood-opacity="0" result="BackgroundImageFix"/><feBlend in="SourceGraphic" in2="BackgroundImageFix" mode="normal" result="shape"/><feColorMatrix in="SourceAlpha" result="hardAlpha" type="matrix" values="0 0 0 0 0 0 0 0 0 0 0 0 0 0 0 0 0 0 127 0"/><feOffset dx="10.781" dy="10.781"/><feGaussianBlur stdDeviation="12.398"/><feComposite in2="hardAlpha" k2="-1" k3="1" operator="arithmetic"/><feColorMatrix type="matrix" values="0 0 0 0 0.478431 0 0 0 0 0.717647 0 0 0 0 1 0 0 0 0.1 0"/><feBlend in2="shape" mode="normal" result="effect1_innerShadow_8113_11836"/><feColorMatrix in="SourceAlpha" result="hardAlpha" type="matrix" values="0 0 0 0 0 0 0 0 0 0 0 0 0 0 0 0 0 0 127 0"/><feMorphology in="SourceAlpha" operator="erode" radius="2.156" result="effect2_innerShadow_8113_11836"/><feOffset dy="2.156"/><feGaussianBlur stdDeviation="3.234"/><feComposite in2="hardAlpha" k2="-1" k3="1" operator="arithmetic"/><feColorMatrix type="matrix" values="0 0 0 0 1 0 0 0 0 1 0 0 0 0 1 0 0 0 0.05 0"/><feBlend in2="effect1_innerShadow_8113_11836" mode="normal" result="effect2_innerShadow_8113_11836"/><feColorMatrix in="SourceAlpha" result="hardAlpha" type="matrix" values="0 0 0 0 0 0 0 0 0 0 0 0 0 0 0 0 0 0 127 0"/><feOffset dy="1.078"/><feComposite in2="hardAlpha" k2="-1" k3="1" operator="arithmetic"/><feColorMatrix type="matrix" values="0 0 0 0 1 0 0 0 0 1 0 0 0 0 1 0 0 0 0.05 0"/><feBlend in2="effect2_innerShadow_8113_11836" mode="normal" result="effect3_innerShadow_8113_11836"/><feColorMatrix in="SourceAlpha" result="hardAlpha" type="matrix" values="0 0 0 0 0 0 0 0 0 0 0 0 0 0 0 0 0 0 127 0"/><feOffset dy="-10.781"/><feGaussianBlur stdDeviation="5.39"/><feComposite in2="hardAlpha" k2="-1" k3="1" operator="arithmetic"/><feColorMatrix type="matrix" values="0 0 0 0 0.479167 0 0 0 0 0.71875 0 0 0 0 1 0 0 0 1 0"/><feBlend in2="effect3_innerShadow_8113_11836" mode="overlay" result="effect4_innerShadow_8113_11836"/></filter><clipPath id="bgblur_0_8113_11836_clip_path" transform="translate(43.1233 43.1233)"><path d="M18.5 36.9999C8.28279 36.9999 7.88534e-05 28.7172 7.93e-05 18.5C7.97466e-05 8.28271 8.28279 -1.25527e-06 18.5 -8.08659e-07C28.7173 -3.62049e-07 37 8.28271 37 18.5C37 28.7172 28.7173 36.9999 18.5 36.9999Z"/></clipPath><linearGradient id="paint0_linear_8113_11836" x1=".405" x2="32.531" y1="18.249" y2="5.619" gradientUnits="userSpaceOnUse"><stop offset="1" stop-color="#7AB7FF"/></linearGradient><linearGradient id="paint1_linear_8113_11836" x1="3.07" x2="39.792" y1="-1.82" y2="1.031" gradientUnits="userSpaceOnUse"><stop stop-color="#3C6CBA"/><stop offset="1" stop-color="#80A1D9"/></linearGradient></defs></svg>