<svg xmlns="http://www.w3.org/2000/svg" width="40" height="40" viewBox="0 0 40 40"><circle cx="20" cy="20" r="20" fill="#d9e0e4"/><rect width="28" height="28" x="6" y="6" fill="#033049" rx="7.98" ry="7.98"/><g transform="translate(11.32, 18.051428571428573)"><svg xmlns="http://www.w3.org/2000/svg" width="17.36" height="3.897" viewBox="0 0 833 187"><path xmlns="http://www.w3.org/2000/svg" fill="#fff" d="M686 186.4V0H724.7V186.4H686Z" opacity=".3"/><path xmlns="http://www.w3.org/2000/svg" fill="#fff" d="M686 0H832.9V33.9H686V0Z"/><path xmlns="http://www.w3.org/2000/svg" fill="#fff" d="M686 152.5H832.9V186.4H686V152.5Z"/><path xmlns="http://www.w3.org/2000/svg" fill="#fff" d="M38.7 76.6H0V0H38.7V76.6Z"/><path xmlns="http://www.w3.org/2000/svg" fill="#fff" d="M0 109.7H38.7V110.5V186.4H0V109.7Z"/><path xmlns="http://www.w3.org/2000/svg" fill="#fff" d="M124.301 109.7H162.201V186.4H124.301V109.7Z"/><path xmlns="http://www.w3.org/2000/svg" fill="#fff" d="M124.301 0H162.201V76.6H124.301V0Z"/><path xmlns="http://www.w3.org/2000/svg" fill="#fff" d="M290.5 186.4V0H329.3V186.4H290.5Z"/><path xmlns="http://www.w3.org/2000/svg" fill="#fff" d="M588.4 0L516.5 186.4H495.5L426.9 0H468.1L506.8 113.7L548 0H588.4Z"/><path xmlns="http://www.w3.org/2000/svg" fill="#fff" d="M0 76.6001H162.2V108.9H0V76.6001Z"/><path xmlns="http://www.w3.org/2000/svg" fill="#fff" d="M815.9 76.6001V109.7H703.8H686V76.6001H703.8H815.9Z"/><path xmlns="http://www.w3.org/2000/svg" fill="#fff" d="M724.7 76.6H686V0H724.7V76.6Z"/><path xmlns="http://www.w3.org/2000/svg" fill="#fff" d="M686 109.7H724.7V110.5V186.4H686V109.7Z"/><defs xmlns="http://www.w3.org/2000/svg"><linearGradient id="paint0_linear_1164_2991" x1="-33.7" x2="162.3" y1="93.2" y2="93.2" gradientUnits="userSpaceOnUse"><stop stop-color="#fff"/><stop offset="1" stop-color="#fff"/></linearGradient><linearGradient id="paint1_linear_1164_2991" x1="659.6" x2="815.7" y1="93.2" y2="93.2" gradientUnits="userSpaceOnUse"><stop stop-color="#fff"/><stop offset="1" stop-color="#fff"/></linearGradient></defs></svg></g></svg>