<svg xmlns="http://www.w3.org/2000/svg" width="200" height="202" fill="none" viewBox="0 0 200 202"><rect width="200" height="198.364" fill="#080B1B" transform="translate(0 2)"/><g filter="url(#filter0_dd_77_43)"><path fill="#6B6B6B" d="M100.111 44.1204L99.3483 46.7131L99.3483 121.941L100.111 122.702L134.978 102.061L100.111 44.1204Z"/><path fill="#A2A2A2" d="M100.111 44.1204L65.2417 102.061L100.111 122.702L100.111 86.1889L100.111 44.1204Z"/><path fill="#4F4E4E" d="M100.111 129.314L99.6809 129.838L99.6809 156.636L100.111 157.892L135 108.683L100.111 129.314Z"/><path fill="#A2A2A2" d="M100.111 157.892L100.111 129.314L65.2417 108.683L100.111 157.892Z"/><path fill="#797979" d="M100.111 122.702L134.978 102.061L100.111 86.1889L100.111 122.702Z"/><path fill="#D4D4D4" d="M65.2417 102.061L100.111 122.702L100.111 86.1889L65.2417 102.061Z"/><g style="mix-blend-mode:overlay"><path fill="#ACE730" d="M100.11 44.1204L99.3483 46.7131L99.3483 121.941L100.11 122.702L134.978 102.061L100.11 44.1204Z"/><path fill="#ACE730" d="M100.11 44.1204L65.2417 102.061L100.11 122.702L100.11 86.1889L100.11 44.1204Z"/><path fill="#ACE730" d="M100.111 129.314L99.6809 129.838L99.6809 156.636L100.111 157.892L135 108.683L100.111 129.314Z"/><path fill="#ACE730" d="M100.111 157.892L100.111 129.314L65.2417 108.683L100.111 157.892Z"/><path fill="#ACE730" d="M100.11 122.702L134.978 102.061L100.11 86.1889L100.11 122.702Z"/><path fill="#ACE730" d="M65.2417 102.061L100.11 122.702L100.11 86.1889L65.2417 102.061Z"/></g></g><defs><filter id="filter0_dd_77_43" width="157.815" height="201.828" x="21.213" y=".092" color-interpolation-filters="sRGB" filterUnits="userSpaceOnUse"><feFlood flood-opacity="0" result="BackgroundImageFix"/><feColorMatrix in="SourceAlpha" result="hardAlpha" type="matrix" values="0 0 0 0 0 0 0 0 0 0 0 0 0 0 0 0 0 0 127 0"/><feOffset/><feGaussianBlur stdDeviation="10.672"/><feComposite in2="hardAlpha" operator="out"/><feColorMatrix type="matrix" values="0 0 0 0 0.67451 0 0 0 0 0.905882 0 0 0 0 0.188235 0 0 0 0.5 0"/><feBlend in2="BackgroundImageFix" mode="normal" result="effect1_dropShadow_77_43"/><feColorMatrix in="SourceAlpha" result="hardAlpha" type="matrix" values="0 0 0 0 0 0 0 0 0 0 0 0 0 0 0 0 0 0 127 0"/><feOffset/><feGaussianBlur stdDeviation="22.014"/><feComposite in2="hardAlpha" operator="out"/><feColorMatrix type="matrix" values="0 0 0 0 0.67451 0 0 0 0 0.905882 0 0 0 0 0.188235 0 0 0 1 0"/><feBlend in2="effect1_dropShadow_77_43" mode="normal" result="effect2_dropShadow_77_43"/><feBlend in="SourceGraphic" in2="effect2_dropShadow_77_43" mode="normal" result="shape"/></filter></defs></svg>