<svg xmlns="http://www.w3.org/2000/svg" width="756" height="722" fill="none" viewBox="0 0 756 722"><g clip-path="url(#clip0_10012_958)"><path fill="url(#paint0_linear_10012_958)" fill-rule="evenodd" d="M346.062 692.1C437.844 692.1 525.866 655.668 590.766 590.817C655.665 525.967 692.125 438.012 692.125 346.3C692.125 254.588 655.665 166.633 590.766 101.782C525.866 36.9324 437.844 0.5 346.062 0.5C254.281 0.5 166.259 36.9324 101.359 101.782C36.46 166.633 0 254.588 0 346.3C0 438.012 36.46 525.967 101.359 590.817C166.259 655.668 254.281 692.1 346.062 692.1Z" clip-rule="evenodd"/><path fill="#fff" d="M202.457 365.319L346.073 450.287L489.442 365.319L346.073 567.612L202.457 365.319Z"/><path fill="#DED2F7" d="M202.457 365.319L346.073 450.287V567.612L202.457 365.319Z"/><path fill="#fff" d="M346.073 418.671L202.457 333.703L346.073 107.698L489.689 333.703L346.073 418.671Z"/><path fill="#DED2F7" d="M346.073 418.671L202.457 333.703L346.073 107.698V418.671Z"/><rect width="322" height="322" x="430" y="399.5" fill="#7132F5" rx="161"/><path fill="#fff" d="M690.45 559.564V561.436C646.387 583.383 613.382 616.386 591.437 660.449H589.565C567.618 616.386 534.614 583.383 490.551 561.436V559.564C534.614 537.617 567.618 504.614 589.565 460.551H591.437C613.382 504.614 646.387 537.617 690.45 559.564Z"/></g><defs><linearGradient id="paint0_linear_10012_958" x1="692.125" x2=".525" y1=".5" y2="692.625" gradientUnits="userSpaceOnUse"><stop stop-color="#7132F5"/><stop offset="1" stop-color="#271057"/></linearGradient><clipPath id="clip0_10012_958"><rect width="756" height="721" fill="#fff" transform="translate(0 0.5)"/></clipPath></defs></svg>