<svg xmlns="http://www.w3.org/2000/svg" width="180" height="180" fill="none" viewBox="0 0 180 180"><rect width="180" height="180" fill="#E9E9E9" rx="90"/><path fill="#464648" d="M97.0586 31.7859V59.7885L121.33 45.7676L97.0586 31.7859Z"/><path fill="#464648" d="M121.367 45.7666V73.7692L145.639 59.7876L121.367 45.7666Z" opacity=".9"/><path fill="#464648" d="M97.0586 59.7866V87.7893L121.37 73.7683L97.0586 59.7866Z" opacity=".8"/><path fill="#464648" d="M121.367 73.7681V101.771L145.639 87.789L121.367 73.7681Z" opacity=".8"/><path fill="#464648" d="M97.0586 87.7896V115.792L121.37 101.771L97.0586 87.7896Z" opacity=".8"/><path fill="#464648" d="M121.367 101.771V129.774L145.639 115.792L121.367 101.771Z"/><path fill="#464648" d="M34.2188 58.8447V86.8474L58.4905 72.8264L34.2188 58.8447Z" opacity=".4"/><path fill="#464648" d="M64.8496 69.2532V97.2558L89.1606 83.2349L64.8496 69.2532Z" opacity=".2"/><path fill="#464648" d="M46.8613 86.9651V114.968L71.133 100.947L46.8613 86.9651Z" opacity=".3"/><path fill="#464648" d="M62.8496 108.095V136.098L87.1606 122.077L62.8496 108.095Z" opacity=".9"/><path fill="#464648" d="M96.8223 120.153V148.155L121.133 134.134L96.8223 120.153Z" opacity=".7"/><path fill="#464648" d="M68.8965 55.4277V83.4304L93.2075 69.4487L68.8965 55.4277Z" opacity=".9"/><path fill="#464648" d="M97.0551 31.7859V59.7885L72.7441 45.7676L97.0551 31.7859Z" opacity=".8"/><path fill="#464648" d="M68.8928 43.6462V71.6489L44.6211 57.6672L68.8928 43.6462Z" opacity=".6"/><path fill="#464648" d="M93.2092 57.5488V85.5515L68.9375 71.5305L93.2092 57.5488Z" opacity=".6"/><path fill="#464648" d="M64.7719 69.2532V97.2558L40.4609 83.2349L64.7719 69.2532Z" opacity=".95"/><path fill="#464648" d="M97.0571 87.7896V115.792L72.7461 101.771L97.0571 87.7896Z" opacity=".6"/><path fill="#464648" d="M46.8637 94.3105V122.274L22.5527 108.292L46.8637 94.3105Z" opacity=".55"/><path fill="#464648" d="M145.639 59.7866V87.7893L121.367 73.7683L145.639 59.7866Z"/><path fill="#464648" d="M121.37 73.7681V101.771L97.0586 87.789L121.37 73.7681Z" opacity=".95"/><path fill="#464648" d="M145.678 87.7896V115.792L121.367 101.771L145.678 87.7896Z" opacity=".9"/><path fill="#464648" d="M121.33 101.772V129.774L97.0586 115.793L121.33 101.772Z" opacity=".7"/><path fill="#464648" d="M91.6762 113.474V141.477L67.3652 127.495L91.6762 113.474Z" opacity=".4"/><path fill="#464648" d="M121.37 45.7666V73.7692L97.0586 59.7876L121.37 45.7666Z"/></svg>