<svg xmlns="http://www.w3.org/2000/svg" id="Layer_1" width="240" height="240" version="1.1" viewBox="0 0 240 240"><rect width="240" height="240" y="0" fill="#fff"/><g><path fill="#3971ff" d="M171.94,185.38l-37.59-59.95v-29.84h4.76c2.63,0,4.76-2.13,4.76-4.76s-2.13-4.76-4.76-4.76h-38.23c-2.63,0-4.76,2.13-4.76,4.76s2.13,4.76,4.76,4.76h4.76v29.84l-37.59,59.95c-2.48,3.74-2.07,8.83,1.23,12.13,1.87,1.87,4.31,2.81,6.75,2.82h87.93c2.45-.02,4.89-.96,6.75-2.82,3.3-3.3,3.71-8.39,1.23-12.13ZM93.61,162.54l21.55-34.38v-32.58h9.67v32.58l21.55,34.38h-52.77Z"/><path fill="#3971ff" d="M124.38,44.26c2.42-2.42,2.42-6.35,0-8.77-2.42-2.42-6.35-2.42-8.77,0-2.42,2.42-2.42,6.35,0,8.77,2.42,2.42,6.35,2.42,8.77,0Z"/><path fill="#3971ff" d="M96.79,72.91c4.91,0,8.9-3.98,8.9-8.9s-3.98-8.9-8.9-8.9-8.9,3.98-8.9,8.9,3.98,8.9,8.9,8.9Z"/><path fill="#3971ff" d="M143.23,72.9c4.91,0,8.9-3.98,8.9-8.9s-3.98-8.9-8.9-8.9-8.9,3.98-8.9,8.9,3.98,8.9,8.9,8.9Z"/></g></svg>