<svg xmlns="http://www.w3.org/2000/svg" width="1540" height="1492" fill="none" viewBox="0 0 1540 1492"><path fill="url(#paint0_linear_1742_874)" fill-rule="evenodd" d="M654.637 8.27433L667.352 101.074C700.824 96.0822 735.101 93.479 769.998 93.479C1141.35 93.479 1443.46 386.088 1443.46 745.739C1443.46 900.412 1387.59 1042.69 1294.35 1154.62L1372.74 1209.96C1481.15 1078.46 1539.98 916.478 1539.98 745.739C1539.98 546.548 1459.9 359.273 1314.47 218.422C1169.04 77.5705 975.669 0 769.998 0C731.018 0 692.485 2.79447 654.637 8.27433ZM975.036 1464.89L946.969 1375.15C890.556 1390.05 831.218 1398 769.998 1398C398.635 1398 96.52 1105.39 96.52 745.739C96.52 652.22 116.947 563.241 153.707 482.76L66.9899 440.621C23.0972 535.332 0 638.813 0 745.739C0 944.929 80.094 1132.2 225.527 1273.06C370.961 1413.91 564.328 1491.48 769.998 1491.48C840.253 1491.48 909.073 1482.43 975.036 1464.89ZM251.97 414.661C253.738 412.613 253.575 410.85 251.442 409.122L213.718 378.707L258.11 327.054C259.894 324.989 259.713 323.227 257.582 321.516L241.138 308.248C239.006 306.521 237.186 306.695 235.419 308.759L191.027 360.412L172.861 345.77L220.787 289.99C222.571 287.924 222.392 286.179 220.276 284.45L203.815 271.184C201.684 269.472 199.863 269.63 198.096 271.695L131.5 349.182C129.733 351.246 129.897 353.009 132.028 354.721L230.185 433.861C232.317 435.573 234.137 435.415 235.904 433.35L251.97 414.661ZM263.756 215.09C261.881 213.125 260.058 213.048 258.011 214.866L239.587 231.393C237.556 233.193 237.479 234.975 239.354 236.941L326.075 327.777C327.949 329.726 329.789 329.801 331.819 327.984L350.244 311.474C352.274 309.657 352.353 307.892 350.476 305.91L263.756 215.09ZM396.514 179.031L363.231 202.492L347.153 181.103L380.436 157.642C388.037 152.276 394.533 153.012 399.744 159.947C405.285 167.324 404.115 173.665 396.514 179.031ZM475.912 207.518C458.532 184.404 443.581 173.919 430.818 176.066L427.264 176.811C435.606 164.518 434.963 152.152 425.299 139.28C417.911 129.448 408.626 124.07 397.668 123.161C386.712 122.269 375.135 126 363.055 134.511L306.2 174.598C303.961 176.179 303.673 177.927 305.306 180.096L380.468 280.107C382.101 282.275 383.906 282.554 386.145 280.973L406.431 266.664C408.67 265.082 408.96 263.351 407.327 261.182L380.611 225.606L397.318 213.837C406.131 207.64 414.183 204.384 421.347 204.197C428.511 204.009 437.742 211.436 449.037 226.46L451.642 229.927C453.177 231.953 454.982 232.232 457.319 230.794L477.623 216.483C479.715 215.014 479.986 213.267 478.517 210.985L475.912 207.518ZM598.431 129.492L525.71 158.478L516.727 137.31L582.614 111.049C585.16 110.03 585.873 108.4 584.819 105.918L576.676 86.7452C575.622 84.2633 573.922 83.5743 571.376 84.5929L505.489 110.854L496.489 89.7028L567.502 61.4022C570.065 60.3823 570.759 58.7366 569.707 56.2714L561.563 37.0984C560.51 34.6165 558.827 33.9262 556.266 34.9628L458.287 74.0026C455.725 75.0226 455.012 76.653 456.082 79.1335L504.684 193.522C505.738 196.02 507.42 196.694 509.983 195.674L609.669 155.948C612.23 154.912 612.926 153.283 611.873 150.801L603.729 131.628C602.677 129.163 600.994 128.472 598.431 129.492ZM704.176 165.632L699.071 1192.23C698.706 1265.64 759.862 1325.44 835.666 1325.79L840.771 299.198C841.136 225.782 779.981 165.986 704.176 165.632ZM651.256 1150.78L654.631 472.508C654.996 399.091 593.84 339.295 518.036 338.942L514.66 1017.21C514.296 1090.63 575.451 1150.42 651.256 1150.78ZM1021.8 1152.51L1025.17 474.237C1025.54 400.821 964.387 341.013 888.594 340.664L885.219 1018.93C884.854 1092.35 946.01 1152.15 1021.8 1152.51ZM468.482 646.788L466.856 975.207L466.844 975.203C391.051 974.854 329.896 915.057 330.26 841.641L331.886 513.222C407.691 513.575 468.846 573.371 468.482 646.788ZM1207.95 978.67L1209.58 650.239C1209.95 576.823 1148.79 517.027 1072.99 516.674L1071.36 845.093C1071 918.509 1132.15 978.317 1207.95 978.67ZM1007.46 1222.79C1013.09 1213.62 1024.84 1194.91 1026.84 1193.4H1085.62V1396.61H1047.48V1222.79H1007.46ZM1263.91 1294.79L1292.44 1273C1283.25 1261.59 1271.44 1254.51 1266.68 1252.39L1279.76 1225.45L1263.91 1217.13L1246.48 1245.26C1200.51 1236.15 1165.64 1261.9 1156.92 1313.81C1149.95 1355.34 1171.45 1383.15 1183.08 1391.87L1165.64 1421.99L1183.08 1428.72L1201.7 1396.61C1251.47 1408.97 1278.44 1388.03 1285.7 1376.02L1263.91 1355.42C1252.18 1369.68 1225.74 1366.38 1213.98 1362.95L1253.21 1287.26L1263.91 1294.79ZM1197.74 1345.51L1231.02 1281.71C1213.91 1278.23 1201.7 1288.19 1197.74 1293.6C1185.06 1312.62 1192.46 1336.13 1197.74 1345.51Z" clip-rule="evenodd"/><defs><linearGradient id="paint0_linear_1742_874" x1="769.974" x2="769.974" y1="-.005" y2="1491.48" gradientUnits="userSpaceOnUse"><stop stop-color="#F76925"/><stop offset=".25" stop-color="#F76925"/><stop offset=".313" stop-color="#F76925"/><stop offset=".328" stop-color="#F76925"/><stop offset=".336" stop-color="#F76925"/><stop offset=".344" stop-color="#F76A25"/><stop offset=".352" stop-color="#F76B25"/><stop offset=".359" stop-color="#F76C25"/><stop offset=".367" stop-color="#F76C25"/><stop offset=".375" stop-color="#F76D24"/><stop offset=".383" stop-color="#F76E24"/><stop offset=".391" stop-color="#F76F24"/><stop offset=".398" stop-color="#F87024"/><stop offset=".406" stop-color="#F87024"/><stop offset=".414" stop-color="#F87124"/><stop offset=".422" stop-color="#F87224"/><stop offset=".43" stop-color="#F87324"/><stop offset=".438" stop-color="#F87424"/><stop offset=".445" stop-color="#F87423"/><stop offset=".453" stop-color="#F87523"/><stop offset=".461" stop-color="#F87623"/><stop offset=".469" stop-color="#F87723"/><stop offset=".477" stop-color="#F87823"/><stop offset=".484" stop-color="#F87823"/><stop offset=".492" stop-color="#F87923"/><stop offset=".5" stop-color="#F87A23"/><stop offset=".508" stop-color="#F97B23"/><stop offset=".516" stop-color="#F97C22"/><stop offset=".523" stop-color="#F97D22"/><stop offset=".531" stop-color="#F97D22"/><stop offset=".539" stop-color="#F97E22"/><stop offset=".547" stop-color="#F97F22"/><stop offset=".555" stop-color="#F98022"/><stop offset=".563" stop-color="#F98122"/><stop offset=".57" stop-color="#F98122"/><stop offset=".578" stop-color="#F98222"/><stop offset=".586" stop-color="#F98321"/><stop offset=".594" stop-color="#F98421"/><stop offset=".602" stop-color="#F98521"/><stop offset=".609" stop-color="#F98521"/><stop offset=".617" stop-color="#F98621"/><stop offset=".625" stop-color="#FA8721"/><stop offset=".633" stop-color="#FA8821"/><stop offset=".641" stop-color="#FA8921"/><stop offset=".648" stop-color="#FA8921"/><stop offset=".656" stop-color="#FA8A20"/><stop offset=".664" stop-color="#FA8B20"/><stop offset=".672" stop-color="#FA8C20"/><stop offset=".68" stop-color="#FA8D20"/><stop offset=".688" stop-color="#FA8D20"/><stop offset=".695" stop-color="#FA8E20"/><stop offset=".703" stop-color="#FA8F20"/><stop offset=".711" stop-color="#FA9020"/><stop offset=".719" stop-color="#FA9120"/><stop offset=".727" stop-color="#FA911F"/><stop offset=".734" stop-color="#FB921F"/><stop offset=".742" stop-color="#FB931F"/><stop offset=".75" stop-color="#FB941F"/><stop offset=".758" stop-color="#FB951F"/><stop offset=".766" stop-color="#FB951F"/><stop offset=".773" stop-color="#FB961F"/><stop offset=".781" stop-color="#FB971F"/><stop offset=".789" stop-color="#FB981F"/><stop offset=".797" stop-color="#FB991E"/><stop offset=".805" stop-color="#FB991E"/><stop offset=".813" stop-color="#FB9A1E"/><stop offset=".82" stop-color="#FB9B1E"/><stop offset=".828" stop-color="#FB9C1E"/><stop offset=".836" stop-color="#FB9D1E"/><stop offset=".844" stop-color="#FB9D1E"/><stop offset=".852" stop-color="#FC9E1E"/><stop offset=".859" stop-color="#FC9F1E"/><stop offset=".867" stop-color="#FCA01D"/><stop offset=".875" stop-color="#FCA11D"/><stop offset=".883" stop-color="#FCA21D"/><stop offset=".891" stop-color="#FCA21D"/><stop offset=".898" stop-color="#FCA31D"/><stop offset=".906" stop-color="#FCA41D"/><stop offset=".914" stop-color="#FCA51D"/><stop offset=".922" stop-color="#FCA61D"/><stop offset=".93" stop-color="#FCA61D"/><stop offset=".938" stop-color="#FCA71C"/><stop offset=".945" stop-color="#FCA81C"/><stop offset=".953" stop-color="#FCA91C"/><stop offset=".961" stop-color="#FCAA1C"/><stop offset=".969" stop-color="#FDAA1C"/><stop offset=".977" stop-color="#FDAB1C"/><stop offset=".984" stop-color="#FDAC1C"/><stop offset=".992" stop-color="#FDAD1C"/><stop offset="1" stop-color="#FDAE1C"/></linearGradient></defs></svg>