<svg xmlns="http://www.w3.org/2000/svg" xmlns:xlink="http://www.w3.org/1999/xlink" id="Layer_1" x="0" y="0" version="1.1" viewBox="0 0 512 512" xml:space="preserve" style="enable-background:new 0 0 512 512"><style type="text/css">.st0{fill-rule:evenodd;clip-rule:evenodd;fill:#010e35}</style><path d="M476.4,229.3c1,8.7,1.6,17.6,1.6,26.7c0,122.7-99.5,222.2-222.2,222.2c-89.4,0-166.4-52.8-201.7-128.8	l35.5-17.9c28.7,63.1,92.3,106.9,166.1,106.9c100.7,0,182.4-81.7,182.4-182.4c0-1.9,0-3.7-0.1-5.6L476.4,229.3z M255.8,33.8	c93.6,0,173.7,57.9,206.4,139.8l-38,12.1c-27.5-65.9-92.5-112.1-168.4-112.1C155.1,73.6,73.4,155.2,73.4,256c0,1.2,0,2.5,0,3.7	l-37.2,30.4c-1.7-11.1-2.6-22.5-2.6-34.2C33.6,133.3,133.1,33.8,255.8,33.8z" class="st0"/><polygon points="8.3 344.8 225.6 167.1 216.6 241 343.4 169.1 337 239.3 503.3 186.3 277.7 310.6 294.5 239.9 164.2 316.3 172.8 262" class="st0"/></svg>