<svg xmlns="http://www.w3.org/2000/svg" width="32" height="32" fill="none" viewBox="0 0 32 32"><path fill="#fff" d="M32 16C32 24.8366 24.8366 32 16 32C7.16344 32 0 24.8366 0 16C0 7.16344 7.16344 0 16 0C24.8366 0 32 7.16344 32 16Z"/><path fill="#8D67B4" fill-rule="evenodd" d="M16 32C24.8369 32 32 24.8365 32 16C32 7.16345 24.8369 0 16 0C7.16309 0 0 7.16345 0 16C0 24.8365 7.16309 32 16 32ZM9.64746 4L11.2358 5.58818L5.58838 11.2353L4 9.64706L9.64746 4ZM4 22.3529L5.58838 20.7647L11.2358 26.4118L9.64746 28L4 22.3529ZM26.4121 11.2353L20.7646 5.58818L22.3525 4L28 9.64706L26.4121 11.2353ZM20.7646 26.4118L26.4121 20.7647L28 22.3529L22.3525 28L20.7646 26.4118Z" clip-rule="evenodd"/><path fill="#fff" d="M15.9968 19.432L20.9996 16.1659L15.9968 13.6582L11 16.1659L15.9968 19.432Z" opacity=".6"/><path fill="#fff" fill-rule="evenodd" d="M21.0009 16.1663L15.998 19.4323V13.6585V7L21.0009 16.1663ZM15.998 20.4767L21.0009 17.2173L15.998 25V20.4767Z" clip-rule="evenodd" opacity=".8"/><path fill="#fff" fill-rule="evenodd" d="M15.9968 7V13.6585V19.4323L11 16.1663L15.9968 7ZM11 17.2173L15.9968 20.4767V25L11 17.2173Z" clip-rule="evenodd" opacity=".45"/></svg>