<svg xmlns="http://www.w3.org/2000/svg" xmlns:svg="http://www.w3.org/2000/svg" id="svg111" width="294.98" height="294.98" version="1.1" viewBox="0 0 78.047 78.047"><metadata id="metadata108"/><g id="layer3"><ellipse style="fill:#fff;fill-opacity:.95979901;stroke-width:.26458332" id="path835" cx="39.155" cy="39.56" rx="36.482" ry="36.349"/></g><g id="layer1" transform="translate(-66.809936,-106.78613)" style="display:inline"><path id="path57" d="m 105.83334,106.78613 c -21.552964,0 -39.023404,17.47043 -39.023404,39.02339 0,21.55296 17.47044,39.0234 39.023404,39.0234 21.55296,0 39.02339,-17.47044 39.02339,-39.0234 0,-21.55296 -17.47043,-39.02339 -39.02339,-39.02339 z m -2.07169,72.42439 c -2.6961,-0.33337 -5.209654,-1.54252 -7.154334,-3.44223 l -20.96823,-20.4761 c -1.83357,-1.79123 -2.86809,-4.24392 -2.86809,-6.80773 v -4.73075 c 0,-0.2884 0.34661,-0.43392 0.55298,-0.23283 l 30.437674,29.718 z m 0,-10.98814 -26.085274,-25.46615 c -2.93158,-2.86279 -3.84175,-7.24429 -2.20398,-11.00137 0.0265,-0.0582 0.0503,-0.11642 0.0767,-0.17463 0.0609,-0.14023 0.24606,-0.17462 0.35454,-0.0688 l 27.857984,27.19652 z m 0,-15.22148 -21.253984,-20.75127 c -2.89983,-2.83104 -2.96069,-7.51682 -0.0688,-10.35315 0.0185,-0.0185 0.0344,-0.0344 0.0529,-0.0529 l 21.269854,20.7645 z m 4.14602,-10.39284 21.26985,-20.76449 c 0.0185,0.0185 0.0344,0.0344 0.0529,0.0529 2.8919,2.83633 2.83105,7.5221 -0.0688,10.35314 l -21.25398,20.75127 z m 0,16.0999 27.85798,-27.19652 c 0.10848,-0.10583 0.29369,-0.0714 0.35454,0.0688 0.0265,0.0582 0.0503,0.11642 0.0767,0.17462 1.63777,3.75709 0.72761,8.13859 -2.20398,11.00138 l -26.08527,25.46615 z m 28.12256,-3.41577 -20.96823,20.4761 c -1.94468,1.89971 -4.45823,3.10886 -7.15433,3.44223 v -5.97164 l 30.43767,-29.718 c 0.20637,-0.20109 0.55298,-0.0556 0.55298,0.23283 v 4.73075 c 0,2.56381 -1.03452,5.0165 -2.86809,6.80773 z" class="cls-1" style="fill:#192b3a;stroke-width:.26458332"/></g></svg>