<svg xmlns="http://www.w3.org/2000/svg" xmlns:xlink="http://www.w3.org/1999/xlink" id="Layer_1" viewBox="0 0 400 400"><defs><style>.cls-1{fill:url(#radial-gradient)}.cls-2{fill:#080808}</style><radialGradient id="radial-gradient" cx="170.46" cy="202.04" r="265.7" fx="-86" fy="271.44" gradientTransform="translate(260.2 -129.24) rotate(44.94) scale(1 1.47)" gradientUnits="userSpaceOnUse"><stop offset=".21" stop-color="#ebad5e"/><stop offset=".59" stop-color="#78c193"/><stop offset=".71" stop-color="#93c58f"/><stop offset=".95" stop-color="#dadada"/></radialGradient></defs><g id="Prosper_x5F_App_x5F_Icon_x5F_LightMode"><rect width="400" height="400" x="0" y="0" class="cls-1" rx="200" ry="200"/><g id="Prosper_x5F_Symbol_x5F_Black"><g id="Symbol"><path d="M179.35,144.35c0-18.38-14.89-33.27-33.27-33.27s-33.27,14.89-33.27,33.27,14.89,33.27,33.27,33.27,33.27-14.89,33.27-33.27Z" class="cls-2"/><path d="M177.63,204.83c0-17.43-14.12-31.55-31.55-31.55s-31.55,14.12-31.55,31.55,14.12,31.55,31.55,31.55,31.55-14.12,31.55-31.55Z" class="cls-2"/><path d="M170.74,264.25c0-13.62-11.05-24.67-24.67-24.67s-24.67,11.05-24.67,24.67,11.05,24.67,24.67,24.67,24.67-11.05,24.67-24.67Z" class="cls-2"/><path d="M237.06,144.35c0-17.43-14.12-31.55-31.55-31.55s-31.55,14.12-31.55,31.55,14.12,31.55,31.55,31.55,31.55-14.12,31.55-31.55Z" class="cls-2"/><path d="M237.06,204.83c0-17.43-14.12-31.55-31.55-31.55s-31.55,14.12-31.55,31.55,14.12,31.55,31.55,31.55,31.55-14.12,31.55-31.55Z" class="cls-2"/><path d="M218.7,264.25c0-7.29-5.91-13.19-13.19-13.19s-13.19,5.91-13.19,13.19,5.91,13.19,13.19,13.19,13.19-5.91,13.19-13.19Z" class="cls-2"/><path d="M287.2,144.35c0-12.36-10.02-22.37-22.37-22.37s-22.37,10.02-22.37,22.37,10.02,22.37,22.37,22.37,22.37-10.02,22.37-22.37Z" class="cls-2"/><path d="M278.02,204.83c0-7.29-5.91-13.19-13.19-13.19s-13.19,5.91-13.19,13.19,5.91,13.19,13.19,13.19,13.19-5.91,13.19-13.19Z" class="cls-2"/><path d="M274.49,264.25c0-5.7-4.62-10.33-10.33-10.33s-10.33,4.62-10.33,10.33,4.62,10.33,10.33,10.33,10.33-4.62,10.33-10.33Z" class="cls-2"/></g></g></g></svg>