<svg xmlns="http://www.w3.org/2000/svg" xmlns:xlink="http://www.w3.org/1999/xlink" width="500" height="500" preserveAspectRatio="xMidYMid meet" version="1.0" viewBox="0 0 375 375" zoomAndPan="magnify"><defs><clipPath id="260bcd756e"><path d="M 101.25 67.5 L 185 67.5 L 185 236 L 101.25 236 Z M 101.25 67.5" clip-rule="nonzero"/></clipPath><clipPath id="305c9abf2d"><path d="M 184.835938 67.5 L 101.25 191.507812 L 184.835938 235.683594 Z M 184.835938 67.5" clip-rule="nonzero"/></clipPath><linearGradient id="f05cfa628e" x1="51.842" x2="16.907" y1="24.103" y2="38.711" gradientTransform="matrix(3.75, 0, 0, 3.75, 0.0000045, 0)" gradientUnits="userSpaceOnUse"><stop offset="0" stop-color="#00FF84" stop-opacity="1"/><stop offset=".125" stop-color="#00FF84" stop-opacity="1"/><stop offset=".156" stop-color="#00FF84" stop-opacity="1"/><stop offset=".164" stop-color="#00FE85" stop-opacity="1"/><stop offset=".172" stop-color="#01FE85" stop-opacity="1"/><stop offset=".18" stop-color="#01FD86" stop-opacity="1"/><stop offset=".188" stop-color="#02FC87" stop-opacity="1"/><stop offset=".195" stop-color="#02FB88" stop-opacity="1"/><stop offset=".203" stop-color="#03FA88" stop-opacity="1"/><stop offset=".211" stop-color="#04FA89" stop-opacity="1"/><stop offset=".219" stop-color="#04F98A" stop-opacity="1"/><stop offset=".227" stop-color="#05F88B" stop-opacity="1"/><stop offset=".234" stop-color="#05F78B" stop-opacity="1"/><stop offset=".242" stop-color="#06F78C" stop-opacity="1"/><stop offset=".25" stop-color="#06F68D" stop-opacity="1"/><stop offset=".258" stop-color="#07F58E" stop-opacity="1"/><stop offset=".266" stop-color="#07F48E" stop-opacity="1"/><stop offset=".273" stop-color="#08F38F" stop-opacity="1"/><stop offset=".281" stop-color="#08F390" stop-opacity="1"/><stop offset=".289" stop-color="#09F291" stop-opacity="1"/><stop offset=".297" stop-color="#09F191" stop-opacity="1"/><stop offset=".305" stop-color="#0AF092" stop-opacity="1"/><stop offset=".313" stop-color="#0AF093" stop-opacity="1"/><stop offset=".32" stop-color="#0BEF94" stop-opacity="1"/><stop offset=".328" stop-color="#0BEE94" stop-opacity="1"/><stop offset=".336" stop-color="#0CED95" stop-opacity="1"/><stop offset=".344" stop-color="#0CEC96" stop-opacity="1"/><stop offset=".352" stop-color="#0DEC97" stop-opacity="1"/><stop offset=".359" stop-color="#0DEB97" stop-opacity="1"/><stop offset=".367" stop-color="#0EEA98" stop-opacity="1"/><stop offset=".375" stop-color="#0EE999" stop-opacity="1"/><stop offset=".383" stop-color="#0FE89A" stop-opacity="1"/><stop offset=".391" stop-color="#0FE89A" stop-opacity="1"/><stop offset=".398" stop-color="#10E79B" stop-opacity="1"/><stop offset=".406" stop-color="#11E69C" stop-opacity="1"/><stop offset=".414" stop-color="#11E59C" stop-opacity="1"/><stop offset=".422" stop-color="#12E59D" stop-opacity="1"/><stop offset=".43" stop-color="#12E49E" stop-opacity="1"/><stop offset=".438" stop-color="#13E39F" stop-opacity="1"/><stop offset=".445" stop-color="#13E29F" stop-opacity="1"/><stop offset=".453" stop-color="#14E1A0" stop-opacity="1"/><stop offset=".457" stop-color="#14E1A1" stop-opacity="1"/><stop offset=".461" stop-color="#14E0A1" stop-opacity="1"/><stop offset=".469" stop-color="#15E0A2" stop-opacity="1"/><stop offset=".477" stop-color="#15DFA2" stop-opacity="1"/><stop offset=".484" stop-color="#16DEA3" stop-opacity="1"/><stop offset=".492" stop-color="#16DEA4" stop-opacity="1"/><stop offset=".5" stop-color="#17DDA5" stop-opacity="1"/><stop offset=".508" stop-color="#17DCA5" stop-opacity="1"/><stop offset=".516" stop-color="#18DBA6" stop-opacity="1"/><stop offset=".523" stop-color="#18DAA7" stop-opacity="1"/><stop offset=".531" stop-color="#19DAA8" stop-opacity="1"/><stop offset=".539" stop-color="#19D9A8" stop-opacity="1"/><stop offset=".543" stop-color="#1AD8A9" stop-opacity="1"/><stop offset=".547" stop-color="#1AD8AA" stop-opacity="1"/><stop offset=".555" stop-color="#1AD7AA" stop-opacity="1"/><stop offset=".563" stop-color="#1BD6AB" stop-opacity="1"/><stop offset=".57" stop-color="#1BD6AB" stop-opacity="1"/><stop offset=".578" stop-color="#1CD5AC" stop-opacity="1"/><stop offset=".586" stop-color="#1CD4AD" stop-opacity="1"/><stop offset=".594" stop-color="#1DD3AE" stop-opacity="1"/><stop offset=".602" stop-color="#1DD3AE" stop-opacity="1"/><stop offset=".609" stop-color="#1ED2AF" stop-opacity="1"/><stop offset=".617" stop-color="#1FD1B0" stop-opacity="1"/><stop offset=".625" stop-color="#1FD0B1" stop-opacity="1"/><stop offset=".633" stop-color="#20CFB1" stop-opacity="1"/><stop offset=".641" stop-color="#20CFB2" stop-opacity="1"/><stop offset=".648" stop-color="#21CEB3" stop-opacity="1"/><stop offset=".656" stop-color="#21CDB4" stop-opacity="1"/><stop offset=".664" stop-color="#22CCB4" stop-opacity="1"/><stop offset=".672" stop-color="#22CCB5" stop-opacity="1"/><stop offset=".68" stop-color="#23CBB6" stop-opacity="1"/><stop offset=".688" stop-color="#23CAB7" stop-opacity="1"/><stop offset=".695" stop-color="#24C9B7" stop-opacity="1"/><stop offset=".703" stop-color="#24C8B8" stop-opacity="1"/><stop offset=".711" stop-color="#25C8B9" stop-opacity="1"/><stop offset=".719" stop-color="#25C7BA" stop-opacity="1"/><stop offset=".727" stop-color="#26C6BA" stop-opacity="1"/><stop offset=".734" stop-color="#26C5BB" stop-opacity="1"/><stop offset=".742" stop-color="#27C5BC" stop-opacity="1"/><stop offset=".75" stop-color="#27C4BD" stop-opacity="1"/><stop offset=".758" stop-color="#28C3BD" stop-opacity="1"/><stop offset=".766" stop-color="#28C2BE" stop-opacity="1"/><stop offset=".773" stop-color="#29C1BF" stop-opacity="1"/><stop offset=".781" stop-color="#29C1BF" stop-opacity="1"/><stop offset=".789" stop-color="#2AC0C0" stop-opacity="1"/><stop offset=".797" stop-color="#2ABFC1" stop-opacity="1"/><stop offset=".805" stop-color="#2BBEC2" stop-opacity="1"/><stop offset=".813" stop-color="#2CBDC2" stop-opacity="1"/><stop offset=".82" stop-color="#2CBDC3" stop-opacity="1"/><stop offset=".828" stop-color="#2DBCC4" stop-opacity="1"/><stop offset=".836" stop-color="#2DBBC5" stop-opacity="1"/><stop offset=".844" stop-color="#2EBAC5" stop-opacity="1"/><stop offset=".875" stop-color="#2EBAC6" stop-opacity="1"/><stop offset="1" stop-color="#2EBAC6" stop-opacity="1"/></linearGradient><clipPath id="743295ade5"><path d="M 193 67.5 L 277.09375 67.5 L 277.09375 236 L 193 236 Z M 193 67.5" clip-rule="nonzero"/></clipPath><clipPath id="29362ec1b2"><path d="M 193.492188 67.5 L 277.078125 191.507812 L 193.492188 235.683594 Z M 193.492188 67.5" clip-rule="nonzero"/></clipPath><linearGradient id="6d0b595231" x1="49.046" x2="83.981" y1="24.103" y2="38.711" gradientTransform="matrix(3.75, 0, 0, 3.75, 0.0000045, 0)" gradientUnits="userSpaceOnUse"><stop offset="0" stop-color="#00FF84" stop-opacity="1"/><stop offset=".125" stop-color="#00FF84" stop-opacity="1"/><stop offset=".156" stop-color="#00FF84" stop-opacity="1"/><stop offset=".164" stop-color="#00FE85" stop-opacity="1"/><stop offset=".172" stop-color="#01FE85" stop-opacity="1"/><stop offset=".18" stop-color="#01FD86" stop-opacity="1"/><stop offset=".188" stop-color="#02FC87" stop-opacity="1"/><stop offset=".195" stop-color="#02FB88" stop-opacity="1"/><stop offset=".203" stop-color="#03FA88" stop-opacity="1"/><stop offset=".211" stop-color="#04FA89" stop-opacity="1"/><stop offset=".219" stop-color="#04F98A" stop-opacity="1"/><stop offset=".227" stop-color="#05F88B" stop-opacity="1"/><stop offset=".234" stop-color="#05F78B" stop-opacity="1"/><stop offset=".242" stop-color="#06F78C" stop-opacity="1"/><stop offset=".25" stop-color="#06F68D" stop-opacity="1"/><stop offset=".258" stop-color="#07F58E" stop-opacity="1"/><stop offset=".266" stop-color="#07F48E" stop-opacity="1"/><stop offset=".273" stop-color="#08F38F" stop-opacity="1"/><stop offset=".281" stop-color="#08F390" stop-opacity="1"/><stop offset=".289" stop-color="#09F291" stop-opacity="1"/><stop offset=".297" stop-color="#09F191" stop-opacity="1"/><stop offset=".305" stop-color="#0AF092" stop-opacity="1"/><stop offset=".313" stop-color="#0AF093" stop-opacity="1"/><stop offset=".32" stop-color="#0BEF94" stop-opacity="1"/><stop offset=".328" stop-color="#0BEE94" stop-opacity="1"/><stop offset=".336" stop-color="#0CED95" stop-opacity="1"/><stop offset=".344" stop-color="#0CEC96" stop-opacity="1"/><stop offset=".352" stop-color="#0DEC97" stop-opacity="1"/><stop offset=".359" stop-color="#0DEB97" stop-opacity="1"/><stop offset=".367" stop-color="#0EEA98" stop-opacity="1"/><stop offset=".375" stop-color="#0EE999" stop-opacity="1"/><stop offset=".383" stop-color="#0FE89A" stop-opacity="1"/><stop offset=".391" stop-color="#0FE89A" stop-opacity="1"/><stop offset=".398" stop-color="#10E79B" stop-opacity="1"/><stop offset=".406" stop-color="#11E69C" stop-opacity="1"/><stop offset=".414" stop-color="#11E59C" stop-opacity="1"/><stop offset=".422" stop-color="#12E59D" stop-opacity="1"/><stop offset=".43" stop-color="#12E49E" stop-opacity="1"/><stop offset=".438" stop-color="#13E39F" stop-opacity="1"/><stop offset=".445" stop-color="#13E29F" stop-opacity="1"/><stop offset=".453" stop-color="#14E1A0" stop-opacity="1"/><stop offset=".457" stop-color="#14E1A1" stop-opacity="1"/><stop offset=".461" stop-color="#14E0A1" stop-opacity="1"/><stop offset=".469" stop-color="#15E0A2" stop-opacity="1"/><stop offset=".477" stop-color="#15DFA2" stop-opacity="1"/><stop offset=".484" stop-color="#16DEA3" stop-opacity="1"/><stop offset=".492" stop-color="#16DEA4" stop-opacity="1"/><stop offset=".5" stop-color="#17DDA5" stop-opacity="1"/><stop offset=".508" stop-color="#17DCA5" stop-opacity="1"/><stop offset=".516" stop-color="#18DBA6" stop-opacity="1"/><stop offset=".523" stop-color="#18DAA7" stop-opacity="1"/><stop offset=".531" stop-color="#19DAA8" stop-opacity="1"/><stop offset=".539" stop-color="#19D9A8" stop-opacity="1"/><stop offset=".543" stop-color="#1AD8A9" stop-opacity="1"/><stop offset=".547" stop-color="#1AD8AA" stop-opacity="1"/><stop offset=".555" stop-color="#1AD7AA" stop-opacity="1"/><stop offset=".563" stop-color="#1BD6AB" stop-opacity="1"/><stop offset=".57" stop-color="#1BD6AB" stop-opacity="1"/><stop offset=".578" stop-color="#1CD5AC" stop-opacity="1"/><stop offset=".586" stop-color="#1CD4AD" stop-opacity="1"/><stop offset=".594" stop-color="#1DD3AE" stop-opacity="1"/><stop offset=".602" stop-color="#1DD3AE" stop-opacity="1"/><stop offset=".609" stop-color="#1ED2AF" stop-opacity="1"/><stop offset=".617" stop-color="#1FD1B0" stop-opacity="1"/><stop offset=".625" stop-color="#1FD0B1" stop-opacity="1"/><stop offset=".633" stop-color="#20CFB1" stop-opacity="1"/><stop offset=".641" stop-color="#20CFB2" stop-opacity="1"/><stop offset=".648" stop-color="#21CEB3" stop-opacity="1"/><stop offset=".656" stop-color="#21CDB4" stop-opacity="1"/><stop offset=".664" stop-color="#22CCB4" stop-opacity="1"/><stop offset=".672" stop-color="#22CCB5" stop-opacity="1"/><stop offset=".68" stop-color="#23CBB6" stop-opacity="1"/><stop offset=".688" stop-color="#23CAB7" stop-opacity="1"/><stop offset=".695" stop-color="#24C9B7" stop-opacity="1"/><stop offset=".703" stop-color="#24C8B8" stop-opacity="1"/><stop offset=".711" stop-color="#25C8B9" stop-opacity="1"/><stop offset=".719" stop-color="#25C7BA" stop-opacity="1"/><stop offset=".727" stop-color="#26C6BA" stop-opacity="1"/><stop offset=".734" stop-color="#26C5BB" stop-opacity="1"/><stop offset=".742" stop-color="#27C5BC" stop-opacity="1"/><stop offset=".75" stop-color="#27C4BD" stop-opacity="1"/><stop offset=".758" stop-color="#28C3BD" stop-opacity="1"/><stop offset=".766" stop-color="#28C2BE" stop-opacity="1"/><stop offset=".773" stop-color="#29C1BF" stop-opacity="1"/><stop offset=".781" stop-color="#29C1BF" stop-opacity="1"/><stop offset=".789" stop-color="#2AC0C0" stop-opacity="1"/><stop offset=".797" stop-color="#2ABFC1" stop-opacity="1"/><stop offset=".805" stop-color="#2BBEC2" stop-opacity="1"/><stop offset=".813" stop-color="#2CBDC2" stop-opacity="1"/><stop offset=".82" stop-color="#2CBDC3" stop-opacity="1"/><stop offset=".828" stop-color="#2DBCC4" stop-opacity="1"/><stop offset=".836" stop-color="#2DBBC5" stop-opacity="1"/><stop offset=".844" stop-color="#2EBAC5" stop-opacity="1"/><stop offset=".875" stop-color="#2EBAC6" stop-opacity="1"/><stop offset="1" stop-color="#2EBAC6" stop-opacity="1"/></linearGradient><clipPath id="9933d71d32"><path d="M 193 157 L 277.09375 157 L 277.09375 236 L 193 236 Z M 193 157" clip-rule="nonzero"/></clipPath><clipPath id="37a35864ac"><path d="M 101.25 157 L 185 157 L 185 236 L 101.25 236 Z M 101.25 157" clip-rule="nonzero"/></clipPath><clipPath id="78feac0d62"><path d="M 102 200 L 186 200 L 186 307.5 L 102 307.5 Z M 102 200" clip-rule="nonzero"/></clipPath><clipPath id="0faf35eda9"><path d="M 185.410156 307.496094 L 185.410156 245.347656 L 102.375 200.484375 Z M 185.410156 307.496094" clip-rule="nonzero"/></clipPath><linearGradient id="27ada4072b" x1="51.035" x2="22.446" y1="55.902" y2="74.565" gradientTransform="matrix(3.75, 0, 0, 3.75, 0.0000045, 0)" gradientUnits="userSpaceOnUse"><stop offset="0" stop-color="#00FF84" stop-opacity="1"/><stop offset=".125" stop-color="#00FF84" stop-opacity="1"/><stop offset=".156" stop-color="#00FF84" stop-opacity="1"/><stop offset=".164" stop-color="#00FE85" stop-opacity="1"/><stop offset=".172" stop-color="#01FE85" stop-opacity="1"/><stop offset=".18" stop-color="#01FD86" stop-opacity="1"/><stop offset=".188" stop-color="#02FC87" stop-opacity="1"/><stop offset=".195" stop-color="#02FB88" stop-opacity="1"/><stop offset=".203" stop-color="#03FA88" stop-opacity="1"/><stop offset=".211" stop-color="#04FA89" stop-opacity="1"/><stop offset=".219" stop-color="#04F98A" stop-opacity="1"/><stop offset=".227" stop-color="#05F88B" stop-opacity="1"/><stop offset=".234" stop-color="#05F78B" stop-opacity="1"/><stop offset=".242" stop-color="#06F78C" stop-opacity="1"/><stop offset=".25" stop-color="#06F68D" stop-opacity="1"/><stop offset=".258" stop-color="#07F58E" stop-opacity="1"/><stop offset=".266" stop-color="#07F48E" stop-opacity="1"/><stop offset=".273" stop-color="#08F38F" stop-opacity="1"/><stop offset=".281" stop-color="#08F390" stop-opacity="1"/><stop offset=".289" stop-color="#09F291" stop-opacity="1"/><stop offset=".297" stop-color="#09F191" stop-opacity="1"/><stop offset=".305" stop-color="#0AF092" stop-opacity="1"/><stop offset=".313" stop-color="#0AF093" stop-opacity="1"/><stop offset=".32" stop-color="#0BEF94" stop-opacity="1"/><stop offset=".328" stop-color="#0BEE94" stop-opacity="1"/><stop offset=".336" stop-color="#0CED95" stop-opacity="1"/><stop offset=".344" stop-color="#0CEC96" stop-opacity="1"/><stop offset=".352" stop-color="#0DEC97" stop-opacity="1"/><stop offset=".359" stop-color="#0DEB97" stop-opacity="1"/><stop offset=".367" stop-color="#0EEA98" stop-opacity="1"/><stop offset=".375" stop-color="#0EE999" stop-opacity="1"/><stop offset=".383" stop-color="#0FE89A" stop-opacity="1"/><stop offset=".391" stop-color="#0FE89A" stop-opacity="1"/><stop offset=".398" stop-color="#10E79B" stop-opacity="1"/><stop offset=".406" stop-color="#11E69C" stop-opacity="1"/><stop offset=".414" stop-color="#11E59C" stop-opacity="1"/><stop offset=".422" stop-color="#12E59D" stop-opacity="1"/><stop offset=".43" stop-color="#12E49E" stop-opacity="1"/><stop offset=".438" stop-color="#13E39F" stop-opacity="1"/><stop offset=".445" stop-color="#13E29F" stop-opacity="1"/><stop offset=".453" stop-color="#14E1A0" stop-opacity="1"/><stop offset=".457" stop-color="#14E1A1" stop-opacity="1"/><stop offset=".461" stop-color="#14E0A1" stop-opacity="1"/><stop offset=".469" stop-color="#15E0A2" stop-opacity="1"/><stop offset=".477" stop-color="#15DFA2" stop-opacity="1"/><stop offset=".484" stop-color="#16DEA3" stop-opacity="1"/><stop offset=".492" stop-color="#16DEA4" stop-opacity="1"/><stop offset=".5" stop-color="#17DDA5" stop-opacity="1"/><stop offset=".508" stop-color="#17DCA5" stop-opacity="1"/><stop offset=".516" stop-color="#18DBA6" stop-opacity="1"/><stop offset=".523" stop-color="#18DAA7" stop-opacity="1"/><stop offset=".531" stop-color="#19DAA8" stop-opacity="1"/><stop offset=".539" stop-color="#19D9A8" stop-opacity="1"/><stop offset=".543" stop-color="#1AD8A9" stop-opacity="1"/><stop offset=".547" stop-color="#1AD8AA" stop-opacity="1"/><stop offset=".555" stop-color="#1AD7AA" stop-opacity="1"/><stop offset=".563" stop-color="#1BD6AB" stop-opacity="1"/><stop offset=".57" stop-color="#1BD6AB" stop-opacity="1"/><stop offset=".578" stop-color="#1CD5AC" stop-opacity="1"/><stop offset=".586" stop-color="#1CD4AD" stop-opacity="1"/><stop offset=".594" stop-color="#1DD3AE" stop-opacity="1"/><stop offset=".602" stop-color="#1DD3AE" stop-opacity="1"/><stop offset=".609" stop-color="#1ED2AF" stop-opacity="1"/><stop offset=".617" stop-color="#1FD1B0" stop-opacity="1"/><stop offset=".625" stop-color="#1FD0B1" stop-opacity="1"/><stop offset=".633" stop-color="#20CFB1" stop-opacity="1"/><stop offset=".641" stop-color="#20CFB2" stop-opacity="1"/><stop offset=".648" stop-color="#21CEB3" stop-opacity="1"/><stop offset=".656" stop-color="#21CDB4" stop-opacity="1"/><stop offset=".664" stop-color="#22CCB4" stop-opacity="1"/><stop offset=".672" stop-color="#22CCB5" stop-opacity="1"/><stop offset=".68" stop-color="#23CBB6" stop-opacity="1"/><stop offset=".688" stop-color="#23CAB7" stop-opacity="1"/><stop offset=".695" stop-color="#24C9B7" stop-opacity="1"/><stop offset=".703" stop-color="#24C8B8" stop-opacity="1"/><stop offset=".711" stop-color="#25C8B9" stop-opacity="1"/><stop offset=".719" stop-color="#25C7BA" stop-opacity="1"/><stop offset=".727" stop-color="#26C6BA" stop-opacity="1"/><stop offset=".734" stop-color="#26C5BB" stop-opacity="1"/><stop offset=".742" stop-color="#27C5BC" stop-opacity="1"/><stop offset=".75" stop-color="#27C4BD" stop-opacity="1"/><stop offset=".758" stop-color="#28C3BD" stop-opacity="1"/><stop offset=".766" stop-color="#28C2BE" stop-opacity="1"/><stop offset=".773" stop-color="#29C1BF" stop-opacity="1"/><stop offset=".781" stop-color="#29C1BF" stop-opacity="1"/><stop offset=".789" stop-color="#2AC0C0" stop-opacity="1"/><stop offset=".797" stop-color="#2ABFC1" stop-opacity="1"/><stop offset=".805" stop-color="#2BBEC2" stop-opacity="1"/><stop offset=".813" stop-color="#2CBDC2" stop-opacity="1"/><stop offset=".82" stop-color="#2CBDC3" stop-opacity="1"/><stop offset=".828" stop-color="#2DBCC4" stop-opacity="1"/><stop offset=".836" stop-color="#2DBBC5" stop-opacity="1"/><stop offset=".844" stop-color="#2EBAC5" stop-opacity="1"/><stop offset=".875" stop-color="#2EBAC6" stop-opacity="1"/><stop offset="1" stop-color="#2EBAC6" stop-opacity="1"/></linearGradient><clipPath id="a7dce89495"><path d="M 193 200 L 277 200 L 277 307.5 L 193 307.5 Z M 193 200" clip-rule="nonzero"/></clipPath><clipPath id="3fa42c91a8"><path d="M 193.527344 307.496094 L 193.527344 245.347656 L 276.5625 200.484375 Z M 193.527344 307.496094" clip-rule="nonzero"/></clipPath><linearGradient id="25287a9043" x1="50.015" x2="78.603" y1="55.902" y2="74.565" gradientTransform="matrix(3.75, 0, 0, 3.75, 0.0000045, 0)" gradientUnits="userSpaceOnUse"><stop offset="0" stop-color="#00FF84" stop-opacity="1"/><stop offset=".125" stop-color="#00FF84" stop-opacity="1"/><stop offset=".156" stop-color="#00FF84" stop-opacity="1"/><stop offset=".164" stop-color="#00FE85" stop-opacity="1"/><stop offset=".172" stop-color="#01FE85" stop-opacity="1"/><stop offset=".18" stop-color="#01FD86" stop-opacity="1"/><stop offset=".188" stop-color="#02FC87" stop-opacity="1"/><stop offset=".195" stop-color="#02FB88" stop-opacity="1"/><stop offset=".203" stop-color="#03FA88" stop-opacity="1"/><stop offset=".211" stop-color="#04FA89" stop-opacity="1"/><stop offset=".219" stop-color="#04F98A" stop-opacity="1"/><stop offset=".227" stop-color="#05F88B" stop-opacity="1"/><stop offset=".234" stop-color="#05F78B" stop-opacity="1"/><stop offset=".242" stop-color="#06F78C" stop-opacity="1"/><stop offset=".25" stop-color="#06F68D" stop-opacity="1"/><stop offset=".258" stop-color="#07F58E" stop-opacity="1"/><stop offset=".266" stop-color="#07F48E" stop-opacity="1"/><stop offset=".273" stop-color="#08F38F" stop-opacity="1"/><stop offset=".281" stop-color="#08F390" stop-opacity="1"/><stop offset=".289" stop-color="#09F291" stop-opacity="1"/><stop offset=".297" stop-color="#09F191" stop-opacity="1"/><stop offset=".305" stop-color="#0AF092" stop-opacity="1"/><stop offset=".313" stop-color="#0AF093" stop-opacity="1"/><stop offset=".32" stop-color="#0BEF94" stop-opacity="1"/><stop offset=".328" stop-color="#0BEE94" stop-opacity="1"/><stop offset=".336" stop-color="#0CED95" stop-opacity="1"/><stop offset=".344" stop-color="#0CEC96" stop-opacity="1"/><stop offset=".352" stop-color="#0DEC97" stop-opacity="1"/><stop offset=".359" stop-color="#0DEB97" stop-opacity="1"/><stop offset=".367" stop-color="#0EEA98" stop-opacity="1"/><stop offset=".375" stop-color="#0EE999" stop-opacity="1"/><stop offset=".383" stop-color="#0FE89A" stop-opacity="1"/><stop offset=".391" stop-color="#0FE89A" stop-opacity="1"/><stop offset=".398" stop-color="#10E79B" stop-opacity="1"/><stop offset=".406" stop-color="#11E69C" stop-opacity="1"/><stop offset=".414" stop-color="#11E59C" stop-opacity="1"/><stop offset=".422" stop-color="#12E59D" stop-opacity="1"/><stop offset=".43" stop-color="#12E49E" stop-opacity="1"/><stop offset=".438" stop-color="#13E39F" stop-opacity="1"/><stop offset=".445" stop-color="#13E29F" stop-opacity="1"/><stop offset=".453" stop-color="#14E1A0" stop-opacity="1"/><stop offset=".457" stop-color="#14E1A1" stop-opacity="1"/><stop offset=".461" stop-color="#14E0A1" stop-opacity="1"/><stop offset=".469" stop-color="#15E0A2" stop-opacity="1"/><stop offset=".477" stop-color="#15DFA2" stop-opacity="1"/><stop offset=".484" stop-color="#16DEA3" stop-opacity="1"/><stop offset=".492" stop-color="#16DEA4" stop-opacity="1"/><stop offset=".5" stop-color="#17DDA5" stop-opacity="1"/><stop offset=".508" stop-color="#17DCA5" stop-opacity="1"/><stop offset=".516" stop-color="#18DBA6" stop-opacity="1"/><stop offset=".523" stop-color="#18DAA7" stop-opacity="1"/><stop offset=".531" stop-color="#19DAA8" stop-opacity="1"/><stop offset=".539" stop-color="#19D9A8" stop-opacity="1"/><stop offset=".543" stop-color="#1AD8A9" stop-opacity="1"/><stop offset=".547" stop-color="#1AD8AA" stop-opacity="1"/><stop offset=".555" stop-color="#1AD7AA" stop-opacity="1"/><stop offset=".563" stop-color="#1BD6AB" stop-opacity="1"/><stop offset=".57" stop-color="#1BD6AB" stop-opacity="1"/><stop offset=".578" stop-color="#1CD5AC" stop-opacity="1"/><stop offset=".586" stop-color="#1CD4AD" stop-opacity="1"/><stop offset=".594" stop-color="#1DD3AE" stop-opacity="1"/><stop offset=".602" stop-color="#1DD3AE" stop-opacity="1"/><stop offset=".609" stop-color="#1ED2AF" stop-opacity="1"/><stop offset=".617" stop-color="#1FD1B0" stop-opacity="1"/><stop offset=".625" stop-color="#1FD0B1" stop-opacity="1"/><stop offset=".633" stop-color="#20CFB1" stop-opacity="1"/><stop offset=".641" stop-color="#20CFB2" stop-opacity="1"/><stop offset=".648" stop-color="#21CEB3" stop-opacity="1"/><stop offset=".656" stop-color="#21CDB4" stop-opacity="1"/><stop offset=".664" stop-color="#22CCB4" stop-opacity="1"/><stop offset=".672" stop-color="#22CCB5" stop-opacity="1"/><stop offset=".68" stop-color="#23CBB6" stop-opacity="1"/><stop offset=".688" stop-color="#23CAB7" stop-opacity="1"/><stop offset=".695" stop-color="#24C9B7" stop-opacity="1"/><stop offset=".703" stop-color="#24C8B8" stop-opacity="1"/><stop offset=".711" stop-color="#25C8B9" stop-opacity="1"/><stop offset=".719" stop-color="#25C7BA" stop-opacity="1"/><stop offset=".727" stop-color="#26C6BA" stop-opacity="1"/><stop offset=".734" stop-color="#26C5BB" stop-opacity="1"/><stop offset=".742" stop-color="#27C5BC" stop-opacity="1"/><stop offset=".75" stop-color="#27C4BD" stop-opacity="1"/><stop offset=".758" stop-color="#28C3BD" stop-opacity="1"/><stop offset=".766" stop-color="#28C2BE" stop-opacity="1"/><stop offset=".773" stop-color="#29C1BF" stop-opacity="1"/><stop offset=".781" stop-color="#29C1BF" stop-opacity="1"/><stop offset=".789" stop-color="#2AC0C0" stop-opacity="1"/><stop offset=".797" stop-color="#2ABFC1" stop-opacity="1"/><stop offset=".805" stop-color="#2BBEC2" stop-opacity="1"/><stop offset=".813" stop-color="#2CBDC2" stop-opacity="1"/><stop offset=".82" stop-color="#2CBDC3" stop-opacity="1"/><stop offset=".828" stop-color="#2DBCC4" stop-opacity="1"/><stop offset=".836" stop-color="#2DBBC5" stop-opacity="1"/><stop offset=".844" stop-color="#2EBAC5" stop-opacity="1"/><stop offset=".875" stop-color="#2EBAC6" stop-opacity="1"/><stop offset="1" stop-color="#2EBAC6" stop-opacity="1"/></linearGradient><clipPath id="e7733b521f"><path d="M 224.109375 258.75 L 263.390625 258.75 L 263.390625 285 L 224.109375 285 Z M 224.109375 258.75" clip-rule="nonzero"/></clipPath><clipPath id="1d35c8d846"><path d="M 224.109375 269 L 263.390625 269 L 263.390625 296.25 L 224.109375 296.25 Z M 224.109375 269" clip-rule="nonzero"/></clipPath></defs><path fill="#071614" fill-opacity="1" fill-rule="nonzero" stroke="#00ff84" stroke-linecap="butt" stroke-linejoin="miter" stroke-miterlimit="4" stroke-opacity="1" stroke-width="1" d="M 50.000002 0.5 C 50.810419 0.5 51.619794 0.519792 52.429169 0.559375 C 53.237502 0.598958 54.045836 0.659375 54.852086 0.738542 C 55.658336 0.817708 56.461461 0.916667 57.263544 1.035417 C 58.064586 1.154167 58.862503 1.292708 59.657294 1.451042 C 60.451044 1.609375 61.241669 1.786458 62.027086 1.983333 C 62.813545 2.180208 63.593753 2.395833 64.368753 2.63125 C 65.144795 2.866667 65.913545 3.120834 66.676045 3.39375 C 67.438545 3.666667 68.194795 3.958334 68.942712 4.267709 C 69.69167 4.578125 70.431253 4.90625 71.163545 5.252084 C 71.895837 5.598959 72.619795 5.9625 73.334379 6.344792 C 74.048962 6.727084 74.753129 7.126042 75.44792 7.542709 C 76.142712 7.959376 76.827087 8.391667 77.501046 8.842709 C 78.173962 9.292709 78.836462 9.758334 79.487504 10.241667 C 80.137504 10.723959 80.776046 11.221876 81.402087 11.736459 C 82.029171 12.250001 82.641671 12.779168 83.241671 13.322918 C 83.842713 13.866668 84.429171 14.425001 85.002088 14.997918 C 85.575004 15.570834 86.133338 16.157293 86.677088 16.758334 C 87.220838 17.358334 87.750005 17.970835 88.263546 18.597918 C 88.77813 19.22396 89.276046 19.862501 89.758338 20.512501 C 90.241671 21.163543 90.707296 21.826043 91.157296 22.49896 C 91.607296 23.172918 92.04063 23.857293 92.457297 24.552085 C 92.873963 25.246877 93.272922 25.951043 93.655213 26.665627 C 94.036463 27.38021 94.401047 28.104169 94.747922 28.83646 C 95.093755 29.568752 95.42188 30.308335 95.732297 31.057294 C 96.041672 31.80521 96.333338 32.56146 96.606255 33.323961 C 96.879172 34.086461 97.133339 34.855211 97.368755 35.631252 C 97.604172 36.406252 97.819797 37.186461 98.016672 37.972919 C 98.213547 38.758336 98.39063 39.548961 98.548964 40.342711 C 98.707297 41.137503 98.845839 41.935419 98.964589 42.736461 C 99.083339 43.538545 99.182297 44.34167 99.261464 45.14792 C 99.34063 45.95417 99.401047 46.762503 99.44063 47.570836 C 99.480214 48.380212 99.500005 49.189587 99.500005 50.000003 C 99.500005 50.81042 99.480214 51.619795 99.44063 52.42917 C 99.401047 53.237503 99.34063 54.045837 99.261464 54.852087 C 99.182297 55.658337 99.083339 56.461462 98.964589 57.263545 C 98.845839 58.064587 98.707297 58.862504 98.548964 59.657296 C 98.39063 60.451046 98.213547 61.241671 98.016672 62.027087 C 97.819797 62.813546 97.604172 63.593754 97.368755 64.368754 C 97.133339 65.144796 96.879172 65.913546 96.606255 66.676046 C 96.333338 67.438546 96.041672 68.194796 95.732297 68.942713 C 95.42188 69.691671 95.093755 70.431255 94.747922 71.163546 C 94.401047 71.895838 94.036463 72.619796 93.655213 73.33438 C 93.272922 74.048963 92.873963 74.75313 92.457297 75.447922 C 92.04063 76.142713 91.607296 76.827088 91.157296 77.501047 C 90.707296 78.173963 90.241671 78.836464 89.758338 79.487505 C 89.276046 80.137505 88.77813 80.776047 88.263546 81.402089 C 87.750005 82.029172 87.220838 82.641672 86.677088 83.241672 C 86.133338 83.842714 85.575004 84.429172 85.002088 85.002089 C 84.429171 85.575006 83.842713 86.133339 83.241671 86.677089 C 82.641671 87.220839 82.029171 87.750006 81.402087 88.263547 C 80.776046 88.778131 80.137504 89.276048 79.487504 89.758339 C 78.836462 90.241673 78.173962 90.707298 77.501046 91.157298 C 76.827087 91.607298 76.142712 92.040631 75.44792 92.457298 C 74.753129 92.873964 74.048962 93.272923 73.334379 93.655214 C 72.619795 94.036465 71.895837 94.401048 71.163545 94.747923 C 70.431253 95.093756 69.69167 95.421881 68.942712 95.732298 C 68.194795 96.041673 67.438545 96.33334 66.676045 96.606256 C 65.913545 96.879173 65.144795 97.13334 64.368753 97.368756 C 63.593753 97.604173 62.813545 97.819798 62.027086 98.016673 C 61.241669 98.213548 60.451044 98.390631 59.657294 98.548965 C 58.862503 98.707298 58.064586 98.84584 57.263544 98.96459 C 56.461461 99.08334 55.658336 99.182298 54.852086 99.261465 C 54.045836 99.340632 53.237502 99.401048 52.429169 99.440632 C 51.619794 99.480215 50.810419 99.500007 50.000002 99.500007 C 49.189585 99.500007 48.38021 99.480215 47.570835 99.440632 C 46.762502 99.401048 45.954168 99.340632 45.147918 99.261465 C 44.341668 99.182298 43.538543 99.08334 42.73646 98.96459 C 41.935418 98.84584 41.137502 98.707298 40.34271 98.548965 C 39.54896 98.390631 38.758335 98.213548 37.972918 98.016673 C 37.18646 97.819798 36.406251 97.604173 35.631251 97.368756 C 34.855209 97.13334 34.086459 96.879173 33.323959 96.606256 C 32.561459 96.33334 31.805209 96.041673 31.057293 95.732298 C 30.308334 95.421881 29.568751 95.093756 28.836459 94.747923 C 28.104167 94.401048 27.380209 94.036465 26.665626 93.655214 C 25.951042 93.272923 25.246875 92.873964 24.552084 92.457298 C 23.857292 92.040631 23.172917 91.607298 22.498959 91.157298 C 21.826042 90.707298 21.163542 90.241673 20.5125 89.758339 C 19.8625 89.276048 19.223958 88.778131 18.597917 88.263547 C 17.970833 87.750006 17.358333 87.220839 16.758333 86.677089 C 16.157292 86.133339 15.570833 85.575006 14.997916 85.002089 C 14.425 84.429172 13.866666 83.842714 13.322916 83.241672 C 12.779166 82.641672 12.25 82.029172 11.736458 81.402089 C 11.221875 80.776047 10.723958 80.137505 10.241666 79.487505 C 9.758333 78.836464 9.292708 78.173963 8.842708 77.501047 C 8.391666 76.827088 7.959374 76.142713 7.542708 75.447922 C 7.126041 74.75313 6.727083 74.048963 6.344791 73.33438 C 5.962499 72.619796 5.598958 71.895838 5.252082 71.163546 C 4.906249 70.431255 4.578124 69.691671 4.267707 68.942713 C 3.958332 68.194796 3.666666 67.438546 3.393749 66.676046 C 3.120832 65.913546 2.866666 65.144796 2.631249 64.368754 C 2.395832 63.593754 2.180207 62.813546 1.983332 62.027087 C 1.786457 61.241671 1.609374 60.451046 1.451041 59.657296 C 1.292707 58.862504 1.154166 58.064587 1.035416 57.263545 C 0.916666 56.461462 0.817707 55.658337 0.738541 54.852087 C 0.659374 54.045837 0.598957 53.237503 0.559374 52.42917 C 0.519791 51.619795 0.499999 50.81042 0.499999 50.000003 C 0.499999 49.189587 0.519791 48.380212 0.559374 47.570836 C 0.598957 46.762503 0.659374 45.95417 0.738541 45.14792 C 0.817707 44.34167 0.916666 43.538545 1.035416 42.736461 C 1.154166 41.935419 1.292707 41.137503 1.451041 40.342711 C 1.609374 39.548961 1.786457 38.758336 1.983332 37.972919 C 2.180207 37.186461 2.395832 36.406252 2.631249 35.631252 C 2.866666 34.855211 3.120832 34.086461 3.393749 33.323961 C 3.666666 32.56146 3.958332 31.80521 4.267707 31.057294 C 4.578124 30.308335 4.906249 29.568752 5.252082 28.83646 C 5.598958 28.104169 5.962499 27.38021 6.344791 26.665627 C 6.727083 25.951043 7.126041 25.246877 7.542708 24.552085 C 7.959374 23.857293 8.391666 23.172918 8.842708 22.49896 C 9.292708 21.826043 9.758333 21.163543 10.241666 20.512501 C 10.723958 19.862501 11.221875 19.22396 11.736458 18.597918 C 12.25 17.970835 12.779166 17.358334 13.322916 16.758334 C 13.866666 16.157293 14.425 15.570834 14.997916 14.997918 C 15.570833 14.425001 16.157292 13.866668 16.758333 13.322918 C 17.358333 12.779168 17.970833 12.250001 18.597917 11.736459 C 19.223958 11.221876 19.8625 10.723959 20.5125 10.241667 C 21.163542 9.758334 21.826042 9.292709 22.498959 8.842709 C 23.172917 8.391667 23.857292 7.959376 24.552084 7.542709 C 25.246875 7.126042 25.951042 6.727084 26.665626 6.344792 C 27.380209 5.9625 28.104167 5.598959 28.836459 5.252084 C 29.568751 4.90625 30.308334 4.578125 31.057293 4.267709 C 31.805209 3.958334 32.561459 3.666667 33.323959 3.39375 C 34.086459 3.120834 34.855209 2.866667 35.631251 2.63125 C 36.406251 2.395833 37.18646 2.180208 37.972918 1.983333 C 38.758335 1.786458 39.54896 1.609375 40.34271 1.451042 C 41.137502 1.292708 41.935418 1.154167 42.73646 1.035417 C 43.538543 0.916667 44.341668 0.817708 45.147918 0.738542 C 45.954168 0.659375 46.762502 0.598958 47.570835 0.559375 C 48.38021 0.519792 49.189585 0.5 50.000002 0.5 Z M 50.000002 0.5" transform="matrix(3.75, 0, 0, 3.75, 0.0000045, 0.000000000000021316)"/><g clip-path="url(#260bcd756e)"><g clip-path="url(#305c9abf2d)"><path fill="url(#f05cfa628e)" fill-rule="nonzero" d="M 101.25 67.5 L 101.25 235.683594 L 184.835938 235.683594 L 184.835938 67.5 Z M 101.25 67.5"/></g></g><g clip-path="url(#743295ade5)"><g clip-path="url(#29362ec1b2)"><path fill="url(#6d0b595231)" fill-rule="nonzero" d="M 193.492188 67.5 L 193.492188 235.683594 L 277.078125 235.683594 L 277.078125 67.5 Z M 193.492188 67.5"/></g></g><g clip-path="url(#9933d71d32)"><path fill="#0e322d" fill-opacity="1" fill-rule="nonzero" d="M 193.5 235.695312 L 277.082031 191.519531 L 193.5 157.546875 Z M 193.5 235.695312"/></g><g clip-path="url(#37a35864ac)"><path fill="#0b5b3e" fill-opacity="1" fill-rule="nonzero" d="M 101.25 191.519531 L 184.835938 235.695312 L 184.835938 157.546875 Z M 101.25 191.519531"/></g><g clip-path="url(#78feac0d62)"><g clip-path="url(#0faf35eda9)"><path fill="url(#27ada4072b)" fill-rule="nonzero" d="M 102.375 200.484375 L 102.375 307.496094 L 185.410156 307.496094 L 185.410156 200.484375 Z M 102.375 200.484375"/></g></g><g clip-path="url(#a7dce89495)"><g clip-path="url(#3fa42c91a8)"><path fill="url(#25287a9043)" fill-rule="nonzero" d="M 193.527344 200.484375 L 193.527344 307.496094 L 276.5625 307.496094 L 276.5625 200.484375 Z M 193.527344 200.484375"/></g></g><path fill="#0b5b3e" fill-opacity="1" fill-rule="nonzero" d="M 243.75 232.5 C 245.222656 232.5 246.695312 232.570312 248.160156 232.714844 C 249.628906 232.859375 251.082031 233.078125 252.527344 233.363281 C 253.972656 233.652344 255.402344 234.011719 256.8125 234.4375 C 258.222656 234.867188 259.609375 235.363281 260.972656 235.925781 C 262.332031 236.488281 263.664062 237.117188 264.960938 237.8125 C 266.261719 238.507812 267.523438 239.265625 268.75 240.082031 C 269.976562 240.902344 271.160156 241.78125 272.296875 242.714844 C 273.4375 243.648438 274.527344 244.636719 275.570312 245.679688 C 276.613281 246.722656 277.601562 247.8125 278.535156 248.953125 C 279.46875 250.089844 280.347656 251.273438 281.167969 252.5 C 281.984375 253.726562 282.742188 254.988281 283.4375 256.289062 C 284.132812 257.585938 284.761719 258.917969 285.324219 260.277344 C 285.886719 261.640625 286.382812 263.027344 286.8125 264.4375 C 287.238281 265.847656 287.597656 267.277344 287.886719 268.722656 C 288.171875 270.167969 288.390625 271.621094 288.535156 273.089844 C 288.679688 274.554688 288.75 276.027344 288.75 277.5 C 288.75 278.972656 288.679688 280.445312 288.535156 281.910156 C 288.390625 283.378906 288.171875 284.832031 287.886719 286.277344 C 287.597656 287.722656 287.238281 289.152344 286.8125 290.5625 C 286.382812 291.972656 285.886719 293.359375 285.324219 294.722656 C 284.761719 296.082031 284.132812 297.414062 283.4375 298.710938 C 282.742188 300.011719 281.984375 301.273438 281.167969 302.5 C 280.347656 303.726562 279.46875 304.910156 278.535156 306.046875 C 277.601562 307.1875 276.613281 308.277344 275.570312 309.320312 C 274.527344 310.363281 273.4375 311.351562 272.296875 312.285156 C 271.160156 313.21875 269.976562 314.097656 268.75 314.917969 C 267.523438 315.734375 266.261719 316.492188 264.960938 317.1875 C 263.664062 317.882812 262.332031 318.511719 260.972656 319.074219 C 259.609375 319.636719 258.222656 320.132812 256.8125 320.5625 C 255.402344 320.988281 253.972656 321.347656 252.527344 321.636719 C 251.082031 321.921875 249.628906 322.140625 248.160156 322.285156 C 246.695312 322.429688 245.222656 322.5 243.75 322.5 C 242.277344 322.5 240.804688 322.429688 239.339844 322.285156 C 237.871094 322.140625 236.417969 321.921875 234.972656 321.636719 C 233.527344 321.347656 232.097656 320.988281 230.6875 320.5625 C 229.277344 320.132812 227.890625 319.636719 226.527344 319.074219 C 225.167969 318.511719 223.835938 317.882812 222.535156 317.1875 C 221.238281 316.492188 219.976562 315.734375 218.75 314.917969 C 217.523438 314.097656 216.339844 313.21875 215.203125 312.285156 C 214.0625 311.351562 212.972656 310.363281 211.929688 309.320312 C 210.886719 308.277344 209.898438 307.1875 208.964844 306.046875 C 208.03125 304.910156 207.152344 303.726562 206.332031 302.5 C 205.515625 301.273438 204.757812 300.011719 204.0625 298.710938 C 203.367188 297.414062 202.738281 296.082031 202.175781 294.722656 C 201.613281 293.359375 201.117188 291.972656 200.6875 290.5625 C 200.261719 289.152344 199.902344 287.722656 199.613281 286.277344 C 199.328125 284.832031 199.109375 283.378906 198.964844 281.910156 C 198.820312 280.445312 198.75 278.972656 198.75 277.5 C 198.75 276.027344 198.820312 274.554688 198.964844 273.089844 C 199.109375 271.621094 199.328125 270.167969 199.613281 268.722656 C 199.902344 267.277344 200.261719 265.847656 200.6875 264.4375 C 201.117188 263.027344 201.613281 261.640625 202.175781 260.277344 C 202.738281 258.917969 203.367188 257.585938 204.0625 256.289062 C 204.757812 254.988281 205.515625 253.726562 206.332031 252.5 C 207.152344 251.273438 208.03125 250.089844 208.964844 248.953125 C 209.898438 247.8125 210.886719 246.722656 211.929688 245.679688 C 212.972656 244.636719 214.0625 243.648438 215.203125 242.714844 C 216.339844 241.78125 217.523438 240.902344 218.75 240.082031 C 219.976562 239.265625 221.238281 238.507812 222.539062 237.8125 C 223.835938 237.117188 225.167969 236.488281 226.527344 235.925781 C 227.890625 235.363281 229.277344 234.867188 230.6875 234.4375 C 232.097656 234.011719 233.527344 233.652344 234.972656 233.363281 C 236.417969 233.078125 237.871094 232.859375 239.339844 232.714844 C 240.804688 232.570312 242.277344 232.5 243.75 232.5 Z M 243.75 232.5"/><g clip-path="url(#e7733b521f)"><path fill="#ccffe6" fill-opacity="1" fill-rule="evenodd" d="M 224.109375 258.75 L 263.394531 258.75 L 263.394531 263.527344 L 229.035156 263.527344 L 229.035156 279.867188 L 260.929688 279.867188 L 260.929688 284.644531 L 224.109375 284.644531 Z M 224.109375 258.75"/></g><g clip-path="url(#1d35c8d846)"><path fill="#ccffe6" fill-opacity="1" fill-rule="evenodd" d="M 263.394531 296.25 L 224.109375 296.25 L 224.109375 291.308594 L 258.480469 291.308594 L 258.480469 274.40625 L 228.628906 274.40625 L 228.628906 269.464844 L 263.394531 269.464844 Z M 263.394531 296.25"/></g></svg>