<svg xmlns="http://www.w3.org/2000/svg" xmlns:xlink="http://www.w3.org/1999/xlink" id="logo" x="0" y="0" version="1.1" viewBox="0 0 1000 1000" xml:space="preserve" style="enable-background:new 0 0 1000 1000"><style type="text/css">.st0{fill:url(#SVGID_1_)}.st1{fill:#fff}</style><g><linearGradient id="SVGID_1_" x1="146.8" x2="853.2" y1="853.2" y2="146.8" gradientUnits="userSpaceOnUse"><stop offset="0" style="stop-color:#29c1fc"/><stop offset=".502" style="stop-color:#ab00ff"/><stop offset=".508" style="stop-color:#ac03fc"/><stop offset=".641" style="stop-color:#c840b8"/><stop offset=".76" style="stop-color:#de7082"/><stop offset=".863" style="stop-color:#ee935b"/><stop offset=".945" style="stop-color:#f7a844"/><stop offset=".996" style="stop-color:#fbb03b"/></linearGradient><circle cx="500" cy="500" r="499.5" class="st0"/><circle cx="500" cy="500" r="467.28"/><g><path d="M329.27,473.68l82.28-82.48l51.66,51.66c17.91,17.91,40.41,24.79,59.16,6.04 c18.75-18.75,7.5-36.66-10.41-54.78l-56.86-56.86l-34.15-33.96l0,0c-13.54-13.54-32.51-21.45-51.25-2.7 c-16.45,16.45-10.92,34.67-1.3,46.91l-101.6,100.77c-41.87,42.7-25.41,86.23,3.75,115.39l84.15,83.73 c7.5,7.5,36.66,38.12,59.99,14.16c13.54-13.54,10.41-34.37,2.92-42.7l-96.65-95.81C303.65,505.76,311.98,490.13,329.27,473.68z" class="st1"/><path d="M733.78,433.69l-83.94-83.11c-7.5-7.5-36.66-38.12-59.99-14.16c-13.54,13.54-10.41,34.37-2.92,42.7 l96.65,95.81c17.29,17.29,8.96,32.91-8.33,49.37l-82.48,82.48l-51.66-51.66c-17.91-17.91-40.41-24.79-59.16-6.04 c-18.75,18.75-7.5,36.66,10.41,54.78l56.86,56.86l34.26,34.26l0,0c13.54,13.54,32.6,21.98,51.34,3.23 c16.66-16.66,10.78-35.13,0.92-47.37l101.77-101.77C780.23,506.38,763.77,462.85,733.78,433.69z" class="st1"/></g></g></svg>