<svg xmlns="http://www.w3.org/2000/svg" id="Layer_1" data-name="Layer 1" viewBox="0 0 2500 2500"><defs><style>.cls-1{fill:#595959}.cls-2{fill:#ae8b61}.cls-3{fill:#060100}.cls-4{fill:#0640f9}.cls-5{fill:#fff68d}.cls-6{fill:#648596}.cls-7{fill:#865723}.cls-8{fill:#5e1c0e}.cls-9{fill:#a97a4c}</style></defs><rect width="104.17" height="104.17" x="2395.83" y="2395.83" class="cls-6"/><rect width="104.17" height="104.17" x="2291.67" y="2395.83" class="cls-6"/><rect width="104.17" height="104.17" x="2187.5" y="2395.83" class="cls-6"/><rect width="104.17" height="104.17" x="2083.33" y="2395.83" class="cls-6"/><rect width="104.17" height="104.17" x="1979.17" y="2395.83" class="cls-6"/><rect width="104.17" height="104.17" x="1875" y="2395.83" class="cls-6"/><rect width="104.17" height="104.17" x="1770.83" y="2395.83" class="cls-6"/><rect width="104.17" height="104.17" x="1666.67" y="2395.83" class="cls-6"/><rect width="104.17" height="104.17" x="1562.5" y="2395.83" class="cls-6"/><rect width="104.17" height="104.17" x="1458.33" y="2395.83" class="cls-6"/><rect width="104.17" height="104.17" x="1354.17" y="2395.83" class="cls-6"/><rect width="104.17" height="104.17" x="1250" y="2395.83" class="cls-3"/><rect width="104.17" height="104.17" x="1145.83" y="2395.83" class="cls-2"/><rect width="104.17" height="104.17" x="1041.67" y="2395.83" class="cls-2"/><rect width="104.17" height="104.17" x="937.5" y="2395.83" class="cls-2"/><rect width="104.17" height="104.17" x="833.33" y="2395.83" class="cls-3"/><rect width="104.17" height="104.17" x="729.17" y="2395.83" class="cls-6"/><rect width="104.17" height="104.17" x="625" y="2395.83" class="cls-6"/><rect width="104.17" height="104.17" x="520.83" y="2395.83" class="cls-6"/><rect width="104.17" height="104.17" x="416.67" y="2395.83" class="cls-6"/><rect width="104.17" height="104.17" x="312.5" y="2395.83" class="cls-6"/><rect width="104.17" height="104.17" x="208.33" y="2395.83" class="cls-6"/><rect width="104.17" height="104.17" x="104.17" y="2395.83" class="cls-6"/><rect width="104.17" height="104.17" y="2395.83" class="cls-6"/><rect width="104.17" height="104.17" x="2395.83" y="2291.67" class="cls-6"/><rect width="104.17" height="104.17" x="2291.67" y="2291.67" class="cls-6"/><rect width="104.17" height="104.17" x="2187.5" y="2291.67" class="cls-6"/><rect width="104.17" height="104.17" x="2083.33" y="2291.67" class="cls-6"/><rect width="104.17" height="104.17" x="1979.17" y="2291.67" class="cls-6"/><rect width="104.17" height="104.17" x="1875" y="2291.67" class="cls-6"/><rect width="104.17" height="104.17" x="1770.83" y="2291.67" class="cls-6"/><rect width="104.17" height="104.17" x="1666.67" y="2291.67" class="cls-6"/><rect width="104.17" height="104.17" x="1562.5" y="2291.67" class="cls-6"/><rect width="104.17" height="104.17" x="1458.33" y="2291.67" class="cls-6"/><rect width="104.17" height="104.17" x="1354.17" y="2291.67" class="cls-6"/><rect width="104.17" height="104.17" x="1250" y="2291.67" class="cls-3"/><rect width="104.17" height="104.17" x="1145.83" y="2291.67" class="cls-2"/><rect width="104.17" height="104.17" x="1041.67" y="2291.67" class="cls-2"/><rect width="104.17" height="104.17" x="937.5" y="2291.67" class="cls-2"/><rect width="104.17" height="104.17" x="833.33" y="2291.67" class="cls-3"/><rect width="104.17" height="104.17" x="729.17" y="2291.67" class="cls-6"/><rect width="104.17" height="104.17" x="625" y="2291.67" class="cls-6"/><rect width="104.17" height="104.17" x="520.83" y="2291.67" class="cls-6"/><rect width="104.17" height="104.17" x="416.67" y="2291.67" class="cls-6"/><rect width="104.17" height="104.17" x="312.5" y="2291.67" class="cls-6"/><rect width="104.17" height="104.17" x="208.33" y="2291.67" class="cls-6"/><rect width="104.17" height="104.17" x="104.17" y="2291.67" class="cls-6"/><rect width="104.17" height="104.17" y="2291.67" class="cls-6"/><rect width="104.17" height="104.17" x="2395.83" y="2187.5" class="cls-6"/><rect width="104.17" height="104.17" x="2291.67" y="2187.5" class="cls-6"/><rect width="104.17" height="104.17" x="2187.5" y="2187.5" class="cls-6"/><rect width="104.17" height="104.17" x="2083.33" y="2187.5" class="cls-6"/><rect width="104.17" height="104.17" x="1979.17" y="2187.5" class="cls-6"/><rect width="104.17" height="104.17" x="1875" y="2187.5" class="cls-6"/><rect width="104.17" height="104.17" x="1770.83" y="2187.5" class="cls-6"/><rect width="104.17" height="104.17" x="1666.67" y="2187.5" class="cls-6"/><rect width="104.17" height="104.17" x="1562.5" y="2187.5" class="cls-6"/><rect width="104.17" height="104.17" x="1458.33" y="2187.5" class="cls-6"/><rect width="104.17" height="104.17" x="1354.17" y="2187.5" class="cls-3"/><rect width="104.17" height="104.17" x="1250" y="2187.5" class="cls-3"/><rect width="104.17" height="104.17" x="1145.83" y="2187.5" class="cls-3"/><rect width="104.17" height="104.17" x="1041.67" y="2187.5" class="cls-2"/><rect width="104.17" height="104.17" x="937.5" y="2187.5" class="cls-2"/><rect width="104.17" height="104.17" x="833.33" y="2187.5" class="cls-3"/><rect width="104.17" height="104.17" x="729.17" y="2187.5" class="cls-6"/><rect width="104.17" height="104.17" x="625" y="2187.5" class="cls-6"/><rect width="104.17" height="104.17" x="520.83" y="2187.5" class="cls-6"/><rect width="104.17" height="104.17" x="416.67" y="2187.5" class="cls-6"/><rect width="104.17" height="104.17" x="312.5" y="2187.5" class="cls-6"/><rect width="104.17" height="104.17" x="208.33" y="2187.5" class="cls-6"/><rect width="104.17" height="104.17" x="104.17" y="2187.5" class="cls-6"/><rect width="104.17" height="104.17" y="2187.5" class="cls-6"/><rect width="104.17" height="104.17" x="2395.83" y="2083.33" class="cls-6"/><rect width="104.17" height="104.17" x="2291.67" y="2083.33" class="cls-6"/><rect width="104.17" height="104.17" x="2187.5" y="2083.33" class="cls-6"/><rect width="104.17" height="104.17" x="2083.33" y="2083.33" class="cls-6"/><rect width="104.17" height="104.17" x="1979.17" y="2083.33" class="cls-6"/><rect width="104.17" height="104.17" x="1875" y="2083.33" class="cls-6"/><rect width="104.17" height="104.17" x="1770.83" y="2083.33" class="cls-6"/><rect width="104.17" height="104.17" x="1666.67" y="2083.33" class="cls-6"/><rect width="104.17" height="104.17" x="1562.5" y="2083.33" class="cls-6"/><rect width="104.17" height="104.17" x="1458.33" y="2083.33" class="cls-3"/><rect width="104.17" height="104.17" x="1354.17" y="2083.33" class="cls-2"/><rect width="104.17" height="104.17" x="1250" y="2083.33" class="cls-2"/><rect width="104.17" height="104.17" x="1145.83" y="2083.33" class="cls-2"/><rect width="104.17" height="104.17" x="1041.67" y="2083.33" class="cls-3"/><rect width="104.17" height="104.17" x="937.5" y="2083.33" class="cls-2"/><rect width="104.17" height="104.17" x="833.33" y="2083.33" class="cls-3"/><rect width="104.17" height="104.17" x="729.17" y="2083.33" class="cls-6"/><rect width="104.17" height="104.17" x="625" y="2083.33" class="cls-6"/><rect width="104.17" height="104.17" x="520.83" y="2083.33" class="cls-6"/><rect width="104.17" height="104.17" x="416.67" y="2083.33" class="cls-6"/><rect width="104.17" height="104.17" x="312.5" y="2083.33" class="cls-6"/><rect width="104.17" height="104.17" x="208.33" y="2083.33" class="cls-6"/><rect width="104.17" height="104.17" x="104.17" y="2083.33" class="cls-6"/><rect width="104.17" height="104.17" y="2083.33" class="cls-6"/><rect width="104.17" height="104.17" x="2395.83" y="1979.17" class="cls-6"/><rect width="104.17" height="104.17" x="2291.67" y="1979.17" class="cls-6"/><rect width="104.17" height="104.17" x="2187.5" y="1979.17" class="cls-6"/><rect width="104.17" height="104.17" x="2083.33" y="1979.17" class="cls-3"/><rect width="104.17" height="104.17" x="1979.17" y="1979.17" class="cls-3"/><rect width="104.17" height="104.17" x="1875" y="1979.17" class="cls-3"/><rect width="104.17" height="104.17" x="1770.83" y="1979.17" class="cls-3"/><rect width="104.17" height="104.17" x="1666.67" y="1979.17" class="cls-3"/><rect width="104.17" height="104.17" x="1562.5" y="1979.17" class="cls-3"/><rect width="104.17" height="104.17" x="1458.33" y="1979.17" class="cls-3"/><rect width="104.17" height="104.17" x="1354.17" y="1979.17" class="cls-2"/><rect width="104.17" height="104.17" x="1250" y="1979.17" class="cls-2"/><rect width="104.17" height="104.17" x="1145.83" y="1979.17" class="cls-2"/><rect width="104.17" height="104.17" x="1041.67" y="1979.17" class="cls-2"/><rect width="104.17" height="104.17" x="937.5" y="1979.17" class="cls-2"/><rect width="104.17" height="104.17" x="833.33" y="1979.17" class="cls-3"/><rect width="104.17" height="104.17" x="729.17" y="1979.17" class="cls-6"/><rect width="104.17" height="104.17" x="625" y="1979.17" class="cls-6"/><rect width="104.17" height="104.17" x="520.83" y="1979.17" class="cls-6"/><rect width="104.17" height="104.17" x="416.67" y="1979.17" class="cls-6"/><rect width="104.17" height="104.17" x="312.5" y="1979.17" class="cls-6"/><rect width="104.17" height="104.17" x="208.33" y="1979.17" class="cls-6"/><rect width="104.17" height="104.17" x="104.17" y="1979.17" class="cls-6"/><rect width="104.17" height="104.17" y="1979.17" class="cls-6"/><rect width="104.17" height="104.17" x="2395.83" y="1875" class="cls-6"/><rect width="104.17" height="104.17" x="2291.67" y="1875" class="cls-6"/><rect width="104.17" height="104.17" x="2187.5" y="1875" class="cls-6"/><rect width="104.17" height="104.17" x="2083.33" y="1875" class="cls-3"/><rect width="104.17" height="104.17" x="1979.17" y="1875" class="cls-4"/><rect width="104.17" height="104.17" x="1875" y="1875" class="cls-1"/><rect width="104.17" height="104.17" x="1770.83" y="1875" class="cls-1"/><rect width="104.17" height="104.17" x="1666.67" y="1875" class="cls-1"/><rect width="104.17" height="104.17" x="1562.5" y="1875" class="cls-1"/><rect width="104.17" height="104.17" x="1458.33" y="1875" class="cls-1"/><rect width="104.17" height="104.17" x="1354.17" y="1875" class="cls-3"/><rect width="104.17" height="104.17" x="1250" y="1875" class="cls-8"/><rect width="104.17" height="104.17" x="1145.83" y="1875" class="cls-8"/><rect width="104.17" height="104.17" x="1041.67" y="1875" class="cls-2"/><rect width="104.17" height="104.17" x="937.5" y="1875" class="cls-2"/><rect width="104.17" height="104.17" x="833.33" y="1875" class="cls-2"/><rect width="104.17" height="104.17" x="729.17" y="1875" class="cls-3"/><rect width="104.17" height="104.17" x="625" y="1875" class="cls-6"/><rect width="104.17" height="104.17" x="520.83" y="1875" class="cls-5"/><rect width="104.17" height="104.17" x="416.67" y="1875" class="cls-6"/><rect width="104.17" height="104.17" x="312.5" y="1875" class="cls-6"/><rect width="104.17" height="104.17" x="208.33" y="1875" class="cls-6"/><rect width="104.17" height="104.17" x="104.17" y="1875" class="cls-6"/><rect width="104.17" height="104.17" y="1875" class="cls-6"/><rect width="104.17" height="104.17" x="2395.83" y="1770.83" class="cls-6"/><rect width="104.17" height="104.17" x="2291.67" y="1770.83" class="cls-6"/><rect width="104.17" height="104.17" x="2187.5" y="1770.83" class="cls-6"/><rect width="104.17" height="104.17" x="2083.33" y="1770.83" class="cls-3"/><rect width="104.17" height="104.17" x="1979.17" y="1770.83" class="cls-3"/><rect width="104.17" height="104.17" x="1875" y="1770.83" class="cls-3"/><rect width="104.17" height="104.17" x="1770.83" y="1770.83" class="cls-3"/><rect width="104.17" height="104.17" x="1666.67" y="1770.83" class="cls-3"/><rect width="104.17" height="104.17" x="1562.5" y="1770.83" class="cls-3"/><rect width="104.17" height="104.17" x="1458.33" y="1770.83" class="cls-3"/><rect width="104.17" height="104.17" x="1354.17" y="1770.83" class="cls-2"/><rect width="104.17" height="104.17" x="1250" y="1770.83" class="cls-2"/><rect width="104.17" height="104.17" x="1145.83" y="1770.83" class="cls-2"/><rect width="104.17" height="104.17" x="1041.67" y="1770.83" class="cls-2"/><rect width="104.17" height="104.17" x="937.5" y="1770.83" class="cls-2"/><rect width="104.17" height="104.17" x="833.33" y="1770.83" class="cls-2"/><rect width="104.17" height="104.17" x="729.17" y="1770.83" class="cls-3"/><rect width="104.17" height="104.17" x="625" y="1770.83" class="cls-5"/><rect width="104.17" height="104.17" x="520.83" y="1770.83" class="cls-5"/><rect width="104.17" height="104.17" x="416.67" y="1770.83" class="cls-5"/><rect width="104.17" height="104.17" x="312.5" y="1770.83" class="cls-6"/><rect width="104.17" height="104.17" x="208.33" y="1770.83" class="cls-6"/><rect width="104.17" height="104.17" x="104.17" y="1770.83" class="cls-6"/><rect width="104.17" height="104.17" y="1770.83" class="cls-6"/><rect width="104.17" height="104.17" x="2395.83" y="1666.67" class="cls-6"/><rect width="104.17" height="104.17" x="2291.67" y="1666.67" class="cls-6"/><rect width="104.17" height="104.17" x="2187.5" y="1666.67" class="cls-6"/><rect width="104.17" height="104.17" x="2083.33" y="1666.67" class="cls-6"/><rect width="104.17" height="104.17" x="1979.17" y="1666.67" class="cls-6"/><rect width="104.17" height="104.17" x="1875" y="1666.67" class="cls-5"/><rect width="104.17" height="104.17" x="1770.83" y="1666.67" class="cls-6"/><rect width="104.17" height="104.17" x="1666.67" y="1666.67" class="cls-5"/><rect width="104.17" height="104.17" x="1562.5" y="1666.67" class="cls-2"/><rect width="104.17" height="104.17" x="1458.33" y="1666.67" class="cls-2"/><rect width="104.17" height="104.17" x="1354.17" y="1666.67" class="cls-2"/><rect width="104.17" height="104.17" x="1250" y="1666.67" class="cls-3"/><rect width="104.17" height="104.17" x="1145.83" y="1666.67" class="cls-2"/><rect width="104.17" height="104.17" x="1041.67" y="1666.67" class="cls-2"/><rect width="104.17" height="104.17" x="937.5" y="1666.67" class="cls-2"/><rect width="104.17" height="104.17" x="833.33" y="1666.67" class="cls-2"/><rect width="104.17" height="104.17" x="729.17" y="1666.67" class="cls-5"/><rect width="104.17" height="104.17" x="625" y="1666.67" class="cls-5"/><rect width="104.17" height="104.17" x="520.83" y="1666.67" class="cls-6"/><rect width="104.17" height="104.17" x="416.67" y="1666.67" class="cls-5"/><rect width="104.17" height="104.17" x="312.5" y="1666.67" class="cls-6"/><rect width="104.17" height="104.17" x="208.33" y="1666.67" class="cls-6"/><rect width="104.17" height="104.17" x="104.17" y="1666.67" class="cls-6"/><rect width="104.17" height="104.17" y="1666.67" class="cls-6"/><rect width="104.17" height="104.17" x="2395.83" y="1562.5" class="cls-6"/><rect width="104.17" height="104.17" x="2291.67" y="1562.5" class="cls-6"/><rect width="104.17" height="104.17" x="2187.5" y="1562.5" class="cls-6"/><rect width="104.17" height="104.17" x="2083.33" y="1562.5" class="cls-6"/><rect width="104.17" height="104.17" x="1979.17" y="1562.5" class="cls-5"/><rect width="104.17" height="104.17" x="1875" y="1562.5" class="cls-6"/><rect width="104.17" height="104.17" x="1770.83" y="1562.5" class="cls-5"/><rect width="104.17" height="104.17" x="1666.67" y="1562.5" class="cls-3"/><rect width="104.17" height="104.17" x="1562.5" y="1562.5" class="cls-2"/><rect width="104.17" height="104.17" x="1458.33" y="1562.5" class="cls-2"/><rect width="104.17" height="104.17" x="1354.17" y="1562.5" class="cls-2"/><rect width="104.17" height="104.17" x="1250" y="1562.5" class="cls-2"/><rect width="104.17" height="104.17" x="1145.83" y="1562.5" class="cls-2"/><rect width="104.17" height="104.17" x="1041.67" y="1562.5" class="cls-2"/><rect width="104.17" height="104.17" x="937.5" y="1562.5" class="cls-2"/><rect width="104.17" height="104.17" x="833.33" y="1562.5" class="cls-2"/><rect width="104.17" height="104.17" x="729.17" y="1562.5" class="cls-3"/><rect width="104.17" height="104.17" x="625" y="1562.5" class="cls-5"/><rect width="104.17" height="104.17" x="520.83" y="1562.5" class="cls-5"/><rect width="104.17" height="104.17" x="416.67" y="1562.5" class="cls-5"/><rect width="104.17" height="104.17" x="312.5" y="1562.5" class="cls-5"/><rect width="104.17" height="104.17" x="208.33" y="1562.5" class="cls-6"/><rect width="104.17" height="104.17" x="104.17" y="1562.5" class="cls-6"/><rect width="104.17" height="104.17" y="1562.5" class="cls-6"/><rect width="104.17" height="104.17" x="2395.83" y="1458.33" class="cls-6"/><rect width="104.17" height="104.17" x="2291.67" y="1458.33" class="cls-6"/><rect width="104.17" height="104.17" x="2187.5" y="1458.33" class="cls-6"/><rect width="104.17" height="104.17" x="2083.33" y="1458.33" class="cls-6"/><rect width="104.17" height="104.17" x="1979.17" y="1458.33" class="cls-5"/><rect width="104.17" height="104.17" x="1875" y="1458.33" class="cls-5"/><rect width="104.17" height="104.17" x="1770.83" y="1458.33" class="cls-5"/><rect width="104.17" height="104.17" x="1666.67" y="1458.33" class="cls-3"/><rect width="104.17" height="104.17" x="1562.5" y="1458.33" class="cls-2"/><rect width="104.17" height="104.17" x="1458.33" y="1458.33" class="cls-2"/><rect width="104.17" height="104.17" x="1354.17" y="1458.33" class="cls-2"/><rect width="104.17" height="104.17" x="1250" y="1458.33" class="cls-2"/><rect width="104.17" height="104.17" x="1145.83" y="1458.33" class="cls-2"/><rect width="104.17" height="104.17" x="1041.67" y="1458.33" class="cls-2"/><rect width="104.17" height="104.17" x="937.5" y="1458.33" class="cls-2"/><rect width="104.17" height="104.17" x="833.33" y="1458.33" class="cls-2"/><rect width="104.17" height="104.17" x="729.17" y="1458.33" class="cls-3"/><rect width="104.17" height="104.17" x="625" y="1458.33" class="cls-3"/><rect width="104.17" height="104.17" x="520.83" y="1458.33" class="cls-5"/><rect width="104.17" height="104.17" x="416.67" y="1458.33" class="cls-5"/><rect width="104.17" height="104.17" x="312.5" y="1458.33" class="cls-6"/><rect width="104.17" height="104.17" x="208.33" y="1458.33" class="cls-6"/><rect width="104.17" height="104.17" x="104.17" y="1458.33" class="cls-6"/><rect width="104.17" height="104.17" y="1458.33" class="cls-6"/><rect width="104.17" height="104.17" x="2395.83" y="1354.17" class="cls-6"/><rect width="104.17" height="104.17" x="2291.67" y="1354.17" class="cls-6"/><rect width="104.17" height="104.17" x="2187.5" y="1354.17" class="cls-6"/><rect width="104.17" height="104.17" x="2083.33" y="1354.17" class="cls-5"/><rect width="104.17" height="104.17" x="1979.17" y="1354.17" class="cls-5"/><rect width="104.17" height="104.17" x="1875" y="1354.17" class="cls-5"/><rect width="104.17" height="104.17" x="1770.83" y="1354.17" class="cls-5"/><rect width="104.17" height="104.17" x="1666.67" y="1354.17" class="cls-3"/><rect width="104.17" height="104.17" x="1562.5" y="1354.17" class="cls-9"/><rect width="104.17" height="104.17" x="1458.33" y="1354.17" class="cls-3"/><rect width="104.17" height="104.17" x="1354.17" y="1354.17" class="cls-2"/><rect width="104.17" height="104.17" x="1250" y="1354.17" class="cls-2"/><rect width="104.17" height="104.17" x="1145.83" y="1354.17" class="cls-2"/><rect width="104.17" height="104.17" x="1041.67" y="1354.17" class="cls-9"/><rect width="104.17" height="104.17" x="937.5" y="1354.17" class="cls-3"/><rect width="104.17" height="104.17" x="833.33" y="1354.17" class="cls-2"/><rect width="104.17" height="104.17" x="729.17" y="1354.17" class="cls-2"/><rect width="104.17" height="104.17" x="625" y="1354.17" class="cls-3"/><rect width="104.17" height="104.17" x="520.83" y="1354.17" class="cls-5"/><rect width="104.17" height="104.17" x="416.67" y="1354.17" class="cls-5"/><rect width="104.17" height="104.17" x="312.5" y="1354.17" class="cls-5"/><rect width="104.17" height="104.17" x="208.33" y="1354.17" class="cls-6"/><rect width="104.17" height="104.17" x="104.17" y="1354.17" class="cls-6"/><rect width="104.17" height="104.17" y="1354.17" class="cls-6"/><rect width="104.17" height="104.17" x="2395.83" y="1250" class="cls-6"/><rect width="104.17" height="104.17" x="2291.67" y="1250" class="cls-6"/><rect width="104.17" height="104.17" x="2187.5" y="1250" class="cls-6"/><rect width="104.17" height="104.17" x="2083.33" y="1250" class="cls-5"/><rect width="104.17" height="104.17" x="1979.17" y="1250" class="cls-5"/><rect width="104.17" height="104.17" x="1875" y="1250" class="cls-5"/><rect width="104.17" height="104.17" x="1770.83" y="1250" class="cls-5"/><rect width="104.17" height="104.17" x="1666.67" y="1250" class="cls-3"/><rect width="104.17" height="104.17" x="1562.5" y="1250" class="cls-7"/><rect width="104.17" height="104.17" x="1458.33" y="1250" class="cls-7"/><rect width="104.17" height="104.17" x="1354.17" y="1250" class="cls-2"/><rect width="104.17" height="104.17" x="1250" y="1250" class="cls-2"/><rect width="104.17" height="104.17" x="1145.83" y="1250" class="cls-2"/><rect width="104.17" height="104.17" x="1041.67" y="1250" class="cls-7"/><rect width="104.17" height="104.17" x="937.5" y="1250" class="cls-7"/><rect width="104.17" height="104.17" x="833.33" y="1250" class="cls-2"/><rect width="104.17" height="104.17" x="729.17" y="1250" class="cls-2"/><rect width="104.17" height="104.17" x="625" y="1250" class="cls-3"/><rect width="104.17" height="104.17" x="520.83" y="1250" class="cls-5"/><rect width="104.17" height="104.17" x="416.67" y="1250" class="cls-5"/><rect width="104.17" height="104.17" x="312.5" y="1250" class="cls-6"/><rect width="104.17" height="104.17" x="208.33" y="1250" class="cls-6"/><rect width="104.17" height="104.17" x="104.17" y="1250" class="cls-6"/><rect width="104.17" height="104.17" y="1250" class="cls-6"/><rect width="104.17" height="104.17" x="2395.83" y="1145.83" class="cls-6"/><rect width="104.17" height="104.17" x="2291.67" y="1145.83" class="cls-6"/><rect width="104.17" height="104.17" x="2187.5" y="1145.83" class="cls-6"/><rect width="104.17" height="104.17" x="2083.33" y="1145.83" class="cls-6"/><rect width="104.17" height="104.17" x="1979.17" y="1145.83" class="cls-5"/><rect width="104.17" height="104.17" x="1875" y="1145.83" class="cls-5"/><rect width="104.17" height="104.17" x="1770.83" y="1145.83" class="cls-5"/><rect width="104.17" height="104.17" x="1666.67" y="1145.83" class="cls-3"/><rect width="104.17" height="104.17" x="1562.5" y="1145.83" class="cls-2"/><rect width="104.17" height="104.17" x="1458.33" y="1145.83" class="cls-2"/><rect width="104.17" height="104.17" x="1354.17" y="1145.83" class="cls-5"/><rect width="104.17" height="104.17" x="1250" y="1145.83" class="cls-2"/><rect width="104.17" height="104.17" x="1145.83" y="1145.83" class="cls-2"/><rect width="104.17" height="104.17" x="1041.67" y="1145.83" class="cls-2"/><rect width="104.17" height="104.17" x="937.5" y="1145.83" class="cls-2"/><rect width="104.17" height="104.17" x="833.33" y="1145.83" class="cls-2"/><rect width="104.17" height="104.17" x="729.17" y="1145.83" class="cls-5"/><rect width="104.17" height="104.17" x="625" y="1145.83" class="cls-5"/><rect width="104.17" height="104.17" x="520.83" y="1145.83" class="cls-5"/><rect width="104.17" height="104.17" x="416.67" y="1145.83" class="cls-5"/><rect width="104.17" height="104.17" x="312.5" y="1145.83" class="cls-5"/><rect width="104.17" height="104.17" x="208.33" y="1145.83" class="cls-6"/><rect width="104.17" height="104.17" x="104.17" y="1145.83" class="cls-6"/><rect width="104.17" height="104.17" y="1145.83" class="cls-6"/><rect width="104.17" height="104.17" x="2395.83" y="1041.67" class="cls-6"/><rect width="104.17" height="104.17" x="2291.67" y="1041.67" class="cls-6"/><rect width="104.17" height="104.17" x="2187.5" y="1041.67" class="cls-6"/><rect width="104.17" height="104.17" x="2083.33" y="1041.67" class="cls-5"/><rect width="104.17" height="104.17" x="1979.17" y="1041.67" class="cls-6"/><rect width="104.17" height="104.17" x="1875" y="1041.67" class="cls-5"/><rect width="104.17" height="104.17" x="1770.83" y="1041.67" class="cls-5"/><rect width="104.17" height="104.17" x="1666.67" y="1041.67" class="cls-5"/><rect width="104.17" height="104.17" x="1562.5" y="1041.67" class="cls-2"/><rect width="104.17" height="104.17" x="1458.33" y="1041.67" class="cls-5"/><rect width="104.17" height="104.17" x="1354.17" y="1041.67" class="cls-2"/><rect width="104.17" height="104.17" x="1250" y="1041.67" class="cls-2"/><rect width="104.17" height="104.17" x="1145.83" y="1041.67" class="cls-2"/><rect width="104.17" height="104.17" x="1041.67" y="1041.67" class="cls-5"/><rect width="104.17" height="104.17" x="937.5" y="1041.67" class="cls-2"/><rect width="104.17" height="104.17" x="833.33" y="1041.67" class="cls-2"/><rect width="104.17" height="104.17" x="729.17" y="1041.67" class="cls-5"/><rect width="104.17" height="104.17" x="625" y="1041.67" class="cls-5"/><rect width="104.17" height="104.17" x="520.83" y="1041.67" class="cls-5"/><rect width="104.17" height="104.17" x="416.67" y="1041.67" class="cls-5"/><rect width="104.17" height="104.17" x="312.5" y="1041.67" class="cls-6"/><rect width="104.17" height="104.17" x="208.33" y="1041.67" class="cls-6"/><rect width="104.17" height="104.17" x="104.17" y="1041.67" class="cls-6"/><rect width="104.17" height="104.17" y="1041.67" class="cls-6"/><rect width="104.17" height="104.17" x="2395.83" y="937.5" class="cls-6"/><rect width="104.17" height="104.17" x="2291.67" y="937.5" class="cls-6"/><rect width="104.17" height="104.17" x="2187.5" y="937.5" class="cls-6"/><rect width="104.17" height="104.17" x="2083.33" y="937.5" class="cls-6"/><rect width="104.17" height="104.17" x="1979.17" y="937.5" class="cls-5"/><rect width="104.17" height="104.17" x="1875" y="937.5" class="cls-5"/><rect width="104.17" height="104.17" x="1770.83" y="937.5" class="cls-5"/><rect width="104.17" height="104.17" x="1666.67" y="937.5" class="cls-5"/><rect width="104.17" height="104.17" x="1562.5" y="937.5" class="cls-5"/><rect width="104.17" height="104.17" x="1458.33" y="937.5" class="cls-5"/><rect width="104.17" height="104.17" x="1354.17" y="937.5" class="cls-2"/><rect width="104.17" height="104.17" x="1250" y="937.5" class="cls-2"/><rect width="104.17" height="104.17" x="1145.83" y="937.5" class="cls-2"/><rect width="104.17" height="104.17" x="1041.67" y="937.5" class="cls-2"/><rect width="104.17" height="104.17" x="937.5" y="937.5" class="cls-5"/><rect width="104.17" height="104.17" x="833.33" y="937.5" class="cls-5"/><rect width="104.17" height="104.17" x="729.17" y="937.5" class="cls-5"/><rect width="104.17" height="104.17" x="625" y="937.5" class="cls-5"/><rect width="104.17" height="104.17" x="520.83" y="937.5" class="cls-5"/><rect width="104.17" height="104.17" x="416.67" y="937.5" class="cls-6"/><rect width="104.17" height="104.17" x="312.5" y="937.5" class="cls-6"/><rect width="104.17" height="104.17" x="208.33" y="937.5" class="cls-6"/><rect width="104.17" height="104.17" x="104.17" y="937.5" class="cls-6"/><rect width="104.17" height="104.17" y="937.5" class="cls-6"/><rect width="104.17" height="104.17" x="2395.83" y="833.33" class="cls-6"/><rect width="104.17" height="104.17" x="2291.67" y="833.33" class="cls-6"/><rect width="104.17" height="104.17" x="2187.5" y="833.33" class="cls-6"/><rect width="104.17" height="104.17" x="2083.33" y="833.33" class="cls-6"/><rect width="104.17" height="104.17" x="1979.17" y="833.33" class="cls-6"/><rect width="104.17" height="104.17" x="1875" y="833.33" class="cls-6"/><rect width="104.17" height="104.17" x="1770.83" y="833.33" class="cls-5"/><rect width="104.17" height="104.17" x="1666.67" y="833.33" class="cls-5"/><rect width="104.17" height="104.17" x="1562.5" y="833.33" class="cls-5"/><rect width="104.17" height="104.17" x="1458.33" y="833.33" class="cls-5"/><rect width="104.17" height="104.17" x="1354.17" y="833.33" class="cls-5"/><rect width="104.17" height="104.17" x="1250" y="833.33" class="cls-5"/><rect width="104.17" height="104.17" x="1145.83" y="833.33" class="cls-5"/><rect width="104.17" height="104.17" x="1041.67" y="833.33" class="cls-5"/><rect width="104.17" height="104.17" x="937.5" y="833.33" class="cls-5"/><rect width="104.17" height="104.17" x="833.33" y="833.33" class="cls-5"/><rect width="104.17" height="104.17" x="729.17" y="833.33" class="cls-5"/><rect width="104.17" height="104.17" x="625" y="833.33" class="cls-5"/><rect width="104.17" height="104.17" x="520.83" y="833.33" class="cls-5"/><rect width="104.17" height="104.17" x="416.67" y="833.33" class="cls-5"/><rect width="104.17" height="104.17" x="312.5" y="833.33" class="cls-5"/><rect width="104.17" height="104.17" x="208.33" y="833.33" class="cls-6"/><rect width="104.17" height="104.17" x="104.17" y="833.33" class="cls-6"/><rect width="104.17" height="104.17" y="833.33" class="cls-6"/><rect width="104.17" height="104.17" x="2395.83" y="729.17" class="cls-6"/><rect width="104.17" height="104.17" x="2291.67" y="729.17" class="cls-6"/><rect width="104.17" height="104.17" x="2187.5" y="729.17" class="cls-6"/><rect width="104.17" height="104.17" x="2083.33" y="729.17" class="cls-6"/><rect width="104.17" height="104.17" x="1979.17" y="729.17" class="cls-6"/><rect width="104.17" height="104.17" x="1875" y="729.17" class="cls-5"/><rect width="104.17" height="104.17" x="1770.83" y="729.17" class="cls-5"/><rect width="104.17" height="104.17" x="1666.67" y="729.17" class="cls-5"/><rect width="104.17" height="104.17" x="1562.5" y="729.17" class="cls-5"/><rect width="104.17" height="104.17" x="1458.33" y="729.17" class="cls-5"/><rect width="104.17" height="104.17" x="1354.17" y="729.17" class="cls-5"/><rect width="104.17" height="104.17" x="1250" y="729.17" class="cls-5"/><rect width="104.17" height="104.17" x="1145.83" y="729.17" class="cls-5"/><rect width="104.17" height="104.17" x="1041.67" y="729.17" class="cls-5"/><rect width="104.17" height="104.17" x="937.5" y="729.17" class="cls-5"/><rect width="104.17" height="104.17" x="833.33" y="729.17" class="cls-5"/><rect width="104.17" height="104.17" x="729.17" y="729.17" class="cls-5"/><rect width="104.17" height="104.17" x="625" y="729.17" class="cls-6"/><rect width="104.17" height="104.17" x="520.83" y="729.17" class="cls-5"/><rect width="104.17" height="104.17" x="416.67" y="729.17" class="cls-5"/><rect width="104.17" height="104.17" x="312.5" y="729.17" class="cls-6"/><rect width="104.17" height="104.17" x="208.33" y="729.17" class="cls-6"/><rect width="104.17" height="104.17" x="104.17" y="729.17" class="cls-6"/><rect width="104.17" height="104.17" y="729.17" class="cls-6"/><rect width="104.17" height="104.17" x="2395.83" y="625" class="cls-6"/><rect width="104.17" height="104.17" x="2291.67" y="625" class="cls-6"/><rect width="104.17" height="104.17" x="2187.5" y="625" class="cls-6"/><rect width="104.17" height="104.17" x="2083.33" y="625" class="cls-5"/><rect width="104.17" height="104.17" x="1979.17" y="625" class="cls-5"/><rect width="104.17" height="104.17" x="1875" y="625" class="cls-5"/><rect width="104.17" height="104.17" x="1770.83" y="625" class="cls-5"/><rect width="104.17" height="104.17" x="1666.67" y="625" class="cls-5"/><rect width="104.17" height="104.17" x="1562.5" y="625" class="cls-6"/><rect width="104.17" height="104.17" x="1458.33" y="625" class="cls-5"/><rect width="104.17" height="104.17" x="1354.17" y="625" class="cls-5"/><rect width="104.17" height="104.17" x="1250" y="625" class="cls-5"/><rect width="104.17" height="104.17" x="1145.83" y="625" class="cls-5"/><rect width="104.17" height="104.17" x="1041.67" y="625" class="cls-5"/><rect width="104.17" height="104.17" x="937.5" y="625" class="cls-5"/><rect width="104.17" height="104.17" x="833.33" y="625" class="cls-6"/><rect width="104.17" height="104.17" x="729.17" y="625" class="cls-5"/><rect width="104.17" height="104.17" x="625" y="625" class="cls-5"/><rect width="104.17" height="104.17" x="520.83" y="625" class="cls-5"/><rect width="104.17" height="104.17" x="416.67" y="625" class="cls-6"/><rect width="104.17" height="104.17" x="312.5" y="625" class="cls-6"/><rect width="104.17" height="104.17" x="208.33" y="625" class="cls-6"/><rect width="104.17" height="104.17" x="104.17" y="625" class="cls-6"/><rect width="104.17" height="104.17" y="625" class="cls-6"/><rect width="104.17" height="104.17" x="2395.83" y="520.83" class="cls-6"/><rect width="104.17" height="104.17" x="2291.67" y="520.83" class="cls-6"/><rect width="104.17" height="104.17" x="2187.5" y="520.83" class="cls-6"/><rect width="104.17" height="104.17" x="2083.33" y="520.83" class="cls-6"/><rect width="104.17" height="104.17" x="1979.17" y="520.83" class="cls-6"/><rect width="104.17" height="104.17" x="1875" y="520.83" class="cls-6"/><rect width="104.17" height="104.17" x="1770.83" y="520.83" class="cls-6"/><rect width="104.17" height="104.17" x="1666.67" y="520.83" class="cls-5"/><rect width="104.17" height="104.17" x="1562.5" y="520.83" class="cls-5"/><rect width="104.17" height="104.17" x="1458.33" y="520.83" class="cls-5"/><rect width="104.17" height="104.17" x="1354.17" y="520.83" class="cls-5"/><rect width="104.17" height="104.17" x="1250" y="520.83" class="cls-5"/><rect width="104.17" height="104.17" x="1145.83" y="520.83" class="cls-6"/><rect width="104.17" height="104.17" x="1041.67" y="520.83" class="cls-5"/><rect width="104.17" height="104.17" x="937.5" y="520.83" class="cls-5"/><rect width="104.17" height="104.17" x="833.33" y="520.83" class="cls-5"/><rect width="104.17" height="104.17" x="729.17" y="520.83" class="cls-5"/><rect width="104.17" height="104.17" x="625" y="520.83" class="cls-5"/><rect width="104.17" height="104.17" x="520.83" y="520.83" class="cls-6"/><rect width="104.17" height="104.17" x="416.67" y="520.83" class="cls-6"/><rect width="104.17" height="104.17" x="312.5" y="520.83" class="cls-6"/><rect width="104.17" height="104.17" x="208.33" y="520.83" class="cls-6"/><rect width="104.17" height="104.17" x="104.17" y="520.83" class="cls-6"/><rect width="104.17" height="104.17" y="520.83" class="cls-6"/><rect width="104.17" height="104.17" x="2395.83" y="416.67" class="cls-6"/><rect width="104.17" height="104.17" x="2291.67" y="416.67" class="cls-6"/><rect width="104.17" height="104.17" x="2187.5" y="416.67" class="cls-6"/><rect width="104.17" height="104.17" x="2083.33" y="416.67" class="cls-6"/><rect width="104.17" height="104.17" x="1979.17" y="416.67" class="cls-6"/><rect width="104.17" height="104.17" x="1875" y="416.67" class="cls-6"/><rect width="104.17" height="104.17" x="1770.83" y="416.67" class="cls-5"/><rect width="104.17" height="104.17" x="1666.67" y="416.67" class="cls-6"/><rect width="104.17" height="104.17" x="1562.5" y="416.67" class="cls-5"/><rect width="104.17" height="104.17" x="1458.33" y="416.67" class="cls-5"/><rect width="104.17" height="104.17" x="1354.17" y="416.67" class="cls-5"/><rect width="104.17" height="104.17" x="1250" y="416.67" class="cls-5"/><rect width="104.17" height="104.17" x="1145.83" y="416.67" class="cls-6"/><rect width="104.17" height="104.17" x="1041.67" y="416.67" class="cls-6"/><rect width="104.17" height="104.17" x="937.5" y="416.67" class="cls-5"/><rect width="104.17" height="104.17" x="833.33" y="416.67" class="cls-5"/><rect width="104.17" height="104.17" x="729.17" y="416.67" class="cls-6"/><rect width="104.17" height="104.17" x="625" y="416.67" class="cls-6"/><rect width="104.17" height="104.17" x="520.83" y="416.67" class="cls-6"/><rect width="104.17" height="104.17" x="416.67" y="416.67" class="cls-6"/><rect width="104.17" height="104.17" x="312.5" y="416.67" class="cls-6"/><rect width="104.17" height="104.17" x="208.33" y="416.67" class="cls-6"/><rect width="104.17" height="104.17" x="104.17" y="416.67" class="cls-6"/><rect width="104.17" height="104.17" y="416.67" class="cls-6"/><rect width="104.17" height="104.17" x="2395.83" y="312.5" class="cls-6"/><rect width="104.17" height="104.17" x="2291.67" y="312.5" class="cls-6"/><rect width="104.17" height="104.17" x="2187.5" y="312.5" class="cls-6"/><rect width="104.17" height="104.17" x="2083.33" y="312.5" class="cls-6"/><rect width="104.17" height="104.17" x="1979.17" y="312.5" class="cls-6"/><rect width="104.17" height="104.17" x="1875" y="312.5" class="cls-6"/><rect width="104.17" height="104.17" x="1770.83" y="312.5" class="cls-6"/><rect width="104.17" height="104.17" x="1666.67" y="312.5" class="cls-6"/><rect width="104.17" height="104.17" x="1562.5" y="312.5" class="cls-5"/><rect width="104.17" height="104.17" x="1458.33" y="312.5" class="cls-5"/><rect width="104.17" height="104.17" x="1354.17" y="312.5" class="cls-6"/><rect width="104.17" height="104.17" x="1250" y="312.5" class="cls-6"/><rect width="104.17" height="104.17" x="1145.83" y="312.5" class="cls-5"/><rect width="104.17" height="104.17" x="1041.67" y="312.5" class="cls-6"/><rect width="104.17" height="104.17" x="937.5" y="312.5" class="cls-6"/><rect width="104.17" height="104.17" x="833.33" y="312.5" class="cls-6"/><rect width="104.17" height="104.17" x="729.17" y="312.5" class="cls-6"/><rect width="104.17" height="104.17" x="625" y="312.5" class="cls-6"/><rect width="104.17" height="104.17" x="520.83" y="312.5" class="cls-6"/><rect width="104.17" height="104.17" x="416.67" y="312.5" class="cls-6"/><rect width="104.17" height="104.17" x="312.5" y="312.5" class="cls-6"/><rect width="104.17" height="104.17" x="208.33" y="312.5" class="cls-6"/><rect width="104.17" height="104.17" x="104.17" y="312.5" class="cls-6"/><rect width="104.17" height="104.17" y="312.5" class="cls-6"/><rect width="104.17" height="104.17" x="2395.83" y="208.33" class="cls-6"/><rect width="104.17" height="104.17" x="2291.67" y="208.33" class="cls-6"/><rect width="104.17" height="104.17" x="2187.5" y="208.33" class="cls-6"/><rect width="104.17" height="104.17" x="2083.33" y="208.33" class="cls-6"/><rect width="104.17" height="104.17" x="1979.17" y="208.33" class="cls-6"/><rect width="104.17" height="104.17" x="1875" y="208.33" class="cls-6"/><rect width="104.17" height="104.17" x="1770.83" y="208.33" class="cls-6"/><rect width="104.17" height="104.17" x="1666.67" y="208.33" class="cls-6"/><rect width="104.17" height="104.17" x="1562.5" y="208.33" class="cls-6"/><rect width="104.17" height="104.17" x="1458.33" y="208.33" class="cls-6"/><rect width="104.17" height="104.17" x="1354.17" y="208.33" class="cls-6"/><rect width="104.17" height="104.17" x="1250" y="208.33" class="cls-6"/><rect width="104.17" height="104.17" x="1145.83" y="208.33" class="cls-6"/><rect width="104.17" height="104.17" x="1041.67" y="208.33" class="cls-6"/><rect width="104.17" height="104.17" x="937.5" y="208.33" class="cls-6"/><rect width="104.17" height="104.17" x="833.33" y="208.33" class="cls-6"/><rect width="104.17" height="104.17" x="729.17" y="208.33" class="cls-6"/><rect width="104.17" height="104.17" x="625" y="208.33" class="cls-6"/><rect width="104.17" height="104.17" x="520.83" y="208.33" class="cls-6"/><rect width="104.17" height="104.17" x="416.67" y="208.33" class="cls-6"/><rect width="104.17" height="104.17" x="312.5" y="208.33" class="cls-6"/><rect width="104.17" height="104.17" x="208.33" y="208.33" class="cls-6"/><rect width="104.17" height="104.17" x="104.17" y="208.33" class="cls-6"/><rect width="104.17" height="104.17" y="208.33" class="cls-6"/><rect width="104.17" height="104.17" x="2395.83" y="104.17" class="cls-6"/><rect width="104.17" height="104.17" x="2291.67" y="104.17" class="cls-6"/><rect width="104.17" height="104.17" x="2187.5" y="104.17" class="cls-6"/><rect width="104.17" height="104.17" x="2083.33" y="104.17" class="cls-6"/><rect width="104.17" height="104.17" x="1979.17" y="104.17" class="cls-6"/><rect width="104.17" height="104.17" x="1875" y="104.17" class="cls-6"/><rect width="104.17" height="104.17" x="1770.83" y="104.17" class="cls-6"/><rect width="104.17" height="104.17" x="1666.67" y="104.17" class="cls-6"/><rect width="104.17" height="104.17" x="1562.5" y="104.17" class="cls-6"/><rect width="104.17" height="104.17" x="1458.33" y="104.17" class="cls-6"/><rect width="104.17" height="104.17" x="1354.17" y="104.17" class="cls-6"/><rect width="104.17" height="104.17" x="1250" y="104.17" class="cls-6"/><rect width="104.17" height="104.17" x="1145.83" y="104.17" class="cls-6"/><rect width="104.17" height="104.17" x="1041.67" y="104.17" class="cls-6"/><rect width="104.17" height="104.17" x="937.5" y="104.17" class="cls-6"/><rect width="104.17" height="104.17" x="833.33" y="104.17" class="cls-6"/><rect width="104.17" height="104.17" x="729.17" y="104.17" class="cls-6"/><rect width="104.17" height="104.17" x="625" y="104.17" class="cls-6"/><rect width="104.17" height="104.17" x="520.83" y="104.17" class="cls-6"/><rect width="104.17" height="104.17" x="416.67" y="104.17" class="cls-6"/><rect width="104.17" height="104.17" x="312.5" y="104.17" class="cls-6"/><rect width="104.17" height="104.17" x="208.33" y="104.17" class="cls-6"/><rect width="104.17" height="104.17" x="104.17" y="104.17" class="cls-6"/><rect width="104.17" height="104.17" y="104.17" class="cls-6"/><rect width="104.17" height="104.17" x="2395.83" class="cls-6"/><rect width="104.17" height="104.17" x="2291.67" class="cls-6"/><rect width="104.17" height="104.17" x="2187.5" class="cls-6"/><rect width="104.17" height="104.17" x="2083.33" class="cls-6"/><rect width="104.17" height="104.17" x="1979.17" class="cls-6"/><rect width="104.17" height="104.17" x="1875" class="cls-6"/><rect width="104.17" height="104.17" x="1770.83" class="cls-6"/><rect width="104.17" height="104.17" x="1666.67" class="cls-6"/><rect width="104.17" height="104.17" x="1562.5" class="cls-6"/><rect width="104.17" height="104.17" x="1458.33" class="cls-6"/><rect width="104.17" height="104.17" x="1354.17" class="cls-6"/><rect width="104.17" height="104.17" x="1250" class="cls-6"/><rect width="104.17" height="104.17" x="1145.83" class="cls-6"/><rect width="104.17" height="104.17" x="1041.67" class="cls-6"/><rect width="104.17" height="104.17" x="937.5" class="cls-6"/><rect width="104.17" height="104.17" x="833.33" class="cls-6"/><rect width="104.17" height="104.17" x="729.17" class="cls-6"/><rect width="104.17" height="104.17" x="625" class="cls-6"/><rect width="104.17" height="104.17" x="520.83" class="cls-6"/><rect width="104.17" height="104.17" x="416.67" class="cls-6"/><rect width="104.17" height="104.17" x="312.5" class="cls-6"/><rect width="104.17" height="104.17" x="208.33" class="cls-6"/><rect width="104.17" height="104.17" x="104.17" class="cls-6"/><rect width="104.17" height="104.17" class="cls-6"/></svg>