<svg xmlns="http://www.w3.org/2000/svg" width="128" height="128" fill="none" viewBox="0 0 128 128"><g clip-path="url(#clip0_216_23463)"><g clip-path="url(#clip1_216_23463)"><path fill="#707280" d="M80 124H76V128H80V124Z"/><path fill="#717381" d="M76 124H72V128H76V124Z"/><path fill="#727482" d="M72 124H68V128H72V124Z"/><path fill="#737483" d="M68 124H64V128H68V124Z"/><path fill="#747584" d="M64 124H60V128H64V124Z"/><path fill="#757685" d="M60 124H56V128H60V124Z"/><path fill="#767786" d="M56 124H52V128H56V124Z"/><path fill="#777987" d="M52 124H48V128H52V124Z"/><path fill="#707280" d="M92 120H88V124H92V120Z"/><path fill="#717381" d="M88 120H84V124H88V120Z"/><path fill="#727382" d="M84 120H80V124H84V120Z"/><path fill="#424756" d="M80 120H76V124H80V120Z"/><path fill="#424756" d="M76 120H72V124H76V120Z"/><path fill="#424756" d="M72 120H68V124H72V120Z"/><path fill="#424756" d="M68 120H64V124H68V120Z"/><path fill="#424756" d="M64 120H60V124H64V120Z"/><path fill="#424756" d="M60 120H56V124H60V120Z"/><path fill="#424756" d="M56 120H52V124H56V120Z"/><path fill="#424756" d="M52 120H48V124H52V120Z"/><path fill="#7B7D8B" d="M48 120H44V124H48V120Z"/><path fill="#7C7E8C" d="M44 120H40V124H44V120Z"/><path fill="#7D7F8D" d="M40 120H36V124H40V120Z"/><path fill="#717281" d="M100 116H96V120H100V116Z"/><path fill="#727381" d="M96 116H92V120H96V116Z"/><path fill="#444957" d="M92 116H88V120H92V116Z"/><path fill="#444957" d="M88 116H84V120H88V116Z"/><path fill="#444957" d="M84 116H80V120H84V116Z"/><path fill="#444957" d="M80 116H76V120H80V116Z"/><path fill="#444957" d="M76 116H72V120H76V116Z"/><path fill="#444957" d="M72 116H68V120H72V116Z"/><path fill="#444957" d="M68 116H64V120H68V116Z"/><path fill="#444957" d="M64 116H60V120H64V116Z"/><path fill="#444957" d="M60 116H56V120H60V116Z"/><path fill="#444957" d="M56 116H52V120H56V116Z"/><path fill="#444957" d="M52 116H48V120H52V116Z"/><path fill="#444957" d="M48 116H44V120H48V116Z"/><path fill="#444957" d="M44 116H40V120H44V116Z"/><path fill="#444957" d="M40 116H36V120H40V116Z"/><path fill="#818392" d="M36 116H32V120H36V116Z"/><path fill="#828493" d="M32 116H28V120H32V116Z"/><path fill="#737482" d="M104 112H100V116H104V112Z"/><path fill="#454B59" d="M100 112H96V116H100V112Z"/><path fill="#454B59" d="M96 112H92V116H96V112Z"/><path fill="#454B59" d="M92 112H88V116H92V112Z"/><path fill="#454B59" d="M88 112H84V116H88V112Z"/><path fill="#454B59" d="M84 112H80V116H84V112Z"/><path fill="#454B59" d="M80 112H76V116H80V112Z"/><path fill="#454B59" d="M76 112H72V116H76V112Z"/><path fill="#454B59" d="M72 112H68V116H72V112Z"/><path fill="#454B59" d="M68 112H64V116H68V112Z"/><path fill="#454B59" d="M64 112H60V116H64V112Z"/><path fill="#454B59" d="M60 112H56V116H60V112Z"/><path fill="#454B59" d="M56 112H52V116H56V112Z"/><path fill="#454B59" d="M52 112H48V116H52V112Z"/><path fill="#454B59" d="M48 112H44V116H48V112Z"/><path fill="#454B59" d="M44 112H40V116H44V112Z"/><path fill="#454B59" d="M40 112H36V116H40V112Z"/><path fill="#454B59" d="M36 112H32V116H36V112Z"/><path fill="#454B59" d="M32 112H28V116H32V112Z"/><path fill="#878998" d="M28 112H24V116H28V112Z"/><path fill="#757684" d="M108 108H104V112H108V108Z"/><path fill="#474C5B" d="M104 108H100V112H104V108Z"/><path fill="#474C5B" d="M100 108H96V112H100V108Z"/><path fill="#474C5B" d="M96 108H92V112H96V108Z"/><path fill="#474C5B" d="M92 108H88V112H92V108Z"/><path fill="#474C5B" d="M88 108H84V112H88V108Z"/><path fill="#474C5B" d="M84 108H80V112H84V108Z"/><path fill="#474C5B" d="M80 108H76V112H80V108Z"/><path fill="#474C5B" d="M76 108H72V112H76V108Z"/><path fill="#474C5B" d="M72 108H68V112H72V108Z"/><path fill="#474C5B" d="M68 108H64V112H68V108Z"/><path fill="#474C5B" d="M64 108H60V112H64V108Z"/><path fill="#474C5B" d="M60 108H56V112H60V108Z"/><path fill="#474C5B" d="M56 108H52V112H56V108Z"/><path fill="#474C5B" d="M52 108H48V112H52V108Z"/><path fill="#474C5B" d="M48 108H44V112H48V108Z"/><path fill="#474C5B" d="M44 108H40V112H44V108Z"/><path fill="#474C5B" d="M40 108H36V112H40V108Z"/><path fill="#474C5B" d="M36 108H32V112H36V108Z"/><path fill="#474C5B" d="M32 108H28V112H32V108Z"/><path fill="#474C5B" d="M28 108H24V112H28V108Z"/><path fill="#8B8D9C" d="M24 108H20V112H24V108Z"/><path fill="#777886" d="M112 104H108V108H112V104Z"/><path fill="#484D5D" d="M108 104H104V108H108V104Z"/><path fill="#484D5D" d="M104 104H100V108H104V104Z"/><path fill="#484D5D" d="M100 104H96V108H100V104Z"/><path fill="#484D5D" d="M96 104H92V108H96V104Z"/><path fill="#484D5D" d="M92 104H88V108H92V104Z"/><path fill="#484D5D" d="M88 104H84V108H88V104Z"/><path fill="#484D5D" d="M84 104H80V108H84V104Z"/><path fill="#484D5D" d="M80 104H76V108H80V104Z"/><path fill="#484D5D" d="M76 104H72V108H76V104Z"/><path fill="#484D5D" d="M72 104H68V108H72V104Z"/><path fill="#484D5D" d="M68 104H64V108H68V104Z"/><path fill="#484D5D" d="M64 104H60V108H64V104Z"/><path fill="#484D5D" d="M60 104H56V108H60V104Z"/><path fill="#484D5D" d="M56 104H52V108H56V104Z"/><path fill="#484D5D" d="M52 104H48V108H52V104Z"/><path fill="#484D5D" d="M48 104H44V108H48V104Z"/><path fill="#484D5D" d="M44 104H40V108H44V104Z"/><path fill="#484D5D" d="M40 104H36V108H40V104Z"/><path fill="#484D5D" d="M36 104H32V108H36V104Z"/><path fill="#484D5D" d="M32 104H28V108H32V104Z"/><path fill="#484D5D" d="M28 104H24V108H28V104Z"/><path fill="#484D5D" d="M24 104H20V108H24V104Z"/><path fill="#8F92A0" d="M20 104H16V108H20V104Z"/><path fill="#787A88" d="M116 100H112V104H116V100Z"/><path fill="#4A4F5F" d="M112 100H108V104H112V100Z"/><path fill="#4A4F5F" d="M108 100H104V104H108V100Z"/><path fill="#4A4F5F" d="M104 100H100V104H104V100Z"/><path fill="#4A4F5F" d="M100 100H96V104H100V100Z"/><path fill="#4A4F5F" d="M96 100H92V104H96V100Z"/><path fill="#4A4F5F" d="M92 100H88V104H92V100Z"/><path fill="#4A4F5F" d="M88 100H84V104H88V100Z"/><path fill="#4A4F5F" d="M84 100H80V104H84V100Z"/><path fill="#4A4F5F" d="M80 100H76V104H80V100Z"/><path fill="#4A4F5F" d="M76 100H72V104H76V100Z"/><path fill="#4A4F5F" d="M72 100H68V104H72V100Z"/><path fill="#4A4F5F" d="M68 100H64V104H68V100Z"/><path fill="#4A4F5F" d="M64 100H60V104H64V100Z"/><path fill="#4A4F5F" d="M60 100H56V104H60V100Z"/><path fill="#4A4F5F" d="M56 100H52V104H56V100Z"/><path fill="#4A4F5F" d="M52 100H48V104H52V100Z"/><path fill="#4A4F5F" d="M48 100H44V104H48V100Z"/><path fill="#4A4F5F" d="M44 100H40V104H44V100Z"/><path fill="#4A4F5F" d="M40 100H36V104H40V100Z"/><path fill="#4A4F5F" d="M36 100H32V104H36V100Z"/><path fill="#4A4F5F" d="M32 100H28V104H32V100Z"/><path fill="#4A4F5F" d="M28 100H24V104H28V100Z"/><path fill="#4A4F5F" d="M24 100H20V104H24V100Z"/><path fill="#4A4F5F" d="M20 100H16V104H20V100Z"/><path fill="#9396A5" d="M16 100H12V104H16V100Z"/><path fill="#7A7C8A" d="M120 96H116V100H120V96Z"/><path fill="#4C5161" d="M116 96H112V100H116V96Z"/><path fill="#4C5161" d="M112 96H108V100H112V96Z"/><path fill="#4C5161" d="M108 96H104V100H108V96Z"/><path fill="#4C5161" d="M104 96H100V100H104V96Z"/><path fill="#4C5161" d="M100 96H96V100H100V96Z"/><path fill="#4C5161" d="M96 96H92V100H96V96Z"/><path fill="#4C5161" d="M92 96H88V100H92V96Z"/><path fill="#4C5161" d="M88 96H84V100H88V96Z"/><path fill="#4C5161" d="M84 96H80V100H84V96Z"/><path fill="#4C5161" d="M80 96H76V100H80V96Z"/><path fill="#4C5161" d="M76 96H72V100H76V96Z"/><path fill="#4C5161" d="M72 96H68V100H72V96Z"/><path fill="#4C5161" d="M68 96H64V100H68V96Z"/><path fill="#4C5161" d="M64 96H60V100H64V96Z"/><path fill="#4C5161" d="M60 96H56V100H60V96Z"/><path fill="#4C5161" d="M56 96H52V100H56V96Z"/><path fill="#4C5161" d="M52 96H48V100H52V96Z"/><path fill="#4C5161" d="M48 96H44V100H48V96Z"/><path fill="#4C5161" d="M44 96H40V100H44V96Z"/><path fill="#4C5161" d="M40 96H36V100H40V96Z"/><path fill="#4C5161" d="M36 96H32V100H36V96Z"/><path fill="#4C5161" d="M32 96H28V100H32V96Z"/><path fill="#4C5161" d="M28 96H24V100H28V96Z"/><path fill="#4C5161" d="M24 96H20V100H24V96Z"/><path fill="#4C5161" d="M20 96H16V100H20V96Z"/><path fill="#464B59" d="M16 96H12V100H16V96Z"/><path fill="#979AA9" d="M12 96H8V100H12V96Z"/><path fill="#7E7F8E" d="M120 92H116V96H120V92Z"/><path fill="#4E5363" d="M116 92H112V96H116V92Z"/><path fill="#4E5363" d="M112 92H108V96H112V92Z"/><path fill="#4E5363" d="M108 92H104V96H108V92Z"/><path fill="#4E5363" d="M104 92H100V96H104V92Z"/><path fill="#4E5363" d="M100 92H96V96H100V92Z"/><path fill="#4E5363" d="M96 92H92V96H96V92Z"/><path fill="#4E5363" d="M92 92H88V96H92V92Z"/><path fill="#4E5363" d="M88 92H84V96H88V92Z"/><path fill="#C1C2C8" d="M84 92H80V96H84V92Z"/><path fill="#4E5363" d="M80 92H76V96H80V92Z"/><path fill="#4E5363" d="M76 92H72V96H76V92Z"/><path fill="#4E5363" d="M72 92H68V96H72V92Z"/><path fill="#4E5363" d="M68 92H64V96H68V92Z"/><path fill="#DADBDE" d="M64 92H60V96H64V92Z"/><path fill="#4E5363" d="M60 92H56V96H60V92Z"/><path fill="#4E5363" d="M56 92H52V96H56V92Z"/><path fill="#4E5363" d="M52 92H48V96H52V92Z"/><path fill="#4E5363" d="M48 92H44V96H48V92Z"/><path fill="#4E5363" d="M44 92H40V96H44V92Z"/><path fill="#4E5363" d="M40 92H36V96H40V92Z"/><path fill="#4E5363" d="M36 92H32V96H36V92Z"/><path fill="#4E5363" d="M32 92H28V96H32V92Z"/><path fill="#4E5363" d="M28 92H24V96H28V92Z"/><path fill="#4E5363" d="M24 92H20V96H24V92Z"/><path fill="#4E5363" d="M20 92H16V96H20V92Z"/><path fill="#4E5363" d="M16 92H12V96H16V92Z"/><path fill="#9B9EAD" d="M12 92H8V96H12V92Z"/><path fill="#808290" d="M124 88H120V92H124V88Z"/><path fill="#505665" d="M120 88H116V92H120V88Z"/><path fill="#505665" d="M116 88H112V92H116V88Z"/><path fill="#505665" d="M112 88H108V92H112V88Z"/><path fill="#505665" d="M108 88H104V92H108V88Z"/><path fill="#505665" d="M104 88H100V92H104V88Z"/><path fill="#505665" d="M100 88H96V92H100V88Z"/><path fill="#505665" d="M96 88H92V92H96V88Z"/><path fill="#505665" d="M92 88H88V92H92V88Z"/><path fill="#505665" d="M88 88H84V92H88V88Z"/><path fill="#505665" d="M84 88H80V92H84V88Z"/><path fill="#595E69" d="M80 88H76V92H80V88Z"/><path fill="#505665" d="M76 88H72V92H76V88Z"/><path fill="#626775" d="M72 88H68V92H72V88Z"/><path fill="#E9EAEC" d="M68 88H64V92H68V88Z"/><path fill="#505665" d="M64 88H60V92H64V88Z"/><path fill="#505665" d="M60 88H56V92H60V88Z"/><path fill="#505665" d="M56 88H52V92H56V88Z"/><path fill="#505665" d="M52 88H48V92H52V88Z"/><path fill="#505665" d="M48 88H44V92H48V88Z"/><path fill="#505665" d="M44 88H40V92H44V88Z"/><path fill="#505665" d="M40 88H36V92H40V88Z"/><path fill="#505665" d="M36 88H32V92H36V88Z"/><path fill="#505665" d="M32 88H28V92H32V88Z"/><path fill="#505665" d="M28 88H24V92H28V88Z"/><path fill="#505665" d="M24 88H20V92H24V88Z"/><path fill="#505665" d="M20 88H16V92H20V88Z"/><path fill="#505665" d="M16 88H12V92H16V88Z"/><path fill="#4A4F5D" d="M12 88H8V92H12V88Z"/><path fill="#9FA2B1" d="M8 88H4V92H8V88Z"/><path fill="#838593" d="M124 84H120V88H124V84Z"/><path fill="#535868" d="M120 84H116V88H120V84Z"/><path fill="#535868" d="M116 84H112V88H116V84Z"/><path fill="#535868" d="M112 84H108V88H112V84Z"/><path fill="#535868" d="M108 84H104V88H108V84Z"/><path fill="#535868" d="M104 84H100V88H104V84Z"/><path fill="#686C7A" d="M100 84H96V88H100V84Z"/><path fill="#535868" d="M96 84H92V88H96V84Z"/><path fill="#535868" d="M92 84H88V88H92V84Z"/><path fill="#686C7A" d="M88 84H84V88H88V84Z"/><path fill="#535868" d="M84 84H80V88H84V84Z"/><path fill="#535868" d="M80 84H76V88H80V84Z"/><path fill="#747885" d="M76 84H72V88H76V84Z"/><path fill="#E5E6E8" d="M72 84H68V88H72V84Z"/><path fill="#535868" d="M68 84H64V88H68V84Z"/><path fill="#535868" d="M64 84H60V88H64V84Z"/><path fill="#535868" d="M60 84H56V88H60V84Z"/><path fill="#535868" d="M56 84H52V88H56V84Z"/><path fill="#535868" d="M52 84H48V88H52V84Z"/><path fill="#535868" d="M48 84H44V88H48V84Z"/><path fill="#535868" d="M44 84H40V88H44V84Z"/><path fill="#535868" d="M40 84H36V88H40V84Z"/><path fill="#535868" d="M36 84H32V88H36V84Z"/><path fill="#535868" d="M32 84H28V88H32V84Z"/><path fill="#535868" d="M28 84H24V88H28V84Z"/><path fill="#535868" d="M24 84H20V88H24V84Z"/><path fill="#535868" d="M20 84H16V88H20V84Z"/><path fill="#535868" d="M16 84H12V88H16V84Z"/><path fill="#4C5160" d="M12 84H8V88H12V84Z"/><path fill="#A2A6B5" d="M8 84H4V88H8V84Z"/><path fill="#868897" d="M124 80H120V84H124V80Z"/><path fill="#565B6B" d="M120 80H116V84H120V80Z"/><path fill="#565B6B" d="M116 80H112V84H116V80Z"/><path fill="#C5C7CD" d="M112 80H108V84H112V80Z"/><path fill="#676C7A" d="M108 80H104V84H108V80Z"/><path fill="#565B6B" d="M104 80H100V84H104V80Z"/><path fill="#565B6B" d="M100 80H96V84H100V80Z"/><path fill="#D9DADD" d="M96 80H92V84H96V80Z"/><path fill="#565B6B" d="M92 80H88V84H92V80Z"/><path fill="#565B6B" d="M88 80H84V84H88V80Z"/><path fill="#676C7A" d="M84 80H80V84H84V80Z"/><path fill="#767B87" d="M80 80H76V84H80V80Z"/><path fill="#E6E7E9" d="M76 80H72V84H76V80Z"/><path fill="#565B6B" d="M72 80H68V84H72V80Z"/><path fill="#565B6B" d="M68 80H64V84H68V80Z"/><path fill="#565B6B" d="M64 80H60V84H64V80Z"/><path fill="#565B6B" d="M60 80H56V84H60V80Z"/><path fill="#565B6B" d="M56 80H52V84H56V80Z"/><path fill="#565B6B" d="M52 80H48V84H52V80Z"/><path fill="#565B6B" d="M48 80H44V84H48V80Z"/><path fill="#565B6B" d="M44 80H40V84H44V80Z"/><path fill="#565B6B" d="M40 80H36V84H40V80Z"/><path fill="#565B6B" d="M36 80H32V84H36V80Z"/><path fill="#565B6B" d="M32 80H28V84H32V80Z"/><path fill="#565B6B" d="M28 80H24V84H28V80Z"/><path fill="#565B6B" d="M24 80H20V84H24V80Z"/><path fill="#565B6B" d="M20 80H16V84H20V80Z"/><path fill="#565B6B" d="M16 80H12V84H16V80Z"/><path fill="#565B6B" d="M12 80H8V84H12V80Z"/><path fill="#A6A9B8" d="M8 80H4V84H8V80Z"/><path fill="#888A99" d="M128 76H124V80H128V76Z"/><path fill="#595F6F" d="M124 76H120V80H124V76Z"/><path fill="#595F6F" d="M120 76H116V80H120V76Z"/><path fill="#595F6F" d="M116 76H112V80H116V76Z"/><path fill="#595F6F" d="M112 76H108V80H112V76Z"/><path fill="#F4F4F5" d="M108 76H104V80H108V76Z"/><path fill="#fff" d="M104 76H100V80H104V76Z"/><path fill="#6A6F7E" d="M100 76H96V80H100V76Z"/><path fill="#595F6F" d="M96 76H92V80H96V76Z"/><path fill="#595F6F" d="M92 76H88V80H92V76Z"/><path fill="#fff" d="M88 76H84V80H88V76Z"/><path fill="#878B97" d="M84 76H80V80H84V76Z"/><path fill="#E6E7EA" d="M80 76H76V80H80V76Z"/><path fill="#fff" d="M76 76H72V80H76V76Z"/><path fill="#595F6F" d="M72 76H68V80H72V76Z"/><path fill="#595F6F" d="M68 76H64V80H68V76Z"/><path fill="#595F6F" d="M64 76H60V80H64V76Z"/><path fill="#595F6F" d="M60 76H56V80H60V76Z"/><path fill="#fff" d="M56 76H52V80H56V76Z"/><path fill="#6A6F7E" d="M52 76H48V80H52V76Z"/><path fill="#595F6F" d="M48 76H44V80H48V76Z"/><path fill="#595F6F" d="M44 76H40V80H44V76Z"/><path fill="#595F6F" d="M40 76H36V80H40V76Z"/><path fill="#595F6F" d="M36 76H32V80H36V76Z"/><path fill="#595F6F" d="M32 76H28V80H32V76Z"/><path fill="#595F6F" d="M28 76H24V80H28V76Z"/><path fill="#595F6F" d="M24 76H20V80H24V76Z"/><path fill="#595F6F" d="M20 76H16V80H20V76Z"/><path fill="#6A6F7E" d="M16 76H12V80H16V76Z"/><path fill="#7F8490" d="M12 76H8V80H12V76Z"/><path fill="#525866" d="M8 76H4V80H8V76Z"/><path fill="#AAAEBD" d="M4 76H0V80H4V76Z"/><path fill="#8B8E9C" d="M128 72H124V76H128V72Z"/><path fill="#5D6373" d="M124 72H120V76H124V72Z"/><path fill="#5D6373" d="M120 72H116V76H120V72Z"/><path fill="#717684" d="M116 72H112V76H116V72Z"/><path fill="#5D6373" d="M112 72H108V76H112V72Z"/><path fill="#5D6373" d="M108 72H104V76H108V72Z"/><path fill="#F2F3F4" d="M104 72H100V76H104V72Z"/><path fill="#fff" d="M100 72H96V76H100V72Z"/><path fill="#F2F3F4" d="M96 72H92V76H96V72Z"/><path fill="#6E7381" d="M92 72H88V76H92V72Z"/><path fill="#898E99" d="M88 72H84V76H88V72Z"/><path fill="#DCDDE1" d="M84 72H80V76H84V72Z"/><path fill="#fff" d="M80 72H76V76H80V72Z"/><path fill="#5D6373" d="M76 72H72V76H76V72Z"/><path fill="#5D6373" d="M72 72H68V76H72V72Z"/><path fill="#5D6373" d="M68 72H64V76H68V72Z"/><path fill="#5D6373" d="M64 72H60V76H64V72Z"/><path fill="#5D6373" d="M60 72H56V76H60V72Z"/><path fill="#5D6373" d="M56 72H52V76H56V72Z"/><path fill="#fff" d="M52 72H48V76H52V72Z"/><path fill="#E3E4E7" d="M48 72H44V76H48V72Z"/><path fill="#6E7381" d="M44 72H40V76H44V72Z"/><path fill="#5D6373" d="M40 72H36V76H40V72Z"/><path fill="#5D6373" d="M36 72H32V76H36V72Z"/><path fill="#5D6373" d="M32 72H28V76H32V72Z"/><path fill="#5D6373" d="M28 72H24V76H28V72Z"/><path fill="#6E7381" d="M24 72H20V76H24V72Z"/><path fill="#C5C7CC" d="M20 72H16V76H20V72Z"/><path fill="#A2A5AE" d="M16 72H12V76H16V72Z"/><path fill="#5D6373" d="M12 72H8V76H12V72Z"/><path fill="#565B6A" d="M8 72H4V76H8V72Z"/><path fill="#ADB1C0" d="M4 72H0V76H4V72Z"/><path fill="#8E919F" d="M128 68H124V72H128V68Z"/><path fill="#7E8290" d="M124 68H120V72H124V68Z"/><path fill="#fff" d="M120 68H116V72H120V68Z"/><path fill="#717685" d="M116 68H112V72H116V68Z"/><path fill="#fff" d="M112 68H108V72H112V68Z"/><path fill="#717685" d="M108 68H104V72H108V68Z"/><path fill="#8C919C" d="M104 68H100V72H104V68Z"/><path fill="#fff" d="M100 68H96V72H100V68Z"/><path fill="#8C919C" d="M96 68H92V72H96V68Z"/><path fill="#fff" d="M92 68H88V72H92V68Z"/><path fill="#fff" d="M88 68H84V72H88V68Z"/><path fill="#fff" d="M84 68H80V72H84V68Z"/><path fill="#616777" d="M80 68H76V72H80V68Z"/><path fill="#616777" d="M76 68H72V72H76V68Z"/><path fill="#616777" d="M72 68H68V72H72V68Z"/><path fill="#616777" d="M68 68H64V72H68V68Z"/><path fill="#616777" d="M64 68H60V72H64V68Z"/><path fill="#616777" d="M60 68H56V72H60V68Z"/><path fill="#616777" d="M56 68H52V72H56V68Z"/><path fill="#616777" d="M52 68H48V72H52V68Z"/><path fill="#fff" d="M48 68H44V72H48V68Z"/><path fill="#fff" d="M44 68H40V72H44V68Z"/><path fill="#E4E5E8" d="M40 68H36V72H40V68Z"/><path fill="#717685" d="M36 68H32V72H36V68Z"/><path fill="#616777" d="M32 68H28V72H32V68Z"/><path fill="#717685" d="M28 68H24V72H28V68Z"/><path fill="#C8CAD0" d="M24 68H20V72H24V68Z"/><path fill="#616777" d="M20 68H16V72H20V68Z"/><path fill="#616777" d="M16 68H12V72H16V68Z"/><path fill="#616777" d="M12 68H8V72H12V68Z"/><path fill="#595F6E" d="M8 68H4V72H8V68Z"/><path fill="#B0B4C3" d="M4 68H0V72H4V68Z"/><path fill="#9194A3" d="M128 64H124V68H128V64Z"/><path fill="#656B7B" d="M124 64H120V68H124V64Z"/><path fill="#7F8491" d="M120 64H116V68H120V64Z"/><path fill="#C5C7CD" d="M116 64H112V68H116V64Z"/><path fill="#E2E3E6" d="M112 64H108V68H112V64Z"/><path fill="#F4F4F5" d="M108 64H104V68H108V64Z"/><path fill="#fff" d="M104 64H100V68H104V64Z"/><path fill="#fff" d="M100 64H96V68H100V64Z"/><path fill="#fff" d="M96 64H92V68H96V64Z"/><path fill="#fff" d="M92 64H88V68H92V64Z"/><path fill="#EBECEE" d="M88 64H84V68H88V64Z"/><path fill="#757A88" d="M84 64H80V68H84V64Z"/><path fill="#656B7B" d="M80 64H76V68H80V64Z"/><path fill="#656B7B" d="M76 64H72V68H76V64Z"/><path fill="#656B7B" d="M72 64H68V68H72V64Z"/><path fill="#656B7B" d="M68 64H64V68H68V64Z"/><path fill="#656B7B" d="M64 64H60V68H64V64Z"/><path fill="#656B7B" d="M60 64H56V68H60V64Z"/><path fill="#656B7B" d="M56 64H52V68H56V64Z"/><path fill="#B7BAC1" d="M52 64H48V68H52V64Z"/><path fill="#656B7B" d="M48 64H44V68H48V64Z"/><path fill="#fff" d="M44 64H40V68H44V64Z"/><path fill="#fff" d="M40 64H36V68H40V64Z"/><path fill="#EFEFF1" d="M36 64H32V68H36V64Z"/><path fill="#D5D7DB" d="M32 64H28V68H32V64Z"/><path fill="#E4E5E8" d="M28 64H24V68H28V64Z"/><path fill="#656B7B" d="M24 64H20V68H24V64Z"/><path fill="#656B7B" d="M20 64H16V68H20V64Z"/><path fill="#656B7B" d="M16 64H12V68H16V64Z"/><path fill="#656B7B" d="M12 64H8V68H12V64Z"/><path fill="#5D6371" d="M8 64H4V68H8V64Z"/><path fill="#B2B6C6" d="M4 64H0V68H4V64Z"/><path fill="#9497A6" d="M128 60H124V64H128V60Z"/><path fill="#696F7F" d="M124 60H120V64H124V60Z"/><path fill="#696F7F" d="M120 60H116V64H120V60Z"/><path fill="#696F7F" d="M116 60H112V64H116V60Z"/><path fill="#7B818F" d="M112 60H108V64H112V60Z"/><path fill="#CBCDD2" d="M108 60H104V64H108V60Z"/><path fill="#E7E8EA" d="M104 60H100V64H104V60Z"/><path fill="#F7F8F8" d="M100 60H96V64H100V60Z"/><path fill="#fff" d="M96 60H92V64H96V60Z"/><path fill="#fff" d="M92 60H88V64H92V60Z"/><path fill="#fff" d="M88 60H84V64H88V60Z"/><path fill="#F9F9FA" d="M84 60H80V64H84V60Z"/><path fill="#696F7F" d="M80 60H76V64H80V60Z"/><path fill="#696F7F" d="M76 60H72V64H76V60Z"/><path fill="#696F7F" d="M72 60H68V64H72V60Z"/><path fill="#696F7F" d="M68 60H64V64H68V60Z"/><path fill="#696F7F" d="M64 60H60V64H64V60Z"/><path fill="#696F7F" d="M60 60H56V64H60V60Z"/><path fill="#696F7F" d="M56 60H52V64H56V60Z"/><path fill="#fff" d="M52 60H48V64H52V60Z"/><path fill="#696F7F" d="M48 60H44V64H48V60Z"/><path fill="#696F7F" d="M44 60H40V64H44V60Z"/><path fill="#fff" d="M40 60H36V64H40V60Z"/><path fill="#fff" d="M36 60H32V64H36V60Z"/><path fill="#FEFEFE" d="M32 60H28V64H32V60Z"/><path fill="#696F7F" d="M28 60H24V64H28V60Z"/><path fill="#696F7F" d="M24 60H20V64H24V60Z"/><path fill="#696F7F" d="M20 60H16V64H20V60Z"/><path fill="#696F7F" d="M16 60H12V64H16V60Z"/><path fill="#696F7F" d="M12 60H8V64H12V60Z"/><path fill="#616675" d="M8 60H4V64H8V60Z"/><path fill="#B3B8C7" d="M4 60H0V64H4V60Z"/><path fill="#989AA9" d="M128 56H124V60H128V56Z"/><path fill="#6D7384" d="M124 56H120V60H124V56Z"/><path fill="#6D7384" d="M120 56H116V60H120V56Z"/><path fill="#6D7384" d="M116 56H112V60H116V56Z"/><path fill="#6D7384" d="M112 56H108V60H112V56Z"/><path fill="#6D7384" d="M108 56H104V60H108V56Z"/><path fill="#6D7384" d="M104 56H100V60H104V56Z"/><path fill="#E2E4E7" d="M100 56H96V60H100V56Z"/><path fill="#F1F1F3" d="M96 56H92V60H96V56Z"/><path fill="#fff" d="M92 56H88V60H92V56Z"/><path fill="#fff" d="M88 56H84V60H88V56Z"/><path fill="#fff" d="M84 56H80V60H84V56Z"/><path fill="#7A808F" d="M80 56H76V60H80V56Z"/><path fill="#6D7384" d="M76 56H72V60H76V56Z"/><path fill="#6D7384" d="M72 56H68V60H72V56Z"/><path fill="#6D7384" d="M68 56H64V60H68V56Z"/><path fill="#6D7384" d="M64 56H60V60H64V56Z"/><path fill="#6D7384" d="M60 56H56V60H60V56Z"/><path fill="#CDCFD5" d="M56 56H52V60H56V56Z"/><path fill="#6D7384" d="M52 56H48V60H52V56Z"/><path fill="#6D7384" d="M48 56H44V60H48V56Z"/><path fill="#6D7384" d="M44 56H40V60H44V56Z"/><path fill="#6D7384" d="M40 56H36V60H40V56Z"/><path fill="#fff" d="M36 56H32V60H36V56Z"/><path fill="#6D7384" d="M32 56H28V60H32V56Z"/><path fill="#6D7384" d="M28 56H24V60H28V56Z"/><path fill="#6D7384" d="M24 56H20V60H24V56Z"/><path fill="#6D7384" d="M20 56H16V60H20V56Z"/><path fill="#6D7384" d="M16 56H12V60H16V56Z"/><path fill="#6D7384" d="M12 56H8V60H12V56Z"/><path fill="#646A7A" d="M8 56H4V60H8V56Z"/><path fill="#B3B8C7" d="M4 56H0V60H4V56Z"/><path fill="#9B9EAD" d="M128 52H124V56H128V52Z"/><path fill="#717788" d="M124 52H120V56H124V52Z"/><path fill="#717788" d="M120 52H116V56H120V52Z"/><path fill="#717788" d="M116 52H112V56H116V52Z"/><path fill="#717788" d="M112 52H108V56H112V52Z"/><path fill="#717788" d="M108 52H104V56H108V52Z"/><path fill="#717788" d="M104 52H100V56H104V52Z"/><path fill="#717788" d="M100 52H96V56H100V52Z"/><path fill="#717788" d="M96 52H92V56H96V52Z"/><path fill="#F6F6F8" d="M92 52H88V56H92V52Z"/><path fill="#fff" d="M88 52H84V56H88V52Z"/><path fill="#fff" d="M84 52H80V56H84V52Z"/><path fill="#fff" d="M80 52H76V56H80V52Z"/><path fill="#717788" d="M76 52H72V56H76V52Z"/><path fill="#717788" d="M72 52H68V56H72V52Z"/><path fill="#717788" d="M68 52H64V56H68V52Z"/><path fill="#717788" d="M64 52H60V56H64V52Z"/><path fill="#717788" d="M60 52H56V56H60V52Z"/><path fill="#fff" d="M56 52H52V56H56V52Z"/><path fill="#717788" d="M52 52H48V56H52V52Z"/><path fill="#717788" d="M48 52H44V56H48V52Z"/><path fill="#717788" d="M44 52H40V56H44V52Z"/><path fill="#717788" d="M40 52H36V56H40V52Z"/><path fill="#717788" d="M36 52H32V56H36V52Z"/><path fill="#717788" d="M32 52H28V56H32V52Z"/><path fill="#717788" d="M28 52H24V56H28V52Z"/><path fill="#717788" d="M24 52H20V56H24V52Z"/><path fill="#717788" d="M20 52H16V56H20V52Z"/><path fill="#717788" d="M16 52H12V56H16V52Z"/><path fill="#717788" d="M12 52H8V56H12V52Z"/><path fill="#686E7D" d="M8 52H4V56H8V52Z"/><path fill="#B3B8C7" d="M4 52H0V56H4V52Z"/><path fill="#9EA1B0" d="M128 48H124V52H128V48Z"/><path fill="#747B8C" d="M124 48H120V52H124V48Z"/><path fill="#747B8C" d="M120 48H116V52H120V48Z"/><path fill="#747B8C" d="M116 48H112V52H116V48Z"/><path fill="#747B8C" d="M112 48H108V52H112V48Z"/><path fill="#747B8C" d="M108 48H104V52H108V48Z"/><path fill="#747B8C" d="M104 48H100V52H104V48Z"/><path fill="#747B8C" d="M100 48H96V52H100V48Z"/><path fill="#747B8C" d="M96 48H92V52H96V48Z"/><path fill="#747B8C" d="M92 48H88V52H92V48Z"/><path fill="#FEFEFF" d="M88 48H84V52H88V48Z"/><path fill="#fff" d="M84 48H80V52H84V48Z"/><path fill="#fff" d="M80 48H76V52H80V48Z"/><path fill="#898F9E" d="M76 48H72V52H76V48Z"/><path fill="#747B8C" d="M72 48H68V52H72V48Z"/><path fill="#747B8C" d="M68 48H64V52H68V48Z"/><path fill="#747B8C" d="M64 48H60V52H64V48Z"/><path fill="#D0D2D8" d="M60 48H56V52H60V48Z"/><path fill="#747B8C" d="M56 48H52V52H56V48Z"/><path fill="#747B8C" d="M52 48H48V52H52V48Z"/><path fill="#747B8C" d="M48 48H44V52H48V48Z"/><path fill="#747B8C" d="M44 48H40V52H44V48Z"/><path fill="#747B8C" d="M40 48H36V52H40V48Z"/><path fill="#747B8C" d="M36 48H32V52H36V48Z"/><path fill="#747B8C" d="M32 48H28V52H32V48Z"/><path fill="#747B8C" d="M28 48H24V52H28V48Z"/><path fill="#747B8C" d="M24 48H20V52H24V48Z"/><path fill="#747B8C" d="M20 48H16V52H20V48Z"/><path fill="#747B8C" d="M16 48H12V52H16V48Z"/><path fill="#6B7181" d="M12 48H8V52H12V48Z"/><path fill="#6B7181" d="M8 48H4V52H8V48Z"/><path fill="#B3B8C7" d="M4 48H0V52H4V48Z"/><path fill="#A3A6B5" d="M124 44H120V48H124V44Z"/><path fill="#787E8F" d="M120 44H116V48H120V44Z"/><path fill="#787E8F" d="M116 44H112V48H116V44Z"/><path fill="#787E8F" d="M112 44H108V48H112V44Z"/><path fill="#787E8F" d="M108 44H104V48H108V44Z"/><path fill="#787E8F" d="M104 44H100V48H104V44Z"/><path fill="#787E8F" d="M100 44H96V48H100V44Z"/><path fill="#787E8F" d="M96 44H92V48H96V44Z"/><path fill="#787E8F" d="M92 44H88V48H92V44Z"/><path fill="#F0F1F3" d="M88 44H84V48H88V44Z"/><path fill="#fff" d="M84 44H80V48H84V44Z"/><path fill="#fff" d="M80 44H76V48H80V44Z"/><path fill="#fff" d="M76 44H72V48H76V44Z"/><path fill="#787E8F" d="M72 44H68V48H72V44Z"/><path fill="#787E8F" d="M68 44H64V48H68V44Z"/><path fill="#787E8F" d="M64 44H60V48H64V44Z"/><path fill="#fff" d="M60 44H56V48H60V44Z"/><path fill="#787E8F" d="M56 44H52V48H56V44Z"/><path fill="#787E8F" d="M52 44H48V48H52V44Z"/><path fill="#787E8F" d="M48 44H44V48H48V44Z"/><path fill="#787E8F" d="M44 44H40V48H44V44Z"/><path fill="#787E8F" d="M40 44H36V48H40V44Z"/><path fill="#787E8F" d="M36 44H32V48H36V44Z"/><path fill="#787E8F" d="M32 44H28V48H32V44Z"/><path fill="#787E8F" d="M28 44H24V48H28V44Z"/><path fill="#787E8F" d="M24 44H20V48H24V44Z"/><path fill="#787E8F" d="M20 44H16V48H20V44Z"/><path fill="#787E8F" d="M16 44H12V48H16V44Z"/><path fill="#6F7484" d="M12 44H8V48H12V44Z"/><path fill="#B3B8C7" d="M8 44H4V48H8V44Z"/><path fill="#A6A9B8" d="M124 40H120V44H124V40Z"/><path fill="#7A8092" d="M120 40H116V44H120V40Z"/><path fill="#7A8092" d="M116 40H112V44H116V40Z"/><path fill="#7A8092" d="M112 40H108V44H112V40Z"/><path fill="#7A8092" d="M108 40H104V44H108V40Z"/><path fill="#7A8092" d="M104 40H100V44H104V40Z"/><path fill="#7A8092" d="M100 40H96V44H100V40Z"/><path fill="#7A8092" d="M96 40H92V44H96V40Z"/><path fill="#7A8092" d="M92 40H88V44H92V40Z"/><path fill="#7A8092" d="M88 40H84V44H88V40Z"/><path fill="#EDEEF0" d="M84 40H80V44H84V40Z"/><path fill="#FEFFFF" d="M80 40H76V44H80V40Z"/><path fill="#fff" d="M76 40H72V44H76V40Z"/><path fill="#9196A5" d="M72 40H68V44H72V40Z"/><path fill="#7A8092" d="M68 40H64V44H68V40Z"/><path fill="#D2D4DA" d="M64 40H60V44H64V40Z"/><path fill="#7A8092" d="M60 40H56V44H60V40Z"/><path fill="#7A8092" d="M56 40H52V44H56V40Z"/><path fill="#7A8092" d="M52 40H48V44H52V40Z"/><path fill="#7A8092" d="M48 40H44V44H48V40Z"/><path fill="#7A8092" d="M44 40H40V44H44V40Z"/><path fill="#7A8092" d="M40 40H36V44H40V40Z"/><path fill="#7A8092" d="M36 40H32V44H36V40Z"/><path fill="#7A8092" d="M32 40H28V44H32V40Z"/><path fill="#7A8092" d="M28 40H24V44H28V40Z"/><path fill="#7A8092" d="M24 40H20V44H24V40Z"/><path fill="#7A8092" d="M20 40H16V44H20V40Z"/><path fill="#7A8092" d="M16 40H12V44H16V40Z"/><path fill="#707687" d="M12 40H8V44H12V40Z"/><path fill="#B3B8C7" d="M8 40H4V44H8V40Z"/><path fill="#A9ADBC" d="M124 36H120V40H124V36Z"/><path fill="#7C8294" d="M120 36H116V40H120V36Z"/><path fill="#7C8294" d="M116 36H112V40H116V36Z"/><path fill="#7C8294" d="M112 36H108V40H112V36Z"/><path fill="#7C8294" d="M108 36H104V40H108V36Z"/><path fill="#7C8294" d="M104 36H100V40H104V36Z"/><path fill="#7C8294" d="M100 36H96V40H100V36Z"/><path fill="#7C8294" d="M96 36H92V40H96V36Z"/><path fill="#7C8294" d="M92 36H88V40H92V36Z"/><path fill="#7C8294" d="M88 36H84V40H88V36Z"/><path fill="#7C8294" d="M84 36H80V40H84V36Z"/><path fill="#EFF0F2" d="M80 36H76V40H80V36Z"/><path fill="#fff" d="M76 36H72V40H76V36Z"/><path fill="#fff" d="M72 36H68V40H72V36Z"/><path fill="#7C8294" d="M68 36H64V40H68V36Z"/><path fill="#fff" d="M64 36H60V40H64V36Z"/><path fill="#7C8294" d="M60 36H56V40H60V36Z"/><path fill="#7C8294" d="M56 36H52V40H56V36Z"/><path fill="#7C8294" d="M52 36H48V40H52V36Z"/><path fill="#7C8294" d="M48 36H44V40H48V36Z"/><path fill="#7C8294" d="M44 36H40V40H44V36Z"/><path fill="#7C8294" d="M40 36H36V40H40V36Z"/><path fill="#7C8294" d="M36 36H32V40H36V36Z"/><path fill="#7C8294" d="M32 36H28V40H32V36Z"/><path fill="#7C8294" d="M28 36H24V40H28V36Z"/><path fill="#7C8294" d="M24 36H20V40H24V36Z"/><path fill="#7C8294" d="M20 36H16V40H20V36Z"/><path fill="#727888" d="M16 36H12V40H16V36Z"/><path fill="#727888" d="M12 36H8V40H12V36Z"/><path fill="#B3B8C7" d="M8 36H4V40H8V36Z"/><path fill="#ADB1C0" d="M120 32H116V36H120V32Z"/><path fill="#7C8394" d="M116 32H112V36H116V32Z"/><path fill="#7C8394" d="M112 32H108V36H112V32Z"/><path fill="#7C8394" d="M108 32H104V36H108V32Z"/><path fill="#7C8394" d="M104 32H100V36H104V32Z"/><path fill="#7C8394" d="M100 32H96V36H100V32Z"/><path fill="#7C8394" d="M96 32H92V36H96V32Z"/><path fill="#7C8394" d="M92 32H88V36H92V32Z"/><path fill="#7C8394" d="M88 32H84V36H88V32Z"/><path fill="#7C8394" d="M84 32H80V36H84V32Z"/><path fill="#7C8394" d="M80 32H76V36H80V32Z"/><path fill="#E8E9EC" d="M76 32H72V36H76V32Z"/><path fill="#fff" d="M72 32H68V36H72V32Z"/><path fill="#fff" d="M68 32H64V36H68V32Z"/><path fill="#7C8394" d="M64 32H60V36H64V32Z"/><path fill="#7C8394" d="M60 32H56V36H60V32Z"/><path fill="#7C8394" d="M56 32H52V36H56V32Z"/><path fill="#7C8394" d="M52 32H48V36H52V32Z"/><path fill="#7C8394" d="M48 32H44V36H48V32Z"/><path fill="#7C8394" d="M44 32H40V36H44V32Z"/><path fill="#7C8394" d="M40 32H36V36H40V32Z"/><path fill="#7C8394" d="M36 32H32V36H36V32Z"/><path fill="#7C8394" d="M32 32H28V36H32V32Z"/><path fill="#7C8394" d="M28 32H24V36H28V32Z"/><path fill="#7C8394" d="M24 32H20V36H24V32Z"/><path fill="#7C8394" d="M20 32H16V36H20V32Z"/><path fill="#727988" d="M16 32H12V36H16V32Z"/><path fill="#B3B8C7" d="M12 32H8V36H12V32Z"/><path fill="#B0B4C3" d="M120 28H116V32H120V28Z"/><path fill="#7C8394" d="M116 28H112V32H116V28Z"/><path fill="#7C8394" d="M112 28H108V32H112V28Z"/><path fill="#7C8394" d="M108 28H104V32H108V28Z"/><path fill="#7C8394" d="M104 28H100V32H104V28Z"/><path fill="#7C8394" d="M100 28H96V32H100V28Z"/><path fill="#7C8394" d="M96 28H92V32H96V28Z"/><path fill="#7C8394" d="M92 28H88V32H92V28Z"/><path fill="#7C8394" d="M88 28H84V32H88V28Z"/><path fill="#7C8394" d="M84 28H80V32H84V28Z"/><path fill="#7C8394" d="M80 28H76V32H80V28Z"/><path fill="#7C8394" d="M76 28H72V32H76V28Z"/><path fill="#EAECEE" d="M72 28H68V32H72V28Z"/><path fill="#fff" d="M68 28H64V32H68V28Z"/><path fill="#7C8394" d="M64 28H60V32H64V28Z"/><path fill="#7C8394" d="M60 28H56V32H60V28Z"/><path fill="#7C8394" d="M56 28H52V32H56V28Z"/><path fill="#7C8394" d="M52 28H48V32H52V28Z"/><path fill="#7C8394" d="M48 28H44V32H48V28Z"/><path fill="#7C8394" d="M44 28H40V32H44V28Z"/><path fill="#7C8394" d="M40 28H36V32H40V28Z"/><path fill="#7C8394" d="M36 28H32V32H36V28Z"/><path fill="#7C8394" d="M32 28H28V32H32V28Z"/><path fill="#7C8394" d="M28 28H24V32H28V28Z"/><path fill="#7C8394" d="M24 28H20V32H24V28Z"/><path fill="#727988" d="M20 28H16V32H20V28Z"/><path fill="#727988" d="M16 28H12V32H16V28Z"/><path fill="#B3B8C7" d="M12 28H8V32H12V28Z"/><path fill="#B3B7C6" d="M116 24H112V28H116V24Z"/><path fill="#7B8192" d="M112 24H108V28H112V24Z"/><path fill="#7B8192" d="M108 24H104V28H108V24Z"/><path fill="#7B8192" d="M104 24H100V28H104V24Z"/><path fill="#7B8192" d="M100 24H96V28H100V24Z"/><path fill="#7B8192" d="M96 24H92V28H96V24Z"/><path fill="#7B8192" d="M92 24H88V28H92V24Z"/><path fill="#7B8192" d="M88 24H84V28H88V24Z"/><path fill="#7B8192" d="M84 24H80V28H84V24Z"/><path fill="#7B8192" d="M80 24H76V28H80V24Z"/><path fill="#7B8192" d="M76 24H72V28H76V24Z"/><path fill="#7B8192" d="M72 24H68V28H72V24Z"/><path fill="#7B8192" d="M68 24H64V28H68V24Z"/><path fill="#7B8192" d="M64 24H60V28H64V24Z"/><path fill="#7B8192" d="M60 24H56V28H60V24Z"/><path fill="#7B8192" d="M56 24H52V28H56V24Z"/><path fill="#7B8192" d="M52 24H48V28H52V24Z"/><path fill="#7B8192" d="M48 24H44V28H48V24Z"/><path fill="#7B8192" d="M44 24H40V28H44V24Z"/><path fill="#7B8192" d="M40 24H36V28H40V24Z"/><path fill="#7B8192" d="M36 24H32V28H36V24Z"/><path fill="#7B8192" d="M32 24H28V28H32V24Z"/><path fill="#7B8192" d="M28 24H24V28H28V24Z"/><path fill="#717787" d="M24 24H20V28H24V24Z"/><path fill="#717787" d="M20 24H16V28H20V24Z"/><path fill="#B3B8C7" d="M16 24H12V28H16V24Z"/><path fill="#B3B8C7" d="M112 20H108V24H112V20Z"/><path fill="#797F8F" d="M108 20H104V24H108V20Z"/><path fill="#797F8F" d="M104 20H100V24H104V20Z"/><path fill="#797F8F" d="M100 20H96V24H100V20Z"/><path fill="#797F8F" d="M96 20H92V24H96V20Z"/><path fill="#797F8F" d="M92 20H88V24H92V20Z"/><path fill="#797F8F" d="M88 20H84V24H88V20Z"/><path fill="#797F8F" d="M84 20H80V24H84V20Z"/><path fill="#797F8F" d="M80 20H76V24H80V20Z"/><path fill="#797F8F" d="M76 20H72V24H76V20Z"/><path fill="#797F8F" d="M72 20H68V24H72V20Z"/><path fill="#797F8F" d="M68 20H64V24H68V20Z"/><path fill="#797F8F" d="M64 20H60V24H64V20Z"/><path fill="#797F8F" d="M60 20H56V24H60V20Z"/><path fill="#797F8F" d="M56 20H52V24H56V20Z"/><path fill="#797F8F" d="M52 20H48V24H52V20Z"/><path fill="#797F8F" d="M48 20H44V24H48V20Z"/><path fill="#797F8F" d="M44 20H40V24H44V20Z"/><path fill="#797F8F" d="M40 20H36V24H40V20Z"/><path fill="#797F8F" d="M36 20H32V24H36V20Z"/><path fill="#797F8F" d="M32 20H28V24H32V20Z"/><path fill="#707584" d="M28 20H24V24H28V20Z"/><path fill="#707584" d="M24 20H20V24H24V20Z"/><path fill="#B3B8C7" d="M20 20H16V24H20V20Z"/><path fill="#B3B8C7" d="M108 16H104V20H108V16Z"/><path fill="#767C8D" d="M104 16H100V20H104V16Z"/><path fill="#767C8D" d="M100 16H96V20H100V16Z"/><path fill="#767C8D" d="M96 16H92V20H96V16Z"/><path fill="#767C8D" d="M92 16H88V20H92V16Z"/><path fill="#767C8D" d="M88 16H84V20H88V16Z"/><path fill="#767C8D" d="M84 16H80V20H84V16Z"/><path fill="#767C8D" d="M80 16H76V20H80V16Z"/><path fill="#767C8D" d="M76 16H72V20H76V16Z"/><path fill="#767C8D" d="M72 16H68V20H72V16Z"/><path fill="#767C8D" d="M68 16H64V20H68V16Z"/><path fill="#767C8D" d="M64 16H60V20H64V16Z"/><path fill="#767C8D" d="M60 16H56V20H60V16Z"/><path fill="#767C8D" d="M56 16H52V20H56V16Z"/><path fill="#767C8D" d="M52 16H48V20H52V16Z"/><path fill="#767C8D" d="M48 16H44V20H48V16Z"/><path fill="#767C8D" d="M44 16H40V20H44V16Z"/><path fill="#767C8D" d="M40 16H36V20H40V16Z"/><path fill="#767C8D" d="M36 16H32V20H36V16Z"/><path fill="#6D7282" d="M32 16H28V20H32V16Z"/><path fill="#6D7282" d="M28 16H24V20H28V16Z"/><path fill="#B3B8C7" d="M24 16H20V20H24V16Z"/><path fill="#B3B8C7" d="M104 12H100V16H104V12Z"/><path fill="#6B707F" d="M100 12H96V16H100V12Z"/><path fill="#74798A" d="M96 12H92V16H96V12Z"/><path fill="#74798A" d="M92 12H88V16H92V12Z"/><path fill="#74798A" d="M88 12H84V16H88V12Z"/><path fill="#74798A" d="M84 12H80V16H84V12Z"/><path fill="#74798A" d="M80 12H76V16H80V12Z"/><path fill="#74798A" d="M76 12H72V16H76V12Z"/><path fill="#74798A" d="M72 12H68V16H72V12Z"/><path fill="#74798A" d="M68 12H64V16H68V12Z"/><path fill="#74798A" d="M64 12H60V16H64V12Z"/><path fill="#74798A" d="M60 12H56V16H60V12Z"/><path fill="#74798A" d="M56 12H52V16H56V12Z"/><path fill="#74798A" d="M52 12H48V16H52V12Z"/><path fill="#74798A" d="M48 12H44V16H48V12Z"/><path fill="#74798A" d="M44 12H40V16H44V12Z"/><path fill="#6B707F" d="M40 12H36V16H40V12Z"/><path fill="#6B707F" d="M36 12H32V16H36V12Z"/><path fill="#6B707F" d="M32 12H28V16H32V12Z"/><path fill="#B3B8C7" d="M28 12H24V16H28V12Z"/><path fill="#B3B8C7" d="M100 8H96V12H100V8Z"/><path fill="#B3B8C7" d="M96 8H92V12H96V8Z"/><path fill="#686E7C" d="M92 8H88V12H92V8Z"/><path fill="#686E7C" d="M88 8H84V12H88V8Z"/><path fill="#717787" d="M84 8H80V12H84V8Z"/><path fill="#717787" d="M80 8H76V12H80V8Z"/><path fill="#717787" d="M76 8H72V12H76V8Z"/><path fill="#717787" d="M72 8H68V12H72V8Z"/><path fill="#717787" d="M68 8H64V12H68V8Z"/><path fill="#717787" d="M64 8H60V12H64V8Z"/><path fill="#717787" d="M60 8H56V12H60V8Z"/><path fill="#717787" d="M56 8H52V12H56V8Z"/><path fill="#686E7C" d="M52 8H48V12H52V8Z"/><path fill="#686E7C" d="M48 8H44V12H48V8Z"/><path fill="#686E7C" d="M44 8H40V12H44V8Z"/><path fill="#686E7C" d="M40 8H36V12H40V8Z"/><path fill="#B3B8C7" d="M36 8H32V12H36V8Z"/><path fill="#B3B8C7" d="M32 8H28V12H32V8Z"/><path fill="#B3B8C7" d="M92 4H88V8H92V4Z"/><path fill="#B3B8C7" d="M88 4H84V8H88V4Z"/><path fill="#B3B8C7" d="M84 4H80V8H84V4Z"/><path fill="#666C7B" d="M80 4H76V8H80V4Z"/><path fill="#666C7B" d="M76 4H72V8H76V4Z"/><path fill="#666C7B" d="M72 4H68V8H72V4Z"/><path fill="#666C7B" d="M68 4H64V8H68V4Z"/><path fill="#666C7B" d="M64 4H60V8H64V4Z"/><path fill="#666C7B" d="M60 4H56V8H60V4Z"/><path fill="#666C7B" d="M56 4H52V8H56V4Z"/><path fill="#666C7B" d="M52 4H48V8H52V4Z"/><path fill="#B3B8C7" d="M48 4H44V8H48V4Z"/><path fill="#B3B8C7" d="M44 4H40V8H44V4Z"/><path fill="#B3B8C7" d="M40 4H36V8H40V4Z"/><path fill="#B3B8C7" d="M80 0H76V4H80V0Z"/><path fill="#B3B8C7" d="M76 0H72V4H76V0Z"/><path fill="#B3B8C7" d="M72 0H68V4H72V0Z"/><path fill="#B3B8C7" d="M68 0H64V4H68V0Z"/><path fill="#B3B8C7" d="M64 0H60V4H64V0Z"/><path fill="#B3B8C7" d="M60 0H56V4H60V0Z"/><path fill="#B3B8C7" d="M56 0H52V4H56V0Z"/><path fill="#B3B8C7" d="M52 0H48V4H52V0Z"/><g opacity=".4"><path fill="#808290" d="M84 124H80V128H84V124Z"/><path fill="#808290" d="M48 124H44V128H48V124Z"/><path fill="#808290" d="M96 120H92V124H96V120Z"/><path fill="#808290" d="M36 120H32V124H36V120Z"/><path fill="#808290" d="M104 116H100V120H104V116Z"/><path fill="#808290" d="M28 116H24V120H28V116Z"/><path fill="#808290" d="M108 112H104V116H108V112Z"/><path fill="#808290" d="M24 112H20V116H24V112Z"/><path fill="#808290" d="M112 108H108V112H112V108Z"/><path fill="#808290" d="M20 108H16V112H20V108Z"/><path fill="#808290" d="M116 104H112V108H116V104Z"/><path fill="#808290" d="M16 104H12V108H16V104Z"/><path fill="#808290" d="M120 100H116V104H120V100Z"/><path fill="#808290" d="M12 100H8V104H12V100Z"/><path fill="#808290" d="M124 92H120V96H124V92Z"/><path fill="#808290" d="M8 92H4V96H8V92Z"/><path fill="#808290" d="M128 80H124V84H128V80Z"/><path fill="#808290" d="M4 80H0V84H4V80Z"/></g><g opacity=".36"><path fill="#B3B8C7" d="M128 44H124V48H128V44Z"/><path fill="#B3B8C7" d="M124 32H120V36H124V32Z"/><path fill="#B3B8C7" d="M4 44H0V48H4V44Z"/><path fill="#B3B8C7" d="M8 32H4V36H8V32Z"/><path fill="#B3B8C7" d="M120 24H116V28H120V24Z"/><path fill="#B3B8C7" d="M12 24H8V28H12V24Z"/><path fill="#B3B8C7" d="M116 20H112V24H116V20Z"/><path fill="#B3B8C7" d="M16 20H12V24H16V20Z"/><path fill="#B3B8C7" d="M112 16H108V20H112V16Z"/><path fill="#B3B8C7" d="M20 16H16V20H20V16Z"/><path fill="#B3B8C7" d="M108 12H104V16H108V12Z"/><path fill="#B3B8C7" d="M24 12H20V16H24V12Z"/><path fill="#B3B8C7" d="M104 8H100V12H104V8Z"/><path fill="#B3B8C7" d="M28 8H24V12H28V8Z"/><path fill="#B3B8C7" d="M96 4H92V8H96V4Z"/><path fill="#B3B8C7" d="M36 4H32V8H36V4Z"/><path fill="#B3B8C7" d="M84 0H80V4H84V0Z"/><path fill="#B3B8C7" d="M48 0H44V4H48V0Z"/></g></g></g><defs><clipPath id="clip0_216_23463"><rect width="128" height="128" fill="#fff"/></clipPath><clipPath id="clip1_216_23463"><rect width="128" height="128" fill="#fff"/></clipPath></defs></svg>