<svg xmlns="http://www.w3.org/2000/svg" xmlns:xlink="http://www.w3.org/1999/xlink" width="512" height="512" version="1.1" viewBox="0 0 512 512"><title>SVG/PUNDI AI/Pundi_AI_logo1104_Circular expansion</title><defs><circle id="path-1" cx="256" cy="256" r="256"/><linearGradient id="linearGradient-3" x1="-.173%" x2="99.827%" y1="49.908%" y2="50.123%"><stop offset="0%" stop-color="#FFF"/><stop offset="13%" stop-color="#FBFBFB"/><stop offset="43%" stop-color="#A0A6B7"/><stop offset="59%" stop-color="#A0A6B7"/><stop offset="86%" stop-color="#FBFBFB"/><stop offset="100%" stop-color="#FFF"/></linearGradient><linearGradient id="linearGradient-4" x1="48.434%" x2="80.756%" y1=".669%" y2="95.13%"><stop offset="0%" stop-color="#F2F2F2"/><stop offset="100%" stop-color="#ECECEC"/></linearGradient></defs><g id="PUNDI-AI/Pundi_AI_logo1104_Circular-expansion" fill="none" fill-rule="evenodd" stroke="none" stroke-width="1"><g id="Clipped"><mask id="mask-2" fill="#fff"><use xlink:href="#path-1"/></mask><use id="蒙版" fill="#FBFBFB" xlink:href="#path-1"/><g id="ai山峰" fill="#18263E" fill-rule="nonzero" mask="url(#mask-2)"><g transform="translate(161, 100)"><polygon id="路径" points="146.314 146 123.816 145.973 73.439 36.493 22.363 146 0 146 66.499 .027 80.365 0 80.365 .027"/><rect id="矩形" width="21.007" height="88.495" x="167.899" y="27.092"/><rect id="矩形" width="21.182" height="20.276" x="167.818" y="125.724"/></g></g><g id="line" fill-rule="nonzero" mask="url(#mask-2)"><g id="椭圆形" transform="translate(-94.9991, 234.8776)"><ellipse cx="350.997" cy="214.381" fill="url(#linearGradient-3)" rx="326.997" ry="214.381"/><ellipse cx="350.997" cy="259.356" fill="#FBFBFB" rx="350.997" ry="257.357"/></g></g><g id="tag" mask="url(#mask-2)"><g transform="translate(323, 0)"><path id="Fill-1" fill="#CCC" d="M9.34202547,0 C24.3011168,24.8401465 34.0355053,47.9788182 38.5451911,69.4155201 C44.947481,99.8515292 37.7754026,134.410571 47.5267205,141.187271 C63.3402472,151.408987 109.988134,145.783926 141.534026,158.626646 C162.985033,169.319509 178.807025,183.110462 189,200 L189,0 L9.34202547,0 Z" opacity=".15"/><path id="Fill-3" fill="url(#linearGradient-4)" d="M0,0 C15.7368465,22.7031575 25.9771245,43.8513313 30.7213319,63.4440265 C37.4567321,91.2620014 31.4234029,124.982184 41.682104,131.175888 C58.317701,140.518163 102.099545,133.243096 135.286092,144.981689 C157.852446,154.754528 175.75675,172.574978 189,198.443532 L189,0 L0,0 Z"/><polygon id="Fill-5" fill="#191919" points="57.784 73.267 51.726 79.297 66.481 93.983 72.539 87.953"/><polygon id="Fill-7" fill="#191919" points="78.661 106.106 93.416 120.792 99.474 114.762 84.719 100.076"/><polygon id="Fill-9" fill="#191919" points="70.091 97.637 76.21 91.546 82.334 97.641 76.214 103.732"/><polygon id="Fill-11" fill="#191919" points="78.661 87.953 84.719 93.983 99.474 79.297 93.416 73.267"/><polygon id="Fill-13" fill="#191919" points="51.726 114.762 57.784 120.792 72.539 106.106 66.481 100.076"/></g></g><g id="_图层_2-2" mask="url(#mask-2)"><g id="编组" transform="translate(65, 298)"><path id="形状" fill="#18263E" fill-rule="nonzero" d="M4.57586445,78 L0,78 L0,0 L34.5253804,0 C50.1061549,0 62.7798064,12.4258675 62.7798064,27.6989635 C62.7798064,42.9720595 50.1061549,55.397927 34.5253804,55.397927 L5.243361,55.397927 L5.243361,78 L4.57586445,78 Z M57.5276625,27.6989635 C57.5276625,15.2643082 47.2078147,5.1408292 34.5253804,5.1408292 L5.243361,5.1408292 L5.243361,50.24831 L34.5165975,50.24831 C47.1990318,50.24831 57.5188797,40.1336187 57.5188797,27.6901758 L57.5276625,27.6989635 Z"/><path id="路径" fill="#18263E" fill-rule="nonzero" d="M89.830982,47.2429022 L89.830982,0 L95.074343,0 L95.074343,47.2429022 C95.074343,61.364804 106.790664,72.8591708 121.194537,72.8591708 C135.598409,72.8591708 147.31473,61.364804 147.31473,47.2429022 L147.31473,0 L152.558091,0 L152.558091,47.2429022 C152.558091,64.2032447 138.487967,78 121.185754,78 C103.883541,78 89.8134163,64.2032447 89.8134163,47.2429022 L89.830982,47.2429022 Z"/><polygon id="路径" fill="#18263E" fill-rule="nonzero" points="188.84 78 184.264 78 184.264 0 189.183 0 189.385 .272 239.947 68.79 239.947 0 245.191 0 245.191 78 240.272 78 240.07 77.728 189.508 9.21 189.508 78"/><path id="形状" fill="#18263E" fill-rule="nonzero" d="M306.811272,78 L277.134025,78 L277.134025,0 L306.811272,0 C328.742047,0 346.588797,17.4963948 346.588797,39 C346.588797,60.5036052 328.742047,78 306.811272,78 L306.811272,78 Z M341.345436,39 C341.345436,20.3348355 325.85249,5.1408292 306.811272,5.1408292 L282.386169,5.1408292 L282.386169,72.8503831 L306.811272,72.8503831 C325.85249,72.8503831 341.345436,57.6651645 341.345436,38.9912123 L341.345436,39 Z"/><polygon id="路径" fill="#18263E" fill-rule="nonzero" points="380.333 78 375.757 78 375.757 0 381 0 381 78 380.333 78"/></g></g></g></g></svg>