<svg xmlns="http://www.w3.org/2000/svg" fill="none" viewBox="0 0 40 40"><path fill="url(#paint0_radial_701_33)" d="M20 40C31.0457 40 40 31.0457 40 20C40 8.95433 31.0457 0 20 0C8.95433 0 0 8.95433 0 20C0 31.0457 8.95433 40 20 40Z"/><g><path fill="#D6D9DF" fill-opacity=".25" d="M300 600c165.69 0 300-134.31 300-300S465.69 0 300 0 0 134.31 0 300s134.31 300 300 300z" transform="matrix(0.06666666666,0,0,0.06666666666,0,0)"/></g><g transform="matrix(0.3,0,0,0.3,11.601875,10.734375)"><path fill="#0B0E11" d="M50.8315 0V13.1375H32.0367L32.0367 21.1896L50.8315 21.1896V34.3271H18.795L18.7949 5.27455e-05L50.8315 0Z"/><rect width="14.621" height="32.037" x="32.037" y="42.379" fill="#00E98D" transform="rotate(90 32.0366 42.3792)"/></g><defs><radialGradient id="paint0_radial_701_33" cx="0" cy="0" r="1" gradientTransform="translate(13.0667 9.56667) rotate(54.1675) scale(33.1388)" gradientUnits="userSpaceOnUse"><stop offset=".231" stop-color="#fff"/><stop offset="1" stop-color="#D6D9DF"/></radialGradient></defs></svg>