<svg xmlns="http://www.w3.org/2000/svg" width="240" height="240" fill="none" viewBox="0 0 240 240"><g clip-path="url(#clip0_2_1317)"><circle cx="120" cy="120" r="120" fill="#2D8EFF"/><path fill="#fff" d="M59 68C59 63.5817 62.5817 60 67 60H172C176.418 60 180 63.5817 180 68V173C180 177.418 176.418 181 172 181H67C62.5817 181 59 177.418 59 173V68Z"/><rect width="56.388" height="16.447" x="108.34" y="148.107" fill="#2D8EFF"/><path fill="#2D8EFF" d="M94.243 164.553H71.9227V75.272H104.816C121.685 75.2722 135.359 88.9472 135.359 105.816C135.359 122.684 121.685 136.359 104.816 136.359H94.243V164.553ZM94.243 115.213H105.991C109.884 115.213 113.039 112.058 113.039 108.166V103.466C113.039 99.5736 109.884 96.4177 105.991 96.4175H94.243V115.213Z"/></g><defs><clipPath id="clip0_2_1317"><rect width="240" height="240" fill="#fff"/></clipPath></defs></svg>