<svg xmlns="http://www.w3.org/2000/svg" xmlns:svg="http://www.w3.org/2000/svg" id="svg1" width="266.667" height="266.667" preserveAspectRatio="xMidYMid meet" version="1.0" viewBox="0 0 200 200"><g id="layer1" style="fill:#c0e55c;fill-opacity:1"><rect style="fill:#c0e55c;fill-opacity:1;stroke-width:.75" id="rect1" width="200" height="200" x="0" y="0"/></g><g id="g1" fill="#000" stroke="none" transform="translate(0.000000,200.000000) scale(0.100000,-0.100000)"><path id="path1" d="M650 1391 l0 -120 236 -134 c229 -131 235 -136 213 -150 -13 -8 -120 -70 -236 -137 l-213 -122 0 -120 0 -120 33 20 c17 11 180 104 360 207 l328 187 -3 100 -3 100 -315 180 c-173 98 -334 190 -357 204 l-43 25 0 -120z"/></g></svg>