<svg xmlns="http://www.w3.org/2000/svg" width="1080" height="1080" fill="none" viewBox="0 0 1080 1080"><rect width="1080" height="1080" fill="#004EF5" style="fill:color(display-p3 0 .3059 .9608);fill-opacity:1"/><path fill="#fff" d="M431.663 572.4V567.338H426.6H361.8H356.738V572.4V669.6V674.663H361.8H426.6H431.663V669.6V572.4ZM486.338 669.6V674.663H491.4H596.498V729.338H269.663V674.663H297H302.063V669.6V410.4V405.338H297H269.663V350.663H402.098V405.338H361.8H356.738V410.4V507.6V512.663H361.8H426.6H431.663V507.6V280.8V275.738H426.6H399.263V221.062H651.304L680.738 250.497V345.6V350.663H685.8H780.904L810.338 380.096V505.504L779.42 536.42L775.841 540L779.42 543.58L810.338 574.496V699.904L780.904 729.338H685.8H680.738V734.4V829.504L651.304 858.938H399.263V804.263H426.6H431.663V799.2V758.903H486.338V799.2V804.263H491.4H621H626.063V799.2V572.4V567.338H621H491.4H486.338V572.4V669.6ZM621 350.663H626.063V345.6V280.8V275.738H621H491.4H486.338V280.8V345.6V350.663H491.4H621ZM621 512.663H626.063V507.6V434.903H680.738V505.504L649.82 536.42L646.241 540L649.82 543.58L680.738 574.496V669.6V674.663H685.8H750.6H755.663V669.6V572.4V567.338H750.6H720.296L692.959 540L720.296 512.663H750.6H755.663V507.6V410.4V405.338H750.6H491.4H486.338V410.4V507.6V512.663H491.4H621Z" style="fill:#fff;fill-opacity:1"/><path fill="url(#paint0_linear_2_20447)" d="M431.663 572.4V567.338H426.6H361.8H356.738V572.4V669.6V674.663H361.8H426.6H431.663V669.6V572.4ZM486.338 669.6V674.663H491.4H596.498V729.338H269.663V674.663H297H302.063V669.6V410.4V405.338H297H269.663V350.663H402.098V405.338H361.8H356.738V410.4V507.6V512.663H361.8H426.6H431.663V507.6V280.8V275.738H426.6H399.263V221.062H651.304L680.738 250.497V345.6V350.663H685.8H780.904L810.338 380.096V505.504L779.42 536.42L775.841 540L779.42 543.58L810.338 574.496V699.904L780.904 729.338H685.8H680.738V734.4V829.504L651.304 858.938H399.263V804.263H426.6H431.663V799.2V758.903H486.338V799.2V804.263H491.4H621H626.063V799.2V572.4V567.338H621H491.4H486.338V572.4V669.6ZM621 350.663H626.063V345.6V280.8V275.738H621H491.4H486.338V280.8V345.6V350.663H491.4H621ZM621 512.663H626.063V507.6V434.903H680.738V505.504L649.82 536.42L646.241 540L649.82 543.58L680.738 574.496V669.6V674.663H685.8H750.6H755.663V669.6V572.4V567.338H750.6H720.296L692.959 540L720.296 512.663H750.6H755.663V507.6V410.4V405.338H750.6H491.4H486.338V410.4V507.6V512.663H491.4H621Z"/><path stroke="url(#paint1_linear_2_20447)" stroke-width="10.125" d="M431.663 572.4V567.338H426.6H361.8H356.738V572.4V669.6V674.663H361.8H426.6H431.663V669.6V572.4ZM486.338 669.6V674.663H491.4H596.498V729.338H269.663V674.663H297H302.063V669.6V410.4V405.338H297H269.663V350.663H402.098V405.338H361.8H356.738V410.4V507.6V512.663H361.8H426.6H431.663V507.6V280.8V275.738H426.6H399.263V221.062H651.304L680.738 250.497V345.6V350.663H685.8H780.904L810.338 380.096V505.504L779.42 536.42L775.841 540L779.42 543.58L810.338 574.496V699.904L780.904 729.338H685.8H680.738V734.4V829.504L651.304 858.938H399.263V804.263H426.6H431.663V799.2V758.903H486.338V799.2V804.263H491.4H621H626.063V799.2V572.4V567.338H621H491.4H486.338V572.4V669.6ZM621 350.663H626.063V345.6V280.8V275.738H621H491.4H486.338V280.8V345.6V350.663H491.4H621ZM621 512.663H626.063V507.6V434.903H680.738V505.504L649.82 536.42L646.241 540L649.82 543.58L680.738 574.496V669.6V674.663H685.8H750.6H755.663V669.6V572.4V567.338H750.6H720.296L692.959 540L720.296 512.663H750.6H755.663V507.6V410.4V405.338H750.6H491.4H486.338V410.4V507.6V512.663H491.4H621Z"/><defs><linearGradient id="paint0_linear_2_20447" x1="540" x2="539.998" y1="49.091" y2="864" gradientUnits="userSpaceOnUse"><stop offset=".098" stop-color="#fff" stop-opacity="0" style="stop-color:none;stop-opacity:0"/><stop offset=".404" stop-color="#E7EEF9" style="stop-color:color(display-p3 .9059 .9333 .9765);stop-opacity:1"/><stop offset=".835" stop-color="#D0DDF0" style="stop-color:color(display-p3 .8157 .8667 .9412);stop-opacity:1"/></linearGradient><linearGradient id="paint1_linear_2_20447" x1="540" x2="540" y1="216" y2="864" gradientUnits="userSpaceOnUse"><stop offset=".12" stop-color="#fff" style="stop-color:white;stop-opacity:1"/><stop offset=".843" stop-color="#CDDEF2" style="stop-color:color(display-p3 .8039 .8706 .949);stop-opacity:1"/></linearGradient></defs></svg>