<svg xmlns="http://www.w3.org/2000/svg" xmlns:svg="http://www.w3.org/2000/svg" id="svg17" width="106.667" height="106.667" preserveAspectRatio="xMidYMid meet" version="1.0" viewBox="0 0 80 80"><g id="layer1" style="fill:#000;fill-opacity:1"><rect style="fill:#f8e85d;fill-opacity:1;stroke-width:.75" id="rect17" width="80" height="80" x="0" y="0"/></g><g id="g17" fill="#000" stroke="none" transform="translate(0.000000,80.000000) scale(0.100000,-0.100000)"><path id="path1" d="M282 651 c-30 -10 -70 -35 -91 -55 -20 -20 -44 -36 -52 -36 -35 0 -54 -55 -24 -66 10 -4 15 -21 15 -54 0 -70 23 -125 82 -193 98 -112 217 -140 348 -83 36 16 72 37 82 47 38 44 26 204 -24 308 -50 104 -223 172 -336 132z m172 -39 c102 -35 147 -97 176 -243 9 -49 3 -134 -12 -143 -1 -1 -30 -15 -63 -31 -117 -57 -232 -33 -318 68 -59 69 -79 118 -76 187 2 45 0 56 -14 58 -25 5 -21 22 6 22 14 0 39 16 62 40 44 45 110 71 160 63 17 -3 52 -12 79 -21z"/><path id="path2" d="M250 544 c0 -17 22 -14 28 4 2 7 -3 12 -12 12 -9 0 -16 -7 -16 -16z"/><path id="path3" d="M297 554 c-8 -8 1 -24 14 -24 5 0 9 7 9 15 0 15 -12 20 -23 9z"/><path id="path4" d="M337 554 c-8 -8 1 -24 14 -24 5 0 9 7 9 15 0 15 -12 20 -23 9z"/><path id="path5" d="M420 545 c0 -9 5 -15 11 -13 6 2 11 8 11 13 0 5 -5 11 -11 13 -6 2 -11 -4 -11 -13z"/><path id="path6" d="M210 505 c0 -9 5 -15 11 -13 6 2 11 8 11 13 0 5 -5 11 -11 13 -6 2 -11 -4 -11 -13z"/><path id="path7" d="M297 514 c-8 -8 1 -24 14 -24 5 0 9 7 9 15 0 15 -12 20 -23 9z"/><path id="path8" d="M337 514 c-8 -8 1 -24 14 -24 5 0 9 7 9 15 0 15 -12 20 -23 9z"/><path id="path9" d="M420 505 c0 -9 5 -15 11 -13 6 2 11 8 11 13 0 5 -5 11 -11 13 -6 2 -11 -4 -11 -13z"/><path id="path10" d="M497 504 c-8 -8 1 -24 14 -24 5 0 9 7 9 15 0 15 -12 20 -23 9z"/><path id="path11" d="M297 474 c-8 -8 1 -24 14 -24 5 0 9 7 9 15 0 15 -12 20 -23 9z"/><path id="path12" d="M380 465 c0 -9 5 -15 11 -13 6 2 11 8 11 13 0 5 -5 11 -11 13 -6 2 -11 -4 -11 -13z"/><path id="path13" d="M460 465 c0 -8 7 -15 15 -15 8 0 15 7 15 15 0 8 -7 15 -15 15 -8 0 -15 -7 -15 -15z"/><path id="path14" d="M337 434 c-8 -8 1 -24 14 -24 5 0 9 7 9 15 0 15 -12 20 -23 9z"/><path id="path15" d="M460 425 c0 -8 7 -15 15 -15 8 0 15 7 15 15 0 8 -7 15 -15 15 -8 0 -15 -7 -15 -15z"/><path id="path16" d="M547 434 c-8 -8 1 -24 14 -24 5 0 9 7 9 15 0 15 -12 20 -23 9z"/><path id="path17" d="M507 394 c-8 -8 1 -24 14 -24 5 0 9 7 9 15 0 15 -12 20 -23 9z"/></g></svg>