<svg xmlns="http://www.w3.org/2000/svg" width="48" height="50" fill="none" viewBox="0 0 48 50"><path fill="#000" stroke="#B8BFFB" stroke-width="1.287" d="M24 1.58362C36.8979 1.58362 47.3564 12.0679 47.3564 25.0045C47.3564 37.9411 36.8978 48.4254 24 48.4254C11.1022 48.4254 0.643614 37.9411 0.643555 25.0045C0.643555 12.0679 11.1021 1.58362 24 1.58362Z"/><rect width="1.285" height="4.755" x="12.981" y="31.974" fill="#B8BFFB" fill-opacity=".6" rx=".643"/><rect width="1.285" height="4.755" x="15.166" y="31.974" fill="#B8BFFB" fill-opacity=".6" rx=".643"/><rect width="1.302" height="14.245" x="17.351" y="22.485" fill="#B8BFFB" fill-opacity=".6" rx=".651"/><rect width="1.285" height="4.755" x="17.351" y="37.63" fill="#B8BFFB" fill-opacity=".6" rx=".643"/><rect width="1.302" height="14.245" x="19.52" y="22.485" fill="#B8BFFB" fill-opacity=".6" rx=".651"/><rect width="1.285" height="4.755" x="19.536" y="37.63" fill="#B8BFFB" fill-opacity=".6" rx=".643"/><rect width="1.285" height="4.755" x="21.721" y="31.974" fill="#B8BFFB" fill-opacity=".6" rx=".643"/><rect width="1.285" height="4.755" x="21.721" y="22.464" fill="#B8BFFB" fill-opacity=".6" rx=".643"/><rect width="1.285" height="4.755" x="23.905" y="31.974" fill="#B8BFFB" fill-opacity=".6" rx=".643"/><rect width="1.285" height="4.755" x="23.905" y="22.464" fill="#B8BFFB" fill-opacity=".6" rx=".643"/><rect width="1.285" height="4.755" x="26.09" y="7.298" fill="#B8BFFB" fill-opacity=".6" rx=".643"/><rect width="1.285" height="4.755" x="26.09" y="37.63" fill="#B8BFFB" fill-opacity=".6" rx=".643"/><rect width="1.285" height="4.755" x="26.09" y="12.953" fill="#B8BFFB" fill-opacity=".6" rx=".643"/><rect width="11.953" height="3.727" x="13.11" y="12.953" fill="#B8BFFB" rx=".643"/><rect width="13.11" height="3.47" x="20.821" y="8.326" fill="#B8BFFB" rx=".643" transform="rotate(90 20.821 8.3259)"/><rect width="1.285" height="4.755" x="26.09" y="31.974" fill="#B8BFFB" fill-opacity=".6" rx=".643"/><rect width="1.285" height="4.755" x="26.09" y="22.464" fill="#B8BFFB" fill-opacity=".6" rx=".643"/><rect width="1.285" height="5.655" x="28.275" y="12.953" fill="#B8BFFB" fill-opacity=".6" rx=".643"/><rect width="1.285" height="5.655" x="28.275" y="31.075" fill="#B8BFFB" fill-opacity=".6" rx=".643"/><rect width="1.285" height="4.755" x="28.275" y="7.298" fill="#B8BFFB" fill-opacity=".6" rx=".643"/><rect width="1.285" height="4.755" x="28.275" y="37.63" fill="#B8BFFB" fill-opacity=".6" rx=".643"/><rect width="1.285" height="6.555" x="28.275" y="21.564" fill="#B8BFFB" fill-opacity=".6" rx=".643"/><rect width="1.285" height="23.777" x="30.46" y="12.953" fill="#B8BFFB" fill-opacity=".6" rx=".643"/><rect width="1.285" height="19.022" x="32.645" y="15.331" fill="#B8BFFB" fill-opacity=".6" rx=".643"/><rect width="1.285" height="4.755" x="34.83" y="17.708" fill="#B8BFFB" fill-opacity=".6" rx=".643"/><rect width="1.285" height="4.755" x="34.83" y="27.219" fill="#B8BFFB" fill-opacity=".6" rx=".643"/></svg>