<svg xmlns="http://www.w3.org/2000/svg" width="85" height="85" fill="none" viewBox="0 0 85 85"><circle cx="42.249" cy="42.249" r="42.249" fill="#141414"/><path fill="url(#paint0_linear_13654_7277)" d="M72.25 52.9995V70.7995H56.85H48.95L33.45 50.7995L33.25 70.7995H12.25V52.8995L21.45 43.6995V43.5995H36.65L52.05 64.2995V43.5995H62.95V43.6995L72.25 52.9995Z"/><path fill="url(#paint1_linear_13654_7277)" d="M72.2492 13.6995V34.3995L62.95 43.6995V43.5995L42.4492 22.9995L51.6492 13.6995H72.2492Z"/><path fill="url(#paint2_linear_13654_7277)" d="M42.4492 22.9995L21.45 43.5995V43.6995L12.25 34.3995V13.6995H33.25L42.4492 22.9995Z"/><defs><linearGradient id="paint0_linear_13654_7277" x1="42.25" x2="42.25" y1="77.542" y2="-37.74" gradientUnits="userSpaceOnUse"><stop stop-color="#6C92C2"/><stop offset=".015" stop-color="#7095C5"/><stop offset=".119" stop-color="#87A9D4"/><stop offset=".239" stop-color="#99B8DF"/><stop offset=".383" stop-color="#A6C2E8"/><stop offset=".574" stop-color="#ADC8ED"/><stop offset="1" stop-color="#AFCAEE"/></linearGradient><linearGradient id="paint1_linear_13654_7277" x1="42.27" x2="42.27" y1="120.407" y2="15.744" gradientUnits="userSpaceOnUse"><stop stop-color="#6C92C2"/><stop offset=".421" stop-color="#90B0D9"/><stop offset=".777" stop-color="#A7C3E8"/><stop offset="1" stop-color="#AFCAEE"/></linearGradient><linearGradient id="paint2_linear_13654_7277" x1="42.181" x2="42.181" y1="118.21" y2="17.208" gradientUnits="userSpaceOnUse"><stop stop-color="#6C92C2"/><stop offset=".321" stop-color="#88AAD5"/><stop offset=".707" stop-color="#A4C1E7"/><stop offset=".93" stop-color="#AFCAEE"/></linearGradient></defs></svg>