<svg xmlns="http://www.w3.org/2000/svg" xmlns:svg="http://www.w3.org/2000/svg" id="svg13" width="24.944" height="25.076" fill="none" version="1.1" viewBox="0 0 24.944 25.076"><rect style="fill:#041512;fill-opacity:1;stroke-width:1.00057" id="rect14" width="25.024" height="25.024" x="0" y="0"/><g id="g4" clip-path="url(#clip0_417_39703)" transform="translate(0.51163256,0.51309813)"><path id="path1" fill="#e0d1aa" d="m 23.7661,14.6696 c -0.0994,0.4356 -0.2217,0.8623 -0.3675,1.2775 H 18.3392 L 14.3573,11.9898 H 9.6366 L 5.65773,15.9471 H 0.601386 C 0.455596,15.5319 0.332585,15.1052 0.233873,14.6696 H 2.2104 L 6.18926,10.713 H 17.8047 l 3.9849,3.9566 z"/><path id="path2" fill="#e0d1aa" d="m 21.4046,19.5202 c -0.1048,0.1306 -0.2133,0.2582 -0.3242,0.3835 H 16.2951 L 13.5972,17.221 H 10.3974 L 7.69956,19.9037 H 2.91733 C 2.80647,19.7791 2.69864,19.6515 2.5931,19.5201 L 6.18698,15.9464 H 17.8047 Z"/><path id="path3" fill="#e0d1aa" d="M 24,10.7122 H 18.3392 L 14.3573,6.75564 H 9.6366 L 5.65773,10.7122 H 0 C 0.648465,4.69127 5.77164,-5.44402e-7 11.9989,0 18.2261,5.44402e-7 23.3515,4.69127 24,10.7122 Z"/><path id="path4" fill="#e0d1aa" d="M 18.2891,22.2437 C 16.4561,23.3582 14.3042,24 11.9981,24 9.69203,24 7.5401,23.3582 5.70937,22.2437 l 2.35315,-2.34 h 7.87118 z"/></g><defs id="defs13"><clipPath id="clip0_417_39703"><rect id="rect13" width="24" height="24" x="0" y="0" fill="#fff" rx="12"/></clipPath></defs></svg>