<svg xmlns="http://www.w3.org/2000/svg" fill="none" viewBox="0 0 16 16"><rect width="2" height="2" x="2" y="2" fill="currentColor"/><rect width="2" height="2" x="6" y="5" fill="currentColor"/><rect width="2" height="2" x="4" y="4" fill="currentColor"/><rect width="2" height="2" x="4" y="3" fill="currentColor"/><rect width="2" height="2" x="6" y="7" fill="currentColor"/><rect width="2" height="2" fill="currentColor" transform="matrix(-1 0 0 1 14 2)"/><rect width="2" height="2" fill="currentColor" transform="matrix(-1 0 0 1 10 5)"/><rect width="2" height="2" fill="currentColor" transform="matrix(-1 0 0 1 12 4)"/><rect width="2" height="2" fill="currentColor" transform="matrix(-1 0 0 1 12 3)"/><rect width="2" height="2" fill="currentColor" transform="matrix(-1 0 0 1 10 7)"/><rect width="2" height="2" fill="currentColor" transform="matrix(1 0 0 -1 2 14)"/><rect width="2" height="2" fill="currentColor" transform="matrix(1 0 0 -1 6 11)"/><rect width="2" height="2" fill="currentColor" transform="matrix(1 0 0 -1 4 12)"/><rect width="2" height="2" fill="currentColor" transform="matrix(1 0 0 -1 4 13)"/><rect width="2" height="2" fill="currentColor" transform="matrix(1 0 0 -1 6 9)"/><rect width="2" height="2" x="14" y="14" fill="currentColor" transform="rotate(180 14 14)"/><rect width="2" height="2" x="10" y="11" fill="currentColor" transform="rotate(180 10 11)"/><rect width="2" height="2" x="12" y="12" fill="currentColor" transform="rotate(180 12 12)"/><rect width="2" height="2" x="12" y="13" fill="currentColor" transform="rotate(180 12 13)"/><rect width="2" height="2" x="10" y="9" fill="currentColor" transform="rotate(180 10 9)"/></svg>