<svg xmlns="http://www.w3.org/2000/svg" fill="none" viewBox="0 0 24 24"><rect width="3.692" height="3.692" fill="#EBEBEB" transform="matrix(1 0 0 -1 8.38464 6.69238)"/><rect width="3.692" height="3.692" fill="#EBEBEB" transform="matrix(1 0 0 -1 1 11.001)"/><rect width="3.692" height="3.692" fill="#EBEBEB" transform="matrix(1 0 0 -1 3.46155 8.53906)"/><rect width="3.692" height="3.692" fill="#EBEBEB" transform="matrix(1 0 0 -1 5.9231 7.30859)"/><rect width="3.692" height="3.692" fill="#EBEBEB" transform="matrix(1 0 0 -1 14.5385 7.30859)"/><rect width="3.692" height="3.692" fill="#EBEBEB" transform="matrix(1 0 0 -1 17 8.53906)"/><rect width="3.692" height="3.692" fill="#EBEBEB" transform="matrix(1 0 0 -1 1 12.8467)"/><rect width="3.692" height="3.692" x="15.769" y="6.692" fill="#EBEBEB" transform="rotate(-180 15.7693 6.69238)"/><rect width="3.692" height="3.692" x="23.154" y="11.001" fill="#EBEBEB" transform="rotate(-180 23.1538 11.001)"/><rect width="3.692" height="3.692" x="23.154" y="12.847" fill="#EBEBEB" transform="rotate(-180 23.1538 12.8467)"/></svg>