<svg xmlns="http://www.w3.org/2000/svg" fill="none" viewBox="0 0 24 24"><rect width="3" height="3" x="6" y="4.5" fill="currentColor"/><rect width="3" height="3" x="6" y="7.5" fill="currentColor"/><rect width="3" height="3" x="7.5" y="6" fill="currentColor"/><rect width="3" height="3" x="4.5" y="6" fill="currentColor"/><rect width="3" height="3" x="6" y="13.5" fill="currentColor"/><rect width="3" height="3" x="6" y="16.5" fill="currentColor"/><rect width="3" height="3" x="7.5" y="15" fill="currentColor"/><rect width="3" height="3" x="4.5" y="15" fill="currentColor"/><rect width="3" height="3" x="15" y="4.5" fill="currentColor"/><rect width="3" height="3" x="15" y="7.5" fill="currentColor"/><rect width="3" height="3" x="16.5" y="6" fill="currentColor"/><rect width="3" height="3" x="13.5" y="6" fill="currentColor"/><rect width="3" height="3" x="15" y="13.5" fill="currentColor"/><rect width="3" height="3" x="15" y="16.5" fill="currentColor"/><rect width="3" height="3" x="16.5" y="15" fill="currentColor"/><rect width="3" height="3" x="13.5" y="15" fill="currentColor"/></svg>