<svg xmlns="http://www.w3.org/2000/svg" width="96" height="72" fill="none" viewBox="0 0 96 72"><rect width="95" height="71" x=".5" y=".5" fill="#E6E6E6" rx="3.5"/><rect width="95" height="71" x=".5" y=".5" stroke="#DBD8D7" rx="3.5"/><rect width="3" height="3" x="18" y="25" fill="#123524"/><rect width="3" height="3" x="24" y="29.5" fill="#123524"/><rect width="3" height="3" x="21" y="28" fill="#123524"/><rect width="3" height="3" x="21" y="26.5" fill="#123524"/><rect width="3" height="3" x="24" y="32.5" fill="#123524"/><rect width="3" height="3" fill="#123524" transform="matrix(-1 0 0 1 36 25)"/><rect width="3" height="3" fill="#123524" transform="matrix(-1 0 0 1 30 29.5)"/><rect width="3" height="3" fill="#123524" transform="matrix(-1 0 0 1 33 28)"/><rect width="3" height="3" fill="#123524" transform="matrix(-1 0 0 1 33 26.5)"/><rect width="3" height="3" fill="#123524" transform="matrix(-1 0 0 1 30 32.5)"/><rect width="3" height="3" fill="#123524" transform="matrix(1 0 0 -1 18 43)"/><rect width="3" height="3" fill="#123524" transform="matrix(1 0 0 -1 24 38.5)"/><rect width="3" height="3" fill="#123524" transform="matrix(1 0 0 -1 21 40)"/><rect width="3" height="3" fill="#123524" transform="matrix(1 0 0 -1 21 41.5)"/><rect width="3" height="3" fill="#123524" transform="matrix(1 0 0 -1 24 35.5)"/><rect width="3" height="3" x="36" y="43" fill="#123524" transform="rotate(180 36 43)"/><rect width="3" height="3" x="30" y="38.5" fill="#123524" transform="rotate(180 30 38.5)"/><rect width="3" height="3" x="33" y="40" fill="#123524" transform="rotate(180 33 40)"/><rect width="3" height="3" x="33" y="41.5" fill="#123524" transform="rotate(180 33 41.5)"/><rect width="3" height="3" x="30" y="35.5" fill="#123524" transform="rotate(180 30 35.5)"/><rect width="3" height="3" x="60" y="25" fill="#123524"/><rect width="3" height="3" x="66" y="29.5" fill="#123524"/><rect width="3" height="3" x="63" y="28" fill="#123524"/><rect width="3" height="3" x="63" y="26.5" fill="#123524"/><rect width="3" height="3" x="66" y="32.5" fill="#123524"/><rect width="3" height="3" fill="#123524" transform="matrix(-1 0 0 1 78 25)"/><rect width="3" height="3" fill="#123524" transform="matrix(-1 0 0 1 72 29.5)"/><rect width="3" height="3" fill="#123524" transform="matrix(-1 0 0 1 75 28)"/><rect width="3" height="3" fill="#123524" transform="matrix(-1 0 0 1 75 26.5)"/><rect width="3" height="3" fill="#123524" transform="matrix(-1 0 0 1 72 32.5)"/><rect width="3" height="3" fill="#123524" transform="matrix(1 0 0 -1 60 43)"/><rect width="3" height="3" fill="#123524" transform="matrix(1 0 0 -1 66 38.5)"/><rect width="3" height="3" fill="#123524" transform="matrix(1 0 0 -1 63 40)"/><rect width="3" height="3" fill="#123524" transform="matrix(1 0 0 -1 63 41.5)"/><rect width="3" height="3" fill="#123524" transform="matrix(1 0 0 -1 66 35.5)"/><rect width="3" height="3" x="78" y="43" fill="#123524" transform="rotate(180 78 43)"/><rect width="3" height="3" x="72" y="38.5" fill="#123524" transform="rotate(180 72 38.5)"/><rect width="3" height="3" x="75" y="40" fill="#123524" transform="rotate(180 75 40)"/><rect width="3" height="3" x="75" y="41.5" fill="#123524" transform="rotate(180 75 41.5)"/><rect width="3" height="3" x="72" y="35.5" fill="#123524" transform="rotate(180 72 35.5)"/><rect width="3" height="3" fill="#123524" transform="matrix(1 0 0 -1 36 62.5)"/><rect width="3" height="3" fill="#123524" transform="matrix(1 0 0 -1 39 59.5)"/><rect width="3" height="3" fill="#123524" transform="matrix(1 0 0 -1 39 61)"/><rect width="3" height="3" x="60" y="62.5" fill="#123524" transform="rotate(180 60 62.5)"/><rect width="12" height="3" x="54" y="59.5" fill="#123524" transform="rotate(180 54 59.5)"/><rect width="3" height="3" x="57" y="59.5" fill="#123524" transform="rotate(180 57 59.5)"/><rect width="3" height="3" x="57" y="61" fill="#123524" transform="rotate(180 57 61)"/></svg>