<svg xmlns="http://www.w3.org/2000/svg" xmlns:xlink="http://www.w3.org/1999/xlink" id="a" data-name="Layer 1" viewBox="0 0 44.05 32"><defs><style>.hy{fill:none}.hy,.hz,.ia,.ib,.ic,.id{stroke-width:0}.ie{clip-path:url(#j)}.if{clip-path:url(#e)}.ig{clip-path:url(#b)}.hz{fill:#2775ca}.ia{fill:#30354b}.ib{fill:#fc0}.ic{fill:#fff}.id{fill:#039}</style><clipPath id="b"><circle cx="16" cy="16" r="16" class="hy"/></clipPath><clipPath id="e"><path d="m27.31,4.68c6.25,6.25,6.25,16.38,0,22.63-6.25,6.25-16.38,6.25-22.63,0L27.31,4.68Z" class="hy"/></clipPath><clipPath id="j"><circle cx="16" cy="16" r="13.33" class="hy"/></clipPath></defs><g class="ig"><g><g><g id="c" data-name="Path 243"><path d="m16.36,36.76c11.12,0,20.13-9.01,20.13-20.13S27.48-3.49,16.36-3.49-3.76,5.52-3.76,16.64c-.03,11.09,8.94,20.1,20.03,20.13.03,0,.06,0,.1,0Z" class="hz"/></g><g id="d" data-name="Path 244"><path d="m21.9,19.61c0-2.94-1.76-3.94-5.28-4.36-2.52-.34-3.02-1.01-3.02-2.18s.84-1.93,2.52-1.93c1.51,0,2.35.5,2.77,1.76.09.25.32.42.59.42h1.34c.32,0,.58-.24.59-.56,0,0,0-.02,0-.03v-.08c-.33-1.87-1.88-3.28-3.77-3.44v-2.01c0-.34-.25-.59-.67-.67h-1.26c-.34,0-.59.25-.67.67v1.93c-2.52.34-4.11,2.01-4.11,4.11,0,2.77,1.68,3.86,5.2,4.28,2.35.42,3.1.92,3.1,2.26s-1.17,2.26-2.77,2.26c-2.18,0-2.94-.92-3.19-2.18-.05-.29-.3-.5-.59-.5h-1.43c-.32,0-.58.24-.59.56,0,0,0,.02,0,.03v.08c.34,2.1,1.68,3.61,4.44,4.03v2.01c0,.34.25.59.67.67h1.26c.34,0,.59-.25.67-.67v-2.01c2.52-.42,4.19-2.18,4.19-4.45Z" class="ic"/></g></g><g class="if"><g><g id="f" data-name="Group 1834"><g id="g" data-name="Group 1830"><g id="h" data-name="Ellipse 83"><circle cx="16" cy="16" r="16" class="ib"/></g><g id="i" data-name="Ellipse 83 - Outline"><path d="m16,1.33c-8.1,0-14.67,6.57-14.67,14.67,0,8.1,6.57,14.67,14.67,14.67,8.1,0,14.67-6.57,14.67-14.67,0-3.89-1.55-7.62-4.3-10.37-2.75-2.75-6.48-4.3-10.37-4.3m0-1.33c8.84,0,16,7.16,16,16s-7.16,16-16,16S0,24.84,0,16,7.16,0,16,0Z" class="id"/></g></g></g><g class="ie"><g id="k" data-name="Mask Group 41"><g id="l" data-name="Flag of Europe"><g id="m" data-name="Rectangle 876"><rect width="45.57" height="30.38" x="-6.83" y=".66" class="id"/></g></g></g></g><g id="n" data-name="Group 4743"><g id="o" data-name="l"><g id="p" data-name="Group 4483"><g id="q" data-name="c"><g id="r" data-name="t"><path d="m6.7,14.31l-.48,1.47.74.24-.26-1.71Z" class="ib"/></g><g id="s" data-name="Path 2943"><path d="m6.7,14.31l.48,1.47-.74.24.26-1.71Z" class="ib"/></g></g><g id="t" data-name="a"><g id="u" data-name="Group 4478"><g id="v" data-name="t-2"><path d="m8.17,15.38h-1.55v.77l1.55-.77Z" class="ib"/></g><g id="w" data-name="Path 2944"><path d="m8.17,15.38l-1.25.91-.46-.63,1.71-.28Z" class="ib"/></g></g><g id="x" data-name="Group 4479"><g id="y" data-name="t-3"><path d="m7.61,17.11l-.48-1.47-.74.24,1.22,1.24Z" class="ib"/></g><g id="z" data-name="Path 2945"><path d="m7.61,17.11l-1.25-.91.46-.63.8,1.54Z" class="ib"/></g></g></g><g id="aa" data-name="Group 4482"><g id="ab" data-name="Group 4480"><g id="ac" data-name="t-4"><path d="m5.22,15.38h1.55v.77l-1.55-.77Z" class="ib"/></g><g id="ad" data-name="Path 2946"><path d="m5.22,15.38l1.25.91.46-.63-1.71-.28Z" class="ib"/></g></g><g id="ae" data-name="Group 4481"><g id="af" data-name="t-5"><path d="m5.79,17.11l.48-1.47.74.24-1.22,1.24Z" class="ib"/></g><g id="ag" data-name="Path 2947"><path d="m5.79,17.11l1.25-.91-.46-.63-.8,1.54Z" class="ib"/></g></g></g></g><g id="ah" data-name="Group 4489"><g id="ai" data-name="c-2"><g id="aj" data-name="t-6"><path d="m10.44,9.06l1.25-.91-.46-.63-.8,1.54Z" class="ib"/></g><g id="ak" data-name="Path 2948"><path d="m10.44,9.06l.48-1.47.74.24-1.22,1.24Z" class="ib"/></g></g><g id="al" data-name="a-2"><g id="am" data-name="Group 4484"><g id="an" data-name="t-7"><path d="m9.88,7.32l1.25.91.46-.63-1.71-.29Z" class="ib"/></g><g id="ao" data-name="Path 2949"><path d="m9.88,7.32h1.55s0,.78,0,.78l-1.55-.78Z" class="ib"/></g></g><g id="ap" data-name="Group 4485"><g id="aq" data-name="t-8"><path d="m11.35,6.25l-.48,1.48.74.24-.26-1.71Z" class="ib"/></g><g id="ar" data-name="Path 2950"><path d="m11.35,6.25l.48,1.48-.74.24.26-1.71Z" class="ib"/></g></g></g><g id="as" data-name="Group 4488"><g id="at" data-name="Group 4486"><g id="au" data-name="t-9"><path d="m12.26,9.06l-1.25-.91.46-.63.8,1.54Z" class="ib"/></g><g id="av" data-name="Path 2951"><path d="m12.26,9.06l-.48-1.47-.74.24,1.22,1.24Z" class="ib"/></g></g><g id="aw" data-name="Group 4487"><g id="ax" data-name="t-10"><path d="m12.83,7.32l-1.26.91-.46-.63,1.71-.28Z" class="ib"/></g><g id="ay" data-name="Path 2952"><path d="m12.82,7.32h-1.55s0,.77,0,.77l1.55-.77Z" class="ib"/></g></g></g></g><g id="az" data-name="Group 4495"><g id="ba" data-name="c-3"><g id="bb" data-name="t-11"><path d="m8.86,12.46l-.48-1.47-.74.24,1.22,1.24Z" class="ib"/></g><g id="bc" data-name="Path 2953"><path d="m8.86,12.46l-1.25-.91.46-.63.8,1.54Z" class="ib"/></g></g><g id="bd" data-name="a-3"><g id="be" data-name="Group 4490"><g id="bf" data-name="t-12"><path d="m7.03,12.46l1.25-.91-.46-.63-.8,1.54Z" class="ib"/></g><g id="bg" data-name="Path 2954"><path d="m7.03,12.46l.48-1.47.74.24-1.22,1.24Z" class="ib"/></g></g><g id="bh" data-name="Group 4491"><g id="bi" data-name="t-13"><path d="m6.47,10.73l1.26.91.46-.63-1.71-.28Z" class="ib"/></g><g id="bj" data-name="Path 2955"><path d="m6.47,10.73h1.55s0,.77,0,.77l-1.55-.77Z" class="ib"/></g></g></g><g id="bk" data-name="Group 4494"><g id="bl" data-name="Group 4492"><g id="bm" data-name="t-14"><path d="m9.42,10.73l-1.25.91-.46-.63,1.71-.29Z" class="ib"/></g><g id="bn" data-name="Path 2956"><path d="m9.42,10.73h-1.55s0,.78,0,.78l1.55-.78Z" class="ib"/></g></g><g id="bo" data-name="Group 4493"><g id="bp" data-name="t-15"><path d="m7.95,9.66l.48,1.48-.74.24.26-1.71Z" class="ib"/></g><g id="bq" data-name="Path 2957"><path d="m7.95,9.66l-.48,1.48.74.24-.26-1.71Z" class="ib"/></g></g></g></g><g id="br" data-name="Group 4501"><g id="bs" data-name="c-4"><g id="bt" data-name="t-16"><path d="m9.42,20.03h-1.55v.77l1.55-.77Z" class="ib"/></g><g id="bu" data-name="Path 2958"><path d="m9.42,20.03l-1.25.91-.46-.63,1.71-.28Z" class="ib"/></g></g><g id="bv" data-name="a-4"><g id="bw" data-name="Group 4496"><g id="bx" data-name="t-17"><path d="m8.86,21.76l-.48-1.47-.74.24,1.22,1.24Z" class="ib"/></g><g id="by" data-name="Path 2959"><path d="m8.86,21.76l-1.25-.91.46-.63.8,1.54Z" class="ib"/></g></g><g id="bz" data-name="Group 4497"><g id="ca" data-name="t-18"><path d="m7.03,21.76l1.25-.91-.46-.63-.8,1.54Z" class="ib"/></g><g id="cb" data-name="Path 2960"><path d="m7.03,21.76l.48-1.47.74.24-1.22,1.24Z" class="ib"/></g></g></g><g id="cc" data-name="Group 4500"><g id="cd" data-name="Group 4498"><g id="ce" data-name="t-19"><path d="m7.94,18.95l.48,1.47-.74.24.26-1.71Z" class="ib"/></g><g id="cf" data-name="Path 2961"><path d="m7.94,18.96l-.48,1.47.74.24-.26-1.71Z" class="ib"/></g></g><g id="cg" data-name="Group 4499"><g id="ch" data-name="t-20"><path d="m6.47,20.03h1.55s0,.78,0,.78l-1.55-.78Z" class="ib"/></g><g id="ci" data-name="Path 2962"><path d="m6.47,20.03l1.25.91.46-.63-1.71-.29Z" class="ib"/></g></g></g></g><g id="cj" data-name="Group 4507"><g id="ck" data-name="c-5"><g id="cl" data-name="t-21"><path d="m12.82,23.43h-1.55v.77l1.55-.77Z" class="ib"/></g><g id="cm" data-name="Path 2963"><path d="m12.82,23.43l-1.25.91-.46-.63,1.71-.28Z" class="ib"/></g></g><g id="cn" data-name="a-5"><g id="co" data-name="Group 4502"><g id="cp" data-name="t-22"><path d="m12.26,25.16l-.48-1.47-.74.24,1.22,1.24Z" class="ib"/></g><g id="cq" data-name="Path 2964"><path d="m12.26,25.16l-1.25-.91.46-.63.8,1.54Z" class="ib"/></g></g><g id="cr" data-name="Group 4503"><g id="cs" data-name="t-23"><path d="m10.44,25.16l1.25-.91-.46-.63-.8,1.54Z" class="ib"/></g><g id="ct" data-name="Path 2965"><path d="m10.44,25.16l.48-1.47.74.24-1.22,1.24Z" class="ib"/></g></g></g><g id="cu" data-name="Group 4506"><g id="cv" data-name="Group 4504"><g id="cw" data-name="t-24"><path d="m11.35,22.36l.48,1.47-.74.24.26-1.71Z" class="ib"/></g><g id="cx" data-name="Path 2966"><path d="m11.35,22.36l-.48,1.47.74.24-.26-1.71Z" class="ib"/></g></g><g id="cy" data-name="Group 4505"><g id="cz" data-name="t-25"><path d="m9.87,23.43h1.55s0,.78,0,.78l-1.55-.78Z" class="ib"/></g><g id="da" data-name="Path 2967"><path d="m9.88,23.43l1.25.91.46-.63-1.71-.29Z" class="ib"/></g></g></g></g></g><g id="db" data-name="Group 4558"><g id="dc" data-name="Group 4513"><g id="dd" data-name="c-6"><g id="de" data-name="t-26"><path d="m25.3,14.3l.48,1.47-.74.24.26-1.71Z" class="ib"/></g><g id="df" data-name="Path 2968"><path d="m25.3,14.31l-.48,1.47.74.24-.26-1.71Z" class="ib"/></g></g><g id="dg" data-name="a-6"><g id="dh" data-name="Group 4508"><g id="di" data-name="t-27"><path d="m23.83,15.38h1.55v.77l-1.55-.77Z" class="ib"/></g><g id="dj" data-name="Path 2969"><path d="m23.83,15.38l1.25.91.46-.63-1.71-.28Z" class="ib"/></g></g><g id="dk" data-name="Group 4509"><g id="dl" data-name="t-28"><path d="m24.39,17.11l.48-1.47.74.24-1.22,1.24Z" class="ib"/></g><g id="dm" data-name="Path 2970"><path d="m24.39,17.11l1.25-.91-.46-.63-.8,1.54Z" class="ib"/></g></g></g><g id="dn" data-name="Group 4512"><g id="do" data-name="Group 4510"><g id="dp" data-name="t-29"><path d="m26.78,15.38h-1.55v.77l1.55-.77Z" class="ib"/></g><g id="dq" data-name="Path 2971"><path d="m26.78,15.38l-1.25.91-.46-.63,1.71-.28Z" class="ib"/></g></g><g id="dr" data-name="Group 4511"><g id="ds" data-name="t-30"><path d="m26.21,17.11l-.48-1.47-.74.24,1.22,1.24Z" class="ib"/></g><g id="dt" data-name="Path 2972"><path d="m26.21,17.11l-1.25-.91.46-.63.8,1.54Z" class="ib"/></g></g></g></g><g id="du" data-name="Group 4519"><g id="dv" data-name="c-7"><g id="dw" data-name="t-31"><path d="m21.56,9.06l-1.25-.91.46-.63.8,1.54Z" class="ib"/></g><g id="dx" data-name="Path 2973"><path d="m21.56,9.05l-.48-1.47-.74.24,1.22,1.24Z" class="ib"/></g></g><g id="dy" data-name="a-7"><g id="dz" data-name="Group 4514"><g id="ea" data-name="t-32"><path d="m22.13,7.32l-1.25.91-.46-.63,1.71-.29Z" class="ib"/></g><g id="eb" data-name="Path 2974"><path d="m22.12,7.32h-1.55s0,.78,0,.78l1.55-.78Z" class="ib"/></g></g><g id="ec" data-name="Group 4515"><g id="ed" data-name="t-33"><path d="m20.65,6.25l.48,1.48-.74.24.26-1.71Z" class="ib"/></g><g id="ee" data-name="Path 2975"><path d="m20.65,6.25l-.48,1.48.74.24-.26-1.71Z" class="ib"/></g></g></g><g id="ef" data-name="Group 4518"><g id="eg" data-name="Group 4516"><g id="eh" data-name="t-34"><path d="m19.74,9.06l1.25-.91-.46-.63-.8,1.54Z" class="ib"/></g><g id="ei" data-name="Path 2976"><path d="m19.74,9.06l.48-1.47.74.24-1.22,1.24Z" class="ib"/></g></g><g id="ej" data-name="Group 4517"><g id="ek" data-name="t-35"><path d="m19.18,7.32l1.26.91.46-.63-1.71-.28Z" class="ib"/></g><g id="el" data-name="Path 2977"><path d="m19.18,7.32h1.55s0,.77,0,.77l-1.55-.77Z" class="ib"/></g></g></g></g><g id="em" data-name="Group 4525"><g id="en" data-name="c-8"><g id="eo" data-name="t-36"><path d="m23.14,12.46l.48-1.47.74.24-1.22,1.24Z" class="ib"/></g><g id="ep" data-name="Path 2978"><path d="m23.14,12.46l1.25-.91-.46-.63-.8,1.54Z" class="ib"/></g></g><g id="eq" data-name="a-8"><g id="er" data-name="Group 4520"><g id="es" data-name="t-37"><path d="m24.97,12.46l-1.25-.91.46-.63.8,1.54Z" class="ib"/></g><g id="et" data-name="Path 2979"><path d="m24.97,12.46l-.48-1.47-.74.24,1.22,1.24Z" class="ib"/></g></g><g id="eu" data-name="Group 4521"><g id="ev" data-name="t-38"><path d="m25.53,10.73l-1.26.91-.46-.63,1.71-.28Z" class="ib"/></g><g id="ew" data-name="Path 2980"><path d="m25.53,10.73h-1.55s0,.77,0,.77l1.55-.77Z" class="ib"/></g></g></g><g id="ex" data-name="Group 4524"><g id="ey" data-name="Group 4522"><g id="ez" data-name="t-39"><path d="m22.58,10.73l1.25.91.46-.63-1.71-.29Z" class="ib"/></g><g id="fa" data-name="Path 2981"><path d="m22.58,10.73h1.55s0,.78,0,.78l-1.55-.78Z" class="ib"/></g></g><g id="fb" data-name="Group 4523"><g id="fc" data-name="t-40"><path d="m24.06,9.65l-.48,1.48.74.24-.26-1.71Z" class="ib"/></g><g id="fd" data-name="Path 2982"><path d="m24.06,9.65l.48,1.48-.74.24.26-1.71Z" class="ib"/></g></g></g></g><g id="fe" data-name="Group 4531"><g id="ff" data-name="c-9"><g id="fg" data-name="t-41"><path d="m22.58,20.03h1.55v.77l-1.55-.77Z" class="ib"/></g><g id="fh" data-name="Path 2983"><path d="m22.58,20.03l1.25.91.46-.63-1.71-.28Z" class="ib"/></g></g><g id="fi" data-name="a-9"><g id="fj" data-name="Group 4526"><g id="fk" data-name="t-42"><path d="m23.14,21.76l.48-1.47.74.24-1.22,1.24Z" class="ib"/></g><g id="fl" data-name="Path 2984"><path d="m23.15,21.76l1.25-.91-.46-.63-.8,1.54Z" class="ib"/></g></g><g id="fm" data-name="Group 4527"><g id="fn" data-name="t-43"><path d="m24.97,21.76l-1.25-.91.46-.63.8,1.54Z" class="ib"/></g><g id="fo" data-name="Path 2985"><path d="m24.97,21.76l-.48-1.47-.74.24,1.22,1.24Z" class="ib"/></g></g></g><g id="fp" data-name="Group 4530"><g id="fq" data-name="Group 4528"><g id="fr" data-name="t-44"><path d="m24.06,18.96l-.48,1.47.74.24-.26-1.71Z" class="ib"/></g><g id="fs" data-name="Path 2986"><path d="m24.06,18.96l.48,1.47-.74.24.26-1.71Z" class="ib"/></g></g><g id="ft" data-name="Group 4529"><g id="fu" data-name="t-45"><path d="m25.53,20.03h-1.55s0,.78,0,.78l1.55-.78Z" class="ib"/></g><g id="fv" data-name="Path 2987"><path d="m25.53,20.03l-1.25.91-.46-.63,1.71-.29Z" class="ib"/></g></g></g></g><g id="fw" data-name="Group 4537"><g id="fx" data-name="c-10"><g id="fy" data-name="t-46"><path d="m19.18,23.43h1.55v.77l-1.55-.77Z" class="ib"/></g><g id="fz" data-name="Path 2988"><path d="m19.18,23.43l1.25.91.46-.63-1.71-.28Z" class="ib"/></g></g><g id="ga" data-name="a-10"><g id="gb" data-name="Group 4532"><g id="gc" data-name="t-47"><path d="m19.74,25.16l.48-1.47.74.24-1.22,1.24Z" class="ib"/></g><g id="gd" data-name="Path 2989"><path d="m19.74,25.16l1.25-.91-.46-.63-.8,1.54Z" class="ib"/></g></g><g id="ge" data-name="Group 4533"><g id="gf" data-name="t-48"><path d="m21.56,25.16l-1.25-.91.46-.63.8,1.54Z" class="ib"/></g><g id="gg" data-name="Path 2990"><path d="m21.56,25.16l-.48-1.47-.74.24,1.22,1.24Z" class="ib"/></g></g></g><g id="gh" data-name="Group 4536"><g id="gi" data-name="Group 4534"><g id="gj" data-name="t-49"><path d="m20.65,22.36l-.48,1.47.74.24-.26-1.71Z" class="ib"/></g><g id="gk" data-name="Path 2991"><path d="m20.65,22.36l.48,1.47-.74.24.26-1.71Z" class="ib"/></g></g><g id="gl" data-name="Group 4535"><g id="gm" data-name="t-50"><path d="m22.13,23.43h-1.55s0,.78,0,.78l1.55-.78Z" class="ib"/></g><g id="gn" data-name="Path 2992"><path d="m22.13,23.43l-1.25.91-.46-.63,1.71-.29Z" class="ib"/></g></g></g></g></g><g id="go" data-name="Group 4559"><g id="gp" data-name="c-11"><g id="gq" data-name="t-51"><path d="m16,23.6l-.48,1.47.74.24-.26-1.71Z" class="ib"/></g><g id="gr" data-name="Path 2938"><path d="m16,23.6l.48,1.47-.74.24.26-1.71Z" class="ib"/></g></g><g id="gs" data-name="a-11"><g id="gt" data-name="Group 4472"><g id="gu" data-name="t-52"><path d="m17.47,24.67h-1.55v.77l1.55-.77Z" class="ib"/></g><g id="gv" data-name="Path 2939"><path d="m17.47,24.67l-1.25.91-.46-.63,1.71-.28Z" class="ib"/></g></g><g id="gw" data-name="Group 4473"><g id="gx" data-name="t-53"><path d="m16.91,26.41l-.48-1.47-.74.24,1.22,1.24Z" class="ib"/></g><g id="gy" data-name="Path 2940"><path d="m16.91,26.41l-1.25-.91.46-.63.8,1.54Z" class="ib"/></g></g></g><g id="gz" data-name="Group 4476"><g id="ha" data-name="Group 4474"><g id="hb" data-name="t-54"><path d="m14.53,24.68h1.55v.77l-1.55-.77Z" class="ib"/></g><g id="hc" data-name="Path 2941"><path d="m14.53,24.68l1.25.91.46-.63-1.71-.28Z" class="ib"/></g></g><g id="hd" data-name="Group 4475"><g id="he" data-name="t-55"><path d="m15.09,26.41l.48-1.47.74.24-1.22,1.24Z" class="ib"/></g><g id="hf" data-name="Path 2942"><path d="m15.09,26.41l1.25-.91-.46-.63-.8,1.54Z" class="ib"/></g></g></g></g><g id="hg" data-name="Group 4560"><g id="hh" data-name="c-12"><g id="hi" data-name="t-56"><path d="m16,5.01l-.48,1.47.74.24-.26-1.71Z" class="ib"/></g><g id="hj" data-name="Path 2933"><path d="m16,5.01l.48,1.47-.74.24.26-1.71Z" class="ib"/></g></g><g id="hk" data-name="a-12"><g id="hl" data-name="Group 4466"><g id="hm" data-name="t-57"><path d="m17.47,6.08h-1.55v.77l1.55-.77Z" class="ib"/></g><g id="hn" data-name="Path 2934"><path d="m17.47,6.08l-1.25.91-.46-.63,1.71-.28Z" class="ib"/></g></g><g id="ho" data-name="Group 4467"><g id="hp" data-name="t-58"><path d="m16.91,7.81l-.48-1.47-.74.24,1.22,1.24Z" class="ib"/></g><g id="hq" data-name="Path 2935"><path d="m16.91,7.81l-1.25-.91.46-.63.8,1.54Z" class="ib"/></g></g></g><g id="hr" data-name="Group 4470"><g id="hs" data-name="Group 4468"><g id="ht" data-name="t-59"><path d="m14.53,6.08h1.55v.77l-1.55-.77Z" class="ib"/></g><g id="hu" data-name="Path 2936"><path d="m14.53,6.08l1.25.91.46-.63-1.71-.28Z" class="ib"/></g></g><g id="hv" data-name="Group 4469"><g id="hw" data-name="t-60"><path d="m15.09,7.81l.48-1.47.74.24-1.22,1.24Z" class="ib"/></g><g id="hx" data-name="Path 2937"><path d="m15.09,7.81l1.25-.91-.46-.63-.8,1.54Z" class="ib"/></g></g></g></g></g></g></g><path d="m5.59,26.54c-2.79-2.79-4.33-6.5-4.33-10.44C1.26,7.95,7.89,1.33,16.03,1.33c3.91,0,7.59,1.51,10.38,4.26l-1.05,1.07c-2.5-2.47-5.81-3.83-9.32-3.83-7.32,0-13.27,5.95-13.27,13.27,0,3.54,1.38,6.87,3.89,9.38l-1.06,1.06Z" class="ic"/><path d="m16.03,30.86c-3.89,0-7.72-1.6-10.5-4.39l1.06-1.06c2.51,2.51,5.95,3.95,9.44,3.95,7.32,0,13.27-5.95,13.27-13.27,0-3.58-1.4-6.93-3.95-9.44l1.05-1.07c2.83,2.8,4.39,6.53,4.39,10.51,0,8.14-6.62,14.77-14.77,14.77Z" class="ib"/></g></g><g><path d="m32.73,9.36c-6.25,0-11.31,5.07-11.31,11.32s5.06,11.32,11.31,11.32,11.32-5.07,11.32-11.32-5.07-11.32-11.32-11.32Zm0,21.64c-5.69,0-10.31-4.63-10.31-10.32s4.62-10.32,10.31-10.32,10.32,4.63,10.32,10.32-4.63,10.32-10.32,10.32Z" class="ic"/><path d="m43.05,20.68c0,5.69-4.63,10.32-10.32,10.32s-10.31-4.63-10.31-10.32,4.62-10.32,10.31-10.32,10.32,4.63,10.32,10.32Z" class="ia"/></g><g><path d="m31.46,18.3h-3.82v1.72c.17-.19.4-.34.7-.45.3-.11.63-.16.98-.16.57,0,1.04.13,1.43.38.38.25.67.59.85,1.01.18.42.28.89.28,1.4,0,.93-.26,1.66-.78,2.2-.52.54-1.25.81-2.2.81-.64,0-1.2-.11-1.67-.34-.47-.23-.84-.55-1.09-.95-.26-.41-.39-.88-.41-1.42h2c.04.27.15.5.33.67s.43.26.74.26c.36,0,.63-.12.81-.35.18-.23.27-.54.27-.92s-.1-.65-.29-.85c-.19-.2-.46-.3-.8-.3-.26,0-.48.06-.66.17-.18.12-.3.27-.36.45h-1.99v-5.14h5.68v1.8Z" class="ic"/><path d="m37.31,25.18l-1.37-1.91-1.12,1.91h-2.26l2.22-3.49-2.3-3.2h2.3l1.36,1.88,1.12-1.88h2.26l-2.27,3.41,2.36,3.29h-2.3Z" class="ic"/></g></svg>