<svg xmlns="http://www.w3.org/2000/svg" width="256" height="256" fill="none" viewBox="0 0 256 256"><circle cx="128" cy="128" r="128" fill="url(#paint0_linear_8970_9334)"/><path fill="#000" stroke="#000" stroke-linejoin="round" stroke-width="2.73" d="M153.253 183.966L127.317 159.396L104.112 183.966H153.253Z"/><path stroke="#000" stroke-linejoin="round" stroke-width="2.73" d="M183.284 183.966L71.3511 72.0336V183.966M183.284 183.966L86.3665 72.0336L71.3511 183.966M183.284 183.966L100.017 72.0336L71.3511 183.966M183.284 183.966L115.032 72.0336L71.3511 183.966M183.284 183.966L128.683 72.0336L71.3511 183.966M183.284 183.966L142.333 72.0336L71.3511 183.966M183.284 183.966L157.348 72.0336L71.3511 183.966M183.284 183.966L170.999 72.0336L71.3511 183.966M183.284 183.966L184.649 72.0336L71.3511 183.966"/><defs><linearGradient id="paint0_linear_8970_9334" x1="128" x2="128" y1="0" y2="256" gradientUnits="userSpaceOnUse"><stop stop-color="#0BC4FF"/><stop offset="1" stop-color="#BFFF0B"/></linearGradient></defs></svg>