<svg xmlns="http://www.w3.org/2000/svg" width="240" height="240" fill="none" viewBox="0 0 240 240"><g clip-path="url(#clip0_6308_4028)"><circle cx="120" cy="120" r="120" fill="#262626"/><circle cx="120" cy="120" r="93" fill="#010101"/><path fill="#fff" d="M150.486 144.677V94.7393C149.537 94.5741 149.072 94.8311 148.32 95.3206C142.971 98.7901 137.262 106.06 131.81 109.884C129.197 111.512 126.725 110.239 128.641 107.326L148.442 78.3892C155.179 73.9039 163.14 76.9757 163.923 85.2792C166.01 107.442 162.314 132.837 163.899 155.343C162.956 164.099 152.474 165.977 146.19 161.462C127.319 140.718 110.657 116.382 91.6631 95.957C91.0573 95.3023 89.5214 94.0907 89.5214 95.6572V145.289C90.4699 145.454 90.9349 145.203 91.6876 144.708C97.1213 141.159 102.69 134.042 108.197 130.144C110.81 128.517 113.282 129.789 111.366 132.702L91.5652 161.639C84.8281 166.124 76.8672 163.053 76.084 154.749C73.9974 132.586 77.6933 107.192 76.1084 84.6857C76.9835 75.7396 88.5301 73.7142 94.3922 79.2091L148.381 144.041L150.492 144.677H150.486Z"/><g filter="url(#filter0_d_6308_4028)"><circle cx="167" cy="175" r="40" fill="#fff"/><circle cx="167" cy="175" r="35.857" fill="#000"/><circle cx="149.104" cy="161.133" r="3.112" fill="#D9D9D9"/><circle cx="157.433" cy="161.133" r="3.112" fill="#D9D9D9"/><circle cx="149.104" cy="168.578" r="3.112" fill="#D9D9D9"/><circle cx="157.433" cy="169.047" r="3.112" fill="#D9D9D9"/><circle cx="149.104" cy="175.867" r="3.112" fill="#D9D9D9"/><circle cx="150.564" cy="183.185" r="3.112" fill="#D9D9D9"/><circle cx="157.696" cy="176.961" r="3.112" fill="#D9D9D9"/><circle cx="160.811" cy="183.882" r="3.112" fill="#D9D9D9"/><circle cx="154.589" cy="189.409" r="3.112" fill="#D9D9D9"/><circle cx="3.112" cy="3.112" r="3.112" fill="#D9D9D9" transform="matrix(-1 0 0 1 190.074 158.021)"/><circle cx="3.112" cy="3.112" r="3.112" fill="#D9D9D9" transform="matrix(-1 0 0 1 181.745 158.021)"/><circle cx="3.112" cy="3.112" r="3.112" fill="#D9D9D9" transform="matrix(-1 0 0 1 190.074 165.466)"/><circle cx="3.112" cy="3.112" r="3.112" fill="#D9D9D9" transform="matrix(-1 0 0 1 181.745 165.935)"/><circle cx="3.112" cy="3.112" r="3.112" fill="#D9D9D9" transform="matrix(-1 0 0 1 190.074 172.755)"/><circle cx="3.112" cy="3.112" r="3.112" fill="#D9D9D9" transform="matrix(-1 0 0 1 188.615 180.073)"/><circle cx="3.112" cy="3.112" r="3.112" fill="#D9D9D9" transform="matrix(-1 0 0 1 181.482 173.849)"/><circle cx="3.112" cy="3.112" r="3.112" fill="#D9D9D9" transform="matrix(-1 0 0 1 178.375 180.77)"/><circle cx="3.112" cy="3.112" r="3.112" fill="#D9D9D9" transform="matrix(-1 0 0 1 184.597 186.297)"/><circle cx="3.112" cy="3.112" r="3.112" fill="#D9D9D9" transform="matrix(-1 0 0 1 178.375 190.341)"/><circle cx="3.112" cy="3.112" r="3.112" fill="#D9D9D9" transform="matrix(-1 0 0 1 163.927 190.341)"/><circle cx="167.876" cy="194.747" r="3.112" fill="#D9D9D9"/><circle cx="167.876" cy="186.713" r="3.112" fill="#D9D9D9"/></g></g><defs><filter id="filter0_d_6308_4028" width="104" height="104" x="115" y="135" color-interpolation-filters="sRGB" filterUnits="userSpaceOnUse"><feFlood flood-opacity="0" result="BackgroundImageFix"/><feColorMatrix in="SourceAlpha" result="hardAlpha" type="matrix" values="0 0 0 0 0 0 0 0 0 0 0 0 0 0 0 0 0 0 127 0"/><feOffset dy="12"/><feGaussianBlur stdDeviation="6"/><feComposite in2="hardAlpha" operator="out"/><feColorMatrix type="matrix" values="0 0 0 0 0 0 0 0 0 0 0 0 0 0 0 0 0 0 0.15 0"/><feBlend in2="BackgroundImageFix" mode="normal" result="effect1_dropShadow_6308_4028"/><feBlend in="SourceGraphic" in2="effect1_dropShadow_6308_4028" mode="normal" result="shape"/></filter><clipPath id="clip0_6308_4028"><rect width="240" height="240" fill="#fff"/></clipPath></defs></svg>