<svg xmlns="http://www.w3.org/2000/svg" width="40" height="40" viewBox="0 0 40 40"><circle cx="20" cy="20" r="20" fill="#d9d9d9"/><rect width="28" height="28" x="6" y="6" fill="#000" rx="7.98" ry="7.98"/><g transform="translate(11.77477360931436, 11.32)"><svg xmlns="http://www.w3.org/2000/svg" width="16.45" height="17.36" viewBox="0 0 1465 1546"><path xmlns="http://www.w3.org/2000/svg" fill="#fff" fill-rule="evenodd" d="m1257.5 1247 155.2 139.1c-58.9 66.1-126.2 118.3-205.2 159.9l-97.8-183.6zM263.1 169.5c-306.5 252.7-351.5 707.6-99 1019.9 251.5 310.8 664.1 326.4 909.7 184.1l-102.1-191.4c-256.2 129.1-545.3 31.7-678.7-191.3-131.4-219.6-78.9-502.1 123.4-661.9 197.6-156 488.2-141.6 666.6 27.8 193 183.1 223.6 492.8 32.5 713.5l162 145.3c223.4-235.6 272.3-660.8 7.4-966.4C1026.8-48.7 571.5-84.7 263.1 169.5"/></svg></g></svg>