<svg xmlns="http://www.w3.org/2000/svg" xmlns:vectornator="http://vectornator.io" xmlns:xlink="http://www.w3.org/1999/xlink" style="fill-rule:nonzero;clip-rule:evenodd;stroke-linecap:round;stroke-linejoin:round" width="100%" height="100%" stroke-miterlimit="10" version="1.1" viewBox="0 0 500 500" xml:space="preserve"><clipPath id="ArtboardFrame"><rect width="500" height="500" x="0" y="0"/></clipPath><g id="Untitled" clip-path="url(#ArtboardFrame)" vectornator:layerName="Untitled"><path fill="#fff" fill-rule="evenodd" stroke="#aa7d50" stroke-linecap="butt" stroke-linejoin="miter" stroke-width="10" d="M8.29144 250C8.29144 115.226 117.547 5.9706 252.321 5.9706C387.095 5.9706 496.35 115.226 496.35 250C496.35 384.774 387.095 494.029 252.321 494.029C117.547 494.029 8.29144 384.774 8.29144 250Z" opacity="1"/><path fill="#aa7d50" fill-rule="evenodd" stroke="none" d="M191.755 133.044L191.755 205.587C202.924 199.59 213.623 193.594 223.735 187.716C234.081 181.602 244.427 175.605 254.656 169.844C266.179 176.076 277.466 182.307 288.753 188.539C300.04 194.77 311.327 201.236 322.849 208.056L344.835 221.224L344.835 324.571C341.073 326.922 337.31 329.156 333.666 331.155C329.903 333.154 326.141 335.388 322.026 337.739C310.856 343.97 299.922 350.319 288.517 356.786C277.348 363.253 266.179 369.837 255.009 376.538C239.96 367.72 224.91 359.137 209.978 350.437C195.047 341.854 179.997 333.154 164.948 324.336L164.948 218.049C164.948 201.119 165.065 184.071 165.065 167.14C165.183 150.21 165.183 133.867 164.948 118.465L164.948 117.877C174.824 122.815 183.76 127.753 191.755 133.044ZM255.479 200.708C244.78 206.704 234.081 212.7 223.617 218.814C213.153 225.046 202.454 231.277 191.755 237.391L191.755 309.934C202.454 316.165 213.153 322.396 223.617 328.275C234.081 334.271 244.545 340.385 254.892 346.617C265.591 340.62 276.29 333.624 286.754 327.51C297.218 321.396 307.917 316.047 318.616 309.934L318.616 237.391C307.917 231.16 297.453 225.163 287.107 219.049C276.643 212.936 266.179 206.822 255.479 200.708Z" opacity="1"/></g></svg>