<svg xmlns="http://www.w3.org/2000/svg" width="100" height="100" fill="none" viewBox="0 0 100 100"><circle cx="50" cy="50" r="48" fill="url(#paint0_linear_4643_75)" stroke="#fff" stroke-width="4"/><g opacity=".78"><path fill="#fff" d="M49.4814 16.0022L68.1662 46.859C67.2746 46.0972 64.0012 44.6115 58.8045 44.7638C52.3087 44.9543 42.0373 51.0495 35.878 51.0495C29.7186 51.0495 29.9553 50.0971 29 49.7162L49.4814 16.0022Z"/><path fill="#fff" d="M49.481 83.9992L29.9519 56.3805C30.6286 57.3328 33.7614 58.0947 37.1899 58.0947C43.4756 58.0947 53.1898 51.8091 59.6659 51.8091C65.9516 51.8091 68.4277 54.0948 70.142 55.2376L49.481 83.9992Z"/><path fill="#7591F2" fill-rule="evenodd" d="M49.4771 83.9953L49.4774 83.9958L70.1385 55.2342C69.9523 55.1101 69.7571 54.9725 69.5491 54.8258C67.8414 53.6219 65.2654 51.8056 59.6624 51.8056C56.7258 51.8056 53.1236 53.098 49.4771 54.5107V83.9953Z" clip-rule="evenodd"/><path fill="#7591F2" fill-rule="evenodd" d="M49.4771 47.1339C52.856 45.9021 56.1429 44.8372 58.7987 44.7594C63.9954 44.607 67.2688 46.0927 68.1604 46.8546L49.4771 16.0002V47.1339Z" clip-rule="evenodd"/></g><defs><linearGradient id="paint0_linear_4643_75" x1="89.113" x2="15.323" y1="18.145" y2="83.871" gradientUnits="userSpaceOnUse"><stop stop-color="#1F3FC8"/><stop offset="1" stop-color="#2F67EE"/></linearGradient></defs></svg>