<svg xmlns="http://www.w3.org/2000/svg" width="411" height="411" fill="none" viewBox="0 0 411 411"><g clip-path="url(#clip0_997_12384)"><mask id="mask0_997_12384" width="410" height="410" x="0" y="1" maskUnits="userSpaceOnUse" style="mask-type:luminance"><path fill="#fff" d="M410 1H0V411H410V1Z"/></mask><g mask="url(#mask0_997_12384)"><path fill="url(#paint0_linear_997_12384)" d="M205 411C318.219 411 410 319.218 410 206C410 92.7817 318.219 1 205 1C91.7817 1 0 92.7817 0 206C0 319.218 91.7817 411 205 411Z"/><path fill="#fff" fill-opacity=".6" d="M211.378 52.25V165.897L307.434 208.819L211.378 52.25Z"/><path fill="#fff" d="M211.379 52.25L115.311 208.819L211.379 165.897V52.25Z"/><path fill="#fff" fill-opacity=".6" d="M211.378 282.47V359.692L307.498 226.71L211.378 282.47Z"/><path fill="#fff" d="M211.379 359.692V282.458L115.311 226.71L211.379 359.692Z"/><path fill="#fff" fill-opacity=".2" d="M211.378 264.59L307.434 208.817L211.378 165.92V264.59Z"/><path fill="#fff" fill-opacity=".6" d="M115.311 208.817L211.379 264.59V165.92L115.311 208.817Z"/></g></g><defs><linearGradient id="paint0_linear_997_12384" x1="0" x2="410" y1="1" y2="411" gradientUnits="userSpaceOnUse"><stop stop-color="#596AEC"/><stop offset="1" stop-color="#60E2E9"/></linearGradient><clipPath id="clip0_997_12384"><rect width="410" height="410" fill="#fff" transform="translate(0.5 0.5)"/></clipPath></defs></svg>