<svg xmlns="http://www.w3.org/2000/svg" width="240" height="240" fill="none" viewBox="0 0 240 240"><g clip-path="url(#clip0_6308_3790)"><circle cx="120" cy="120" r="120" fill="#262626"/><circle cx="120" cy="120" r="93" fill="#D7E5FF"/><circle cx="130.257" cy="101.346" r="9.11" fill="#0033AC"/><circle cx="108.077" cy="139.37" r="9.11" fill="#0033AC"/><circle cx="141.176" cy="120.456" r="9.11" fill="#0033AC" transform="rotate(60 141.176 120.456)"/><circle cx="97.155" cy="120.259" r="9.11" fill="#0033AC" transform="rotate(60 97.1551 120.259)"/><circle cx="130.085" cy="139.468" r="9.11" fill="#0033AC" transform="rotate(120 130.085 139.468)"/><circle cx="108.245" cy="101.247" r="9.11" fill="#0033AC" transform="rotate(120 108.245 101.247)"/><circle cx="87.481" cy="102.138" r="5.941" fill="#0033AC"/><circle cx="95.403" cy="78.373" r="5.149" fill="#0033AC"/><circle cx="143.724" cy="160.757" r="5.149" fill="#0033AC"/><circle cx="143.158" cy="78.045" r="5.149" fill="#0033AC" transform="rotate(60 143.158 78.0454)"/><circle cx="95.968" cy="161.085" r="5.149" fill="#0033AC" transform="rotate(60 95.9684 161.085)"/><circle cx="167.318" cy="119.239" r="5.149" fill="#0033AC" transform="rotate(120 167.318 119.239)"/><circle cx="170.987" cy="90.369" r="4.226" fill="#0033AC" transform="rotate(120 170.987 90.3691)"/><circle cx="68.303" cy="150.291" r="4.226" fill="#0033AC" transform="rotate(120 68.303 150.291)"/><circle cx="171.265" cy="149.813" r="4.226" fill="#0033AC" transform="rotate(-180 171.265 149.813)"/><circle cx="68.024" cy="90.847" r="4.226" fill="#0033AC" transform="rotate(-180 68.0242 90.8472)"/><circle cx="119.922" cy="179.776" r="4.226" fill="#0033AC" transform="rotate(-120 119.922 179.776)"/><circle cx="119.365" cy="60.884" r="4.226" fill="#0033AC" transform="rotate(-120 119.365 60.8843)"/><circle cx="87.152" cy="62.963" r="3.786" fill="#0033AC" transform="rotate(-120 87.1521 62.9631)"/><circle cx="153.24" cy="62.953" r="3.786" fill="#0033AC" transform="rotate(-60 153.24 62.9531)"/><circle cx="153.254" cy="177.416" r="3.786" fill="#0033AC" transform="rotate(-120 153.254 177.416)"/><circle cx="87.169" cy="177.426" r="3.786" fill="#0033AC" transform="rotate(-60 87.1692 177.426)"/><circle cx="186.289" cy="120.181" r="3.786" fill="#0033AC"/><circle cx="54.122" cy="120.198" r="3.786" fill="#0033AC"/><circle cx="71.808" cy="119.892" r="5.149" fill="#0033AC" transform="rotate(120 71.8076 119.892)"/><circle cx="151.646" cy="139.369" r="5.941" fill="#0033AC"/><circle cx="119.641" cy="83.662" r="5.941" fill="#0033AC" transform="rotate(60 119.641 83.6617)"/><circle cx="119.48" cy="157.845" r="5.941" fill="#0033AC" transform="rotate(60 119.48 157.845)"/><circle cx="151.724" cy="102.277" r="5.941" fill="#0033AC" transform="rotate(120 151.724 102.277)"/><circle cx="87.398" cy="139.23" r="5.941" fill="#0033AC" transform="rotate(120 87.3979 139.23)"/><g filter="url(#filter0_d_6308_3790)"><circle cx="167" cy="175" r="40" fill="#fff"/><circle cx="167" cy="175" r="35.857" fill="#000"/><circle cx="149.104" cy="161.133" r="3.112" fill="#D9D9D9"/><circle cx="157.433" cy="161.133" r="3.112" fill="#D9D9D9"/><circle cx="149.104" cy="168.578" r="3.112" fill="#D9D9D9"/><circle cx="157.433" cy="169.047" r="3.112" fill="#D9D9D9"/><circle cx="149.104" cy="175.867" r="3.112" fill="#D9D9D9"/><circle cx="150.564" cy="183.185" r="3.112" fill="#D9D9D9"/><circle cx="157.696" cy="176.961" r="3.112" fill="#D9D9D9"/><circle cx="160.811" cy="183.882" r="3.112" fill="#D9D9D9"/><circle cx="154.589" cy="189.409" r="3.112" fill="#D9D9D9"/><circle cx="3.112" cy="3.112" r="3.112" fill="#D9D9D9" transform="matrix(-1 0 0 1 190.074 158.021)"/><circle cx="3.112" cy="3.112" r="3.112" fill="#D9D9D9" transform="matrix(-1 0 0 1 181.745 158.021)"/><circle cx="3.112" cy="3.112" r="3.112" fill="#D9D9D9" transform="matrix(-1 0 0 1 190.074 165.466)"/><circle cx="3.112" cy="3.112" r="3.112" fill="#D9D9D9" transform="matrix(-1 0 0 1 181.745 165.935)"/><circle cx="3.112" cy="3.112" r="3.112" fill="#D9D9D9" transform="matrix(-1 0 0 1 190.074 172.755)"/><circle cx="3.112" cy="3.112" r="3.112" fill="#D9D9D9" transform="matrix(-1 0 0 1 188.615 180.073)"/><circle cx="3.112" cy="3.112" r="3.112" fill="#D9D9D9" transform="matrix(-1 0 0 1 181.482 173.849)"/><circle cx="3.112" cy="3.112" r="3.112" fill="#D9D9D9" transform="matrix(-1 0 0 1 178.375 180.77)"/><circle cx="3.112" cy="3.112" r="3.112" fill="#D9D9D9" transform="matrix(-1 0 0 1 184.597 186.297)"/><circle cx="3.112" cy="3.112" r="3.112" fill="#D9D9D9" transform="matrix(-1 0 0 1 178.375 190.341)"/><circle cx="3.112" cy="3.112" r="3.112" fill="#D9D9D9" transform="matrix(-1 0 0 1 163.927 190.341)"/><circle cx="167.876" cy="194.747" r="3.112" fill="#D9D9D9"/><circle cx="167.876" cy="186.713" r="3.112" fill="#D9D9D9"/></g></g><defs><filter id="filter0_d_6308_3790" width="104" height="104" x="115" y="135" color-interpolation-filters="sRGB" filterUnits="userSpaceOnUse"><feFlood flood-opacity="0" result="BackgroundImageFix"/><feColorMatrix in="SourceAlpha" result="hardAlpha" type="matrix" values="0 0 0 0 0 0 0 0 0 0 0 0 0 0 0 0 0 0 127 0"/><feOffset dy="12"/><feGaussianBlur stdDeviation="6"/><feComposite in2="hardAlpha" operator="out"/><feColorMatrix type="matrix" values="0 0 0 0 0 0 0 0 0 0 0 0 0 0 0 0 0 0 0.15 0"/><feBlend in2="BackgroundImageFix" mode="normal" result="effect1_dropShadow_6308_3790"/><feBlend in="SourceGraphic" in2="effect1_dropShadow_6308_3790" mode="normal" result="shape"/></filter><clipPath id="clip0_6308_3790"><rect width="240" height="240" fill="#fff"/></clipPath></defs></svg>