<svg xmlns="http://www.w3.org/2000/svg" width="49" height="48" fill="none" viewBox="0 0 49 48"><circle cx="24.071" cy="23.866" r="22.253" fill="#000" stroke="#41CFCC" stroke-width="1.802"/><circle cx="41.359" cy="9.352" r="6.932" fill="#000" stroke="#41CFCC" stroke-width="1.253"/><path fill="url(#paint0_linear_7122_11782)" d="M37.8004 11.7289C38.167 12.2396 38.6372 12.6669 39.1803 12.9828C39.7233 13.2987 40.3269 13.4961 40.9515 13.562C40.6302 13.0777 40.1631 12.6322 39.58 12.293C38.9969 11.9539 38.3793 11.7686 37.8004 11.7289Z"/><path fill="url(#paint1_linear_7122_11782)" d="M40.3659 10.9431C39.2425 10.2895 38.0266 10.1229 37.1566 10.4172C37.2405 10.6952 37.3513 10.9643 37.4873 11.2209C38.2432 11.2033 39.0685 11.4089 39.8365 11.8556C40.6045 12.3023 41.1919 12.9188 41.5513 13.5853C41.8413 13.5763 42.1298 13.5393 42.4128 13.4748C42.2369 12.5723 41.4891 11.5968 40.3659 10.9431Z"/><path fill="url(#paint2_linear_7122_11782)" d="M45.7217 8.29053C45.5789 7.70871 45.3204 7.16168 44.9618 6.6821C44.6032 6.20252 44.1517 5.80024 43.6344 5.49926C43.1171 5.19828 42.5446 5.00479 41.9509 4.93032C41.3573 4.85586 40.7548 4.90197 40.1793 5.06588C41.1407 5.1837 42.2078 5.54512 43.2543 6.15397C44.3008 6.76281 45.1436 7.51202 45.7217 8.29053Z"/><path fill="url(#paint3_linear_7122_11782)" d="M44.3212 10.4237C43.8291 9.60526 42.9861 8.82159 41.9477 8.21747C40.9093 7.61332 39.8122 7.26825 38.8593 7.24542C38.0211 7.22554 37.3919 7.46958 37.1337 7.91481C37.1322 7.91745 37.1302 7.91994 37.1286 7.9226C37.1053 8.00611 37.0853 8.08975 37.0671 8.17372C37.4277 8.03115 37.8455 7.95177 38.3101 7.94292C39.3432 7.9235 40.4994 8.25443 41.5664 8.87519C42.6333 9.49598 43.4938 10.3383 43.9885 11.2464C44.2103 11.6555 44.3487 12.0583 44.4035 12.4431C44.4674 12.386 44.53 12.3269 44.5907 12.2655C44.5924 12.2627 44.5934 12.2598 44.595 12.2569C44.8533 11.8112 44.7534 11.1431 44.3212 10.4237Z"/><path fill="url(#paint4_linear_7122_11782)" d="M41.1557 9.57912C39.5655 8.65393 37.8082 8.509 36.9632 9.15467C36.9649 9.35677 36.9803 9.55851 37.0094 9.75852C37.258 9.68305 37.5141 9.63552 37.7732 9.61684C38.7175 9.54569 39.7586 9.80919 40.7033 10.3591C41.6481 10.909 42.3928 11.6846 42.799 12.5407C42.9113 12.7753 42.9969 13.0217 43.0543 13.2754C43.2422 13.2016 43.425 13.1151 43.6012 13.0166C43.7427 11.9615 42.7464 10.5045 41.1557 9.57912Z"/><path fill="url(#paint5_linear_7122_11782)" d="M45.1402 9.05313C44.6426 8.23559 43.7922 7.44971 42.7465 6.8416C41.7007 6.23349 40.5993 5.88297 39.6434 5.85484C38.9147 5.83378 38.3503 6.01066 38.0576 6.34483C39.2728 6.13864 40.8757 6.48519 42.4292 7.38903C43.9828 8.29289 45.0779 9.51587 45.5005 10.6751C45.6454 10.2552 45.5194 9.67655 45.1402 9.05313Z"/><rect width="1.262" height="4.645" x="34.533" y="16.89" fill="#41CFCC" rx=".631"/><rect width="1.262" height="4.645" x="34.533" y="26.237" fill="#41CFCC" rx=".631"/><rect width="1.262" height="23.282" x="17.791" y="12.244" fill="#41CFCC" rx=".631"/><rect width="1.262" height="4.645" x="17.791" y="36.157" fill="#41CFCC" rx=".631"/><rect width="1.262" height="4.645" x="17.791" y="7.198" fill="#41CFCC" rx=".631"/><rect width="1.262" height="23.282" x="19.912" y="12.244" fill="#41CFCC" rx=".631"/><rect width="1.262" height="4.645" x="19.912" y="36.157" fill="#41CFCC" rx=".631"/><rect width="1.262" height="4.645" x="19.912" y="7.198" fill="#41CFCC" rx=".631"/><rect width="1.262" height="4.645" x="21.984" y="12.245" fill="#41CFCC" rx=".631"/><rect width="1.262" height="4.645" x="21.984" y="21.535" fill="#41CFCC" rx=".631"/><rect width="1.262" height="4.645" x="21.984" y="30.882" fill="#41CFCC" rx=".631"/><rect width="1.261" height="4.685" x="28.306" y="12.243" fill="#41CFCC" rx=".631"/><rect width="1.261" height="4.685" x="28.306" y="21.523" fill="#41CFCC" rx=".631"/><rect width="1.261" height="4.595" x="28.306" y="30.892" fill="#41CFCC" rx=".631"/><rect width="1.262" height="4.645" x="15.72" y="12.245" fill="#41CFCC" rx=".631"/><rect width="1.262" height="4.645" x="15.72" y="30.882" fill="#41CFCC" rx=".631"/><rect width="1.262" height="4.645" x="13.632" y="12.245" fill="#41CFCC" rx=".631"/><rect width="1.262" height="4.645" x="13.632" y="30.882" fill="#41CFCC" rx=".631"/><rect width="1.262" height="4.645" x="24.074" y="21.534" fill="#41CFCC" rx=".631"/><rect width="1.262" height="4.645" x="24.099" y="36.157" fill="#41CFCC" rx=".631"/><rect width="1.262" height="4.645" x="24.101" y="7.198" fill="#41CFCC" rx=".631"/><rect width="1.262" height="4.645" x="24.101" y="30.882" fill="#41CFCC" rx=".631"/><rect width="1.262" height="4.645" x="24.101" y="12.244" fill="#41CFCC" rx=".631"/><rect width="1.262" height="4.645" x="26.185" y="21.534" fill="#41CFCC" rx=".631"/><rect width="1.262" height="4.645" x="26.162" y="36.157" fill="#41CFCC" rx=".631"/><rect width="1.262" height="4.645" x="26.162" y="7.198" fill="#41CFCC" rx=".631"/><rect width="1.262" height="4.645" x="26.162" y="30.882" fill="#41CFCC" rx=".631"/><rect width="1.262" height="4.645" x="26.162" y="12.244" fill="#41CFCC" rx=".631"/><rect width="1.262" height="23.282" x="30.407" y="12.244" fill="#41CFCC" rx=".631"/><rect width="1.262" height="18.637" x="32.471" y="14.653" fill="#41CFCC" rx=".631"/><defs><linearGradient id="paint0_linear_7122_11782" x1="42.792" x2="38.761" y1="6.66" y2="13.579" gradientUnits="userSpaceOnUse"><stop offset="0" stop-color="#C7F284"/><stop offset="1" stop-color="#00BEF0"/></linearGradient><linearGradient id="paint1_linear_7122_11782" x1="42.795" x2="38.764" y1="6.66" y2="13.58" gradientUnits="userSpaceOnUse"><stop offset="0" stop-color="#C7F284"/><stop offset="1" stop-color="#00BEF0"/></linearGradient><linearGradient id="paint2_linear_7122_11782" x1="42.797" x2="38.766" y1="6.661" y2="13.581" gradientUnits="userSpaceOnUse"><stop offset="0" stop-color="#C7F284"/><stop offset="1" stop-color="#00BEF0"/></linearGradient><linearGradient id="paint3_linear_7122_11782" x1="42.795" x2="38.764" y1="6.66" y2="13.58" gradientUnits="userSpaceOnUse"><stop offset="0" stop-color="#C7F284"/><stop offset="1" stop-color="#00BEF0"/></linearGradient><linearGradient id="paint4_linear_7122_11782" x1="42.793" x2="38.762" y1="6.66" y2="13.58" gradientUnits="userSpaceOnUse"><stop offset="0" stop-color="#C7F284"/><stop offset="1" stop-color="#00BEF0"/></linearGradient><linearGradient id="paint5_linear_7122_11782" x1="42.796" x2="38.765" y1="6.66" y2="13.579" gradientUnits="userSpaceOnUse"><stop offset="0" stop-color="#C7F284"/><stop offset="1" stop-color="#00BEF0"/></linearGradient></defs></svg>