<svg xmlns="http://www.w3.org/2000/svg" width="36" height="36" fill="none" viewBox="0 0 36 36"><g clip-path="url(#clip0_6938_17928)"><path fill="#6CF" d="M18 36C27.9411 36 36 27.9411 36 18C36 8.05887 27.9411 0 18 0C8.05887 0 0 8.05887 0 18C0 27.9411 8.05887 36 18 36Z"/><path fill="#fff" fill-opacity=".602" d="M18.5601 4.5V14.4788L26.9942 18.2475L18.5601 4.5Z"/><path fill="#fff" d="M18.5602 4.5L10.125 18.2475L18.5602 14.4788V4.5Z"/><path fill="#fff" fill-opacity=".602" d="M18.5601 24.7141V31.4945L26.9998 19.8181L18.5601 24.7141Z"/><path fill="#fff" d="M18.5602 31.4945V24.713L10.125 19.8181L18.5602 31.4945Z"/><path fill="#fff" fill-opacity=".2" d="M18.5601 23.1446L26.9942 18.2475L18.5601 14.481V23.1446Z"/><path fill="#fff" fill-opacity=".602" d="M10.125 18.2475L18.5602 23.1446V14.481L10.125 18.2475Z"/></g><defs><clipPath id="clip0_6938_17928"><rect width="36" height="36" fill="#fff"/></clipPath></defs></svg>