<svg xmlns="http://www.w3.org/2000/svg" width="64" height="64" fill="none" viewBox="0 0 64 64"><g clip-path="url(#clip0_56_2)"><mask id="mask0_56_2" width="64" height="64" x="0" y="0" maskUnits="userSpaceOnUse" style="mask-type:luminance"><path fill="#fff" d="M64 0H0V64H64V0Z"/></mask><g mask="url(#mask0_56_2)"><path fill="#A99482" stroke="#655343" stroke-width=".815" d="M31.9972 63.182C49.22 63.182 63.182 49.22 63.182 31.9972C63.182 14.7744 49.22 0.8125 31.9972 0.8125C14.7744 0.8125 0.8125 14.7744 0.8125 31.9972C0.8125 49.22 14.7744 63.182 31.9972 63.182Z"/><path fill="url(#paint0_linear_56_2)" d="M50.7634 22.5592L28.574 21.3984L13.2812 27.0996L27.4326 31.1818L50.7634 22.5592Z"/><path fill="url(#paint1_linear_56_2)" d="M27.4376 31.185L33.0416 48.1382L50.7686 22.5624L27.4376 31.185Z"/><path fill="url(#paint2_linear_56_2)" d="M27.4324 31.184L33.0364 48.1372L13.2812 27.1016L27.4324 31.184Z"/><mask id="mask1_56_2" width="24" height="27" x="27" y="22" maskUnits="userSpaceOnUse" style="mask-type:alpha"><path fill="url(#paint3_linear_56_2)" d="M27.4376 31.185L33.0416 48.1382L50.7686 22.5624L27.4376 31.185Z"/></mask><g mask="url(#mask1_56_2)"><g filter="url(#filter0_f_56_2)"><path fill="#CFC4BA" d="M52.5606 19.6641L33.0704 50.4444L36.0572 52.7764L56.782 22.2746L52.5606 19.6641Z"/></g></g></g></g><defs><filter id="filter0_f_56_2" width="26.565" height="35.966" x="31.644" y="18.237" color-interpolation-filters="sRGB" filterUnits="userSpaceOnUse"><feFlood flood-opacity="0" result="BackgroundImageFix"/><feBlend in="SourceGraphic" in2="BackgroundImageFix" mode="normal" result="shape"/><feGaussianBlur result="effect1_foregroundBlur_56_2" stdDeviation=".713"/></filter><linearGradient id="paint0_linear_56_2" x1="28.737" x2="27.351" y1="33.669" y2="21.276" gradientUnits="userSpaceOnUse"><stop stop-color="#F7F3EE"/><stop offset=".725" stop-color="#DBD0C6"/><stop offset="1" stop-color="#CCC1B7"/></linearGradient><linearGradient id="paint1_linear_56_2" x1="27.315" x2="37.18" y1="30.247" y2="39.745" gradientUnits="userSpaceOnUse"><stop stop-color="#A99482"/><stop offset="1"/></linearGradient><linearGradient id="paint2_linear_56_2" x1="29.226" x2="26.503" y1="47.367" y2="33.059" gradientUnits="userSpaceOnUse"><stop offset=".24" stop-color="#1D130B"/><stop offset=".957" stop-color="#352C26"/></linearGradient><linearGradient id="paint3_linear_56_2" x1="27.315" x2="37.18" y1="30.247" y2="39.745" gradientUnits="userSpaceOnUse"><stop stop-color="#A99482"/><stop offset="1" stop-color="#2F2823"/></linearGradient><clipPath id="clip0_56_2"><rect width="64" height="64" fill="#fff"/></clipPath></defs></svg>